ply
format ascii 1.0
element vertex 375
property double x
property double y
property double z
property double intensity
end_header
19.376712799072266 29.151048660278320 -5.696908950805664 23.000000000000000
19.410266876220703 29.417100906372070 -4.421082496643066 3.000000000000000
19.363397598266602 29.200609207153320 -4.706105232238770 10.000000000000000
19.399507522583008 29.341712951660156 -5.164077758789062 27.000000000000000
19.238809585571289 29.244888305664062 -4.701845645904541 12.000000000000000
19.239740371704102 29.333198547363281 -5.150133609771729 24.000000000000000
19.397182464599609 29.426307678222656 -5.736104965209961 27.000000000000000
19.325424194335938 29.534589767456055 -4.427555084228516 2.000000000000000
19.127159118652344 29.308561325073242 -4.700780391693115 9.000000000000000
19.181741714477539 29.479810714721680 -5.163496494293213 11.000000000000000
15.342739105224609 24.156717300415039 -4.201333045959473 2.000000000000000
15.063174247741699 24.258474349975586 -1.871576189994812 0.000000000000000
23.028320312500000 37.391040802001953 -4.917925357818604 14.000000000000000
14.921641349792480 24.347999572753906 -0.937341690063477 0.000000000000000
52.123737335205078 86.358787536621094 -8.363910675048828 8.000000000000000
51.155593872070312 86.176383972167969 -8.309702873229980 6.000000000000000
47.427959442138672 79.712890625000000 -8.049795150756836 6.000000000000000
34.462879180908203 58.275882720947266 -7.187618732452393 10.000000000000000
34.190715789794922 58.302299499511719 -7.175373077392578 10.000000000000000
19.081418991088867 32.743080139160156 -6.167903900146484 2.000000000000000
18.836835861206055 32.597442626953125 -6.127422332763672 2.000000000000000
17.516000747680664 30.569814682006836 -5.734177589416504 7.000000000000000
47.501194000244141 82.955184936523438 -8.111142158508301 6.000000000000000
26.295700073242188 46.254966735839844 -6.674440860748291 3.000000000000000
17.928516387939453 31.369665145874023 -4.853071212768555 1.000000000000000
17.284341812133789 30.326040267944336 -5.124568939208984 2.000000000000000
17.066450119018555 30.039941787719727 -5.623015403747559 2.000000000000000
47.168552398681641 83.112693786621094 -8.108774185180664 6.000000000000000
17.568683624267578 31.169216156005859 -4.488295078277588 2.000000000000000
17.410791397094727 30.724653244018555 -4.743379116058350 2.000000000000000
16.976423263549805 30.041196823120117 -5.065886497497559 3.000000000000000
48.576168060302734 86.866973876953125 -8.252519607543945 3.000000000000000
38.945652008056641 69.139961242675781 -7.501185894012451 10.000000000000000
16.989305496215820 30.238716125488281 -4.658714294433594 5.000000000000000
16.866205215454102 30.103214263916016 -5.065886497497559 9.000000000000000
16.841915130615234 29.899341583251953 -5.585104465484619 7.000000000000000
13.989621162414551 25.049955368041992 -0.500814259052277 1.000000000000000
17.227800369262695 30.828041076660156 -4.430044651031494 2.000000000000000
16.861001968383789 30.269613265991211 -4.653922080993652 1.000000000000000
16.705791473388672 30.074878692626953 -5.050779819488525 27.000000000000000
16.724514007568359 29.947082519531250 -5.582534313201904 5.000000000000000
17.068529129028320 30.807659149169922 -4.418095588684082 2.000000000000000
17.073827743530273 30.917701721191406 -4.743911743164062 1.000000000000000
16.503814697265625 29.969505310058594 -5.022891044616699 10.000000000000000
16.599843978881836 29.993806838989258 -5.579321384429932 5.000000000000000
44.013942718505859 80.586669921875000 -7.968868732452393 5.000000000000000
32.104942321777344 58.643306732177734 -7.097673892974854 13.000000000000000
16.915374755859375 30.796958923339844 -4.407640457153320 2.000000000000000
16.619625091552734 30.357622146606445 -4.648596763610840 1.000000000000000
16.394304275512695 30.043075561523438 -5.024633884429932 24.000000000000000
16.495496749877930 30.064828872680664 -5.581249237060547 4.000000000000000
26.723627090454102 49.358409881591797 -6.742597579956055 6.000000000000000
16.779611587524414 30.816919326782227 -4.401665687561035 2.000000000000000
16.285963058471680 30.106441497802734 -5.025214672088623 20.000000000000000
16.377645492553711 30.111213684082031 -5.578678607940674 7.000000000000000
26.533151626586914 49.438526153564453 -6.740212440490723 7.000000000000000
16.660892486572266 30.867733001708984 -4.400172233581543 2.000000000000000
17.352647781372070 32.255676269531250 -4.919631958007812 1.000000000000000
16.181119918823242 30.176397323608398 -5.026957988739014 18.000000000000000
16.278415679931641 30.191890716552734 -5.582534313201904 5.000000000000000
16.530794143676758 30.897098541259766 -4.395691394805908 2.000000000000000
17.217519760131836 32.287578582763672 -4.914839744567871 1.000000000000000
16.176952362060547 30.268760681152344 -5.585747241973877 5.000000000000000
16.419471740722656 30.974369049072266 -4.397682666778564 2.000000000000000
17.095359802246094 32.343460083007812 -4.913774967193604 1.000000000000000
16.077836990356445 30.249475479125977 -5.029281616210938 16.000000000000000
16.071447372436523 30.338312149047852 -5.587674617767334 5.000000000000000
16.326141357421875 31.072990417480469 -4.403159618377686 2.000000000000000
16.119401931762695 30.769449234008789 -4.665636062622070 1.000000000000000
15.972394943237305 30.318708419799805 -5.031024932861328 16.000000000000000
15.984003067016602 30.442455291748047 -5.596027851104736 4.000000000000000
52.846969604492188 101.782501220703125 -8.623154640197754 13.000000000000000
16.230470657348633 31.167823791503906 -4.408137798309326 2.000000000000000
16.013826370239258 30.842401504516602 -4.667766571044922 1.000000000000000
15.947256088256836 30.541927337646484 -5.058332920074463 11.000000000000000
15.899655342102051 30.553369522094727 -5.605665683746338 4.000000000000000
15.926070213317871 30.950237274169922 -4.675221443176270 3.000000000000000
15.853396415710449 30.635320663452148 -5.064143180847168 14.000000000000000
15.809280395507812 30.653543472290039 -5.613376617431641 2.000000000000000
46.209926605224609 89.922508239746094 -8.187676429748535 1.000000000000000
31.114601135253906 60.834671020507812 -7.121479988098145 2.000000000000000
24.376289367675781 47.801959991455078 -5.696550369262695 3.000000000000000
15.764533996582031 30.752315521240234 -5.073439121246338 9.000000000000000
15.853146553039551 31.017131805419922 -5.669279098510742 2.000000000000000
40.882606506347656 80.368362426757812 -7.825344562530518 5.000000000000000
26.863552093505859 52.964694976806641 -6.766383171081543 2.000000000000000
24.283607482910156 47.998409271240234 -6.271481513977051 2.000000000000000
15.678602218627930 30.862813949584961 -5.082154750823975 7.000000000000000
37.726715087890625 74.689437866210938 -7.585740566253662 4.000000000000000
23.737504959106445 47.349025726318359 -5.314723014831543 0.000000000000000
23.552173614501953 46.893512725830078 -5.469130516052246 0.000000000000000
24.223049163818359 47.955566406250000 -5.703729152679443 4.000000000000000
23.308029174804688 46.492355346679688 -6.063497066497803 5.000000000000000
23.754508972167969 47.123985290527344 -6.339463710784912 3.000000000000000
46.860008239746094 93.941452026367188 -8.096222877502441 22.000000000000000
37.340377807617188 74.602783203125000 -7.562989234924316 5.000000000000000
23.268108367919922 46.840450286865234 -5.248029232025146 0.000000000000000
23.611896514892578 47.271324157714844 -5.404597282409668 1.000000000000000
23.048673629760742 46.313472747802734 -5.391592502593994 0.000000000000000
23.440019607543945 46.831096649169922 -5.559731960296631 1.000000000000000
23.083869934082031 46.276824951171875 -5.590617656707764 0.000000000000000
22.646184921264648 45.536605834960938 -5.596694469451904 89.000000000000000
22.695533752441406 45.571968078613281 -5.800533294677734 3.000000000000000
22.676139831542969 45.648773193359375 -5.942597866058350 1.000000000000000
22.848697662353516 45.743389129638672 -6.142428874969482 3.000000000000000
22.924346923828125 46.063652038574219 -6.454382419586182 5.000000000000000
52.877567291259766 107.357315063476562 -5.769243240356445 7.000000000000000
23.373653411865234 47.367900848388672 -5.197748661041260 1.000000000000000
23.068149566650391 46.868282318115234 -5.241639614105225 0.000000000000000
23.078403472900391 46.630016326904297 -5.321568965911865 1.000000000000000
22.827747344970703 46.294166564941406 -5.379568099975586 0.000000000000000
22.884719848632812 46.143421173095703 -5.468097209930420 1.000000000000000
22.623355865478516 45.772869110107422 -5.519681930541992 0.000000000000000
22.462388992309570 45.605381011962891 -5.594506740570068 90.000000000000000
22.459762573242188 45.515853881835938 -5.782873630523682 48.000000000000000
22.413930892944336 45.539085388183594 -5.917584419250488 3.000000000000000
22.502960205078125 45.467330932617188 -6.094243526458740 5.000000000000000
36.579933166503906 74.441886901855469 -7.519290924072266 5.000000000000000
23.161420822143555 47.374576568603516 -5.189130783081055 2.000000000000000
23.317766189575195 47.572261810302734 -5.418842792510986 1.000000000000000
22.649183273315430 46.359645843505859 -5.377494812011719 0.000000000000000
22.675090789794922 46.144878387451172 -5.458384990692139 0.000000000000000
22.464185714721680 45.873340606689453 -5.521831512451172 1.000000000000000
22.284624099731445 45.665973663330078 -5.591881275177002 1.000000000000000
22.354898452758789 45.535427093505859 -5.680966854095459 165.000000000000000
22.294532775878906 45.601436614990234 -5.783326148986816 12.000000000000000
22.310735702514648 45.517742156982422 -6.089472770690918 8.000000000000000
51.955989837646484 106.989616394042969 -8.483839988708496 35.000000000000000
44.086872100830078 91.189949035644531 -8.007115364074707 19.000000000000000
22.952920913696289 47.387489318847656 -5.181296348571777 1.000000000000000
22.852602005004883 46.863082885742188 -5.231655120849609 0.000000000000000
22.670442581176758 46.683780670166016 -5.308137893676758 1.000000000000000
22.461780548095703 46.406536102294922 -5.373348236083984 0.000000000000000
22.465764999389648 46.145420074462891 -5.448672294616699 1.000000000000000
22.177858352661133 45.712070465087891 -5.492597103118896 4.000000000000000
22.127481460571289 45.768814086914062 -5.594506740570068 2.000000000000000
22.188581466674805 45.638801574707031 -5.683192729949951 14.000000000000000
22.267766952514648 45.663784027099609 -5.923142910003662 9.000000000000000
22.129877090454102 45.570629119873047 -6.085656166076660 8.000000000000000
22.773920059204102 47.460533142089844 -5.180121421813965 1.000000000000000
22.694538116455078 46.975196838378906 -5.234850406646729 0.000000000000000
22.488830566406250 46.745044708251953 -5.305695533752441 1.000000000000000
22.303583145141602 46.513664245605469 -5.376250743865967 1.000000000000000
22.299940109252930 46.234615325927734 -5.449516773223877 1.000000000000000
22.011884689331055 45.796627044677734 -5.493026733398438 4.000000000000000
22.028057098388672 45.734149932861328 -5.684973716735840 28.000000000000000
21.982015609741211 45.810214996337891 -5.789213180541992 200.000000000000000
22.084695816040039 45.712890625000000 -5.918973922729492 5.000000000000000
21.976474761962891 45.680065155029297 -6.089472770690918 8.000000000000000
12.362663269042969 25.812116622924805 -0.059941545128822 1.000000000000000
22.600053787231445 47.565605163574219 -5.182079792022705 1.000000000000000
22.522214889526367 47.058059692382812 -5.234850406646729 0.000000000000000
22.327625274658203 46.848705291748047 -5.308137893676758 1.000000000000000
22.228544235229492 46.796340942382812 -5.399470806121826 1.000000000000000
22.142335891723633 46.341163635253906 -5.452472686767578 1.000000000000000
21.869531631469727 45.930862426757812 -5.499475955963135 11.000000000000000
21.867134094238281 45.828929901123047 -5.686754226684570 101.000000000000000
21.805952072143555 45.894283294677734 -5.789213180541992 101.000000000000000
21.904998779296875 45.768444061279297 -5.915731430053711 4.000000000000000
21.815736770629883 45.774642944335938 -6.091381072998047 7.000000000000000
38.265892028808594 80.711364746093750 -7.579169750213623 24.000000000000000
22.476423263549805 47.756175994873047 -5.193831443786621 1.000000000000000
22.359813690185547 47.161869049072266 -5.237246036529541 0.000000000000000
22.157466888427734 46.933830261230469 -5.308544635772705 1.000000000000000
21.988050460815430 46.476181030273438 -5.458384990692139 1.000000000000000
21.694255828857422 45.996322631835938 -5.497756481170654 2.000000000000000
21.702413558959961 45.915962219238281 -5.687644958496094 101.000000000000000
21.661289215087891 46.024242401123047 -5.795552253723145 3.000000000000000
21.742202758789062 45.859191894531250 -5.917120933532715 4.000000000000000
21.668165206909180 45.897392272949219 -6.097105979919434 7.000000000000000
22.244327545166016 47.365993499755859 -5.250824928283691 0.000000000000000
21.951581954956055 46.942630767822266 -5.300405025482178 1.000000000000000
21.822624206542969 46.567264556884766 -5.459651947021484 1.000000000000000
21.555822372436523 46.140373229980469 -5.505494594573975 1.000000000000000
21.589174270629883 45.970939636230469 -5.921290397644043 4.000000000000000
21.509891510009766 45.998088836669922 -6.099968433380127 6.000000000000000
45.389186859130859 97.787109375000000 -8.106101036071777 53.000000000000000
21.670215606689453 46.686622619628906 -5.464296817779541 2.000000000000000
21.418294906616211 46.287647247314453 -5.513662815093994 0.000000000000000
21.501106262207031 46.189224243164062 -5.606758117675781 101.000000000000000
21.415418624877930 46.181999206542969 -5.701000213623047 200.000000000000000
21.515964508056641 46.153759002685547 -5.801891803741455 2.000000000000000
21.442327499389648 46.096588134765625 -5.927311897277832 3.000000000000000
21.379541397094727 46.159500122070312 -6.110941886901855 7.000000000000000
11.984344482421875 26.094213485717773 -0.997720777988434 0.000000000000000
38.008251190185547 82.317756652832031 -7.518066406250000 29.000000000000000
21.332994461059570 46.550216674804688 -5.535588741302490 0.000000000000000
21.361635208129883 46.332714080810547 -5.614634037017822 5.000000000000000
21.270895004272461 46.314361572265625 -5.707677841186523 101.000000000000000
21.409967422485352 46.369419097900391 -5.819098472595215 1.000000000000000
21.294841766357422 46.221786499023438 -5.933333873748779 2.000000000000000
21.682243347167969 46.993587493896484 -6.492220401763916 5.000000000000000
47.066028594970703 103.377357482910156 -8.540678024291992 12.000000000000000
11.773731231689453 26.397102355957031 -0.116027802228928 1.000000000000000
33.536651611328125 75.282127380371094 -7.152338027954102 37.000000000000000
46.087787628173828 104.253440856933594 -8.570669174194336 12.000000000000000
33.625583648681641 76.232192993164062 -7.230843544006348 35.000000000000000
29.190628051757812 66.789283752441406 -7.031315326690674 8.000000000000000
11.493553161621094 26.562578201293945 -0.560779035091400 21.000000000000000
11.388856887817383 26.500631332397461 -0.669677913188934 0.000000000000000
47.148471832275391 110.655769348144531 -8.811826705932617 2.000000000000000
37.882698059082031 88.797561645507812 -8.004946708679199 3.000000000000000
32.228076934814453 75.331687927246094 -7.110836982727051 34.000000000000000
46.532779693603516 111.469635009765625 -8.849235534667969 18.000000000000000
29.177795410156250 70.167633056640625 -6.889101982116699 52.000000000000000
10.754365921020508 26.323871612548828 -0.059556178748608 1.000000000000000
37.897445678710938 93.152870178222656 -8.144409179687500 2.000000000000000
24.566415786743164 61.463970184326172 -6.641806125640869 14.000000000000000
10.468488693237305 26.464672088623047 -0.059606444090605 51.000000000000000
32.089485168457031 83.369728088378906 -7.752717971801758 5.000000000000000
39.360771179199219 103.503662109375000 -8.540049552917480 3.000000000000000
38.943229675292969 104.330444335937500 -8.373325347900391 32.000000000000000
21.577672958374023 58.213344573974609 -6.470491409301758 37.000000000000000
34.622276306152344 94.979469299316406 -8.187029838562012 5.000000000000000
30.282369613647461 83.191101074218750 -7.683204174041748 7.000000000000000
28.293087005615234 77.528251647949219 -7.481732368469238 4.000000000000000
20.896240234375000 57.587005615234375 -3.189112901687622 6.000000000000000
21.117721557617188 58.413494110107422 -3.353077650070190 7.000000000000000
30.406354904174805 84.493896484375000 -7.793180942535400 5.000000000000000
30.125848770141602 84.687385559082031 -7.800789833068848 5.000000000000000
29.294441223144531 85.357833862304688 -7.831915855407715 5.000000000000000
18.651897430419922 54.627021789550781 -6.352342128753662 16.000000000000000
24.803153991699219 73.565147399902344 -7.338567256927490 6.000000000000000
14.736612319946289 45.306194305419922 -5.976427555084229 31.000000000000000
28.137729644775391 87.157676696777344 -2.302319288253784 8.000000000000000
27.556396484375000 85.356971740722656 -7.784189701080322 8.000000000000000
27.678417205810547 86.822082519531250 -2.290759325027466 11.000000000000000
16.789926528930664 52.883712768554688 -6.321720600128174 8.000000000000000
25.964120864868164 82.912452697753906 -7.708226680755615 29.000000000000000
18.426649093627930 58.900356292724609 -6.791641712188721 2.000000000000000
17.718729019165039 62.454360961914062 -6.892023563385010 8.000000000000000
14.025697708129883 49.625263214111328 -6.194908142089844 101.000000000000000
17.167163848876953 67.339645385742188 -7.107906818389893 14.000000000000000
18.110309600830078 72.679710388183594 -7.080333709716797 12.000000000000000
17.741346359252930 72.327903747558594 -7.039679050445557 12.000000000000000
14.590847015380859 65.609100341796875 -7.004965305328369 21.000000000000000
14.231732368469238 66.521034240722656 -6.825912475585938 9.000000000000000
13.634428024291992 63.930931091308594 -6.939741134643555 10.000000000000000
5.979886531829834 33.976036071777344 -2.194627761840820 2.000000000000000
5.806108474731445 33.240093231201172 -3.255060672760010 1.000000000000000
5.804677009582520 33.612487792968750 -3.026237249374390 6.000000000000000
5.387206077575684 33.535991668701172 -3.960033655166626 1.000000000000000
-27.351369857788086 42.431255340576172 -4.185921669006348 5.000000000000000
-8.591064453125000 12.360465049743652 -2.021846771240234 1.000000000000000
-33.051185607910156 46.158599853515625 -3.939976453781128 10.000000000000000
-8.563823699951172 11.037241935729980 -4.016906738281250 9.000000000000000
-8.775430679321289 11.075015068054199 -0.708390474319458 12.000000000000000
-23.281053543090820 10.664315223693848 -1.579669594764709 101.000000000000000
-22.915637969970703 10.382448196411133 -1.309665799140930 101.000000000000000
-23.057100296020508 10.426190376281738 -1.609783053398132 11.000000000000000
-10.402532577514648 3.539085626602173 -5.123824119567871 2.000000000000000
-13.146514892578125 2.015931844711304 -2.428084850311279 1.000000000000000
-16.240137100219727 2.167475700378418 -4.711077690124512 5.000000000000000
-16.400943756103516 0.914657413959503 -4.723236560821533 12.000000000000000
-4.826057910919189 -0.078675918281078 -0.112061724066734 1.000000000000000
-5.560020923614502 -0.104621008038521 -0.182534277439117 0.000000000000000
-5.530974388122559 -0.120297849178314 -0.202859565615654 9.000000000000000
-5.044415473937988 -0.279553830623627 -0.448226690292358 9.000000000000000
-5.645589828491211 -0.368843346834183 -0.403558701276779 1.000000000000000
-5.201714992523193 -0.475133597850800 -0.081143386662006 98.000000000000000
-5.100522518157959 -0.471543401479721 -0.375257402658463 1.000000000000000
-10.971866607666016 -1.110806822776794 -5.142419338226318 2.000000000000000
-18.352146148681641 -6.695598125457764 -4.713483333587646 9.000000000000000
-21.303579330444336 -8.772867202758789 -4.206046581268311 7.000000000000000
-21.515579223632812 -8.952546119689941 -2.248008251190186 1.000000000000000
-20.411369323730469 -10.064002990722656 -4.730271816253662 7.000000000000000
-29.115694046020508 -20.853231430053711 -3.246646642684937 2.000000000000000
-33.306255340576172 -24.015928268432617 -4.120227813720703 2.000000000000000
-31.361669540405273 -23.221649169921875 -2.181728124618530 6.000000000000000
-32.897560119628906 -24.923576354980469 -4.221438884735107 4.000000000000000
-31.119510650634766 -23.763414382934570 -0.833856761455536 1.000000000000000
-32.194488525390625 -25.717103958129883 -4.214519977569580 24.000000000000000
-27.312425613403320 -22.749383926391602 -3.980817079544067 4.000000000000000
-27.359512329101562 -22.686889648437500 -4.049505710601807 3.000000000000000
-27.160997390747070 -22.616825103759766 -4.120769500732422 0.000000000000000
-27.161861419677734 -22.524585723876953 -4.238872051239014 0.000000000000000
-27.177860260009766 -22.754858016967773 -3.900752782821655 0.000000000000000
-27.151123046875000 -22.682542800903320 -4.030940532684326 6.000000000000000
-26.984638214111328 -22.545057296752930 -4.224082469940186 1.000000000000000
-27.316122055053711 -22.985204696655273 -3.859349012374878 0.000000000000000
-27.042613983154297 -22.810737609863281 -3.893314599990845 0.000000000000000
-27.100967407226562 -22.742017745971680 -3.962119579315186 0.000000000000000
-26.915769577026367 -22.653947830200195 -4.008299827575684 1.000000000000000
-27.022209167480469 -22.677536010742188 -4.112895011901855 1.000000000000000
-26.828908920288086 -22.582426071166992 -4.212633132934570 2.000000000000000
-27.333530426025391 -23.123989105224609 -3.800937652587891 0.000000000000000
-27.125522613525391 -22.995157241821289 -3.844302177429199 0.000000000000000
-26.883083343505859 -22.845325469970703 -3.882375717163086 0.000000000000000
-26.920289993286133 -22.759067535400391 -3.947873353958130 0.000000000000000
-26.790126800537109 -22.716455459594727 -4.001960277557373 0.000000000000000
-26.814519882202148 -22.671243667602539 -4.093903064727783 1.000000000000000
-26.697488784790039 -22.639516830444336 -4.204999446868896 3.000000000000000
-27.236492156982422 -23.213695526123047 -3.799248695373535 0.000000000000000
-27.013837814331055 -23.071184158325195 -3.840432882308960 0.000000000000000
-26.781042098999023 -22.928203582763672 -3.879750728607178 0.000000000000000
-26.758007049560547 -22.790563583374023 -3.936298608779907 0.000000000000000
-26.665328979492188 -22.771123886108398 -3.995167970657349 1.000000000000000
-26.749380111694336 -22.784851074218750 -4.096682548522949 2.000000000000000
-26.608299255371094 -22.732051849365234 -4.204045295715332 3.000000000000000
-26.534696578979492 -22.728536605834961 -4.382746696472168 200.000000000000000
-35.425739288330078 -30.570043563842773 -4.151399135589600 20.000000000000000
-27.087846755981445 -23.258955001831055 -3.790380954742432 0.000000000000000
-26.886903762817383 -23.133714675903320 -3.834414005279541 0.000000000000000
-26.657693862915039 -22.992433547973633 -3.874062299728394 0.000000000000000
-26.641117095947266 -22.860008239746094 -3.931401729583740 0.000000000000000
-26.524457931518555 -22.819452285766602 -3.986564874649048 1.000000000000000
-26.623495101928711 -22.846496582031250 -4.090197563171387 2.000000000000000
-26.527805328369141 -22.832019805908203 -4.204522609710693 4.000000000000000
-26.433191299438477 -22.810075759887695 -4.379759788513184 200.000000000000000
-28.313400268554688 -24.602056503295898 -3.545625209808350 0.000000000000000
-28.180381774902344 -24.424392700195312 -3.669644117355347 1.000000000000000
-26.966321945190430 -23.326848983764648 -3.785313606262207 0.000000000000000
-26.795913696289062 -23.226907730102539 -3.833554267883301 0.000000000000000
-26.582239151000977 -23.097818374633789 -3.875375032424927 0.000000000000000
-26.512033462524414 -22.918516159057617 -3.924723863601685 0.000000000000000
-26.443637847900391 -22.919128417968750 -3.987017631530762 1.000000000000000
-26.410331726074219 -22.832197189331055 -4.070279121398926 2.000000000000000
-26.359935760498047 -22.856241226196289 -4.191164493560791 5.000000000000000
-27.960630416870117 -24.467342376708984 -3.512122869491577 1.000000000000000
-27.545101165771484 -23.988512039184570 -3.523531198501587 0.000000000000000
-28.063680648803711 -24.503950119018555 -3.666118621826172 1.000000000000000
-28.014070510864258 -24.398635864257812 -3.727654218673706 0.000000000000000
-27.142461776733398 -23.596231460571289 -3.748365402221680 1.000000000000000
-26.872735977172852 -23.410371780395508 -3.783624172210693 0.000000000000000
-26.665679931640625 -23.285715103149414 -3.827105522155762 0.000000000000000
-26.403879165649414 -22.994644165039062 -3.921162843704224 1.000000000000000
-26.356462478637695 -23.013282775878906 -3.986564874649048 2.000000000000000
-26.299509048461914 -22.905353546142578 -4.066110134124756 11.000000000000000
-26.255054473876953 -22.934406280517578 -4.187824726104736 13.000000000000000
-26.316465377807617 -22.878152847290039 -4.374282836914062 106.000000000000000
-27.929872512817383 -24.504188537597656 -3.584215641021729 0.000000000000000
-27.943796157836914 -24.580343246459961 -3.662201404571533 1.000000000000000
-27.951374053955078 -24.524780273437500 -3.731248617172241 1.000000000000000
-27.877105712890625 -24.532039642333984 -3.798155546188354 1.000000000000000
-27.049800872802734 -23.690320968627930 -3.747536182403564 2.000000000000000
-26.780769348144531 -23.503473281860352 -3.782779693603516 0.000000000000000
-26.621950149536133 -23.420072555541992 -3.833124160766602 0.000000000000000
-26.268955230712891 -23.107095718383789 -3.986111879348755 1.000000000000000
-26.272117614746094 -23.051385879516602 -4.074911594390869 11.000000000000000
-26.149944305419922 -23.012125015258789 -4.184484958648682 18.000000000000000
-26.223472595214844 -22.966619491577148 -4.372788906097412 16.000000000000000
-27.871395111083984 -24.698442459106445 -3.664551973342896 1.000000000000000
-27.843414306640625 -24.611246109008789 -3.728852510452271 1.000000000000000
-27.769138336181641 -24.618202209472656 -3.795713186264038 3.000000000000000
-26.953847885131836 -23.781404495239258 -3.746292591094971 1.000000000000000
-26.700399398803711 -23.606746673583984 -3.783624172210693 0.000000000000000
-26.497240066528320 -23.483203887939453 -3.827535629272461 0.000000000000000
-26.198961257934570 -23.216403961181641 -3.988376140594482 1.000000000000000
-26.169597625732422 -23.131731033325195 -4.072131633758545 3.000000000000000
-26.074340820312500 -23.115711212158203 -4.185915946960449 15.000000000000000
-26.124246597290039 -23.049446105957031 -4.370300292968750 22.000000000000000
-28.635807037353516 -25.499231338500977 -3.847463369369507 1.000000000000000
-27.708398818969727 -24.746330261230469 -3.799783468246460 2.000000000000000
-26.881366729736328 -23.893255233764648 -3.748365402221680 0.000000000000000
-26.631523132324219 -23.720317840576172 -3.786158084869385 0.000000000000000
-26.461421966552734 -23.625186920166016 -3.834843873977661 2.000000000000000
-26.043090820312500 -23.190504074096680 -4.065646648406982 2.000000000000000
-26.004249572753906 -23.224357604980469 -4.188301563262939 6.000000000000000
-28.147029876708984 -25.324123382568359 -3.872637033462524 3.000000000000000
-26.766939163208008 -23.967727661132812 -3.744633674621582 7.000000000000000
-26.538486480712891 -23.812458038330078 -3.785313606262207 1.000000000000000
-26.105800628662109 -23.418451309204102 -4.088807582855225 13.000000000000000
-26.098203659057617 -23.644489288330078 -4.012374877929688 3.000000000000000
-26.005046844482422 -23.500663757324219 -4.086491584777832 101.000000000000000
-27.364095687866211 -24.985109329223633 -3.790015220642090 3.000000000000000
-26.951568603515625 -25.257905960083008 -4.136631011962891 0.000000000000000
-27.105802536010742 -25.290712356567383 -4.223838806152344 0.000000000000000
-26.921455383300781 -25.129272460937500 -4.423980236053467 2.000000000000000
-27.373323440551758 -25.842254638671875 -4.215873241424561 2.000000000000000
-27.487848281860352 -25.836286544799805 -4.298099994659424 1.000000000000000
-27.316175460815430 -25.799114227294922 -4.380633831024170 1.000000000000000
-27.765230178833008 -26.405374526977539 -4.291109085083008 3.000000000000000
-27.935527801513672 -26.450559616088867 -4.383228778839111 1.000000000000000
-27.681978225708008 -26.337244033813477 -4.454748153686523 3.000000000000000
-27.610155105590820 -26.153478622436523 -4.568535804748535 3.000000000000000
