ply
format ascii 1.0
element vertex 624
property double x
property double y
property double z
property double intensity
end_header
15.524953842163086 23.503744125366211 -1.954895377159119 1.000000000000000
15.496995925903320 23.326620101928711 -5.112627029418945 1.000000000000000
15.474167823791504 23.981779098510742 -2.697897434234619 200.000000000000000
15.320296287536621 24.099992752075195 -1.486630678176880 2.000000000000000
15.284830093383789 24.044200897216797 -1.922354578971863 2.000000000000000
15.372394561767578 24.226757049560547 -0.666149854660034 4.000000000000000
15.328303337097168 24.201129913330078 -3.041256904602051 3.000000000000000
14.919672012329102 24.257272720336914 -2.361356973648071 10.000000000000000
52.046051025390625 97.633483886718750 -8.532668113708496 2.000000000000000
40.886173248291016 77.554100036621094 -7.778217792510986 14.000000000000000
52.569587707519531 103.405517578125000 -8.498235702514648 40.000000000000000
40.273097991943359 80.381462097167969 -7.802518844604492 5.000000000000000
12.637424468994141 25.738178253173828 -1.327122092247009 0.000000000000000
55.681205749511719 113.830406188964844 -8.794398307800293 29.000000000000000
55.957576751708984 116.110450744628906 -7.951052188873291 6.000000000000000
55.419170379638672 115.399848937988281 -8.143892288208008 39.000000000000000
55.431602478027344 115.260719299316406 -8.629457473754883 9.000000000000000
55.438758850097656 116.120223999023438 -7.937753677368164 6.000000000000000
54.942676544189453 115.490447998046875 -8.136019706726074 25.000000000000000
55.251701354980469 115.484664916992188 -8.390960693359375 31.000000000000000
55.049983978271484 115.549591064453125 -8.635920524597168 12.000000000000000
54.553054809570312 115.763275146484375 -8.141098976135254 21.000000000000000
54.708396911621094 115.433914184570312 -8.372648239135742 72.000000000000000
54.610996246337891 115.770927429199219 -8.636728286743164 11.000000000000000
46.894412994384766 99.394416809082031 -8.051375389099121 1.000000000000000
35.324024200439453 74.429100036621094 -7.468731880187988 5.000000000000000
54.323951721191406 115.716758728027344 -8.378664970397949 38.000000000000000
54.301197052001953 116.216194152832031 -8.655038833618164 12.000000000000000
54.049148559570312 116.290084838867188 -8.405088424682617 29.000000000000000
37.364856719970703 80.842727661132812 -7.556849002838135 26.000000000000000
33.300064086914062 71.768356323242188 -7.325589656829834 4.000000000000000
47.985317230224609 104.693138122558594 -7.770470619201660 5.000000000000000
47.793640136718750 104.255714416503906 -8.402083396911621 16.000000000000000
38.249465942382812 83.091529846191406 -7.407912731170654 17.000000000000000
47.254871368408203 104.105155944824219 -7.713922500610352 3.000000000000000
47.076423645019531 103.692794799804688 -8.342755317687988 49.000000000000000
36.937248229980469 80.692832946777344 -7.530131816864014 28.000000000000000
11.810285568237305 26.269262313842773 -0.336817860603333 0.000000000000000
46.876262664794922 104.284934997558594 -7.714461326599121 4.000000000000000
46.766117095947266 103.662277221679688 -8.111871719360352 101.000000000000000
46.668251037597656 103.802787780761719 -8.337786674499512 88.000000000000000
36.598461151123047 80.733291625976562 -7.521339416503906 27.000000000000000
46.616489410400391 103.842712402343750 -7.899615764617920 34.000000000000000
46.393993377685547 103.851196289062500 -8.113294601440430 101.000000000000000
43.545543670654297 97.020011901855469 -8.406825065612793 5.000000000000000
46.527805328369141 104.532615661621094 -7.720116138458252 3.000000000000000
46.261508941650391 104.071220397949219 -7.904047012329102 25.000000000000000
46.105041503906250 104.228507995605469 -8.129516601562500 14.000000000000000
46.295280456542969 104.039527893066406 -8.342463493347168 50.000000000000000
45.969226837158203 104.492805480957031 -7.922601699829102 71.000000000000000
45.971549987792969 104.339935302734375 -8.352984428405762 26.000000000000000
43.365505218505859 100.158996582031250 -8.417327880859375 2.000000000000000
45.127193450927734 104.889961242675781 -8.585664749145508 12.000000000000000
31.522825241088867 72.991691589355469 -7.053915023803711 51.000000000000000
32.117164611816406 75.582588195800781 -7.127091884613037 33.000000000000000
46.348354339599609 110.193756103515625 -8.527098655700684 22.000000000000000
45.987094879150391 110.466026306152344 -8.535067558288574 8.000000000000000
42.068569183349609 100.170135498046875 -8.378881454467773 4.000000000000000
43.650207519531250 106.806999206542969 -8.675640106201172 12.000000000000000
43.576099395751953 107.805877685546875 -8.743120193481445 21.000000000000000
41.212474822998047 102.359191894531250 -8.509907722473145 2.000000000000000
30.007995605468750 76.654052734375000 -7.462592124938965 5.000000000000000
21.975378036499023 58.408817291259766 -6.504077434539795 31.000000000000000
32.368869781494141 87.195602416992188 -7.891994953155518 10.000000000000000
21.022487640380859 57.909713745117188 -3.919195890426636 9.000000000000000
30.522018432617188 84.320739746093750 -6.742687702178955 10.000000000000000
30.036598205566406 83.379623413085938 -6.834869384765625 17.000000000000000
30.264568328857422 83.705360412597656 -7.208370685577393 13.000000000000000
30.411327362060547 83.800086975097656 -7.564289093017578 9.000000000000000
29.931678771972656 83.403244018554688 -7.005004405975342 7.000000000000000
29.722976684570312 83.205192565917969 -7.155417919158936 15.000000000000000
29.982135772705078 83.351608276367188 -7.344864845275879 13.000000000000000
29.922283172607422 83.404525756835938 -7.518633365631104 8.000000000000000
29.555128097534180 83.313209533691406 -6.988297462463379 13.000000000000000
29.404541015625000 83.275978088378906 -7.152189254760742 86.000000000000000
29.592300415039062 83.224311828613281 -7.324040889739990 15.000000000000000
29.541790008544922 83.303283691406250 -7.499694824218750 21.000000000000000
21.094856262207031 59.378932952880859 -6.567517757415771 25.000000000000000
19.736726760864258 56.073585510253906 -6.426373004913330 10.000000000000000
29.437017440795898 85.433181762695312 -6.445555210113525 4.000000000000000
28.976171493530273 83.919692993164062 -6.675506591796875 5.000000000000000
28.803709030151367 83.519439697265625 -7.154771804809570 101.000000000000000
28.969671249389648 83.405105590820312 -7.321065902709961 101.000000000000000
29.032112121582031 83.811355590820312 -7.526073932647705 5.000000000000000
29.406488418579102 85.344581604003906 -7.833990097045898 4.000000000000000
28.700584411621094 83.817993164062500 -7.003743648529053 7.000000000000000
28.562992095947266 83.816917419433594 -7.171239376068115 12.000000000000000
28.685781478881836 83.574821472167969 -7.326684951782227 101.000000000000000
28.713958740234375 83.933525085449219 -7.527088642120361 5.000000000000000
28.454523086547852 84.103935241699219 -7.018874645233154 34.000000000000000
28.353555679321289 84.211990356445312 -7.196101188659668 6.000000000000000
28.485536575317383 83.992729187011719 -7.354119777679443 10.000000000000000
28.527381896972656 84.396903991699219 -7.559216499328613 20.000000000000000
26.291582107543945 78.947990417480469 -7.543487071990967 4.000000000000000
20.180566787719727 61.347057342529297 -6.856129646301270 6.000000000000000
28.170724868774414 85.873664855957031 -7.843327999114990 13.000000000000000
9.052059173583984 28.123020172119141 -0.061876766383648 1.000000000000000
26.595785140991211 85.885261535644531 -7.628883361816406 26.000000000000000
24.156169891357422 77.599464416503906 -7.525103569030762 8.000000000000000
18.230327606201172 58.849044799804688 -6.779828071594238 2.000000000000000
8.379081726074219 27.766866683959961 -0.506259381771088 1.000000000000000
18.455293655395508 62.228240966796875 -6.890756607055664 6.000000000000000
23.637434005737305 80.375251770019531 -7.432857036590576 32.000000000000000
16.673931121826172 62.934795379638672 -6.911870479583740 6.000000000000000
15.100787162780762 63.588275909423828 -6.938474655151367 8.000000000000000
14.847822189331055 65.310722351074219 -6.980501651763916 15.000000000000000
12.753943443298340 62.126873016357422 -6.856288433074951 10.000000000000000
7.521671772003174 37.333599090576172 -5.591125011444092 7.000000000000000
5.892779350280762 34.058841705322266 -2.398824691772461 5.000000000000000
5.670190334320068 33.354217529296875 -3.526117324829102 8.000000000000000
5.674015045166016 33.433219909667969 -3.731858730316162 2.000000000000000
5.637426853179932 33.515426635742188 -3.278489351272583 1.000000000000000
5.313349246978760 33.456459045410156 -2.808904170989990 2.000000000000000
5.098167419433594 37.811225891113281 -5.124639034271240 2.000000000000000
4.910680770874023 37.748249053955078 -4.572829246520996 0.000000000000000
4.915229320526123 37.491611480712891 -5.078845024108887 3.000000000000000
4.735948562622070 37.478363037109375 -4.538002490997314 3.000000000000000
4.826902389526367 37.534317016601562 -4.747187614440918 1.000000000000000
4.798320293426514 37.670612335205078 -5.100677013397217 4.000000000000000
4.855306625366211 37.429824829101562 -5.541158199310303 3.000000000000000
4.080302715301514 33.193084716796875 -3.745315790176392 1.000000000000000
4.650447368621826 37.240627288818359 -4.707855701446533 2.000000000000000
4.687344074249268 37.255786895751953 -5.512688159942627 5.000000000000000
4.538294315338135 37.546401977539062 -4.161969661712646 0.000000000000000
4.027886390686035 33.168163299560547 -3.806798219680786 0.000000000000000
4.400257587432861 36.689235687255859 -4.963295459747314 1.000000000000000
4.375204563140869 37.345588684082031 -4.137904644012451 1.000000000000000
3.959087848663330 33.211765289306641 -3.745761156082153 1.000000000000000
4.368616104125977 37.110000610351562 -4.257347106933594 0.000000000000000
4.409503459930420 37.078269958496094 -4.485523700714111 0.000000000000000
4.317620754241943 36.765224456787109 -4.643630504608154 1.000000000000000
4.226905345916748 36.426265716552734 -4.925488948822021 1.000000000000000
4.359688758850098 36.829315185546875 -5.444708824157715 1.000000000000000
4.212303161621094 37.132236480712891 -4.112526893615723 1.000000000000000
4.294767379760742 37.186801910400391 -4.192278861999512 0.000000000000000
4.207362174987793 36.904632568359375 -4.231989383697510 0.000000000000000
4.241684436798096 36.873989105224609 -4.458806991577148 0.000000000000000
4.157726764678955 36.559970855712891 -4.615749835968018 1.000000000000000
4.061948776245117 36.161800384521484 -4.887682914733887 1.000000000000000
4.193115711212158 36.569820404052734 -5.404037952423096 1.000000000000000
4.045014381408691 36.922847747802734 -4.087586402893066 0.000000000000000
4.124881267547607 36.902053833007812 -4.158444881439209 0.000000000000000
4.073754787445068 36.699699401855469 -4.207084655761719 0.000000000000000
4.067399978637695 36.537994384765625 -4.416346549987793 0.000000000000000
4.000262737274170 36.361923217773438 -4.588864326477051 1.000000000000000
4.025012493133545 36.278137207031250 -5.358718395233154 1.000000000000000
3.907566308975220 36.917663574218750 -4.085399150848389 0.000000000000000
3.966109752655029 36.699554443359375 -4.133959770202637 0.000000000000000
3.910341501235962 36.445682525634766 -4.176293373107910 0.000000000000000
3.921556949615479 36.442096710205078 -4.402988433837891 0.000000000000000
3.784312009811401 35.598850250244141 -4.490784168243408 2.000000000000000
3.901555776596069 35.920265197753906 -4.853071212768555 1.000000000000000
3.862058162689209 36.013259887695312 -5.317466259002686 1.000000000000000
3.764957189559937 36.860534667968750 -4.077522754669189 0.000000000000000
3.810941219329834 36.516159057617188 -4.111700534820557 0.000000000000000
3.750143289566040 36.202808380126953 -4.146860122680664 0.000000000000000
3.678642511367798 36.115242004394531 -4.232404232025146 0.000000000000000
3.794120788574219 36.515476226806641 -4.410144805908203 0.000000000000000
3.647328853607178 35.549316406250000 -4.482818603515625 54.000000000000000
3.744230270385742 35.689872741699219 -4.820056915283203 1.000000000000000
3.703137397766113 35.767360687255859 -5.279119014739990 2.000000000000000
3.629441738128662 36.870128631591797 -4.077085494995117 0.000000000000000
3.666328668594360 36.423095703125000 -4.099680900573730 0.000000000000000
3.613091230392456 36.172813415527344 -4.141879558563232 0.000000000000000
3.535380601882935 36.017765045166016 -4.219434261322021 0.000000000000000
3.591759204864502 35.845497131347656 -4.327609539031982 1.000000000000000
3.520915746688843 35.601940155029297 -4.487797260284424 2.000000000000000
3.588246107101440 35.454872131347656 -4.786510467529297 1.000000000000000
3.543713331222534 35.497158050537109 -5.237286090850830 2.000000000000000
3.485598087310791 36.860046386718750 -4.074460029602051 0.000000000000000
3.530888319015503 36.416503906250000 -4.097454547882080 0.000000000000000
3.489229440689087 36.276802062988281 -4.152294158935547 0.000000000000000
3.494686603546143 36.214195251464844 -4.370546817779541 0.000000000000000
3.384385585784912 35.551387786865234 -4.479831218719482 2.000000000000000
3.434420347213745 35.223152160644531 -4.753496170043945 1.000000000000000
3.387455463409424 35.238086700439453 -5.197196006774902 3.000000000000000
3.394069433212280 36.393577575683594 -4.093448162078857 0.000000000000000
3.352941036224365 36.253726959228516 -4.148219108581543 0.000000000000000
3.411192417144775 36.113548278808594 -4.229161739349365 0.000000000000000
3.385785341262817 36.483810424804688 -4.401557445526123 1.000000000000000
3.254422664642334 35.567504882812500 -4.480329036712646 1.000000000000000
3.276235342025757 34.991359710693359 -4.720482826232910 1.000000000000000
3.238608837127686 35.037464141845703 -5.165821075439453 5.000000000000000
3.356592893600464 36.939888000488281 -4.081898212432861 0.000000000000000
3.267039775848389 36.477039337158203 -4.101461410522461 0.000000000000000
3.223565578460693 36.305366516113281 -4.152747154235840 0.000000000000000
3.287424802780151 36.220771789550781 -4.240279197692871 0.000000000000000
3.381758451461792 37.951698303222656 -4.577123641967773 2.000000000000000
3.242766380310059 36.931354522705078 -4.650600433349609 1.000000000000000
3.132694244384766 34.833347320556641 -4.697585582733154 1.000000000000000
3.085680961608887 34.773151397705078 -5.125149726867676 2.000000000000000
3.224976778030396 36.995513916015625 -4.086711406707764 0.000000000000000
3.140805482864380 36.575901031494141 -4.111255645751953 0.000000000000000
3.090200901031494 36.388751983642578 -4.160897731781006 0.000000000000000
3.159152507781982 36.986446380615234 -4.459283828735352 1.000000000000000
2.996146440505981 34.741901397705078 -4.683741092681885 1.000000000000000
2.941107273101807 34.583114624023438 -5.095518112182617 2.000000000000000
3.006726980209351 36.587169647216797 -4.111255645751953 0.000000000000000
2.963252544403076 36.479061126708984 -4.169954299926758 0.000000000000000
3.032950162887573 37.112567901611328 -4.473119258880615 1.000000000000000
3.108904123306274 37.038452148437500 -4.662549495697021 1.000000000000000
2.864876985549927 34.705238342285156 -4.677350997924805 1.000000000000000
2.808236837387085 34.518718719482422 -5.084478378295898 3.000000000000000
2.902575731277466 36.651405334472656 -4.117487907409668 0.000000000000000
2.841106653213501 36.556541442871094 -4.177651882171631 0.000000000000000
2.904629707336426 37.222415924072266 -4.485046386718750 0.000000000000000
2.978845357894897 37.120807647705078 -4.671511173248291 1.000000000000000
2.736098051071167 34.695739746093750 -4.674688816070557 1.000000000000000
2.673228263854980 34.497680664062500 -5.079830169677734 7.000000000000000
2.774762630462646 36.749008178710938 -4.127282142639160 2.000000000000000
2.757847070693970 36.372520446777344 -4.252786159515381 0.000000000000000
2.764650106430054 37.185291290283203 -4.479321956634521 0.000000000000000
2.844285488128662 37.151268005371094 -4.674000263214111 1.000000000000000
2.612182617187500 34.749023437500000 -4.680545806884766 1.000000000000000
2.546478986740112 34.503303527832031 -5.079249382019043 15.000000000000000
2.627089738845825 36.418048858642578 -4.256955146789551 0.000000000000000
2.712715387344360 37.224773406982422 -4.681966304779053 1.000000000000000
2.482259035110474 34.722774505615234 -4.675753593444824 1.000000000000000
2.419723749160767 34.508453369140625 -5.078668117523193 19.000000000000000
2.497935533523560 36.490856170654297 -4.264366626739502 1.000000000000000
2.357390880584717 34.767238616943359 -4.680545806884766 1.000000000000000
2.293752670288086 34.524990081787109 -5.079830169677734 12.000000000000000
2.233498573303223 34.831035614013672 -4.688001155853271 1.000000000000000
2.230807542800903 36.183185577392578 -4.547541618347168 2.000000000000000
2.109887361526489 34.906253814697266 -4.697052955627441 1.000000000000000
2.098634004592896 36.199039459228516 -4.548537254333496 2.000000000000000
1.983957290649414 34.949378967285156 -4.701845645904541 1.000000000000000
2.039935588836670 34.632099151611328 -5.093194007873535 101.000000000000000
1.862153530120850 35.075180053710938 -4.717820167541504 1.000000000000000
1.916916966438293 34.710472106933594 -5.103652000427246 101.000000000000000
2.023051261901855 39.963226318359375 -5.019522190093994 11.000000000000000
1.741997838020325 35.252033233642578 -4.740716934204102 2.000000000000000
1.790498733520508 34.733070373535156 -5.105976104736328 101.000000000000000
1.950621008872986 40.286823272705078 -4.845242977142334 11.000000000000000
1.863908529281616 39.700782775878906 -4.985667228698730 13.000000000000000
1.785642743110657 39.187065124511719 -5.268942356109619 3.000000000000000
1.670375466346741 34.889617919921875 -5.128054618835449 1.000000000000000
1.706716418266296 39.437717437744141 -4.951811313629150 12.000000000000000
1.550526738166809 35.077377319335938 -5.154781818389893 1.000000000000000
1.621841430664062 39.486576080322266 -4.747441291809082 3.000000000000000
1.550535559654236 39.150238037109375 -4.914969444274902 12.000000000000000
1.636361002922058 39.058677673339844 -5.250837802886963 9.000000000000000
1.433651089668274 35.371490478515625 -5.197196006774902 2.000000000000000
1.458982706069946 39.338275909423828 -4.485111713409424 3.000000000000000
1.468792080879211 39.270015716552734 -4.720725059509277 0.000000000000000
1.400333523750305 38.969242095947266 -4.891569614410400 12.000000000000000
1.483653068542480 38.814838409423828 -5.217291355133057 8.000000000000000
1.305887579917908 39.077224731445312 -4.454773426055908 3.000000000000000
1.249431490898132 38.724197387695312 -4.860203266143799 5.000000000000000
1.332343816757202 38.558517456054688 -5.182147026062012 11.000000000000000
1.282112002372742 38.628433227539062 -5.674211025238037 4.000000000000000
1.149243593215942 38.859493255615234 -4.429415702819824 2.000000000000000
1.087008595466614 38.770053863525391 -4.521914482116699 2.000000000000000
1.176735401153564 38.317672729492188 -5.149132728576660 9.000000000000000
1.133515834808350 38.395515441894531 -5.639349460601807 8.000000000000000
0.944964230060577 37.907047271728516 -4.756647109985352 18.000000000000000
1.030177831649780 38.095844268798828 -5.118781566619873 8.000000000000000
0.986951410770416 38.173908233642578 -5.606231689453125 10.000000000000000
0.862339317798615 38.235313415527344 -4.594298362731934 4.000000000000000
0.806612253189087 37.938030242919922 -4.760131835937500 14.000000000000000
0.885077178478241 37.865528106689453 -5.087365150451660 9.000000000000000
0.841500103473663 37.928005218505859 -5.569627761840820 7.000000000000000
0.667068302631378 37.912956237792969 -4.756647109985352 15.000000000000000
0.741365969181061 37.618808746337891 -5.053818225860596 6.000000000000000
0.697937726974487 37.685504913330078 -5.533604621887207 4.000000000000000
0.649387180805206 39.245254516601562 -4.395726680755615 2.000000000000000
0.577413856983185 38.737052917480469 -4.414020061492920 0.000000000000000
0.649062573909760 38.493751525878906 -4.488563060760498 3.000000000000000
0.613649606704712 40.317436218261719 -4.843812465667725 1.000000000000000
0.599157333374023 37.351726531982422 -5.017609119415283 7.000000000000000
0.582267820835114 37.438114166259766 -5.497000694274902 3.000000000000000
0.436351984739304 38.818389892578125 -4.423076629638672 1.000000000000000
0.508442461490631 38.531631469726562 -4.492732048034668 1.000000000000000
0.463351398706436 40.100997924804688 -4.817572593688965 0.000000000000000
0.526564955711365 38.284309387207031 -4.802948474884033 2.000000000000000
0.459995895624161 37.171329498291016 -4.993114948272705 6.000000000000000
0.442602276802063 37.238174438476562 -5.467369079589844 4.000000000000000
0.294935643672943 38.934982299804688 -4.436208248138428 1.000000000000000
0.366343200206757 38.441856384277344 -4.482078075408936 0.000000000000000
0.323304086923599 37.121227264404297 -4.986192703247070 7.000000000000000
0.303895771503448 36.966480255126953 -5.427278518676758 4.000000000000000
0.146048247814178 39.102745056152344 -4.455226421356201 1.000000000000000
0.186806023120880 37.034942626953125 -4.974477767944336 5.000000000000000
0.167691797018051 36.809043884277344 -5.404037952423096 13.000000000000000
0.085170634090900 38.729568481445312 -4.515429496765137 0.000000000000000
0.051015608012676 36.999702453613281 -4.969685554504395 6.000000000000000
0.032674171030521 36.702560424804688 -5.388350486755371 7.000000000000000
-0.063761621713638 38.864700317382812 -4.531178951263428 1.000000000000000
-0.084559150040150 36.983783721923828 -4.967555522918701 5.000000000000000
-0.102197520434856 36.825115203857422 -5.406362056732178 3.000000000000000
-0.220252498984337 37.007011413574219 -4.970750331878662 4.000000000000000
-0.236140012741089 36.666198730468750 -5.383121013641357 7.000000000000000
-0.356345981359482 37.053527832031250 -4.977140426635742 4.000000000000000
-0.377487003803253 36.720424652099609 -5.391255378723145 6.000000000000000
-0.492836058139801 37.103504180908203 -4.984062671661377 4.000000000000000
-0.515484929084778 36.964138031005859 -5.427278518676758 7.000000000000000
-0.603219091892242 37.121700286865234 -4.986725330352783 4.000000000000000
-0.642192184925079 36.827575683593750 -5.407523632049561 101.000000000000000
-0.741686165332794 37.238147735595703 -5.002699851989746 4.000000000000000
-0.880569934844971 37.338222503662109 -5.016544342041016 4.000000000000000
-0.785270214080811 36.903968811035156 -5.419144630432129 101.000000000000000
-1.022050976753235 37.505153656005859 -5.039441108703613 3.000000000000000
-0.922885179519653 36.995800018310547 -5.433088779449463 101.000000000000000
-1.064013600349426 37.186008453369141 -5.461558818817139 7.000000000000000
-1.201841950416565 37.229328155517578 -5.468530654907227 4.000000000000000
-19.541137695312500 26.425687789916992 -3.425359249114990 9.000000000000000
-19.652269363403320 26.382843017578125 -3.428676366806030 32.000000000000000
-19.499015808105469 26.237270355224609 -3.533903121948242 3.000000000000000
-8.624921798706055 11.473142623901367 -0.996140837669373 3.000000000000000
-19.728281021118164 26.354091644287109 -3.367138862609863 20.000000000000000
-19.568822860717773 26.130619049072266 -3.529174327850342 4.000000000000000
-19.791984558105469 26.439188003540039 -3.967412471771240 7.000000000000000
-8.646389961242676 11.227164268493652 -0.846859931945801 10.000000000000000
-8.653817176818848 11.232349395751953 -1.587964057922363 8.000000000000000
-8.764342308044434 11.019081115722656 -0.353932321071625 1.000000000000000
-40.849758148193359 47.805255889892578 -2.426643133163452 139.000000000000000
-40.928352355957031 47.691303253173828 -2.304449558258057 25.000000000000000
-40.951034545898438 47.764892578125000 -2.548980951309204 42.000000000000000
-40.956470489501953 47.530662536621094 -2.783275365829468 3.000000000000000
-41.040199279785156 47.733818054199219 -3.034761190414429 3.000000000000000
-41.065994262695312 47.287708282470703 -2.176150798797607 0.000000000000000
-40.985160827636719 47.327941894531250 -2.656877756118774 0.000000000000000
-41.049182891845703 47.286689758300781 -2.777780055999756 4.000000000000000
-41.356094360351562 47.746181488037109 -3.045161962509155 4.000000000000000
-41.683624267578125 47.998912811279297 -3.187056303024292 4.000000000000000
-41.631393432617188 48.152202606201172 -3.313674688339233 5.000000000000000
-41.203994750976562 47.229701995849609 -1.695991516113281 47.000000000000000
-41.202289581298828 47.141361236572266 -2.416154384613037 101.000000000000000
-41.132160186767578 47.270458221435547 -2.538618087768555 6.000000000000000
-41.113700866699219 47.126205444335938 -2.653994798660278 0.000000000000000
-41.151504516601562 47.038505554199219 -2.772461891174316 7.000000000000000
-40.981407165527344 47.078960418701172 -2.888931751251221 1.000000000000000
-41.806652069091797 47.910362243652344 -3.065386056900024 3.000000000000000
-42.072376251220703 48.089332580566406 -3.203278779983521 7.000000000000000
-41.605365753173828 47.461894989013672 -1.586613893508911 1.000000000000000
-41.374168395996094 47.075370788574219 -1.695883274078369 100.000000000000000
-41.186626434326172 46.937919616699219 -2.289792060852051 43.000000000000000
-41.314079284667969 46.921005249023438 -2.412606477737427 101.000000000000000
-41.268241882324219 47.077316284179688 -2.536350965499878 3.000000000000000
-41.284030914306641 46.842361450195312 -2.769803047180176 8.000000000000000
-41.111522674560547 46.880378723144531 -2.885972738265991 1.000000000000000
-41.396347045898438 47.090656280517578 -3.022626638412476 2.000000000000000
-41.670513153076172 47.186203002929688 -1.582492709159851 1.000000000000000
-41.266407012939453 46.804248809814453 -2.168094635009766 0.000000000000000
-41.326610565185547 46.750724792480469 -2.288033008575439 1.000000000000000
-41.406112670898438 46.886806488037109 -2.534246206283569 0.000000000000000
-41.365322113037109 46.718837738037109 -2.648058652877808 0.000000000000000
-41.251316070556641 46.693454742431641 -2.883753299713135 1.000000000000000
-41.542190551757812 46.908691406250000 -3.020700454711914 3.000000000000000
-41.816604614257812 47.003269195556641 -1.581487417221069 1.000000000000000
-41.582397460937500 46.618640899658203 -1.690365314483643 27.000000000000000
-41.402980804443359 46.630035400390625 -2.166705608367920 0.000000000000000
-41.473770141601562 46.572059631347656 -2.286714076995850 1.000000000000000
-41.495338439941406 46.642158508300781 -2.529226541519165 0.000000000000000
-41.504344940185547 46.531135559082031 -2.646023750305176 5.000000000000000
-41.386451721191406 46.613052368164062 -2.765194177627563 9.000000000000000
-41.462039947509766 46.586711883544922 -2.886527538299561 1.000000000000000
-41.790985107421875 46.842567443847656 -3.026286363601685 5.000000000000000
-43.273010253906250 48.086547851562500 -1.501924157142639 2.000000000000000
-41.967266082763672 46.825855255126953 -1.580683231353760 1.000000000000000
-41.857204437255859 46.581916809082031 -1.694584965705872 1.000000000000000
-41.713256835937500 46.524471282958984 -1.930957674980164 0.000000000000000
-41.782711029052734 46.489219665527344 -2.051706314086914 1.000000000000000
-41.573581695556641 46.478000640869141 -2.166705608367920 1.000000000000000
-41.598819732666016 46.369148254394531 -2.284222126007080 4.000000000000000
-41.707077026367188 46.346427917480469 -2.406128168106079 101.000000000000000
-41.636684417724609 46.457004547119141 -2.527445554733276 1.000000000000000
-41.578445434570312 46.271694183349609 -2.639918327331543 22.000000000000000
-41.522373199462891 46.422336578369141 -2.762889623641968 9.000000000000000
-41.544498443603516 46.336250305175781 -2.880424499511719 1.000000000000000
-42.435081481933594 47.215072631835938 -3.060378313064575 5.000000000000000
-43.411354064941406 47.886150360107422 -1.500624418258667 2.000000000000000
-42.240428924560547 46.784515380859375 -1.584503054618835 1.000000000000000
-41.857521057128906 46.469543457031250 -1.812495827674866 0.000000000000000
-41.749034881591797 46.331218719482422 -2.166983366012573 2.000000000000000
-41.811363220214844 46.263828277587891 -2.286567211151123 42.000000000000000
-41.927665710449219 46.249523162841797 -2.409058809280396 3.000000000000000
-41.755779266357422 46.247730255126953 -2.524369001388550 15.000000000000000
-41.644065856933594 46.232566833496094 -2.760230779647827 15.000000000000000
-41.756893157958984 46.231124877929688 -2.883383512496948 1.000000000000000
-42.251205444335938 46.665306091308594 -3.034761190414429 4.000000000000000
-42.469928741455078 46.562698364257812 -2.068634271621704 2.000000000000000
-42.210052490234375 46.407794952392578 -2.541532754898071 1.000000000000000
-42.581665039062500 46.695022583007812 -2.681808233261108 5.000000000000000
-42.483894348144531 46.578010559082031 -3.039191007614136 4.000000000000000
-42.487224578857422 46.666656494140625 -3.285393714904785 4.000000000000000
-43.419692993164062 47.387565612792969 -1.615664243698120 1.000000000000000
-43.273200988769531 47.209480285644531 -1.979018568992615 0.000000000000000
-43.083900451660156 46.889530181884766 -2.090155363082886 1.000000000000000
-42.962257385253906 47.026588439941406 -2.458110094070435 2.000000000000000
-43.176986694335938 47.000713348388672 -2.708434820175171 20.000000000000000
-42.585823059082031 46.570457458496094 -2.799406766891479 3.000000000000000
-42.907363891601562 46.810367584228516 -2.939050197601318 9.000000000000000
-43.054397583007812 46.857421875000000 -3.067697525024414 3.000000000000000
-42.558849334716797 46.539379119873047 -3.161620616912842 3.000000000000000
-43.964626312255859 47.630691528320312 -1.629435658454895 1.000000000000000
-43.509021759033203 47.231277465820312 -1.861046910285950 0.000000000000000
-44.037189483642578 47.690933227539062 -2.005952119827271 0.000000000000000
-43.172210693359375 46.909992218017578 -2.460269451141357 2.000000000000000
-43.091941833496094 46.778514862060547 -2.821387767791748 7.000000000000000
-43.737312316894531 47.366176605224609 -2.983990192413330 2.000000000000000
-43.029624938964844 46.709190368652344 -3.183851718902588 6.000000000000000
-44.089805603027344 47.511096954345703 -1.878427863121033 0.000000000000000
-44.769931793212891 48.129314422607422 -2.031279802322388 0.000000000000000
-44.217369079589844 47.553592681884766 -2.630752086639404 0.000000000000000
-44.112030029296875 47.422046661376953 -2.997675895690918 1.000000000000000
-44.916217803955078 48.047267913818359 -1.906121730804443 1.000000000000000
-44.888202667236328 48.017299652099609 -2.915871381759644 4.000000000000000
-45.301887512207031 48.344684600830078 -3.066473245620728 4.000000000000000
-45.328727722167969 48.179149627685547 -2.552818775177002 3.000000000000000
-45.629028320312500 48.356052398681641 -2.693577527999878 15.000000000000000
-45.308261871337891 48.228134155273438 -2.808156728744507 10.000000000000000
-45.357028961181641 48.163738250732422 -2.934839248657227 8.000000000000000
-45.648845672607422 48.358455657958984 -3.077939510345459 12.000000000000000
-45.419124603271484 48.336013793945312 -3.197516679763794 4.000000000000000
-46.087913513183594 48.627700805664062 -2.585519552230835 7.000000000000000
-45.885776519775391 48.485549926757812 -2.832917451858521 28.000000000000000
-45.934803009033203 48.420429229736328 -2.960720300674438 13.000000000000000
-14.761916160583496 8.137591361999512 -4.067068099975586 4.000000000000000
-14.747282981872559 8.059194564819336 -4.054871559143066 32.000000000000000
-14.845104217529297 8.042128562927246 -4.073635578155518 10.000000000000000
-14.843650817871094 7.971104145050049 -4.065191745758057 39.000000000000000
-14.922222137451172 7.972419261932373 -3.516567468643188 9.000000000000000
-14.807544708251953 7.881942272186279 -4.047366142272949 55.000000000000000
-14.902889251708984 7.892010688781738 -3.505171298980713 30.000000000000000
-14.540572166442871 7.671568870544434 -3.966681480407715 1.000000000000000
-14.699618339538574 7.793564796447754 -4.784031867980957 17.000000000000000
-14.907444000244141 7.824591159820557 -3.499473094940186 29.000000000000000
-14.747772216796875 7.711916923522949 -4.015467643737793 20.000000000000000
-14.694057464599609 7.721748828887939 -4.772978305816650 2.000000000000000
-14.977712631225586 7.791592597961426 -3.509241342544556 14.000000000000000
-15.015476226806641 7.820561408996582 -4.868040084838867 39.000000000000000
-14.755224227905273 7.647078037261963 -4.009838581085205 14.000000000000000
-15.071364402770996 7.779583930969238 -4.876883029937744 33.000000000000000
-14.817744255065918 7.610709667205811 -4.019220352172852 11.000000000000000
-14.900984764099121 7.584566116333008 -4.034231662750244 2.000000000000000
-15.171704292297363 7.652490615844727 -4.099905014038086 32.000000000000000
-15.199652671813965 7.596828460693359 -4.099905014038086 49.000000000000000
-5.593620300292969 -0.082791507244110 -0.140628039836884 1.000000000000000
-5.568438053131104 -0.116737611591816 -0.161412000656128 1.000000000000000
-5.461419105529785 -0.288897871971130 -0.179516091942787 3.000000000000000
-4.902875423431396 -0.283727437257767 -0.095154993236065 7.000000000000000
-4.959719657897949 -0.317079722881317 -0.469788759946823 1.000000000000000
-5.522617816925049 -0.388697624206543 -0.203006148338318 6.000000000000000
-4.917072772979736 -0.382317334413528 -0.029266906902194 4.000000000000000
-28.258655548095703 -12.347060203552246 -3.868447303771973 19.000000000000000
-28.097063064575195 -12.322631835937500 -4.120903968811035 1.000000000000000
-28.009330749511719 -12.440112113952637 -3.681640863418579 101.000000000000000
-28.120267868041992 -12.415406227111816 -3.856000661849976 20.000000000000000
-27.975591659545898 -12.391808509826660 -4.109721660614014 1.000000000000000
-27.898326873779297 -12.513427734375000 -3.673053264617920 101.000000000000000
-28.002073287963867 -12.486069679260254 -3.846043109893799 24.000000000000000
-27.879320144653320 -12.471603393554688 -4.102267265319824 1.000000000000000
-27.834184646606445 -12.607408523559570 -3.670667648315430 12.000000000000000
-27.880126953125000 -12.554390907287598 -3.835587978363037 32.000000000000000
-27.735879898071289 -12.529629707336426 -4.087890148162842 1.000000000000000
-27.642875671386719 -12.609819412231445 -4.080967426300049 2.000000000000000
-27.571264266967773 -12.699449539184570 -4.077240467071533 3.000000000000000
-27.481399536132812 -12.780350685119629 -4.070850372314453 3.000000000000000
-27.412843704223633 -12.870872497558594 -4.067655563354492 5.000000000000000
-27.426485061645508 -12.959757804870605 -3.805217742919922 11.000000000000000
-27.470649719238281 -13.392984390258789 -4.104929447174072 13.000000000000000
-27.707214355468750 -13.553233146667480 -3.514280796051025 1.000000000000000
-27.472286224365234 -13.477555274963379 -3.838575124740601 9.000000000000000
-27.870653152465820 -13.791481971740723 -3.422074079513550 7.000000000000000
-27.645298004150391 -13.604372024536133 -3.450605392456055 2.000000000000000
-27.574331283569336 -13.568838119506836 -4.127826213836670 2.000000000000000
-27.716299057006836 -13.765722274780273 -3.465741634368896 6.000000000000000
-28.000343322753906 -14.080257415771484 -3.570882558822632 1.000000000000000
-28.065504074096680 -14.242132186889648 -3.585825204849243 3.000000000000000
-28.104198455810547 -14.469644546508789 -3.540086746215820 12.000000000000000
-28.083578109741211 -14.447854042053223 -3.682103872299194 8.000000000000000
-28.240915298461914 -14.545648574829102 -4.266805171966553 1.000000000000000
-28.409023284912109 -14.764239311218262 -4.300351619720459 2.000000000000000
-28.534029006958008 -14.962280273437500 -3.420464038848877 2.000000000000000
-28.758918762207031 -15.404884338378906 -3.717141151428223 5.000000000000000
-28.900125503540039 -15.561756134033203 -3.484650611877441 9.000000000000000
-28.836421966552734 -15.565127372741699 -3.542501688003540 5.000000000000000
-28.813339233398438 -15.467704772949219 -3.598843812942505 6.000000000000000
-28.723402023315430 -15.460777282714844 -3.653163194656372 5.000000000000000
-28.905052185058594 -15.619782447814941 -3.743404150009155 8.000000000000000
-29.059967041015625 -15.740209579467773 -3.444432735443115 8.000000000000000
-29.028135299682617 -15.768209457397461 -3.507031202316284 7.000000000000000
-28.967777252197266 -15.773415565490723 -3.565716981887817 6.000000000000000
-28.962724685668945 -15.684923171997070 -3.624659299850464 8.000000000000000
-28.862169265747070 -15.672183036804199 -3.678093194961548 8.000000000000000
-29.046514511108398 -15.834039688110352 -3.769214630126953 10.000000000000000
-28.790029525756836 -15.627809524536133 -3.819216012954712 6.000000000000000
-29.280517578125000 -16.089105606079102 -3.417200326919556 2.000000000000000
-29.236003875732422 -15.974419593811035 -3.472213983535767 24.000000000000000
-29.130615234375000 -15.962418556213379 -3.526456356048584 11.000000000000000
-29.080560684204102 -15.973305702209473 -3.586782932281494 15.000000000000000
-29.078790664672852 -15.879294395446777 -3.646099090576172 11.000000000000000
-28.982343673706055 -15.875251770019531 -3.700797796249390 30.000000000000000
-28.945133209228516 -15.849617958068848 -3.847472190856934 12.000000000000000
-29.517175674438477 -16.360292434692383 -3.451795339584351 2.000000000000000
-29.382827758789062 -16.194780349731445 -3.496677875518799 17.000000000000000
-29.235527038574219 -16.159523010253906 -3.546303272247314 11.000000000000000
-29.188802719116211 -16.172275543212891 -3.607419013977051 13.000000000000000
-29.180601119995117 -16.074007034301758 -3.666226625442505 11.000000000000000
-29.077724456787109 -16.072961807250977 -3.720830917358398 1.000000000000000
-29.660400390625000 -16.309995651245117 -3.856607437133789 1.000000000000000
-29.168546676635742 -16.111207962036133 -3.884992361068726 1.000000000000000
-29.467933654785156 -16.429265975952148 -3.581774711608887 101.000000000000000
-29.343923568725586 -16.304449081420898 -3.694229841232300 11.000000000000000
-29.313741683959961 -16.343969345092773 -3.758671522140503 2.000000000000000
-29.572631835937500 -16.403154373168945 -3.852985143661499 1.000000000000000
-29.433807373046875 -16.552627563476562 -3.781821012496948 6.000000000000000
-36.469196319580078 -23.984025955200195 -3.957008361816406 195.000000000000000
-36.374210357666016 -24.113010406494141 -3.281369447708130 4.000000000000000
-36.444015502929688 -24.092508316040039 -3.453641891479492 24.000000000000000
-36.351158142089844 -24.097730636596680 -3.953758239746094 101.000000000000000
-31.024637222290039 -20.575273513793945 -4.169129371643066 1.000000000000000
-36.467487335205078 -24.309745788574219 -2.788106679916382 1.000000000000000
-36.474685668945312 -24.382644653320312 -2.875645160675049 0.000000000000000
-36.511421203613281 -24.469045639038086 -2.711347341537476 3.000000000000000
-36.341690063476562 -24.418766021728516 -2.785313129425049 3.000000000000000
-35.914314270019531 -24.198984146118164 -3.507158994674683 101.000000000000000
-36.282550811767578 -24.508834838867188 -2.701003551483154 3.000000000000000
-36.183509826660156 -24.496227264404297 -2.779726266860962 3.000000000000000
-35.812191009521484 -24.321485519409180 -3.505867481231689 101.000000000000000
-35.874385833740234 -24.347259521484375 -3.678827524185181 4.000000000000000
-35.845859527587891 -24.271287918090820 -3.840680599212646 7.000000000000000
-35.790657043457031 -24.296823501586914 -3.921616554260254 5.000000000000000
-36.203292846679688 -24.455295562744141 -4.045227527618408 1.000000000000000
-35.689903259277344 -24.430068969726562 -3.502638578414917 101.000000000000000
-35.775119781494141 -24.363882064819336 -3.588971853256226 3.000000000000000
-35.728969573974609 -24.440332412719727 -3.673078298568726 5.000000000000000
-35.661228179931641 -24.337366104125977 -3.830429315567017 8.000000000000000
-35.628063201904297 -24.386825561523438 -3.914032697677612 6.000000000000000
-36.034393310546875 -24.534036636352539 -4.036376476287842 2.000000000000000
-35.632991790771484 -24.458765029907227 -3.583683252334595 3.000000000000000
-35.586654663085938 -24.534917831420898 -3.667667388916016 6.000000000000000
-35.707939147949219 -24.493679046630859 -3.757908344268799 4.000000000000000
-35.545513153076172 -24.449848175048828 -3.827601194381714 10.000000000000000
-35.885128021240234 -24.625347137451172 -4.029737949371338 2.000000000000000
-35.534488677978516 -24.514507293701172 -3.245979547500610 5.000000000000000
-35.510005950927734 -24.559892654418945 -3.329776525497437 3.000000000000000
-35.495765686035156 -24.604114532470703 -3.414238214492798 3.000000000000000
-35.527927398681641 -24.510894775390625 -3.495535135269165 3.000000000000000
-35.474266052246094 -24.541555404663086 -3.576741695404053 4.000000000000000
-35.464797973632812 -24.633975982666016 -3.663947343826294 6.000000000000000
-35.572017669677734 -24.592689514160156 -3.753066539764404 7.000000000000000
-35.413105010986328 -24.550451278686523 -3.823006153106689 13.000000000000000
-35.515491485595703 -24.501401901245117 -3.911504745483398 7.000000000000000
-35.782859802246094 -24.933698654174805 -2.690413236618042 3.000000000000000
-35.419158935546875 -24.747364044189453 -3.165430545806885 6.000000000000000
-35.421470642089844 -24.628652572631836 -3.243880033493042 6.000000000000000
-35.384799957275391 -24.656328201293945 -3.326085567474365 31.000000000000000
-35.335670471191406 -24.694536209106445 -3.407933950424194 6.000000000000000
-35.399593353271484 -24.605194091796875 -3.491337776184082 6.000000000000000
-35.364448547363281 -24.657749176025391 -3.574758768081665 10.000000000000000
-35.325286865234375 -24.729513168334961 -3.658874273300171 10.000000000000000
-35.418502807617188 -24.688051223754883 -3.746841430664062 6.000000000000000
-35.300014495849609 -24.664117813110352 -3.820531606674194 38.000000000000000
-35.363304138183594 -24.588207244873047 -3.904643058776855 9.000000000000000
-36.070636749267578 -25.276630401611328 -2.632209539413452 6.000000000000000
-35.321166992187500 -24.751438140869141 -3.242980241775513 52.000000000000000
-35.294197082519531 -24.785846710205078 -3.326085567474365 101.000000000000000
-35.251438140869141 -24.828485488891602 -3.408564329147339 39.000000000000000
-35.276519775390625 -24.711887359619141 -3.488108873367310 15.000000000000000
-35.255332946777344 -24.764995574951172 -3.572444915771484 9.000000000000000
-35.269691467285156 -24.715366363525391 -3.904282093048096 100.000000000000000
-34.656070709228516 -24.536052703857422 -4.343132972717285 4.000000000000000
-35.392173767089844 -25.253370285034180 -4.025681495666504 2.000000000000000
-36.558624267578125 -26.349454879760742 -2.606305837631226 9.000000000000000
-35.849582672119141 -25.785217285156250 -2.979528427124023 0.000000000000000
-35.593013763427734 -25.653495788574219 -3.214237451553345 0.000000000000000
-35.368091583251953 -25.438898086547852 -3.612440109252930 2.000000000000000
-35.307189941406250 -25.299825668334961 -3.685591459274292 1.000000000000000
-35.500289916992188 -25.586664199829102 -3.882392644882202 7.000000000000000
-35.251522064208984 -25.285108566284180 -3.932811975479126 4.000000000000000
-35.519264221191406 -25.541049957275391 -4.050758838653564 2.000000000000000
-35.459499359130859 -25.562908172607422 -4.132108211517334 3.000000000000000
-35.563304901123047 -25.500282287597656 -4.221400737762451 1.000000000000000
-35.619419097900391 -25.619670867919922 -4.317551136016846 2.000000000000000
-36.578125000000000 -26.567747116088867 -2.614619970321655 9.000000000000000
-36.184833526611328 -26.155927658081055 -2.668241024017334 4.000000000000000
-35.979637145996094 -26.062135696411133 -3.168988704681396 1.000000000000000
-35.789257049560547 -25.994770050048828 -3.240540504455566 1.000000000000000
-35.636116027832031 -25.830362319946289 -3.649460077285767 2.000000000000000
-35.534114837646484 -25.660076141357422 -3.719072341918945 3.000000000000000
-35.448654174804688 -25.677515029907227 -3.798717498779297 5.000000000000000
-35.452415466308594 -25.626506805419922 -3.965675830841064 7.000000000000000
-35.626537322998047 -25.882278442382812 -4.162599563598633 3.000000000000000
-35.547061920166016 -25.686418533325195 -4.230618476867676 2.000000000000000
-36.366271972656250 -26.490570068359375 -2.688762426376343 5.000000000000000
-35.898040771484375 -26.123609542846680 -3.081196308135986 2.000000000000000
-36.106239318847656 -26.356140136718750 -3.188626050949097 1.000000000000000
-35.864337921142578 -26.124942779541016 -3.336253881454468 1.000000000000000
-35.803981781005859 -26.055160522460938 -3.757287740707397 4.000000000000000
-36.356498718261719 -26.743638992309570 -3.219362497329712 1.000000000000000
-35.898391723632812 -26.285200119018555 -3.259537458419800 0.000000000000000
-36.070613861083984 -26.478059768676758 -3.364445686340332 1.000000000000000
-35.968605041503906 -26.377105712890625 -3.784681081771851 1.000000000000000
-35.872600555419922 -26.387687683105469 -3.864773035049438 1.000000000000000
-36.421234130859375 -26.914913177490234 -3.142953395843506 2.000000000000000
-36.508251190185547 -27.062028884887695 -3.241560935974121 1.000000000000000
-36.187023162841797 -26.700817108154297 -3.294608116149902 0.000000000000000
-36.383769989013672 -26.913742065429688 -3.402834892272949 1.000000000000000
-36.253105163574219 -26.790668487548828 -3.824925661087036 1.000000000000000
-36.150215148925781 -26.796632766723633 -3.905236721038818 1.000000000000000
-36.308753967285156 -26.790636062622070 -4.003286838531494 1.000000000000000
-36.519248962402344 -27.204719543457031 -3.160400152206421 2.000000000000000
-36.399440765380859 -27.064170837402344 -3.322957038879395 1.000000000000000
-36.463230133056641 -27.162990570068359 -3.858068227767944 4.000000000000000
-36.418907165527344 -27.203207015991211 -3.945008277893066 1.000000000000000
-36.533245086669922 -27.163656234741211 -4.038989067077637 1.000000000000000
-36.654392242431641 -27.462907791137695 -3.355397462844849 3.000000000000000
-36.909755706787109 -27.789274215698242 -3.830924749374390 2.000000000000000
-36.774608612060547 -27.605127334594727 -3.901694774627686 4.000000000000000
-36.771083831787109 -27.676795959472656 -3.994117736816406 6.000000000000000
-31.119770050048828 -23.789417266845703 -0.834197402000427 2.000000000000000
-37.474636077880859 -28.647375106811523 -3.911245346069336 3.000000000000000
-37.339061737060547 -28.405620574951172 -4.162357330322266 8.000000000000000
-37.216049194335938 -28.382856369018555 -4.243031024932861 6.000000000000000
-52.643894195556641 -40.441818237304688 -3.328053236007690 101.000000000000000
-52.470058441162109 -40.614910125732422 -3.326451063156128 94.000000000000000
-30.941221237182617 -26.517969131469727 -4.484443664550781 3.000000000000000
-47.751708984375000 -41.449954986572266 -2.926659345626831 17.000000000000000
-47.907855987548828 -41.364601135253906 -3.051325559616089 101.000000000000000
-47.515239715576172 -41.551063537597656 -2.921481132507324 5.000000000000000
-47.030570983886719 -41.826206207275391 -3.034183263778687 101.000000000000000
-46.521152496337891 -42.085262298583984 -3.386498451232910 13.000000000000000
