ply
format ascii 1.0
element vertex 182
property double x
property double y
property double z
property double intensity
end_header
15.473333358764648 23.299823760986328 -5.106162071228027 1.000000000000000
15.443940162658691 23.934934616088867 -2.692627429962158 200.000000000000000
15.417469978332520 24.208971023559570 -1.770539999008179 1.000000000000000
54.624073028564453 89.215255737304688 -8.471813201904297 6.000000000000000
14.923848152160645 24.264062881469727 -2.362018108367920 10.000000000000000
14.790920257568359 24.575399398803711 -2.045968532562256 0.000000000000000
52.870998382568359 90.015617370605469 -8.454378128051758 9.000000000000000
50.540641784667969 86.372238159179688 -8.297803878784180 10.000000000000000
53.614570617675781 95.767059326171875 -8.676345825195312 4.000000000000000
50.307361602783203 90.169563293457031 -8.362032890319824 2.000000000000000
13.814847946166992 25.024520874023438 -0.444051861763000 0.000000000000000
55.331100463867188 101.699684143066406 -8.705330848693848 13.000000000000000
44.553607940673828 83.175765991210938 -8.006303787231445 11.000000000000000
55.258457183837891 105.798606872558594 -8.744316101074219 2.000000000000000
53.183738708496094 102.169372558593750 -8.660643577575684 11.000000000000000
52.522583007812500 103.313056945800781 -8.490637779235840 66.000000000000000
40.641159057617188 80.379119873046875 -7.816698551177979 4.000000000000000
39.873664855957031 80.317939758300781 -7.782114028930664 5.000000000000000
12.642707824707031 25.748937606811523 -1.327676892280579 0.000000000000000
45.242736816406250 93.004302978515625 -7.976269721984863 15.000000000000000
35.306945800781250 74.393112182617188 -7.465120315551758 5.000000000000000
37.324722290039062 80.755897521972656 -7.548732280731201 24.000000000000000
33.143238067626953 72.121559143066406 -7.349192619323730 7.000000000000000
11.863985061645508 26.163721084594727 -0.060167741030455 0.000000000000000
36.577793121337891 80.725151062011719 -7.519986629486084 27.000000000000000
49.091457366943359 109.243644714355469 -8.774126052856445 2.000000000000000
31.274785995483398 69.648063659667969 -7.216979026794434 8.000000000000000
48.693973541259766 109.430122375488281 -8.774710655212402 2.000000000000000
50.503562927246094 114.539375305175781 -8.446081161499023 55.000000000000000
43.669830322265625 99.809059143066406 -8.401949882507324 2.000000000000000
50.029125213623047 114.599349975585938 -8.436925888061523 10.000000000000000
51.128482818603516 117.913726806640625 -9.167442321777344 11.000000000000000
43.382984161376953 100.151428222656250 -8.417327880859375 2.000000000000000
49.441299438476562 114.658157348632812 -8.665622711181641 101.000000000000000
31.492809295654297 72.922195434570312 -7.047198295593262 52.000000000000000
49.086811065673828 115.049011230468750 -8.680853843688965 42.000000000000000
32.109371185302734 75.564254760742188 -7.125361919403076 30.000000000000000
41.788337707519531 101.582298278808594 -8.471153259277344 3.000000000000000
34.401042938232422 85.808883666992188 -7.844310283660889 6.000000000000000
27.574243545532227 69.926116943359375 -6.959753036499023 12.000000000000000
32.438533782958984 83.063430786132812 -7.738883972167969 4.000000000000000
32.191123962402344 83.373260498046875 -7.756176471710205 4.000000000000000
21.955764770507812 58.356689453125000 -6.498272895812988 31.000000000000000
21.453962326049805 57.436225891113281 -3.427887439727783 15.000000000000000
21.098554611206055 59.356510162353516 -6.565444469451904 23.000000000000000
26.139646530151367 75.058609008789062 -7.359149932861328 5.000000000000000
28.991069793701172 84.138931274414062 -7.723321437835693 7.000000000000000
18.798433303833008 54.868225097656250 -1.012379169464111 2.000000000000000
29.110191345214844 85.500823974609375 -7.838486194610596 12.000000000000000
28.715303421020508 85.365219116210938 -7.816352844238281 24.000000000000000
26.081972122192383 79.193656921386719 -7.558654785156250 5.000000000000000
20.211933135986328 61.370239257812500 -6.859508514404297 6.000000000000000
18.705207824707031 58.816654205322266 -6.792079448699951 2.000000000000000
16.881082534790039 52.946456909179688 -6.331682682037354 5.000000000000000
26.605218887329102 85.915725708007812 -7.631589412689209 25.000000000000000
26.045490264892578 85.212219238281250 -7.560568809509277 24.000000000000000
23.119909286499023 77.253669738769531 -7.466466426849365 6.000000000000000
18.686077117919922 62.130256652832031 -6.887800693511963 6.000000000000000
15.745930671691895 67.653396606445312 -7.104650974273682 11.000000000000000
14.946601867675781 65.745223999023438 -7.026941299438477 14.000000000000000
14.379772186279297 65.468322753906250 -6.985892295837402 23.000000000000000
7.499005317687988 37.221096038818359 -5.574275970458984 7.000000000000000
12.002305030822754 61.108512878417969 -6.853336334228516 4.000000000000000
7.221330165863037 36.533958435058594 -5.467369079589844 9.000000000000000
9.568777084350586 60.833984375000000 -6.537731170654297 11.000000000000000
-1.532999634742737 14.507679939270020 -5.189550399780273 3.000000000000000
-2.211712360382080 10.977755546569824 -5.221871852874756 2.000000000000000
-10.448231697082520 39.361419677734375 -4.639974117279053 2.000000000000000
-10.801260948181152 36.765892028808594 -4.806931495666504 11.000000000000000
-11.509938240051270 37.191818237304688 -4.435755252838135 12.000000000000000
-11.841209411621094 37.638011932373047 -4.600198268890381 9.000000000000000
-14.615583419799805 36.835788726806641 -4.971228599548340 4.000000000000000
-19.631507873535156 38.197116851806641 -4.559351921081543 6.000000000000000
-26.482181549072266 42.373809814453125 -4.239884376525879 8.000000000000000
-33.047470092773438 45.462570190429688 -3.900651693344116 65.000000000000000
-8.553530693054199 11.391828536987305 -1.291435837745667 2.000000000000000
-8.576141357421875 11.461459159851074 -1.408629417419434 5.000000000000000
-8.544810295104980 11.031009674072266 -2.547334194183350 8.000000000000000
-8.822942733764648 11.080843925476074 -0.464930951595306 0.000000000000000
-57.887084960937500 49.885749816894531 -2.802071094512939 5.000000000000000
-53.136142730712891 45.697849273681641 -2.704599618911743 4.000000000000000
-53.256694793701172 45.665874481201172 -2.842222452163696 7.000000000000000
-53.294204711914062 45.901828765869141 -2.984874725341797 12.000000000000000
-55.632743835449219 47.446029663085938 -0.995447814464569 1.000000000000000
-54.397003173828125 46.531749725341797 -1.524464964866638 2.000000000000000
-54.207576751708984 46.274726867675781 -1.654744029045105 5.000000000000000
-53.496315002441406 45.532188415527344 -1.765942335128784 1.000000000000000
-53.460742950439453 45.679187774658203 -2.308120489120483 6.000000000000000
-53.294445037841797 45.588611602783203 -2.571655273437500 4.000000000000000
-53.589054107666016 45.746723175048828 -2.719099044799805 4.000000000000000
-55.839839935302734 47.270252227783203 -0.996046900749207 1.000000000000000
-54.538005828857422 46.384296417236328 -1.112211108207703 1.000000000000000
-54.557449340820312 46.271404266357422 -1.248684763908386 2.000000000000000
-54.451328277587891 46.233711242675781 -1.521228671073914 3.000000000000000
-54.312709808349609 46.021472930908203 -1.652794361114502 9.000000000000000
-53.426193237304688 45.337574005126953 -1.896048069000244 49.000000000000000
-53.514503479003906 45.301776885986328 -2.031960487365723 101.000000000000000
-53.339923858642578 45.365333557128906 -2.163848638534546 17.000000000000000
-53.291057586669922 45.063194274902344 -2.424921035766602 101.000000000000000
-53.522106170654297 45.444725036621094 -2.574586868286133 2.000000000000000
-55.979022979736328 47.036979675292969 -0.995447814464569 2.000000000000000
-54.680099487304688 46.160907745361328 -1.111651897430420 1.000000000000000
-55.173408508300781 46.447139739990234 -1.258877038955688 3.000000000000000
-55.164756774902344 46.492523193359375 -1.536388158798218 2.000000000000000
-54.490219116210938 45.829811096191406 -1.653072834014893 9.000000000000000
-53.631023406982422 45.292915344238281 -1.764635562896729 1.000000000000000
-53.579772949218750 45.131156921386719 -1.895615339279175 24.000000000000000
-53.637317657470703 45.069332122802734 -2.030338287353516 10.000000000000000
-53.514968872070312 45.177303314208984 -2.164219379425049 10.000000000000000
-53.381294250488281 44.938465118408203 -2.290405035018921 22.000000000000000
-53.437511444091797 44.852142333984375 -2.424088001251221 101.000000000000000
-53.523292541503906 45.109104156494141 -2.566672086715698 1.000000000000000
-53.867874145507812 45.306377410888672 -2.716322660446167 5.000000000000000
-56.209423065185547 46.880149841308594 -0.996482491493225 2.000000000000000
-54.904140472412109 46.006385803222656 -1.112770318984985 1.000000000000000
-54.645565032958984 45.619525909423828 -1.652701497077942 11.000000000000000
-53.900897979736328 45.183345794677734 -1.768053293228149 1.000000000000000
-53.735626220703125 44.926765441894531 -1.895290732383728 24.000000000000000
-53.765304565429688 44.841690063476562 -2.028947830200195 8.000000000000000
-53.664905548095703 44.967983245849609 -2.163601636886597 13.000000000000000
-53.542560577392578 44.739955902099609 -2.290273666381836 101.000000000000000
-53.630004882812500 44.863910675048828 -2.563886880874634 1.000000000000000
-56.356212615966797 46.653427124023438 -0.996046900749207 1.000000000000000
-54.812393188476562 45.418945312500000 -1.652701497077942 101.000000000000000
-53.878364562988281 44.711677551269531 -1.894533395767212 30.000000000000000
-53.829345703125000 44.770999908447266 -2.163601636886597 16.000000000000000
-53.733867645263672 44.566394805908203 -2.291454553604126 101.000000000000000
-53.623050689697266 44.673881530761719 -2.425060272216797 17.000000000000000
-53.870948791503906 44.730899810791016 -2.567551136016846 2.000000000000000
-55.000102996826172 45.235534667968750 -1.653351426124573 10.000000000000000
-54.075859069824219 44.541831970214844 -1.895723462104797 10.000000000000000
-53.994682312011719 44.558902740478516 -2.163354396820068 15.000000000000000
-53.930797576904297 44.397117614746094 -2.292898416519165 4.000000000000000
-53.771007537841797 44.464309692382812 -2.424365520477295 3.000000000000000
-53.985168457031250 44.492481231689453 -2.565206289291382 3.000000000000000
-54.304115295410156 44.663112640380859 -2.713392019271851 4.000000000000000
-55.819171905517578 45.593204498291016 -1.258039236068726 2.000000000000000
-55.230613708496094 45.086711883544922 -1.655301094055176 3.000000000000000
-54.682048797607422 44.823722839355469 -1.777401685714722 1.000000000000000
-55.195293426513672 45.125381469726562 -1.929156422615051 5.000000000000000
-54.155941009521484 44.482608795166016 -2.031033754348755 101.000000000000000
-54.129814147949219 44.337890625000000 -2.162242650985718 2.000000000000000
-54.416694641113281 44.447658538818359 -2.306283235549927 4.000000000000000
-54.228778839111328 44.493328094482422 -2.437283277511597 3.000000000000000
-54.293308258056641 44.413261413574219 -2.572095155715942 5.000000000000000
-54.238349914550781 44.276691436767578 -2.701977252960205 5.000000000000000
-54.342845916748047 44.428459167480469 -2.978769540786743 12.000000000000000
-56.102199554443359 45.645057678222656 -1.818112611770630 2.000000000000000
-54.259716033935547 44.235824584960938 -2.028831958770752 1.000000000000000
-54.610305786132812 44.273075103759766 -2.307595491409302 3.000000000000000
-54.391494750976562 44.294254302978516 -2.437283277511597 1.000000000000000
-54.415393829345703 44.181201934814453 -2.570189714431763 3.000000000000000
-54.381195068359375 44.244838714599609 -2.840279340744019 6.000000000000000
-9.071133613586426 6.245851516723633 -5.135657310485840 3.000000000000000
-4.855911731719971 -0.175680518150330 -0.094147644937038 2.000000000000000
-5.605880737304688 -0.450252801179886 -0.368612080812454 1.000000000000000
-5.434468269348145 -0.444501936435699 -0.283851027488708 2.000000000000000
-4.873650074005127 -0.470652222633362 -0.557865500450134 1.000000000000000
-18.521205902099609 -5.280796527862549 -4.646871566772461 2.000000000000000
-21.930366516113281 -8.285911560058594 -2.216062784194946 1.000000000000000
-18.418409347534180 -7.360861301422119 -4.785724639892578 5.000000000000000
-21.444810867309570 -8.647721290588379 -2.900588750839233 3.000000000000000
-21.049472808837891 -8.879086494445801 -1.013437747955322 2.000000000000000
-33.245086669921875 -19.352216720581055 -4.484857082366943 2.000000000000000
-31.608829498291016 -22.139310836791992 -4.246854305267334 5.000000000000000
-41.544269561767578 -29.727420806884766 -4.235832691192627 3.000000000000000
-29.101148605346680 -20.851270675659180 -2.070494651794434 5.000000000000000
-31.140640258789062 -23.015943527221680 -1.866774797439575 4.000000000000000
-31.165735244750977 -23.095945358276367 -2.318186521530151 6.000000000000000
-31.190679550170898 -23.238630294799805 -0.081463538110256 4.000000000000000
-30.961122512817383 -23.097888946533203 -2.085242986679077 3.000000000000000
-30.980567932128906 -23.082086563110352 -2.457719087600708 2.000000000000000
-34.439285278320312 -25.728250503540039 -4.146889686584473 4.000000000000000
-41.056011199951172 -31.142864227294922 -4.173267364501953 3.000000000000000
-30.945510864257812 -24.004652023315430 -0.533199787139893 4.000000000000000
-32.743667602539062 -26.152025222778320 -4.204893112182617 12.000000000000000
-35.766353607177734 -29.611629486083984 -4.119585037231445 23.000000000000000
-33.704051971435547 -28.967540740966797 -4.200995922088623 12.000000000000000
-32.047077178955078 -27.875797271728516 -4.344354152679443 24.000000000000000
-41.791870117187500 -38.861244201660156 -0.009960246272385 3.000000000000000
-41.652214050292969 -38.640644073486328 -0.228073477745056 4.000000000000000
-41.597442626953125 -38.965686798095703 -0.885432064533234 3.000000000000000
