ply
format ascii 1.0
element vertex 1129
property float x
property float y
property float z
property uchar intensity
end_header
-0.169692 11.424138 -1.534623 0
1.419447 29.105991 -4.742712 3
1.545232 19.171938 -3.511384 49
5.209095 44.856316 -0.961690 5
1.520947 29.002024 -4.726648 3
1.606566 19.060276 -3.491988 24
2.275562 40.549038 -1.957879 3
2.275398 40.546112 -2.583424 6
2.276564 40.566887 -4.471317 4
0.989782 11.249943 -1.264762 0
1.610422 28.696674 -4.677814 2
1.667103 18.948423 -3.472592 17
1.057501 11.535213 -1.297260 0
1.709699 28.592051 -4.661750 3
1.731512 18.887327 -3.462535 19
1.102792 11.562918 -1.300822 0
1.807979 28.483150 -4.645044 3
1.801847 18.892607 -3.464691 35
1.910247 28.444820 -4.639903 4
1.870692 18.881960 -3.463972 36
1.134669 29.125465 -4.279189 3
2.008353 28.350986 -4.625767 4
1.942701 18.902376 -3.469001 37
1.240909 28.990412 -4.260015 4
2.113962 28.299759 -4.618699 4
2.014432 18.886951 -3.467564 34
-0.622852 36.337364 -0.983405 4
-0.622519 36.317978 -1.541451 5
-0.622382 36.309967 -3.784854 11
1.342931 28.894745 -4.246652 3
2.213969 28.244589 -4.610988 5
1.443672 28.786860 -4.231546 16
2.314247 28.196936 -4.604563 19
-1.332826 32.094807 -0.313970 3
1.546619 28.733955 -4.224574 101
2.417916 28.192202 -4.605205 14
1.648970 28.676727 -4.217021 200
2.529672 28.277523 -4.620626 4
1.749956 28.603336 -4.207143 200
1.769446 18.994755 -3.104835 38
1.849658 28.517746 -4.195523 11
1.833345 18.929197 -3.095196 33
1.950379 28.455500 -4.187388 6
1.909032 18.985201 -3.105477 6
2.049815 28.381056 -4.177511 11
2.999633 28.771437 -4.708014 4
2.149030 28.310213 -4.168215 15
3.127950 28.972218 -4.742712 5
2.108825 18.883904 -2.091049 1
2.260000 28.392881 -4.181579 7
3.261722 29.207747 -4.783193 7
2.353867 28.262148 -4.163567 91
2.463953 28.328241 -4.174606 3
2.573125 28.378141 -4.183321 4
2.686786 28.470961 -4.198428 2
2.807343 28.626347 -4.222830 3
8.185419 49.188335 -4.038302 4
2.924666 28.737919 -4.240842 2
3.050732 28.923794 -4.269893 1
2.678105 18.907230 -0.039995 2
3.754437 48.582634 -0.663396 17
2.617773 18.481293 -1.475584 34
3.181560 29.092836 -4.296620 1
0.875997 10.819119 -1.457945 0
3.305954 29.238281 -4.319860 2
5.232574 44.805965 -1.394011 2
0.941730 11.123958 -1.499479 0
3.436967 29.430374 -4.350073 1
2.288478 40.576641 -1.099717 4
2.287708 40.562973 -1.724104 6
3.346903 21.892550 -1.750778 14
2.506480 28.369736 -3.825375 6
3.568484 29.614037 -4.379124 2
2.621344 28.478790 -3.841349 4
3.702858 29.808908 -4.409918 2
2.419040 12.042656 -1.375612 0
1.120465 10.844368 -1.464335 0
2.402437 11.737035 -1.155691 0
1.018756 13.587075 -1.709187 0
3.106394 29.024111 -3.920690 3
2.250394 28.606731 -3.599598 0
3.226714 29.138618 -3.937729 4
4.406110 30.800920 -4.567955 1
2.352296 28.562691 -3.595117 18
3.356030 29.323530 -3.964353 4
4.548860 30.988180 -4.598167 4
7.388164 49.077877 -2.297127 5
1.578725 29.131506 -3.504643 3
2.454245 28.522243 -3.591134 7
3.479766 29.448832 -3.982990 3
4.700700 31.225674 -4.635934 2
1.676539 28.970896 -3.486037 3
2.569411 28.631647 -3.606070 4
3.613099 29.644447 -4.011212 4
1.782629 28.881001 -3.476018 2
2.690797 28.744070 -3.621504 4
3.748172 29.799492 -4.034109 4
2.449198 18.912045 -1.139646 1
1.887694 28.862387 -3.474587 2
4.524893 44.795567 -1.218301 5
8.144157 49.136318 -2.305264 6
8.142632 49.127110 -3.071908 5
1.991825 28.831501 -3.471725 2
2.095755 28.800241 -3.468862 3
2.658664 18.895834 -1.140362 2
2.604241 18.509041 -1.694468 47
2.201905 28.800287 -3.469816 2
1.559802 14.386279 -1.815233 0
1.547961 19.273012 -0.188984 14
2.313427 28.803495 -3.471248 2
4.443497 30.725565 -4.169893 8
5.207018 44.879444 -2.613003 5
5.206837 44.877880 -3.309805 8
2.419314 28.798780 -3.471725 2
4.593318 30.960049 -4.203972 5
2.270657 40.537518 -0.942637 6
2.276133 19.009207 -0.518048 1
2.273167 40.582333 -3.448859 4
5.381663 44.945156 -4.016012 4
2.272385 40.568367 -4.077097 4
2.272431 40.569180 -4.737310 4
2.528320 28.829285 -3.476496 2
4.733589 31.119373 -4.227933 4
6.760559 26.487957 -2.637079 0
2.638667 28.871237 -3.482697 3
2.753490 28.956259 -3.494148 3
2.869363 29.044779 -3.506075 3
2.989970 29.172340 -3.522772 3
3.626124 48.611691 -3.383057 3
4.131563 15.022075 -0.062542 1
11.598759 37.506611 -0.836071 8
11.746462 37.496761 -1.440831 31
11.759904 37.539669 -2.654244 1
3.826062 15.129334 -0.272397 1
2.353498 12.638013 -1.165398 0
8.444433 26.279266 -2.716195 1
1.708863 19.124813 -4.632799 53
4.214694 14.490081 -1.222113 2
0.904158 9.717019 -0.979238 0
4.216891 14.497633 -2.756379 1
1.771382 19.037115 -4.613097 30
2.428886 18.876766 -0.771074 2
0.910584 9.412004 -1.102454 0
1.838523 19.003403 -4.606530 26
4.500938 44.808689 -3.821206 3
8.054921 48.878162 -4.394955 9
4.505282 44.851933 -4.523185 2
1.893006 18.845648 -4.569940 34
3.071596 29.491636 -3.456981 0
1.970524 18.919802 -4.589642 9
3.193302 29.606585 -3.471804 1
2.212423 10.391685 -1.427061 0
3.425899 21.576649 -2.624427 10
8.165049 49.150681 -1.252484 5
8.154383 49.086479 -2.015933 11
2.625435 12.953020 -1.377441 0
2.677651 18.918295 -0.443605 2
2.678061 18.921190 -0.737464 3
11.726351 37.528980 -1.895474 1
3.134727 14.118845 -1.814237 0
9.007598 27.090467 -2.698650 0
4.307173 14.474881 -2.217160 1
4.882731 14.154796 -1.183682 0
4.070137 14.578571 -2.033029 3
2.578391 14.095652 -0.994479 0
4.160775 14.492208 -0.436960 4
4.214124 14.477756 -0.205286 3
9.267399 27.743998 -2.708374 1
9.403275 37.513580 -0.378007 3
11.721713 37.500340 -1.063146 9
11.722613 37.503220 -1.667460 4
6.540573 26.338526 -2.302734 2
3.875169 15.130054 -1.083930 1
12.303250 37.402943 -2.884572 6
3.947732 14.945792 -1.551126 2
4.307857 14.448575 -4.335253 2
11.705468 37.521954 -0.912556 4
7.660153 11.994445 -2.958149 1
7.870042 12.378268 -1.642721 0
7.703691 12.019102 -2.606240 0
7.656718 11.857252 -1.695549 0
5.541529 8.835324 -1.215942 0
6.974300 10.175799 -1.438286 0
11.161436 11.168449 -1.492558 4
11.074741 10.682807 -1.454538 4
11.074729 10.527171 -1.681502 2
11.163744 10.977859 -1.449703 2
11.092399 10.645034 -2.064978 0
9.231913 5.989779 -1.253839 0
9.120128 5.869864 -1.235726 0
10.029893 6.244514 -1.162629 0
11.091248 8.969021 -1.915882 0
11.142471 10.913036 -3.763093 2
7.834911 4.798606 -0.904093 0
11.278632 9.052382 -1.942507 0
8.900746 5.796127 -1.189526 0
11.303026 6.727799 -1.473107 0
7.845373 4.930556 -1.508081 0
7.925795 4.940670 -1.027804 0
10.149536 5.689134 -1.303048 0
11.437853 6.992386 -1.449244 0
10.572017 6.357080 -1.333597 0
9.890708 6.028077 -1.229678 0
15.472862 10.297281 -2.166924 1
15.260572 9.168750 -1.820933 0
15.203455 9.134433 -2.130647 0
10.098468 4.674918 -1.494686 0
26.938740 7.992915 -0.166748 2
26.216375 8.367718 -0.956190 1
27.116590 8.436532 -0.550241 2
27.078365 8.495188 -0.495369 2
27.380856 8.479982 -0.060034 1
27.235527 8.325699 -0.497114 2
26.013155 8.331381 -1.264243 6
9.464827 3.366737 -1.349318 0
26.165693 8.274619 -0.848045 6
26.746120 8.130679 -0.863859 6
11.128136 3.773377 -1.578287 0
27.422974 8.410744 -1.272425 2
27.041660 8.185479 -0.384653 5
26.865463 8.420153 -0.329241 2
26.991865 8.459769 -1.200395 5
26.579205 8.116948 -1.179365 3
26.093529 8.246284 -1.108682 1
27.007088 8.426250 -0.711182 3
9.238304 2.697619 -0.389909 0
38.672989 2.925487 -2.018981 7
38.677307 2.925813 -2.617084 2
17.297728 1.050701 -3.602040 2
17.195894 0.981273 -3.580061 66
17.136805 0.914897 -3.567037 61
17.104839 0.850331 -3.559711 68
38.676472 3.004510 -3.141655 2
17.092192 0.786912 -3.556455 54
17.063656 0.722934 -3.549942 60
17.034885 0.659178 -3.543430 72
18.473083 0.647033 -2.106033 4
17.041101 0.596877 -3.544244 84
18.590530 0.582931 -2.119164 9
17.256081 1.086265 -3.156510 47
17.019690 0.533675 -3.539360 88
18.449520 0.510829 -2.102863 3
17.185310 1.018587 -3.142861 46
16.994125 0.470532 -3.533662 100
18.423458 0.442537 -2.099693 3
17.177143 0.954937 -3.140706 50
16.972244 0.407678 -3.528778 95
17.478672 2.025130 -0.543742 0
18.341513 0.373307 -2.090184 3
17.184458 0.892175 -3.141425 15
16.973625 0.345466 -3.528778 100
18.322889 0.305750 -2.087920 3
16.947369 0.282797 -3.523080 76
38.664982 2.953382 -2.466861 2
18.236462 0.237453 -2.077958 3
16.920879 0.220323 -3.517381 81
18.217337 0.170427 -2.075694 3
17.110664 0.699798 -3.126339 0
16.909824 0.158195 -3.514940 84
18.205919 0.103588 -2.074336 3
17.085587 0.636055 -3.121310 0
16.898542 0.096149 -3.512497 81
18.728424 0.625212 -2.098588 3
18.210154 0.033689 -2.074789 3
17.040710 0.568871 -3.112690 0
16.890955 0.031248 -3.510869 98
18.790188 0.558335 -2.105265 2
18.190287 -0.033019 -2.072525 3
17.283529 1.062555 -2.818254 58
17.026947 0.505942 -3.109816 0
16.890957 -0.030661 -3.510869 87
18.657000 0.485942 -2.090129 2
18.194014 -0.099712 -2.072977 3
17.255775 0.997378 -2.813114 100
17.044422 0.443941 -3.112690 0
16.871147 -0.092462 -3.506799 100
52.953781 -0.484303 -1.127763 4
18.618916 0.416671 -2.085678 2
18.205452 -0.166503 -2.074336 3
17.231720 0.932634 -2.808616 10
17.014462 0.380765 -3.106943 0
16.874611 -0.154331 -3.507613 81
18.544802 0.347012 -2.077219 2
18.200745 -0.233177 -2.073883 3
16.996073 0.318032 -3.103351 0
16.858271 -0.215978 -3.504357 92
52.887894 -0.871450 -0.313889 8
18.454531 0.277667 -2.066980 2
18.203743 -0.299949 -2.074336 3
17.190769 0.804082 -2.800905 3
16.961714 0.255206 -3.096886 2
16.849533 -0.277635 -3.502729 100
18.411701 0.209523 -2.062083 2
18.258148 -0.367792 -2.080675 3
17.209379 0.741746 -2.803476 0
16.962536 0.193032 -3.096886 1
16.836655 -0.339157 -3.500287 100
18.396444 0.141919 -2.060302 2
18.292437 -0.435558 -2.084751 3
17.140972 0.675867 -2.791910 0
16.951324 0.130770 -3.094731 1
16.823555 -0.400583 -3.497845 101
18.448519 0.074700 -2.066089 2
18.318523 -0.503365 -2.087920 3
17.048639 0.609651 -2.776488 0
16.943819 0.068608 -3.093294 0
16.818056 -0.462134 -3.497031 101
18.385063 0.007060 -2.058966 2
18.348339 -0.571490 -2.091543 3
11.215310 1.076158 -1.513323 0
17.267260 1.104217 -2.540206 41
17.058655 0.547415 -2.777774 0
16.916412 0.006496 -3.088265 0
16.808424 -0.523527 -3.495403 101
19.156569 0.544461 -2.108988 0
18.384966 -0.060325 -2.058966 2
18.405697 -0.640811 -2.098335 3
17.247488 1.039493 -2.536720 54
17.060545 0.484888 -2.777774 0
16.939932 -0.055584 -3.092576 0
16.814219 -0.585402 -3.497031 100
15.587602 1.380462 -0.694179 0
19.186258 0.474933 -2.112051 22
18.392574 -0.127764 -2.059857 2
18.478680 -0.711171 -2.106939 3
17.235376 0.975376 -2.534395 10
17.034578 0.421671 -2.773275 0
16.916006 -0.117507 -3.088265 1
16.800220 -0.646574 -3.494589 68
19.223648 0.405361 -2.115989 10
18.391981 -0.195178 -2.059857 2
18.523600 -0.780906 -2.112372 3
16.996538 0.358399 -2.766850 0
16.876114 -0.179092 -3.081082 1
16.891645 -0.712107 -3.514126 92
52.806202 -0.753956 -0.212000 5
19.173325 0.334002 -2.110301 32
18.399092 -0.262698 -2.060747 2
18.584135 -0.851702 -2.119617 3
17.001686 0.296171 -2.767493 1
16.879280 -0.240999 -3.081800 1
38.655468 2.988631 -2.316993 2
38.663151 2.989225 -2.915773 3
18.995564 0.257952 -2.090611 3
18.453590 -0.334350 -2.066980 2
18.600574 -0.924037 -2.121881 3
17.130545 0.777595 -2.517546 0
16.975061 0.230514 -2.762995 1
16.890032 -0.306021 -3.083955 1
17.104868 -0.849734 -3.559711 8
18.988428 0.188248 -2.089736 4
18.472115 -0.402417 -2.069206 2
18.712152 -0.998346 -2.135013 3
17.109554 0.713813 -2.514060 0
17.031063 0.168843 -2.771990 18
16.869127 -0.367495 -3.080363 1
17.461424 -0.931616 -3.634600 17
52.605095 -1.338930 -1.019584 17
18.841881 0.117729 -2.073547 3
18.506279 -0.471031 -2.073212 2
18.775822 -1.070773 -2.142711 3
17.088327 0.650194 -2.510574 0
16.924973 0.105752 -2.754641 4
16.851933 -0.428923 -3.077490 1
17.626022 -1.005200 -3.669603 6
18.834234 0.048651 -2.072671 3
18.528269 -0.539549 -2.075883 2
18.787638 -1.140544 -2.144522 4
17.070818 0.586879 -2.507669 0
16.937092 0.043750 -2.756569 1
16.846312 -0.490570 -3.076771 1
18.103037 -1.098983 -3.769728 1
18.802479 -0.020346 -2.069171 3
18.593708 -0.609670 -2.083452 2
18.973705 -1.221654 -2.166257 5
17.041210 0.523335 -2.503021 0
16.909500 -0.018298 -2.752071 1
16.852268 -0.552569 -3.078208 10
19.435616 0.525570 -2.101856 0
18.794325 -0.089225 -2.068296 3
18.650934 -0.679990 -2.090129 2
19.306133 -1.314131 -2.204746 4
17.341940 1.021490 -2.333351 78
17.070705 0.461619 -2.507088 0
16.921165 -0.080333 -2.753999 1
16.850130 -0.614335 -3.078208 70
18.793896 -1.279264 -3.915438 0
19.584513 0.457770 -2.117762 11
18.793871 -0.158110 -2.068296 3
18.695982 -0.750257 -2.095471 2
19.757057 -1.417593 -2.256819 4
17.286190 0.954643 -2.325363 90
17.048544 0.398494 -2.503602 0
16.889174 -0.142086 -2.748858 1
16.828106 -0.675301 -3.074616 59
19.507830 -1.399710 -4.065217 7
19.518465 0.384656 -2.110454 2
18.765337 -0.226654 -2.065233 3
18.772533 -0.822254 -2.104375 2
20.199553 -1.523777 -2.307987 3
17.242064 0.888832 -2.318974 79
17.014278 0.335305 -2.498373 1
16.888540 -0.203985 -2.748858 2
16.876621 -0.739211 -3.083955 25
20.213314 -1.524815 -4.213369 1
19.392557 0.307691 -2.096697 2
18.768303 -0.298767 -2.065671 3
18.896299 -0.900381 -2.118621 13
17.213671 0.821112 -2.314714 68
17.011484 0.269912 -2.497792 1
16.867893 -0.268515 -2.745646 2
17.137003 -0.816553 -3.132086 8
19.290165 0.235348 -2.085519 2
18.786961 -0.367946 -2.067858 3
18.876991 -0.968821 -2.116840 10
17.184881 0.756618 -2.310454 60
17.024231 0.207702 -2.499534 2
16.874691 -0.330494 -2.746931 3
17.401121 -0.893075 -3.180935 7
19.255077 0.167701 -2.081650 2
18.801458 -0.433887 -2.069609 3
19.000509 -1.041669 -2.131086 2
17.159689 0.695504 -2.306726 66
16.989237 0.147967 -2.494305 1
16.873432 -0.389394 -2.746931 5
17.712225 -0.971041 -3.238405 2
38.550900 2.649764 -1.045618 5
19.183983 0.096763 -2.073911 2
18.867311 -0.504605 -2.077047 3
18.984659 -1.110609 -2.129750 2
17.126469 0.631290 -2.301934 64
16.969877 0.085595 -2.491400 1
16.875839 -0.451343 -2.747573 5
18.077801 -1.057557 -3.305931 3
19.124554 0.026367 -2.067462 2
18.865335 -0.573754 -2.077047 3
19.143127 -1.190299 -2.148003 2
17.104893 0.567724 -2.298739 82
16.970078 0.023396 -2.491400 1
16.878021 -0.513314 -2.748216 6
18.435123 -1.146276 -3.372021 7
19.144407 -0.043772 -2.069612 2
18.922709 -0.644925 -2.083610 3
19.487692 -1.283440 -2.187179 2
17.110821 0.505147 -2.299272 78
16.954218 -0.038764 -2.489076 1
16.860241 -0.574632 -2.745646 6
18.905899 -1.245124 -3.458943 7
19.104332 -0.117040 -2.065313 2
18.955854 -0.718936 -2.087548 4
19.962452 -1.391712 -2.241046 2
17.370924 0.999165 -2.182661 48
17.084894 0.438728 -2.295544 91
16.934156 -0.103744 -2.486171 1
16.889473 -0.640565 -2.750786 101
19.281746 -1.344256 -3.528625 5
52.723110 -0.516247 -0.819076 5
19.708448 0.433824 -2.092817 0
19.099796 -0.187019 -2.064883 2
19.008707 -0.790720 -2.093674 3
20.333839 -1.492511 -2.283338 1
17.295204 0.931225 -2.172703 59
17.078459 0.375933 -2.294479 71
16.929705 -0.165770 -2.485590 2
16.835730 -0.700329 -2.742433 83
19.712299 -1.446890 -3.608364 3
19.833130 0.367311 -2.105908 6
19.067215 -0.253264 -2.061444 2
19.061438 -0.859574 -2.099800 3
17.258711 0.868854 -2.167724 48
17.051922 0.315803 -2.290752 79
16.925068 -0.224811 -2.485009 2
16.872625 -0.760869 -2.748858 31
20.393721 -1.568494 -3.734079 3
19.790592 0.293967 -2.101263 5
19.090017 -0.323552 -2.064023 2
19.137587 -0.933305 -2.108551 4
17.281603 0.806516 -2.170214 33
17.045036 0.253185 -2.289687 79
16.928085 -0.286910 -2.485590 4
17.051119 -0.831552 -2.778416 10
19.731876 0.220763 -2.094929 15
19.128464 -0.394336 -2.068322 2
19.185654 -1.006147 -2.114239 3
17.288408 0.743343 -2.170712 44
17.014137 0.190357 -2.285427 83
16.919006 -0.348788 -2.484428 4
21.605045 -1.821059 -3.958210 2
19.561541 0.143737 -2.076771 3
19.158613 -0.468561 -2.071762 3
19.245163 -1.083385 -2.121239 3
17.287170 0.676797 -2.170214 59
16.986992 0.124820 -2.281700 69
16.909630 -0.413558 -2.483266 10
17.722387 -0.997662 -2.888936 4
86.550362 -10.709851 -0.517523 9
19.538073 0.071954 -2.074237 3
19.188570 -0.539670 -2.075201 2
19.368065 -1.161529 -2.135241 9
17.289534 0.613434 -2.170214 71
16.979406 0.062531 -2.280635 78
16.904045 -0.475419 -2.482685 13
18.065416 -1.083407 -2.945481 0
19.490471 0.000339 -2.069170 3
19.214287 -0.610883 -2.078210 2
19.347807 -1.231501 -2.133491 3
17.275797 0.549553 -2.168222 79
16.967627 0.000295 -2.279037 84
16.882412 -0.536746 -2.479780 28
18.376532 -1.169679 -2.996885 1
19.442612 -0.070923 -2.064102 3
19.255636 -0.682854 -2.082939 2
19.501846 -1.313091 -2.150993 3
17.265795 0.485895 -2.166729 82
16.955624 -0.061851 -2.277440 82
16.876375 -0.598479 -2.479199 73
18.691193 -1.258508 -3.048933 1
19.446199 -0.142213 -2.064525 3
19.312611 -0.755758 -2.089388 2
19.810217 -1.406810 -2.185559 4
17.251587 0.422221 -2.164737 53
16.955282 -0.123996 -2.277440 84
16.901751 -0.661414 -2.483266 46
19.379562 -1.376227 -3.162022 2
38.840000 3.271044 -0.904943 5
19.373955 -0.212698 -2.056923 3
19.381227 -0.829596 -2.097126 2
20.249001 -1.512578 -2.234565 3
17.525646 0.920934 -2.108225 0
17.249052 0.358907 -2.164239 87
16.942822 -0.186007 -2.275842 69
17.002014 -0.727756 -2.498373 15
19.638176 -1.466950 -3.205074 8
19.380999 -0.283822 -2.057768 3
19.477371 -0.905242 -2.107874 14
17.616171 0.860958 -2.118721 24
17.230410 0.295343 -2.161750 63
16.926168 -0.247873 -2.273712 85
20.073496 -1.573473 -3.277040 8
38.651283 2.963197 -3.289233 2
38.655880 2.963550 -3.890195 3
20.101337 0.267352 -2.095187 1
19.379766 -0.358238 -2.057768 3
19.513468 -0.982022 -2.112174 7
17.512226 0.788488 -2.105839 6
17.175856 0.228442 -2.154780 17
16.929058 -0.312936 -2.274245 75
17.600817 -0.885767 -2.587268 1
20.795238 -1.710411 -3.395913 3
20.261312 0.195208 -2.111773 10
19.382301 -0.429354 -2.058190 3
19.620930 -1.059541 -2.124211 17
17.439606 0.721179 -2.096775 11
17.069426 0.164455 -2.141337 4
16.919870 -0.374807 -2.273180 90
17.881987 -0.965637 -2.629101 0
21.339527 -1.833945 -3.485871 6
52.517628 -1.355956 -0.715235 4
38.597019 2.674601 -0.898258 9
38.590668 2.674161 -1.492821 4
20.007275 0.119427 -2.085236 4
19.420361 -0.501416 -2.062413 3
19.628822 -1.132133 -2.125501 7
17.402447 0.655761 -2.092004 10
17.196915 0.102652 -2.157269 37
16.914419 -0.436715 -2.272647 85
18.226015 -1.051223 -2.680231 0
8.288944 -1.306018 -0.695781 0
8.359989 -1.317212 -0.832799 1
19.924032 0.045903 -2.076528 11
19.501884 -0.575054 -2.071281 4
19.759501 -1.212349 -2.140118 2
17.404732 0.591973 -2.092004 14
17.169394 0.039557 -2.153784 27
16.920630 -0.498940 -2.273712 88
18.549900 -1.138134 -2.728455 0
19.888258 -0.027076 -2.072796 6
19.535425 -0.647717 -2.075081 6
19.786673 -1.286831 -2.143557 2
17.375031 0.527212 -2.088187 11
17.149578 -0.023348 -2.151295 35
16.914726 -0.560825 -2.273180 90
18.948429 -1.232315 -2.787719 0
17.208271 1.065767 -4.159949 1
19.796524 -0.099511 -2.063260 5
19.513046 -0.718582 -2.072970 15
20.091288 -1.380610 -2.177091 2
17.392723 0.463949 -2.090096 15
17.129534 -0.086105 -2.148805 14
16.904633 -0.622525 -2.272115 75
19.393887 -1.332686 -2.853955 1
17.188770 1.001331 -4.154320 11
19.752262 -0.171690 -2.058698 5
19.550024 -0.791708 -2.077193 4
17.378428 0.399830 -2.088187 16
17.081478 -0.148475 -2.142831 11
16.910160 -0.684803 -2.273180 81
20.067797 -1.452917 -2.953890 2
17.091379 0.932813 -4.129928 101
19.703764 -0.243493 -2.053723 5
19.606598 -0.865988 -2.083527 3
17.355951 0.335673 -2.085325 15
17.088755 -0.211177 -2.143827 20
17.010509 -0.751323 -2.287024 26
20.701616 -1.575097 -3.048014 1
17.117981 0.871351 -4.135556 202
52.844902 -0.846767 -3.056664 3
19.678871 -0.315327 -2.051235 6
19.666861 -0.940885 -2.090284 3
17.365005 0.272183 -2.086279 15
17.079933 -0.273683 -2.142831 44
17.268991 -0.826169 -2.322168 12
21.267736 -1.696595 -3.132262 2
53.182056 -1.047155 -0.622044 7
19.673605 -0.387373 -2.050820 5
19.762590 -1.018078 -2.100841 3
18.219202 0.793553 -2.126161 1
17.373831 0.208630 -2.087233 18
17.055004 -0.335813 -2.139844 43
17.531113 -0.903122 -2.357845 10
17.073408 0.743647 -4.123360 8
102.124428 -12.181222 -1.795224 17
8.212571 -1.510846 -0.306195 1
19.680010 -0.459662 -2.051650 5
19.842129 -1.095106 -2.109708 3
18.269627 0.728673 -2.131720 20
17.374477 0.144952 -2.087233 21
17.037786 -0.397948 -2.137852 48
17.864145 -0.985939 -2.403106 10
21.235016 -1.850729 -3.129357 1
17.083790 0.681377 -4.125237 1
32.800312 -6.158562 -2.767257 59
31.150587 -5.848811 -3.118884 51
20.114836 0.094086 -2.057402 0
19.698076 -0.532328 -2.053723 5
19.972990 -1.175771 -2.124066 2
18.236441 0.660412 -2.127551 13
17.398720 0.081382 -2.090096 16
17.020346 -0.459964 -2.135861 39
21.161089 -1.922460 -3.119480 1
17.031771 0.616786 -4.112102 1
20.238403 0.020488 -2.070019 0
19.707926 -0.604885 -2.054967 5
20.043974 -1.253684 -2.132089 1
18.214914 0.592794 -2.124772 18
17.363159 0.017577 -2.085802 13
17.066149 -0.523802 -2.141835 13
17.022259 0.553980 -4.109287 1
90.238617 -8.865463 -1.408577 20
32.746471 -6.397303 -2.766596 5
20.270178 -0.053774 -2.073275 3
19.737383 -0.678208 -2.058284 5
18.026335 0.520525 -2.102537 4
17.378996 -0.046104 -2.087710 10
17.127581 -0.588531 -2.149801 35
17.031948 0.491811 -4.111164 1
32.714977 -6.515728 -2.765934 88
20.138533 -0.127241 -2.059844 2
19.790422 -0.752664 -2.064089 5
18.016205 0.454148 -2.101148 4
17.362823 -0.109704 -2.085802 7
17.129274 -0.651456 -2.150299 7
19.192387 -1.341728 -2.584151 3
17.021975 0.429086 -4.108349 1
52.924648 -0.528387 -1.330488 6
20.118034 -0.200854 -2.057809 2
19.835232 -0.827184 -2.069065 5
17.926388 0.386144 -2.090494 3
17.382160 -0.173539 -2.088187 4
17.206079 -0.717541 -2.160256 8
19.954359 -1.468511 -2.687454 4
17.027321 0.366778 -4.109287 1
20.133030 -0.278317 -2.059437 3
19.943188 -0.908406 -2.080675 4
17.911850 0.317030 -2.088641 3
17.401220 -0.240553 -2.090573 3
17.357824 -0.790643 -2.179673 11
20.237112 -1.567466 -2.726325 6
17.051929 0.301810 -4.114916 0
53.365295 -0.933367 -0.521680 9
52.845379 -0.924273 -2.954967 11
19.334146 -4.075757 -1.333181 0
20.143810 -0.352318 -2.060658 4
20.015224 -0.985214 -2.088553 4
17.873163 0.250818 -2.084009 3
17.431990 -0.304888 -2.094389 4
17.608511 -0.866748 -2.211537 11
21.163763 -1.717299 -2.851991 3
17.014044 0.238762 -4.105535 1
20.058840 -0.424377 -2.052111 3
20.158478 -1.066341 -2.103895 3
17.897800 0.185557 -2.086788 3
17.454576 -0.369280 -2.097252 4
17.890579 -0.946374 -2.247384 10
17.038132 0.176644 -4.111164 1
20.100906 -0.498980 -2.056588 3
17.854660 0.119664 -2.081693 3
17.508690 -0.434632 -2.103931 4
18.180218 -1.028529 -2.284226 11
17.034775 0.114169 -4.110225 1
20.087011 -0.572308 -2.055367 2
17.843058 0.054188 -2.080303 3
17.570496 -0.500609 -2.111564 4
18.497225 -1.114489 -2.324553 8
17.050634 0.051781 -4.113978 1
20.116594 -0.646950 -2.058623 2
17.847109 -0.011213 -2.080766 3
17.612207 -0.566409 -2.116812 5
18.865330 -1.206080 -2.371353 7
17.015715 -0.010691 -4.105535 1
32.756721 -6.455117 -2.703825 1
20.141926 -0.721675 -2.061472 0
17.882706 -0.076780 -2.084935 3
17.665577 -0.632949 -2.123491 4
19.288448 -1.304132 -2.425123 2
16.988342 -0.072940 -4.098967 1
32.717213 -6.571990 -2.702534 1
17.890251 -0.142385 -2.085862 3
17.686949 -0.698631 -2.126354 4
19.754642 -1.408405 -2.484370 2
16.933521 -0.134770 -4.085832 1
32.685089 -6.690261 -2.701888 1
17.921391 -0.208324 -2.089567 4
17.787432 -0.767906 -2.138758 4
20.287609 -1.521158 -2.552080 38
16.960133 -0.197150 -4.092399 1
32.664249 -6.810831 -2.702211 2
17.968178 -0.274739 -2.095126 3
17.804333 -0.834026 -2.141144 4
20.875395 -1.642197 -2.626760 17
16.920416 -0.258719 -4.083017 1
18.813255 -4.618889 -1.307061 1
32.642975 -6.931331 -2.702534 1
17.974997 -0.340743 -2.096052 4
17.864618 -0.902481 -2.148777 4
16.903805 -0.320437 -4.079265 1
19.847403 -4.949987 -0.435622 2
19.268618 -4.805637 -1.339913 1
31.589720 -7.878548 -3.709443 2
17.997458 -0.407164 -2.098832 4
18.019815 -0.976551 -2.167860 8
19.010893 -4.741360 -4.072543 2
16.925840 -0.382920 -4.084894 1
19.332771 -4.253418 -0.992388 57
18.035564 -0.474170 -2.103464 4
18.321405 -1.060258 -2.204595 8
16.924324 -0.444954 -4.084894 1
8.289115 -1.310050 -0.001465 1
8.300027 -1.311775 -0.648055 1
19.441603 -4.352129 -1.613448 1
8.308888 -1.313176 -0.778879 0
18.125042 -0.543007 -2.114118 4
18.646404 -1.147652 -2.244193 8
16.934240 -0.507332 -4.087708 1
31.036854 -6.039700 -2.988880 0
18.150724 -0.610368 -2.117360 4
18.994781 -1.238991 -2.286653 7
16.932266 -0.569394 -4.087708 1
18.215864 -0.679408 -2.125235 4
19.394243 -1.336451 -2.335316 5
16.825151 -0.627537 -4.062377 1
36.262077 -9.753031 -1.376924 2
18.237072 -0.747141 -2.128014 3
19.860579 -1.441741 -2.392088 5
16.846052 -0.690153 -4.068007 1
18.313593 -0.817524 -2.137279 4
20.350151 -1.552285 -2.451724 5
17.158056 -0.765941 -4.144000 0
31.491604 -7.658198 -3.629569 1
18.385874 -0.888285 -2.146080 4
17.469725 -0.844023 -4.219994 1
31.591032 -7.805122 -3.139069 1
30.954079 -6.614513 -3.483331 33
31.648556 -7.819335 -3.650937 1
18.402330 -0.956698 -2.148396 3
17.796585 -0.925207 -4.299740 4
102.290581 -12.211901 -1.204705 16
17.823084 -5.075022 -0.679521 7
30.929628 -6.727918 -3.483331 35
18.497875 -1.029658 -2.159976 4
18.064844 -1.005554 -4.365414 1
31.057329 -5.852069 -3.416537 18
30.899683 -6.845774 -3.482893 35
18.672258 -1.111302 -2.180821 5
19.477390 -5.043725 -0.080767 3
19.146046 -4.957923 -1.296290 6
31.051291 -5.968860 -3.418256 23
19.009066 -1.201279 -2.220657 4
31.060427 -6.088749 -3.421695 37
19.393030 -1.296924 -2.266053 3
34.860409 -9.300402 -0.144834 6
31.037903 -6.202550 -3.421695 36
19.796360 -1.396798 -2.313764 3
19.675907 -5.326654 -0.394955 8
31.011063 -6.315471 -3.421265 39
20.278458 -1.505525 -2.370739 2
30.983812 -6.428283 -3.420835 31
17.771992 -4.951330 -0.924893 3
30.967827 -6.543443 -3.421695 28
17.551392 -5.562235 -0.109258 25
19.724569 -4.903995 -0.667149 3
31.543480 -7.842456 -3.576966 2
17.938078 -5.139596 -0.074906 13
102.163498 -12.348673 -1.005830 38
18.311623 -5.246624 -0.369074 8
19.063019 -4.813775 -0.645366 2
17.927404 -5.136538 -0.647970 101
19.488344 -4.267323 -1.230684 3
32.478271 -8.201382 -3.686354 6
19.738310 -5.061329 -0.355680 5
19.378286 -4.969011 -0.656651 3
18.911512 -4.213711 -0.896769 8
31.107553 -5.899768 -3.361345 20
18.953291 -4.934136 -0.341858 7
31.097435 -6.016006 -3.362612 20
34.677624 -9.163521 -0.075122 5
18.961882 -4.371074 -0.900653 10
17.720385 -5.288740 -0.927096 11
19.140686 -4.412292 -1.211720 2
18.416437 -4.866522 -1.505846 25
19.073952 -4.396909 -2.873709 1
17.114208 -5.176214 -0.071775 8
36.424725 -9.768158 -2.399057 11
31.036901 -6.240667 -3.360923 20
19.738272 -5.370910 -0.042843 8
17.594942 -3.605003 -0.520504 0
17.593288 -5.391570 -0.922490 3
19.065107 -4.542301 -1.209011 17
31.006025 -6.352781 -3.360078 16
30.982534 -6.466382 -3.360078 20
31.415890 -7.606689 -3.494351 2
30.943064 -6.576592 -3.358389 18
31.557711 -7.763587 -3.513267 2
17.973415 -5.103590 -0.039132 1
19.286007 -4.172957 -1.483679 7
19.056004 -4.910837 -0.608111 7
8.291718 -1.312093 -0.469347 0
8.303325 -1.313930 -0.599646 0
31.130154 -5.942902 -3.303040 51
18.817587 -5.567594 -0.041100 4
32.644341 -6.356061 -2.950590 3
31.069111 -6.049353 -3.298893 54
31.582739 -6.149360 -4.036229 1
18.844597 -5.003947 -0.302890 5
18.370922 -4.878169 -1.465889 10
31.602808 -6.273576 -4.041706 1
18.026403 -2.474439 -0.142910 0
18.890705 -5.164721 -0.003418 7
30.985132 -6.387388 -3.297235 8
31.190582 -6.429740 -3.994906 1
31.186226 -6.548095 -3.997396 0
19.240454 -4.113559 -1.441409 24
31.356075 -6.703848 -4.022289 1
18.103588 -5.164117 -0.292452 1
32.890259 -6.073288 -2.902644 24
30.317638 -7.614701 -4.198647 2
16.769732 -6.026896 -0.071534 1
19.427898 -4.302793 -1.457776 27
32.777710 -6.176823 -2.894689 2
19.260456 -4.987908 -1.495976 3
34.444851 -11.299582 -2.865741 4
32.723545 -6.290901 -2.891922 1
31.094767 -6.096046 -3.240968 28
30.810038 -7.060973 -3.294332 43
18.514528 -5.576118 -0.003375 3
32.719528 -6.539197 -2.895727 1
31.052700 -6.206071 -3.238933 30
19.120298 -5.176600 -1.183790 2
32.714870 -6.663053 -2.897456 2
31.018051 -6.317461 -3.237712 27
16.406406 -5.649819 -0.036342 2
18.039989 -4.955155 -0.542173 12
32.655113 -6.775626 -2.894343 1
17.898611 -5.606002 -0.003274 2
19.701149 -4.896714 -0.549317 3
18.580328 -5.250350 -0.559554 9
32.623241 -8.108496 -1.944163 101
18.978439 -5.438039 -0.268778 9
31.169241 -5.802769 -3.181326 20
30.914328 -6.769814 -3.236898 7
17.604485 -5.114243 -0.531281 3
18.633396 -6.061910 -0.605517 6
32.805340 -6.231849 -2.833353 1
31.061741 -5.900627 -3.172540 16
19.528101 -5.082324 -0.235974 1
19.029219 -4.313556 -0.790505 8
30.844467 -6.991844 -3.234863 32
18.833374 -4.345259 -0.783056 6
32.734188 -6.473234 -2.831324 64
31.071243 -6.144385 -3.178131 22
19.088327 -4.404082 -2.003678 5
30.927317 -7.135587 -3.812838 3
19.891174 -5.336524 -0.240838 4
36.466137 -9.783354 -3.349682 17
17.692551 -5.425707 -0.820925 2
45.358860 -12.347540 -2.718780 4
17.624968 -5.404981 -1.101705 8
45.397907 -12.358170 -3.446874 7
32.650723 -6.705796 -2.828281 1
17.999420 -4.970711 -0.505281 8
30.998419 -6.484941 -3.692295 101
18.175156 -5.091012 -0.220725 1
18.792536 -4.627020 -1.082044 2
30.950579 -6.593430 -3.175335 32
30.922316 -6.705979 -3.174936 35
19.412989 -4.284565 -1.379698 11
32.513824 -8.385647 -2.914056 2
30.860678 -6.929858 -3.173738 33
32.493626 -8.380438 -3.432259 5
32.526196 -8.516105 -2.398300 3
18.046785 -4.937716 -0.470335 8
18.514055 -5.138578 -0.483001 3
18.798603 -4.584692 -0.746719 8
31.392988 -7.656270 -3.767336 1
32.570278 -8.069983 -1.811408 15
31.673233 -7.847722 -3.804393 1
18.257048 -5.211686 -1.061502 1
19.317730 -4.861602 -1.382467 1
18.974379 -4.923366 -0.455117 2
17.953007 -5.339064 -0.470838 32
17.616650 -4.640052 -0.983434 3
32.876984 -10.922703 -3.073605 101
17.192556 -5.781926 -0.212119 1
16.927412 -5.169415 -0.172994 29
17.793509 -5.433910 -0.753748 5
29.287344 -9.969085 -3.880894 4
19.173922 -5.427844 -0.156513 2
16.961046 -5.384273 -0.173933 14
17.362438 -6.123820 -0.215300 1
18.107454 -5.341679 -0.438313 8
15.551953 -5.402376 -0.382235 0
6.133665 -4.447872 -0.848517 0
6.059615 -4.428151 -0.723987 0
5.672702 -4.308626 -0.797766 1
5.999625 -4.397820 -0.703177 0
6.041515 -4.428526 -0.824343 2
5.912051 -4.402216 -1.199654 0
6.406228 -4.495863 -0.846073 1
5.791664 -4.345662 -1.178449 0
5.772177 -4.364197 -0.796340 2
6.203691 -4.457969 -0.707334 1
6.064674 -4.425843 -0.695164 1
6.245669 -4.466352 -0.577336 1
5.532731 -4.260932 -0.754931 1
5.945117 -4.351008 -0.553943 3
6.214911 -4.457320 -0.959395 1
6.303996 -4.463810 -0.550980 8
5.517787 -4.270479 -0.875255 1
6.315342 -4.414824 -0.534765 8
6.294869 -4.469564 -0.655073 1
5.952524 -4.392749 -0.862508 0
5.755342 -4.345789 -0.723646 1
5.650688 -4.299375 -0.712464 1
2.929180 -3.487646 -0.518924 2
2.655450 -3.418210 -0.790205 0
2.934630 -3.452939 -2.113091 1
-14.892739 2.000875 -0.724406 31
-13.487315 3.733773 -0.513159 0
-13.386787 3.761347 -0.723872 0
-15.870662 2.015626 -0.432897 2
-15.810655 2.008004 -0.676345 3
-26.344841 7.235807 -4.987631 2
-18.357813 5.259864 -0.663527 1
-18.615162 5.555792 -2.175604 2
-26.299269 7.467730 -3.008590 1
-14.959284 1.888737 -0.813958 1
-12.680478 4.962787 -0.918766 0
-12.911191 5.165161 -1.584392 0
-11.601326 3.190969 -0.533752 0
-26.184227 7.202027 -2.461890 1
-26.516294 7.293364 -3.693851 3
-11.546016 3.221320 -0.347389 0
-14.868065 2.717000 -3.646758 1
-14.890965 2.950113 -3.662707 4
-17.039078 6.657642 -2.013165 0
-26.332108 7.323326 -3.283278 2
-18.477997 6.149691 -0.826437 4
-16.770063 7.421680 -1.166642 0
-19.703852 6.557669 -1.842396 0
-16.604284 7.421195 -1.437757 0
-18.338781 5.610933 -0.482096 15
-14.147844 6.636969 -1.235380 0
-68.442917 33.340435 -3.670181 8
-13.908809 6.236572 -0.940315 0
-68.495422 33.366013 -4.846871 9
-47.502052 26.978338 -4.529680 4
-11.437806 4.697749 -1.660822 0
-14.417885 6.528424 -0.732543 0
-13.820196 6.257790 -1.170005 0
-47.498474 27.671427 -3.708995 42
-11.152355 5.148626 -1.137340 0
-14.644719 7.401429 -1.297165 0
-47.861031 28.118084 -4.602729 4
-14.478954 7.384404 -1.284871 0
-16.046755 6.093027 -2.061948 0
-68.023521 33.857468 -2.348061 9
-10.594263 5.700128 -1.137205 0
-19.591244 6.901474 -2.421693 101
-10.627385 5.160151 -1.586806 0
-47.941299 27.402943 -3.512877 4
-12.863782 6.880461 -0.899924 1
-45.533718 26.248680 -4.968167 2
-39.859463 25.508839 -0.916913 2
-39.856373 25.506861 -1.644163 6
-39.877892 25.520634 -3.834240 3
-68.355316 33.291897 -3.226548 12
-12.668564 6.285421 -1.036049 0
-13.127000 6.572941 -1.075504 0
-47.510300 27.931028 -4.250340 4
-15.245682 6.796106 -1.158426 0
-12.070291 6.323077 -1.420150 0
-11.010281 6.436211 -1.713005 0
-10.199213 5.217405 -1.171763 0
-68.530556 33.315083 -2.940600 7
-10.377312 5.504249 -1.201474 0
-39.945309 25.368637 -1.371365 4
-39.929565 25.358639 -2.098314 5
-24.418158 21.341879 -2.188129 1
-23.693537 19.865736 -0.124121 2
-23.979290 21.427912 -1.179194 2
-24.032240 21.475227 -2.672392 1
-23.875145 21.492779 -3.660087 5
-8.999045 6.237984 -1.470724 0
-23.668655 20.149303 -0.124779 1
-23.771179 21.564972 -0.190460 1
-23.798855 21.590080 -3.161974 3
-23.642370 21.766180 -3.661445 16
-40.161610 25.244179 -4.851887 3
-23.786339 21.642399 -3.102198 1
-24.143862 21.444216 -2.490412 33
-23.791533 21.603880 -0.993092 2
-9.151005 8.921369 -1.010307 0
-23.702593 21.682167 -4.716114 8
-21.021582 24.314236 -2.665121 8
-20.984520 24.271368 -3.157273 8
-21.263721 23.780499 -1.108424 212
-23.886122 21.483046 -2.850199 3
-20.974747 24.340706 -3.598406 1
-21.018200 24.282923 -2.538849 3
-21.549067 23.525770 -1.968060 101
-21.364025 23.678083 -2.952879 2
-21.227867 23.876772 -0.987285 107
-20.982800 24.309677 -3.471566 3
-20.679249 27.490175 -0.138090 4
-20.820581 24.301229 -0.988892 9
-20.854513 24.522186 -1.985793 101
-21.407679 23.608562 -2.889118 7
-21.426113 23.628893 -3.386259 4
-21.361509 23.731880 -2.400819 11
-21.342318 23.710558 -2.892007 2
-21.361113 23.731440 -4.288637 16
-14.871336 22.046038 -2.153632 30
-21.035110 24.316177 -4.033242 9
-21.380451 23.705431 -2.277061 6
-15.015427 21.808432 -0.869105 1
-20.982355 24.335766 -3.286552 5
-21.340570 23.747763 -3.203690 6
-14.772008 22.386793 -2.483413 5
-14.944742 22.006231 -3.572977 23
-14.733180 22.434238 -2.277369 0
-13.044211 27.746788 -0.005351 11
-12.588531 29.149021 -0.554219 6
-9.231968 25.866390 -2.649370 1
-12.571939 29.132948 -0.371056 7
-9.217447 25.855633 -3.686929 13
-6.229833 28.946184 -2.913622 6
-12.596952 29.132154 -0.249283 6
-12.621827 29.189680 -1.716752 11
-9.298317 25.703140 -1.528170 10
-6.251684 28.944546 -2.799158 3
-8.162800 27.033060 -1.198359 3
-8.155363 27.008430 -1.631684 2
-9.328090 25.623169 -1.472025 4
-9.368399 25.733892 -1.900616 12
-7.867048 26.760998 -3.499028 9
-7.608087 26.599096 -1.600043 3
-7.610305 26.606852 -2.027384 5
-9.093962 25.861156 -2.326069 4
-4.276831 31.959648 -1.120370 6
-6.170290 28.951960 -3.976068 8
-3.570700 32.025299 -0.129355 3
-3.577632 32.087471 -2.614709 7
-3.578936 32.099171 -3.115640 6
-8.159539 26.950903 -1.520108 2
-8.176093 27.005583 -1.958218 2
-8.059443 26.976429 -2.825094 2
-7.620174 26.585194 -1.492940 3
-7.626152 26.606047 -1.920832 1
-7.646775 26.677998 -2.354815 2
-7.642488 26.663040 -2.783161 3
-6.240180 28.979437 -3.718589 5
-1.539299 36.183064 -0.771260 2
-4.427433 31.992889 -4.741679 1
-4.301971 31.948275 -0.996181 5
-1.406967 36.196320 -1.328261 9
-4.699544 31.706638 -0.436383 3
-3.586520 31.979511 -0.005616 4
-3.595154 32.056496 -1.493012 16
-3.596179 32.065636 -1.990472 12
-3.357014 32.052795 -0.500653 3
-4.378244 31.957760 -1.430902 4
-6.252883 28.959963 -3.454202 2
-3.558123 32.121315 -4.340820 10
-1.559794 36.188885 -0.632266 2
-1.426427 36.176392 -1.188376 2
-0.626717 36.340389 -1.752172 3
-0.626386 36.321167 -2.310936 3
-4.281682 31.970657 -3.874859 5
2.288893 30.201437 -3.450887 1
-3.577375 32.054539 -1.306713 10
2.394910 30.201185 -3.451793 0
-3.452135 31.996145 -0.808988 10
2.492146 30.029816 -3.433227 0
1.573488 18.960184 -3.954510 31
1.639487 18.875973 -3.938230 47
1.706546 18.846434 -3.933346 55
1.776708 18.851749 -3.935788 47
1.385436 40.442112 -0.706334 3
1.839840 18.818148 -3.930090 49
1.933810 19.057802 -0.113673 101
1.535023 40.473091 -1.329443 12
4.543028 44.771786 -3.036346 3
1.536127 40.502201 -3.831338 4
1.905632 18.780109 -3.923578 51
1.983051 18.854792 -3.940672 46
3.745076 48.582726 -0.944111 24
3.745671 48.590439 -1.693333 17
2.347648 30.454697 -3.420778 0
1.472257 19.098747 -3.497017 4
