ply
format ascii 1.0
element vertex 1437
property float x
property float y
property float z
property uchar intensity
end_header
2.454981 18.943722 -0.994414 8
2.453241 18.930298 -1.287943 0
2.455181 18.945267 -3.970791 1
4.544310 44.753433 -0.871583 2
1.528388 40.503780 -1.876021 9
1.529831 40.542027 -2.502744 7
4.545636 44.766495 -3.644061 12
2.657707 18.853262 -0.112985 8
2.656948 18.847878 -0.990879 9
5.223557 44.885136 -3.659560 4
-1.422004 36.224651 -0.911318 4
-1.422541 36.238342 -1.469283 2
2.277872 40.602856 -2.508655 3
-1.423848 36.271622 -3.150266 4
-1.422875 36.246834 -3.710243 5
1.213848 9.803946 -0.647491 0
1.830304 19.176811 -0.040346 101
3.394556 21.254677 -2.118037 8
3.631598 48.627892 -3.008120 3
3.805146 48.554802 -4.509531 3
-0.620247 36.333450 -4.365299 5
7.365913 49.063862 -2.487278 13
2.114692 11.585814 -0.794631 0
7.543923 49.025040 -1.723475 19
2.446859 18.964148 -1.216416 2
4.338234 44.800201 -4.865781 2
0.773207 11.927629 -1.605443 0
2.441183 18.920155 -3.104835 1
4.500213 44.762192 -2.082228 10
4.500078 44.760849 -2.775135 10
3.431198 21.561428 -3.553339 3
1.543485 40.509800 -1.019076 9
1.542402 40.481396 -1.641245 13
8.184522 49.108833 -2.400112 5
1.543838 40.519077 -4.871006 17
3.575102 48.475121 -2.811161 5
3.578840 48.525810 -3.564653 8
2.679240 18.893873 -0.589703 2
3.754463 48.483845 -4.314359 4
5.246371 44.869732 -2.699739 3
5.246959 44.874760 -3.397136 4
3.882403 15.171516 -1.056635 1
1.894675 9.996678 -0.961787 0
2.051071 10.599246 -1.020511 0
7.398293 49.040489 -0.675212 2
7.396470 49.028408 -1.436949 22
7.395286 49.020554 -2.199179 19
3.307623 21.924984 -2.010104 101
3.310341 21.943003 -2.355897 4
2.063853 11.016401 -1.037767 0
20.262318 68.518593 -1.521654 5
2.455131 18.934504 -0.516642 2
2.455876 18.940254 -0.810495 4
4.539446 44.752151 -1.130754 11
4.535948 44.717663 -1.820978 17
8.151166 49.083004 -2.973435 5
4.547088 44.827496 -3.213955 1
8.325677 49.021412 -0.676955 9
2.665082 18.919914 -0.223438 1
2.656481 18.858850 -0.515343 2
2.658408 18.872534 -0.808799 5
11.705402 37.526344 -1.441417 10
5.211199 44.819817 -1.134272 3
5.209958 44.809135 -1.827617 8
1.965554 13.233975 -1.678319 0
2.601061 14.062831 -1.296492 1
3.857304 15.097569 -1.472983 3
20.398306 68.564598 -1.386024 6
3.868589 11.647051 -1.207677 0
20.553652 68.171577 -1.379592 5
2.556882 12.534999 -1.718330 0
2.620552 12.610934 -1.730045 0
4.070639 14.587254 -1.666626 1
4.063253 14.560787 -2.460350 1
2.264440 19.229914 -0.449547 1
6.570374 26.389610 -2.097335 21
7.359272 49.113029 -4.309871 4
3.829146 15.142639 -0.722926 1
7.528485 49.015766 -2.772543 13
2.289609 18.848591 -4.581198 4
4.212054 14.477232 -0.959166 3
4.217412 14.495648 -1.427059 2
12.403188 37.618263 -1.985777 2
4.281866 14.518589 -2.463563 6
12.540298 37.570499 -1.376224 4
12.672945 37.509575 -0.767129 5
2.863649 13.686033 -1.753995 0
3.072591 14.420744 -1.849586 0
2.812615 19.033199 -4.642181 2
6.650970 26.559042 -1.636213 0
2.912220 11.629246 -1.610236 0
2.552325 13.067243 -0.949701 0
8.172281 49.067074 -1.919627 10
11.729699 37.542000 -3.641774 0
4.035341 14.522420 -2.024509 2
14.696491 41.774834 -2.134888 7
6.881950 26.518858 -3.436794 1
20.401995 68.528862 -0.973449 6
12.500704 37.576313 -1.223759 2
12.509930 37.604042 -3.056345 2
20.579092 68.208557 -0.969964 6
12.618601 37.471607 -0.614229 14
17.024559 68.271629 -2.850642 10
6.703753 26.469658 -2.369703 55
6.941877 26.589386 -2.810765 2
20.514160 68.559814 -0.836876 9
4.784921 14.318058 -2.027704 5
20.781557 68.537743 -0.837531 7
11.599411 37.559811 -0.384223 3
3.666387 11.872050 -1.078332 0
8.069513 26.129723 -3.285186 5
11.721972 37.469013 -1.590563 18
11.751889 37.564644 -2.807551 2
14.693413 41.728859 -1.877418 9
14.696737 41.738300 -3.925872 7
15.418331 41.820183 -1.891495 4
12.494617 37.512108 -2.210532 3
20.654217 68.298035 -1.656601 12
14.686967 41.785030 -1.709232 3
15.379421 41.786530 -1.718332 7
15.404593 41.854923 -3.784343 3
7.638541 12.046637 -2.604085 0
5.379493 9.528000 -1.469660 0
8.877759 12.988969 -1.731383 0
7.208014 11.791031 -1.733582 0
5.927348 8.350152 -1.375410 0
8.284818 13.180543 -1.870161 0
6.335717 8.518931 -1.425996 0
8.750226 12.196084 -1.882943 0
8.731881 11.984058 -1.860041 0
11.173015 11.013860 -1.452653 2
11.130525 10.891826 -2.286301 2
10.970066 11.024194 -2.088940 0
7.507730 7.489667 -1.424398 0
11.050420 10.520230 -1.590153 3
11.041123 10.511380 -1.912317 2
7.188700 6.006637 -1.258263 0
14.533911 8.852746 -1.674608 0
9.369821 7.260386 -1.592131 0
7.760274 4.748425 -0.877618 0
8.984691 4.433878 -1.141541 0
9.795530 4.946146 -1.473919 0
11.466890 5.722678 -1.607621 0
27.156511 8.093638 -1.039069 7
27.356222 8.153160 -1.486007 1
26.000526 8.439053 -0.109733 6
26.495451 8.492477 -0.966746 2
12.805963 6.942654 -1.461668 0
26.747129 8.142724 -0.971469 2
27.244265 8.071153 -0.550551 3
10.320601 4.161623 -1.494686 0
27.350437 7.993678 -0.552100 3
14.951549 7.028653 -1.984661 0
27.460323 8.425868 -0.060159 2
27.027325 8.257407 -0.439019 5
25.993483 8.426237 -1.212155 4
26.906805 8.499693 -0.384163 2
30.719618 3.145301 -3.518356 3
31.941814 3.152185 -3.158448 8
30.501539 3.010052 -3.492093 10
31.826340 3.023046 -3.145913 39
30.421371 2.889594 -3.481678 30
31.591419 2.883937 -3.121626 1
30.360516 2.771570 -3.473528 28
43.474316 3.808094 -2.944523 29
30.311083 2.655072 -3.466735 34
43.392529 3.640723 -2.938060 40
30.308731 2.542965 -3.465377 38
43.310108 3.473997 -2.931597 40
43.383301 3.479868 -3.608804 33
32.672749 2.620752 -3.225432 0
30.266348 2.427729 -3.459491 42
38.670425 2.959233 -2.018981 6
38.662800 2.958649 -2.616277 4
38.642021 2.957059 -3.213481 2
32.821056 2.511613 -3.239142 1
30.259190 2.315568 -3.457679 45
26.969721 8.180657 -0.221354 3
43.557312 3.172657 -2.946677 2
32.601456 2.374647 -2.710404 4
32.679169 2.380307 -3.224257 2
30.719286 3.213546 -3.459064 1
30.239727 2.202622 -3.454509 43
43.114765 2.981606 -2.915980 60
32.675762 2.259696 -3.223082 1
30.541016 3.081778 -3.437695 13
30.223808 2.090131 -3.451793 40
43.086071 2.813430 -2.913287 58
31.984623 3.103428 -3.099893 2
32.632557 2.130837 -3.217990 1
30.457664 2.955270 -3.427011 11
30.227646 1.973802 -3.451340 45
43.092110 2.655252 -2.913018 101
31.888748 2.976192 -3.089523 5
33.502338 2.064349 -3.302993 1
30.412880 2.838449 -3.420778 11
30.472683 1.877667 -3.478509 30
43.428337 3.892681 -2.857856 4
31.709093 2.842231 -3.071087 1
33.438148 1.937397 -3.295942 1
30.383486 2.723411 -3.416326 11
43.362778 3.726651 -2.852623 46
32.232674 1.749045 -3.176467 0
30.341778 2.607610 -3.410539 11
30.398323 1.649507 -3.468547 25
43.308517 3.562130 -2.848176 54
43.708603 2.211123 -2.952870 2
43.394913 3.569237 -3.526209 3
32.510715 1.644646 -2.699166 0
32.298504 1.633911 -3.182343 0
30.331322 2.494755 -3.408313 11
30.551025 1.545510 -3.485301 25
38.705437 3.040745 -2.544705 3
43.652630 2.047915 -2.948562 2
43.304359 3.402042 -3.517814 11
32.564308 1.527719 -2.703132 2
32.710899 2.569807 -3.165186 0
31.401628 1.473173 -3.093422 16
30.312519 2.381387 -3.405197 11
30.818499 1.445816 -3.515187 15
43.174820 3.225112 -2.837711 59
43.528595 1.874619 -2.939676 2
43.177952 3.225346 -3.506513 13
32.613743 1.404556 -2.706768 8
32.784054 2.448933 -3.171331 0
32.417233 1.396093 -3.192919 1
30.293694 2.262906 -3.402081 10
31.181179 1.342861 -3.555940 12
43.138035 3.070982 -2.834572 53
43.502972 1.721401 -2.937521 3
43.145199 3.071492 -3.502962 3
32.789726 1.297481 -2.720981 3
32.701057 2.327977 -3.162498 1
32.298607 1.278048 -3.180776 0
30.317268 2.158276 -3.403861 9
31.535139 1.247837 -3.595787 14
43.113155 2.910437 -2.832217 51
43.656555 1.567245 -2.947484 4
32.968781 2.225621 -2.676057 1
42.315434 1.519100 -3.510965 6
32.689507 2.206768 -3.160577 1
32.311028 1.159947 -3.181560 1
30.698399 3.052204 -3.394946 2
30.297209 2.045272 -3.400745 10
31.857237 1.143656 -3.632012 12
43.071754 2.749089 -2.828816 101
43.570263 1.404263 -2.941291 3
32.968758 2.104257 -2.675411 2
42.655392 1.374776 -3.538730 10
32.661617 2.084654 -3.157121 1
32.625401 1.051512 -3.212114 24
30.614391 2.930572 -3.384444 8
32.262417 1.039812 -3.677747 10
43.201069 2.598393 -2.836665 23
42.701462 1.219607 -2.882320 3
32.960335 1.982449 -2.674120 2
42.899227 1.225255 -3.558563 2
31.739794 2.920943 -3.012972 1
33.471851 2.013215 -3.234704 1
32.887680 0.939313 -3.237576 11
30.553659 2.811786 -3.376569 8
30.366943 1.826465 -3.406977 2
32.671215 0.933130 -3.723933 12
43.427448 3.828429 -2.773378 12
43.306374 2.437878 -2.842944 4
43.040966 1.063920 -2.904939 7
32.939838 1.854307 -2.671860 2
43.322052 1.070868 -3.593269 2
31.778543 2.801498 -3.015607 1
33.455486 1.883335 -3.232400 1
33.261147 0.822175 -3.274006 12
30.516703 2.690258 -3.371318 7
30.476921 1.715660 -3.418552 10
33.008301 0.815925 -3.761970 3
43.377548 3.663857 -2.769315 32
43.490395 2.288363 -2.854455 2
43.615154 0.918170 -2.943446 2
43.353893 3.661859 -3.439456 0
32.934467 1.732935 -2.670891 1
32.217674 1.695219 -3.112184 1
33.801220 0.711571 -3.326888 5
30.490705 2.575378 -3.367380 8
30.657671 1.613135 -3.438140 9
33.479935 0.704807 -3.815402 4
38.752632 3.130215 -1.874287 0
43.299168 3.497458 -2.763474 31
43.757626 2.141634 -2.871459 3
44.188839 0.768232 -2.981952 3
43.398819 3.505507 -3.441978 22
43.752216 2.141370 -3.547519 2
32.703228 2.641579 -3.101434 0
31.344805 1.534112 -3.027303 2
30.480122 2.462009 -3.365192 10
30.893658 1.512032 -3.463961 6
43.290684 1.959759 -2.840327 11
44.622337 0.612178 -3.011034 2
43.164875 3.327417 -3.422434 4
43.281830 1.959358 -3.508773 3
32.879448 2.534552 -3.117244 0
31.409880 1.421918 -3.033064 1
30.461191 2.348138 -3.362130 11
31.264334 1.415329 -3.504917 7
45.177856 3.316066 -2.183811 5
43.156425 3.167693 -2.752808 25
43.636559 1.815178 -2.862565 50
43.172810 3.168895 -3.422119 5
44.093388 1.834181 -3.573996 4
30.453730 2.235312 -3.360379 10
31.602934 1.314608 -3.542313 7
38.533665 2.686428 -1.267898 6
43.131908 3.007001 -2.750522 37
42.246918 1.602289 -2.771000 8
43.092640 3.004263 -3.414869 3
42.271118 1.603207 -3.425792 34
32.754135 2.283500 -3.103693 0
32.318634 1.225741 -3.119865 0
30.836243 3.137126 -3.350759 6
30.461718 2.123681 -3.360379 9
31.953133 1.211879 -3.581044 6
43.090858 2.845474 -2.747221 36
43.930969 2.900950 -3.480436 3
42.515789 1.456453 -3.445165 11
31.808617 2.100459 -3.013349 0
32.589516 1.116411 -3.145598 0
30.744631 3.013996 -3.339582 7
30.461361 2.011494 -3.359504 9
32.338749 1.107821 -3.623781 6
43.065140 2.685288 -2.744936 38
43.017986 2.682348 -3.407304 3
42.891453 1.311956 -3.475194 11
33.469509 2.086961 -3.169945 1
32.792374 1.003047 -3.164803 12
30.723795 2.898306 -3.336142 8
30.444721 1.898353 -3.356879 9
32.759789 1.002051 -3.670526 6
43.490719 3.941888 -2.693861 55
43.107147 2.529321 -3.413608 4
43.258652 1.164495 -3.504576 8
33.449104 1.962633 -3.167310 1
33.062496 0.890021 -3.190536 7
30.678766 2.780645 -3.330123 8
30.483229 1.788610 -3.360379 11
33.184456 0.893304 -3.717715 1
43.413391 3.774511 -2.688197 68
43.282959 2.380489 -2.757633 4
43.678455 1.015609 -2.863611 3
43.482357 3.780507 -3.366070 9
43.243530 2.378320 -3.423695 4
43.585487 1.013447 -3.530730 2
33.408356 1.837402 -3.162793 1
33.467556 0.778186 -3.229327 6
30.657055 2.665431 -3.326684 7
30.525307 1.678840 -3.364317 12
33.604782 0.781377 -3.764459 2
43.359295 3.609736 -2.684010 71
43.462826 2.230630 -2.768553 2
44.017101 0.862077 -2.885587 8
43.411255 2.227983 -3.436305 3
43.943680 0.860639 -3.559466 2
32.110409 1.647993 -3.039322 1
30.615099 2.548759 -3.321095 9
30.686117 1.574895 -3.381382 14
52.840641 -0.824550 -0.313605 7
43.288658 3.444146 -2.678838 64
43.793690 2.086710 -2.789123 2
44.554745 0.709259 -2.920642 3
43.369755 3.450599 -3.355305 5
43.534634 2.074367 -3.445446 2
44.309307 0.705351 -3.588849 1
32.716236 2.602980 -3.038807 2
31.499683 1.500917 -2.980975 8
30.608376 2.435273 -3.319376 7
30.922029 1.473393 -3.406760 7
43.237297 3.280623 -2.674897 74
43.226757 1.900923 -2.752554 5
43.246906 3.281353 -3.344848 2
43.585766 1.916711 -3.448914 1
32.753353 2.485156 -3.041389 1
30.605202 2.322165 -3.318086 8
31.221161 1.372970 -3.439138 11
43.193825 3.110571 -2.671449 66
43.532894 1.746941 -2.771600 9
43.215431 3.112126 -3.341464 4
42.289921 1.697061 -3.345834 21
32.373512 1.299124 -3.062661 0
30.613894 2.204636 -3.318086 10
31.524162 1.265040 -3.471955 10
43.141205 2.947881 -2.667509 70
42.202591 1.538649 -2.686527 4
42.459240 1.548006 -3.358758 5
32.723400 2.236022 -3.036963 1
33.253567 1.212379 -3.145477 0
30.997227 3.110874 -3.307293 6
30.609863 2.091602 -3.316796 9
31.862349 1.161657 -3.508708 9
43.091473 2.793397 -2.663815 74
44.032555 2.854402 -3.402979 39
42.850967 1.412527 -3.389335 7
31.804920 2.061748 -2.951036 2
30.936630 2.995752 -3.299692 5
30.616978 1.984740 -3.316796 9
32.219883 1.062087 -3.547651 8
43.125332 2.636901 -2.665292 57
42.995789 2.628980 -3.322087 17
43.238499 1.266670 -3.419597 6
33.557522 2.051877 -3.112933 1
33.169838 0.971709 -3.136819 6
30.887995 2.876810 -3.293358 5
30.616108 1.872024 -3.315936 9
32.620987 0.955631 -3.591405 8
43.492485 3.890009 -2.609541 33
43.234352 2.484542 -2.671449 49
43.104679 2.477089 -3.329777 3
43.609589 1.117577 -3.448598 7
15.914096 -0.598566 -1.320496 0
33.521076 1.926350 -3.108876 1
33.479717 0.857980 -3.165804 3
30.830982 2.757553 -3.286179 5
30.662468 1.762075 -3.320235 10
33.009815 0.845938 -3.633848 11
43.494118 3.721876 -1.936469 0
43.411617 3.714816 -2.603814 39
43.367157 2.325147 -2.679084 38
43.446133 3.717770 -3.278670 7
43.241306 2.318399 -3.339619 3
43.968361 0.957855 -3.476654 6
31.967602 2.735530 -2.908620 2
33.492428 1.795709 -3.105557 1
30.805672 2.636101 -3.282378 6
30.796082 1.651144 -3.333993 14
33.473927 0.729233 -3.684603 3
43.365250 3.550786 -2.600235 41
43.630589 2.178921 -2.694846 15
43.388927 2.166853 -3.350384 3
44.354324 0.803625 -3.506916 4
32.162178 1.606186 -2.981645 1
30.783413 2.520574 -3.279000 5
31.024353 1.549363 -3.358068 13
33.718872 0.610929 -3.711294 2
43.318260 3.387157 -2.596655 19
43.163689 1.997039 -2.665539 2
44.605167 0.644644 -2.837881 5
43.301228 3.385825 -3.265774 3
43.715282 2.022560 -3.374990 101
31.602871 1.462159 -2.929277 30
30.776581 2.406493 -3.277311 5
31.295984 1.447960 -3.386872 12
43.246761 3.222133 -2.591644 39
43.290386 1.843919 -2.672927 22
43.209923 3.219388 -3.257976 3
43.439503 1.850271 -3.353152 2
30.777262 2.293083 -3.276467 6
31.607021 1.346276 -3.419976 13
30.570015 3.257275 -3.856498 34
52.566257 -1.292042 -1.018809 9
43.218452 3.060783 -2.589258 39
43.955097 1.710860 -2.713564 2
43.129917 3.054513 -3.251078 2
42.254436 1.644665 -3.261188 10
32.640064 2.311609 -2.966402 0
32.360970 1.259583 -2.998609 0
30.757685 2.178296 -3.273511 6
31.949514 1.243568 -3.456518 11
30.400137 3.126530 -3.833596 6
43.229382 2.902363 -2.589258 11
44.212444 1.558611 -2.729080 88
43.646263 2.930352 -3.289167 5
42.431568 1.495830 -3.274414 15
32.688061 2.194633 -2.970013 0
30.765463 2.065552 -3.273511 6
32.319500 1.139352 -3.496071 10
30.261311 3.000211 -3.814677 31
43.457561 4.147744 -2.524779 3
43.279575 2.746428 -2.591644 12
43.019787 2.729943 -3.241181 5
42.835377 1.352889 -3.305171 14
33.491020 2.125268 -3.042242 0
33.201355 1.048614 -3.075686 0
31.184608 2.976370 -3.264893 12
30.760918 1.952021 -3.272244 6
32.705044 1.032938 -3.537343 9
30.220737 2.884375 -3.808205 28
43.305294 2.588739 -2.592599 26
43.033485 2.572491 -3.241481 4
43.274593 1.208015 -3.338696 13
33.466770 2.000604 -3.039352 0
33.248779 0.928144 -3.079742 2
31.120033 2.855149 -3.257015 10
30.759924 1.838792 -3.271399 6
33.070362 0.923163 -3.576465 12
30.148111 2.765979 -3.797750 101
43.490776 3.829429 -2.525010 65
43.342400 2.431565 -2.594269 14
43.407280 3.822077 -3.192318 41
43.185997 2.422791 -3.252278 3
43.677425 1.059065 -3.369454 13
33.654118 0.816025 -3.116990 10
31.094620 2.737928 -3.253283 9
30.802200 1.728044 -3.275200 6
33.725533 0.817757 -3.646971 2
30.185720 2.657898 -3.801235 200
43.416977 3.662610 -2.519929 38
43.526463 2.281883 -2.604768 14
43.393745 2.274925 -3.267273 3
44.095692 0.907500 -3.401441 14
32.267185 1.691613 -2.929204 0
31.064806 2.620594 -3.249136 10
30.887770 1.619297 -3.283645 7
30.151760 2.543571 -3.795758 200
43.398876 3.493316 -2.518082 27
43.782173 2.126753 -2.619563 13
43.621288 2.118938 -3.283769 3
44.461723 0.744258 -3.429430 11
32.093731 2.583328 -2.856561 2
31.712408 1.540455 -2.878284 8
31.031013 2.497787 -3.244575 10
31.112274 1.511303 -3.306871 7
30.098003 2.422686 -3.787792 100
30.810661 1.496652 -4.143268 2
43.367588 3.330863 -2.515541 27
44.112774 1.980776 -2.638891 10
43.184746 3.316819 -3.173029 2
43.672592 1.961011 -3.287068 19
32.011616 2.458663 -2.848431 1
31.008228 2.381598 -3.241258 10
31.383837 1.409214 -3.335163 7
30.098768 2.311746 -3.786797 65
31.180296 1.400075 -4.192257 2
43.371544 3.171302 -2.515079 29
43.144890 3.154729 -3.169230 1
43.643620 1.799445 -3.284369 2
31.952856 2.336374 -2.842422 1
32.303970 1.331906 -2.931010 0
30.988976 2.265896 -3.238356 10
31.674942 1.305971 -3.365567 7
30.527281 3.207464 -3.687366 25
30.067455 2.198515 -3.781818 61
38.561008 2.677511 -1.045943 15
43.362957 3.010938 -2.513925 24
42.234814 1.586324 -2.525785 13
43.633728 3.029739 -3.204301 9
42.302673 1.588873 -3.182997 17
31.913506 2.215937 -2.838180 1
30.989132 2.151752 -3.237526 11
32.017376 1.202561 -3.401461 8
30.384731 3.079938 -3.668760 40
30.059475 2.087201 -3.779827 63
43.385654 2.852769 -2.514617 8
43.035488 2.829745 -3.159586 8
42.682941 1.446514 -3.211189 9
31.889606 2.096861 -2.835352 2
31.370310 3.063723 -3.223874 9
30.965052 2.036068 -3.234209 9
32.375374 1.097193 -3.439044 7
30.308857 2.960058 -3.658264 40
30.082762 1.978054 -3.781818 56
43.519375 2.701403 -2.521777 7
42.993813 2.668779 -3.155786 8
43.110573 1.302835 -3.242980 9
31.885151 1.979225 -2.834292 4
33.343979 1.007681 -3.024184 7
31.294165 2.940534 -3.214920 3
30.948481 1.921082 -3.231721 9
32.780743 0.990659 -3.481695 6
30.264147 2.843749 -3.651584 21
30.133387 1.870487 -3.787295 39
43.664524 2.549798 -2.529629 7
43.106846 2.517232 -3.163385 7
43.529739 1.155833 -3.274172 10
31.852411 1.860027 -2.830757 5
34.004520 0.902913 -3.083772 3
31.217546 2.817949 -3.205966 0
30.955311 1.807641 -3.231721 7
30.222946 2.728168 -3.645382 3
30.227203 1.765123 -3.798248 31
43.769272 2.394978 -2.535172 7
43.454636 3.762052 -3.111216 37
43.271137 2.367720 -3.174783 7
43.932449 1.005406 -3.304163 11
31.823210 1.741310 -2.827575 14
31.275236 2.707629 -3.210850 1
30.981592 1.695258 -3.233794 5
30.248569 2.618747 -3.647291 2
30.372175 1.661912 -3.815673 22
43.458881 3.601995 -2.438060 36
43.981155 2.244926 -2.546951 6
43.476089 3.603421 -3.111785 6
43.442871 2.217450 -3.186765 4
44.366547 0.852661 -3.336554 10
32.168369 2.666205 -2.801312 8
31.801527 1.623242 -2.825101 15
31.233398 2.588712 -3.205559 1
30.959787 1.580277 -3.230892 7
30.155060 2.499337 -3.634887 4
30.794256 1.571828 -3.867949 6
43.428001 3.439212 -2.435604 34
44.208469 2.094097 -2.559653 6
44.670891 0.694727 -2.669911 5
43.779354 3.467037 -3.132560 5
43.669876 2.068585 -3.202840 2
32.122311 2.543875 -2.796470 9
31.811241 1.506857 -2.825454 17
31.175240 2.468874 -3.198639 0
31.032928 1.469989 -3.237941 18
30.215485 2.392868 -3.641089 3
31.132822 1.474721 -3.909770 15
43.464207 3.281821 -2.436944 5
43.473904 1.899630 -3.187935 2
32.063866 2.421023 -2.790591 9
31.868299 1.392513 -2.830050 14
31.124559 2.350100 -3.192534 0
31.232866 1.364748 -3.258258 6
30.682878 3.292052 -3.597799 1
30.144848 2.276125 -3.631547 3
31.371960 1.370825 -3.939145 7
43.276302 4.490490 -2.348728 1
43.499298 3.131802 -2.438283 7
43.647839 3.142496 -3.121461 2
42.240593 1.698032 -3.097043 12
31.996601 2.303647 -2.784020 11
31.112728 2.240011 -3.190499 0
31.607138 1.270577 -3.296820 16
30.706038 3.186158 -3.599188 2
30.085270 2.166037 -3.623437 58
31.773123 1.277249 -3.988932 7
43.312340 4.333831 -2.349807 1
43.606113 2.978880 -2.443642 7
43.647118 2.981681 -3.120607 9
42.429916 1.549899 -3.110487 11
32.000858 2.186086 -2.783674 11
31.092939 2.124063 -3.187650 0
31.885910 1.164742 -3.325431 15
30.381472 3.039969 -3.559815 19
30.100933 2.056296 -3.624391 32
43.760216 2.828313 -2.451681 8
43.112282 2.786435 -3.081617 71
42.897827 1.409577 -3.144388 10
31.980816 2.066986 -2.781254 11
44.617012 0.047502 -4.044765 0
31.839893 3.068077 -3.209681 27
32.192165 1.057800 -3.356943 23
30.412186 2.930504 -3.562131 1
30.116194 1.946472 -3.625345 19
43.873932 2.674222 -2.457486 6
43.086361 2.626217 -3.079056 11
43.329376 1.264793 -3.175660 10
31.968288 1.948544 -2.779524 9
33.207367 0.969329 -2.947409 6
31.549736 2.923448 -3.179329 3
32.589527 0.951295 -3.397993 14
30.395031 2.816451 -3.558889 1
30.127089 1.836318 -3.625822 35
43.971161 2.518421 -2.462399 6
43.407730 3.861818 -3.024424 34
43.318768 2.481055 -3.094994 8
43.772408 1.117170 -3.207808 11
31.943386 1.829538 -2.776757 9
33.006420 0.842398 -3.441116 15
30.282467 2.694114 -3.544529 1
30.236706 1.731789 -3.638226 32
44.243717 2.363626 -2.477135 8
43.358624 3.689703 -3.019993 8
43.375782 2.317259 -3.098409 5
44.207111 0.958426 -3.239372 10
31.962112 1.707508 -2.777795 9
31.057453 1.659178 -3.181138 0
33.331589 0.722641 -3.474702 14
30.237165 2.573102 -3.538044 0
30.393833 1.623726 -3.656355 30
44.335850 2.205616 -2.481824 7
43.595188 2.168770 -3.113492 4
44.629139 0.803936 -3.270058 10
32.300694 2.629493 -2.749820 1
31.980101 1.590943 -2.778833 9
32.603878 2.654174 -3.282365 0
31.182552 1.551267 -3.193348 32
30.198874 2.458391 -3.532485 1
38.662949 3.004813 -2.093436 2
43.802235 3.404229 -3.049072 2
44.204674 2.036693 -3.156466 10
32.274353 2.508304 -2.746777 6
32.069313 1.477567 -2.786095 10
32.831631 2.551614 -3.304329 0
31.259581 1.440259 -3.200675 25
30.187874 2.346146 -3.530169 1
31.095217 1.432686 -3.739367 8
53.147240 -1.121632 -0.723729 4
84.877777 -7.204975 -1.486875 10
44.007320 3.257949 -2.382149 2
43.679119 3.233651 -3.039656 2
43.530190 1.845763 -3.107800 3
32.191906 2.383230 -2.738998 6
32.650242 2.417162 -3.285160 1
31.256701 1.325343 -3.199861 27
30.152687 2.232263 -3.525074 1
31.374044 1.330319 -3.772286 11
44.238102 3.112047 -2.394008 3
43.145340 3.035174 -3.001716 86
43.652283 1.690681 -3.116054 5
32.136810 2.260749 -2.733587 7
32.631092 2.295521 -3.282365 1
31.328941 1.213390 -3.206779 6
30.172554 2.122569 -3.526464 15
31.723967 1.228690 -3.813792 12
44.556080 2.970347 -2.410611 10
43.032745 2.868793 -2.993130 57
42.266575 1.481890 -3.016729 10
32.124996 2.141624 -2.731896 6
33.119087 1.161174 -2.876014 1
32.603542 2.173527 -3.278770 1
32.331352 1.133556 -3.308937 9
30.219772 2.014612 -3.531096 2
32.196598 1.128831 -3.870088 9
44.526810 2.804510 -2.408455 10
43.035011 2.710549 -2.992577 8
42.734322 1.341486 -3.049743 7
32.092857 2.021361 -2.728515 6
33.350155 1.046905 -2.895727 3
32.567600 2.051262 -3.274377 1
32.709152 1.026783 -3.347195 8
30.337984 1.910830 -3.544066 2
32.573654 1.022530 -3.914934 11
43.228333 2.556117 -3.005316 3
43.217758 1.190568 -3.083894 7
32.080486 1.896938 -2.726824 3
33.405605 1.975293 -3.357844 0
33.102676 0.911917 -3.387082 10
30.273705 1.790102 -3.535728 10
32.890965 0.906084 -3.952623 5
43.301167 2.401199 -3.009747 4
43.700478 1.043594 -3.118046 8
32.067326 1.778244 -2.725133 2
32.216476 1.786515 -3.237636 1
33.459846 0.799041 -3.423305 7
30.407009 1.686174 -3.550551 9
33.338737 0.796149 -4.006056 4
43.576672 2.256300 -3.028301 1
44.146793 0.892366 -3.149636 7
32.049744 1.659462 -2.723104 1
32.187035 1.666571 -3.234042 1
30.567726 1.582727 -3.568616 4
43.995182 2.116321 -3.056826 2
44.624496 0.738414 -3.183503 8
32.079498 1.543135 -2.725133 5
31.302433 1.505756 -3.144584 25
31.001919 1.491300 -3.618643 2
43.468456 1.931322 -3.019716 2
32.176517 1.429616 -2.732911 4
31.304863 1.390888 -3.653385 3
43.558971 1.775400 -3.025532 5
32.412518 1.321087 -2.752526 10
31.312632 1.276257 -3.144584 13
31.671003 1.290864 -3.695537 3
42.185459 1.564560 -2.929712 14
32.751717 1.214685 -2.780934 5
31.368805 1.163396 -3.149776 3
32.032856 1.188024 -3.737227 3
86.025429 -10.824832 -0.181592 15
42.521931 1.420999 -2.952698 2
8.340667 -1.319241 -0.683867 0
33.086571 1.105688 -2.809004 7
8.341107 -1.319311 -0.814629 0
32.391171 1.082449 -3.252013 7
32.477760 1.085343 -3.788644 3
43.081272 1.281631 -2.991192 3
32.673401 0.972006 -3.279968 6
32.862770 0.977639 -3.833112 4
43.556385 1.136003 -3.023870 3
33.006973 0.860861 -3.313116 8
33.267277 0.867650 -3.879897 1
44.098827 0.988418 -3.061257 8
33.451572 0.749774 -3.357445 3
33.675388 0.754790 -3.927145 2
44.643143 0.836922 -2.410395 6
44.549000 0.835158 -3.092274 5
52.834335 -0.868733 -2.954298 11
19.245354 -4.109688 -1.327795 2
19.082195 -4.294761 -1.319717 1
52.914684 -0.568925 -1.228594 7
32.462112 -8.066038 -2.773537 2
32.104015 -7.977060 -3.255203 1
32.252110 -8.139478 -3.273222 1
19.482994 -5.069132 -0.119465 9
18.944828 -4.929111 -0.416886 2
19.215124 -4.999437 -1.339643 16
34.156281 -9.020656 -0.209639 1
34.590481 -9.271079 -0.212511 49
36.289879 -9.726559 -1.377657 16
19.059376 -4.469634 -3.573883 7
17.696423 -4.812655 -0.954696 10
31.954155 -7.741148 -3.682100 1
18.872303 -4.645261 -0.974362 10
32.189350 -7.923142 -3.197833 1
17.562294 -4.984200 -0.388781 7
8.308159 -1.524983 -0.390961 4
19.051893 -4.199988 -0.940514 9
18.284243 -5.261578 -0.990463 2
8.256883 -1.307616 -3.898231 3
35.611984 -9.321378 -0.147772 15
18.756979 -4.569685 -0.633687 3
31.630491 -6.648873 -2.992709 3
17.499994 -5.525787 -0.108902 9
84.940430 -7.156532 -0.669498 19
87.168854 -7.666146 -0.687279 4
19.060295 -4.791859 -0.645103 1
19.028761 -4.145810 -0.901393 2
18.870199 -4.744068 -0.938010 1
18.264875 -4.591887 -1.488824 3
19.484901 -4.320055 -1.231177 2
19.020390 -4.930346 -0.342975 28
17.733610 -5.201804 -0.926495 4
33.598595 -11.016778 -2.931864 93
19.001499 -4.359256 -0.902317 4
33.439514 -11.100515 -3.467124 7
17.372393 -5.234450 -0.072835 18
19.523825 -5.290603 -0.042365 4
10.033994 -2.083237 -1.376474 0
34.927261 -9.740044 -0.075943 7
18.745354 -4.590776 -1.190540 3
19.202738 -5.430934 -0.041796 6
18.980467 -4.722162 -0.905276 5
32.285511 -8.032331 -3.080480 1
32.456661 -8.201346 -3.099657 1
19.057261 -4.889886 -0.607988 4
17.963961 -5.294580 -0.039224 4
17.281780 -5.694667 -0.073043 6
32.414936 -8.444068 -3.101501 3
19.626112 -5.193140 -0.315378 7
18.845848 -4.350562 -1.155872 5
18.386736 -4.865197 -1.466812 14
15.789352 -2.153327 -0.125160 0
19.163391 -5.145929 -1.224035 4
36.558933 -9.817139 -3.504954 2
8.244808 -1.390361 -2.404175 29
19.525822 -4.734259 -0.582265 3
17.069368 -5.376059 -0.037481 3
18.004883 -5.047726 -0.577842 17
8.279113 -1.489947 -0.860405 5
19.240589 -4.169806 -1.442286 23
17.257883 -5.574811 -0.037984 2
18.486319 -4.842553 -1.436893 2
34.087639 -6.781692 -2.479125 6
16.399981 -5.631602 -0.036317 1
17.971033 -4.919353 -0.539971 7
33.986214 -7.020888 -2.475425 5
17.044405 -5.322124 -0.003116 6
34.007103 -7.155265 -2.478841 6
19.705416 -4.879519 -0.549317 2
18.328276 -4.538507 -1.675194 6
32.203674 -7.974378 -3.457701 7
19.257347 -4.199484 -1.405910 5
32.299213 -8.123789 -2.954832 5
32.216667 -8.103027 -3.462262 2
19.459951 -4.318443 -1.421847 4
19.152100 -4.323842 -1.400502 4
19.143900 -4.395793 -1.401072 12
36.893719 -10.001685 -0.447017 4
17.409935 -5.319100 -0.527573 11
18.537603 -5.025443 -0.815074 8
17.682938 -5.402508 -0.820216 1
17.642075 -5.390023 -1.102421 2
19.587296 -5.387153 -0.237564 2
17.468605 -5.407105 -0.248957 16
17.966063 -4.941260 -0.504199 6
29.973301 -10.332931 -2.935547 9
20.136106 -4.267576 -0.161665 0
18.184328 -5.073052 -0.220772 1
19.237207 -4.154311 -1.365851 10
32.524319 -8.104399 -2.390900 3
19.424515 -4.269337 -1.380252 7
17.652668 -5.752397 -0.252769 6
32.490253 -8.349337 -2.911289 4
19.307718 -4.317911 -1.985233 19
32.497070 -8.351089 -3.431852 6
32.471844 -8.471599 -2.393746 4
19.584013 -5.186024 -0.198015 9
19.009081 -5.183187 -0.192581 2
17.767597 -5.526509 -0.789635 2
18.816404 -4.571640 -1.045317 4
32.701416 -8.072196 -2.337621 1
32.524536 -8.155117 -2.327098 1
17.690199 -5.173647 -1.030465 2
17.873318 -5.298388 -0.468626 9
19.959364 -5.316744 -0.162230 2
18.188726 -5.059909 -0.148282 3
18.420105 -5.343170 -0.150638 6
18.487341 -6.075469 -0.788400 0
32.910244 -10.815248 -3.006396 101
17.605759 -5.247167 -0.426522 3
17.154112 -5.249780 -0.140899 3
17.510313 -5.358789 -1.270862 2
6.211902 -4.461732 -0.856530 1
6.127884 -4.435523 -0.847181 1
6.063413 -4.422815 -0.840504 0
5.922224 -4.386696 -0.825367 0
5.787977 -4.353323 -0.698638 0
5.651486 -4.315890 -0.685963 0
5.522156 -4.281571 -0.674057 0
6.031548 -4.411517 -0.590738 5
6.038710 -4.416755 -1.217645 0
5.959240 -4.392249 -0.699790 0
5.969090 -4.399508 -0.816030 2
5.770395 -4.353362 -0.795465 3
5.716419 -4.345607 -0.790214 2
5.620791 -4.307066 -0.779276 2
6.183910 -4.468350 -0.588386 3
5.562449 -4.294810 -1.143751 1
5.604089 -4.272421 -0.761810 1
5.528473 -4.246901 -0.753641 1
6.243447 -4.430103 -0.560840 3
5.556080 -4.278603 -0.744479 1
6.166144 -4.443564 -0.953420 1
6.319027 -4.497677 -0.931741 1
5.846817 -4.356814 -0.875922 1
6.394116 -4.494863 -0.663190 2
5.765124 -4.330468 -0.737490 1
5.785589 -4.345840 -0.869243 1
6.312556 -4.472185 -0.656426 1
6.044560 -4.381322 -0.870383 0
2.929106 -3.490525 -0.831871 1
2.612700 -3.395603 -0.890538 1
2.508081 -3.386262 -0.875886 0
2.873507 -3.493539 -0.543396 1
2.667508 -3.419418 -0.520973 6
-14.854491 1.980431 -1.011128 1
-15.824527 2.015380 -2.912265 2
-14.776944 2.750483 -3.124210 1
-40.536110 8.626580 -4.721933 4
-40.185726 8.706084 -4.684803 13
-15.752847 1.990328 -0.246661 2
-15.679743 1.981091 -1.463348 2
-14.871781 2.100948 -0.926523 13
-40.594906 8.545806 -4.645919 6
-40.248474 8.627062 -4.609859 8
-15.877873 2.025271 -0.217919 3
-13.825759 3.660155 -0.717003 0
-14.074609 3.781286 -0.730622 0
-18.623306 5.638315 -2.216972 4
-44.850529 13.758427 -0.999078 6
-33.918022 10.540913 -4.046789 3
-15.651126 1.922268 -1.368493 2
-15.825040 2.002535 -0.155910 2
-15.876265 2.009018 -0.648337 3
-15.945620 2.136666 -4.625965 9
-18.311174 5.650061 -1.848567 1
-18.353405 5.249591 -1.214384 3
-18.739866 5.434508 -0.040866 1
-44.325344 14.391922 -0.902965 1
-18.479679 6.150231 -1.577285 1
-34.407936 12.819443 -4.183538 0
-44.394985 13.591562 -0.810420 3
-33.709873 12.700271 -4.104296 0
-11.891017 3.277788 -0.191613 0
-15.001082 4.135085 -0.480855 0
-14.522243 4.003092 -0.697220 0
-13.466520 5.129980 -1.194892 0
-35.193241 13.406628 -4.290855 1
-11.594941 2.802755 -1.602248 0
-12.610764 3.525975 -0.203418 0
-13.574893 5.228323 -0.981508 0
-35.195789 13.555534 -4.297194 0
-35.149567 13.685893 -4.297647 1
-9.573539 3.769963 -0.377284 0
-35.133739 13.835310 -4.302176 1
-34.938793 13.906661 -4.284516 1
-34.994507 14.077648 -4.297647 1
-34.504658 12.775989 -4.120604 0
-33.985447 13.816649 -4.179916 1
-33.679546 12.611044 -4.027561 0
-34.004421 13.969822 -4.188519 0
-34.569939 13.089104 -4.139747 0
-34.546307 13.218227 -4.142418 0
-44.206303 13.947535 -0.720101 4
-35.242825 13.633015 -4.231900 0
-35.001469 13.835443 -4.214983 0
-11.948016 3.450647 -1.670406 1
-66.666733 29.103851 -4.908076 8
-34.337738 13.718842 -4.141082 0
-65.913269 29.062990 -4.860415 10
-34.036579 13.743389 -4.110810 0
-19.333975 6.495710 -0.003560 2
-10.099579 4.499580 -0.405426 0
-65.688187 29.265501 -4.852067 101
-19.353569 6.502293 -1.890404 1
-35.076599 14.320209 -4.243029 0
-10.302009 4.635098 -0.588081 0
-65.536797 29.486431 -4.848835 101
-34.156635 14.090915 -4.137966 0
-11.835057 4.498548 -0.415590 0
-65.500977 29.759407 -4.854221 101
-33.323242 13.890223 -4.043143 0
-65.398697 30.002657 -4.854760 101
-26.127724 7.274358 -2.406214 1
-26.380325 7.344686 -2.853982 1
-34.500851 13.258850 -4.067459 0
-44.093197 13.977874 -0.629744 2
-65.375214 30.282400 -4.861223 101
-35.085766 13.631425 -4.142280 0
-35.139198 13.800619 -4.154532 0
-66.840225 29.018593 -4.775999 19
-65.957069 28.936686 -4.720798 38
-18.772413 5.602724 -0.229098 1
-65.762993 29.139414 -4.714520 70
-35.199745 12.993554 -4.056250 2
-65.648476 29.376978 -4.713996 67
-34.287525 12.799802 -3.956510 0
-65.569450 29.630558 -4.716089 61
-33.935295 12.810226 -3.921257 2
-65.529404 29.902185 -4.721060 61
-33.891830 12.935947 -3.921687 3
-65.542618 30.198935 -4.729955 14
-33.847897 13.061504 -3.922117 2
-63.602734 32.063988 -1.516885 4
-42.392418 21.371252 -4.671667 1
-26.295916 7.466778 -3.283754 3
-68.601852 29.604239 -4.753165 10
-41.444542 21.084248 -4.575696 1
-33.706856 13.291748 -3.916958 0
-68.613632 29.908133 -4.761545 5
-40.616211 20.850603 -4.492651 1
-33.816761 13.478523 -3.935444 0
-18.517246 6.123283 -1.127975 2
-66.282196 29.181463 -4.607144 17
-40.048187 20.744837 -4.438201 1
-11.635187 3.047230 -1.206875 0
-33.671219 13.563752 -3.924266 0
-66.028915 29.359316 -4.596986 10
-9.422896 3.836016 -0.784617 0
-39.580280 20.686796 -4.394721 83
-33.643383 13.696060 -3.926846 0
-65.928131 29.604414 -4.597494 9
-39.521793 20.841021 -4.396679 114
-33.567211 13.808698 -3.923836 0
-13.468921 3.686204 -0.324208 0
-65.837349 29.854111 -4.598763 8
-39.431076 20.978266 -4.395112 53
-33.919704 10.442862 -3.630063 5
-13.439910 3.731257 -0.323837 0
-65.840034 30.146696 -4.606636 5
-39.385506 21.139565 -4.398637 48
-32.397091 12.409482 -4.659779 4
-65.919197 30.461750 -4.619587 7
-39.318474 21.280718 -4.399421 37
-68.682747 29.438915 -4.609709 1
-42.084743 21.293600 -4.549788 1
-39.253929 21.441082 -4.401379 20
-68.669640 29.731678 -4.616112 4
-41.180195 21.025841 -4.460298 0
-39.230873 21.615540 -4.407647 14
-66.844658 29.232889 -4.500605 7
-40.515320 20.873915 -4.396540 0
-39.207062 21.790113 -4.413915 18
-39.940418 20.763355 -4.342385 0
-39.175533 21.960949 -4.419399 101
-39.255775 20.407438 -4.954875 2
-48.046509 27.165697 -4.576617 4
-39.613720 20.778269 -4.315116 101
-39.212414 20.567776 -4.958882 3
-12.639842 5.217256 -0.396288 0
-39.495068 20.900984 -4.310507 101
-39.428738 21.051218 -4.311659 36
-19.274284 6.716547 -0.199501 6
-9.971262 3.474705 -0.427799 0
-9.675827 4.444454 -0.656841 0
-39.375847 21.208817 -4.314348 24
-32.544796 12.511039 -4.373785 0
-9.140524 3.222833 -0.392662 0
-42.509331 21.381828 -4.498002 0
-39.318844 21.364389 -4.316652 18
-12.111648 4.707043 -1.630025 0
-41.581997 21.106695 -4.408034 0
-39.275196 21.527487 -4.320493 13
-11.853120 4.656644 -1.327270 0
-32.478073 12.759409 -4.377270 0
-40.823837 20.910402 -4.335759 0
-39.234348 21.692493 -4.324718 11
-32.456905 12.888623 -4.380755 0
-67.018799 29.403879 -4.373653 9
-18.256413 6.018656 -1.631089 0
-40.279942 20.818544 -4.286069 0
-39.196301 21.859428 -4.329327 7
-40.135475 20.743877 -4.971874 1
-39.829094 20.770842 -4.246168 0
-39.154102 22.024408 -4.333552 101
-39.452812 20.574612 -4.896616 1
-47.694000 27.058733 -2.749044 5
-39.629356 20.851774 -4.232993 0
-39.440472 20.752390 -4.904491 7
-33.530258 12.517774 -4.299461 2
-10.341915 4.628110 -1.521843 0
-47.972496 27.449663 -1.920435 7
-66.644135 30.117607 -4.370551 1
-47.952080 27.437981 -4.474195 4
-39.531551 20.985689 -4.230734 0
-39.406284 20.919191 -4.909742 3
-33.250072 12.552227 -4.269405 1
-66.631401 30.406408 -4.376994 8
-39.447353 21.126669 -4.229981 0
-39.301311 21.048454 -4.906241 2
-33.237240 12.686749 -4.273699 1
-32.310467 13.521059 -4.393700 0
-39.418701 21.297621 -4.235251 0
-39.258881 21.211269 -4.910617 2
-33.123825 12.782756 -4.265112 1
-32.322834 13.665674 -4.402164 0
-47.509960 27.882845 -4.461279 4
-42.800560 21.592932 -4.438723 0
-39.333389 21.438135 -4.234498 0
-39.187862 21.358816 -4.911492 2
-33.054554 12.895408 -4.262249 2
-42.011238 21.388262 -4.364966 0
-39.317360 21.616699 -4.241274 0
-40.844364 20.794195 -4.954773 4
-39.165054 21.532961 -4.918493 1
-33.014458 13.019395 -4.263204 3
-41.298405 21.216297 -4.298953 0
-39.269215 21.778034 -4.244662 0
-40.042717 20.571213 -4.866641 2
-39.106731 21.687925 -4.921118 1
-32.955448 13.135892 -4.261772 3
-67.531845 29.725962 -4.267321 3
-40.509613 20.999077 -4.224827 0
-39.613995 20.534811 -4.823649 2
-39.085976 21.864105 -4.928556 1
-32.936554 13.268456 -4.265589 2
-67.378616 29.953857 -4.264549 4
-40.068840 20.957304 -4.186841 1
-39.503208 20.661463 -4.819350 64
-39.140614 22.083439 -4.945621 1
-32.917118 13.401089 -4.269405 5
-67.352180 30.238216 -4.269861 3
-39.423702 20.804247 -4.818920 41
-32.856766 13.517107 -4.267974 5
-39.364742 20.957937 -4.821070 29
-34.590195 13.116102 -4.313004 0
-32.913357 13.681643 -4.281810 3
-39.312195 21.115238 -4.824079 101
-34.549309 13.245629 -4.313931 0
-32.862991 13.802177 -4.281810 1
-9.550829 4.054481 -0.580097 0
-39.837582 21.594950 -4.195693 0
-39.286758 21.296362 -4.830957 200
-35.157555 13.633898 -4.396383 0
-9.590961 4.113073 -0.583446 0
-9.366638 4.741492 -0.789376 0
-39.232861 21.453579 -4.833967 54
-35.129543 13.771377 -4.399162 0
-8.514448 4.349379 -0.718896 0
-39.671238 21.882545 -4.194955 0
-40.728771 20.805208 -4.855370 3
-40.678326 20.967781 -4.148774 0
-40.086552 20.662748 -4.787805 1
-39.161434 21.788916 -4.844715 5
-40.293839 20.947956 -4.116993 0
-39.590672 20.582392 -4.737131 2
-39.536110 20.738436 -4.739665 76
-33.951809 13.880365 -4.276410 0
-48.024502 27.404928 -1.708692 4
-39.410606 20.857166 -4.733753 27
-34.150402 14.107874 -4.307909 0
-39.347927 21.008978 -4.735442 23
-39.316189 21.177567 -4.740932 101
-39.287243 21.348104 -4.746844 101
-39.972633 25.340055 -0.099123 3
-39.963470 25.334246 -2.281079 3
-39.983112 25.346699 -3.011582 3
-39.907047 22.065332 -4.133967 0
-40.853653 20.922071 -4.783727 2
-39.209759 21.679789 -4.756557 8
-65.799370 28.892145 -4.987351 80
-40.059204 20.700909 -4.699555 2
-39.154346 21.836927 -4.759512 7
-65.696686 29.134691 -4.987628 52
-40.593498 21.165850 -4.061613 1
-39.616192 20.656271 -4.656432 2
-65.629501 29.393272 -4.990674 62
-39.490910 20.775429 -4.650627 31
-65.541611 29.656588 -4.992613 64
-39.340561 20.889601 -4.642334 46
-65.508705 29.931389 -4.998428 58
-39.316357 21.061808 -4.648554 23
-39.273891 21.224693 -4.652700 21
-47.515656 27.898447 -4.143025 4
-41.736874 21.066355 -4.781882 0
-39.216797 21.379911 -4.655188 18
-40.836754 20.800196 -4.687458 0
-39.176514 21.544605 -4.659749 16
-39.849079 25.544367 -4.382668 3
-40.158592 20.640484 -4.618267 0
-39.118164 21.699619 -4.662237 15
-12.652211 7.553909 -1.979248 0
-40.689243 21.102098 -3.977863 1
-39.669384 20.573183 -4.570648 1
-39.107815 21.881691 -4.670530 13
-40.632622 21.271124 -3.980284 0
-39.579514 20.719824 -4.569427 4
-39.092785 22.070822 -4.678823 9
-40.526405 21.396095 -3.977172 0
-39.513981 20.861580 -4.570240 12
-40.451233 21.546352 -3.977517 0
-29.666723 23.975670 -3.753473 22
-39.458332 21.017483 -4.572683 9
-36.499775 19.441607 -4.967853 1
-40.417629 21.718985 -3.982013 0
-29.541609 24.054073 -3.748772 50
-39.402065 21.173256 -4.575125 8
-29.715372 24.195559 -4.366022 18
-40.442848 21.923962 -3.992389 0
-29.431704 24.144524 -3.746030 44
-11.933744 5.990570 -1.339863 0
-39.373169 21.344091 -4.580822 8
-29.611126 24.291714 -4.363758 18
-63.563698 32.214256 -1.654466 5
-63.253239 32.056915 -3.828085 7
-40.288441 22.040846 -3.985472 1
-29.418539 24.323311 -3.756215 46
-41.848812 21.209091 -4.707691 1
-39.329319 21.516132 -4.585300 8
-29.462496 24.359653 -4.355608 26
-36.161869 19.783298 -4.951632 1
-29.439304 24.522686 -3.770316 52
-40.923901 20.929209 -4.612243 1
-39.288521 21.681278 -4.589777 7
-29.409662 24.497995 -4.361041 21
-41.429428 21.370523 -3.955467 0
-40.259888 20.767241 -4.545550 1
-39.219551 21.822168 -4.590591 4
-40.880444 21.286434 -3.910826 0
-39.728012 20.686363 -4.494431 1
-39.232635 22.027117 -4.601987 2
-40.745689 21.406479 -3.905415 0
-47.121662 26.684036 -4.699634 4
-39.616684 20.813334 -4.490438 38
-12.956157 7.889239 -1.902858 0
-40.642300 21.542616 -3.903047 0
-39.547161 20.962133 -4.491236 38
-40.570107 21.695185 -3.903724 1
-29.617430 24.016262 -3.678315 39
-39.431465 21.086287 -4.486843 23
-29.724442 24.103035 -4.285767 10
-40.532402 21.866453 -3.907782 0
-29.507618 24.107027 -3.675626 40
-39.392437 21.251465 -4.491236 15
-29.611263 24.191704 -4.282205 13
-40.504494 22.043455 -3.912855 0
-29.474388 24.260571 -3.682539 40
-39.335255 21.407129 -4.493633 10
-29.503977 24.284925 -4.279534 16
-39.930790 25.329107 -1.279540 6
-39.946606 25.339140 -2.007498 6
-40.479343 22.222424 -3.918266 0
-29.412874 24.391291 -3.685996 31
-39.270496 21.558790 -4.495230 7
-23.897943 21.280325 -0.189891 1
-29.433266 24.590837 -3.699823 7
-39.222546 21.719942 -4.498824 21
-39.215637 21.904324 -4.507211 19
-8.740248 4.924074 -0.696219 0
-39.204449 22.086971 -4.515198 6
-8.964109 5.095639 -0.715604 0
-29.557812 24.031279 -3.600961 26
-29.653326 24.108934 -4.205725 10
-29.497271 24.162161 -3.604349 20
-29.490950 24.156982 -4.195224 36
-29.451515 24.305590 -3.609619 18
-29.429817 24.287683 -4.199162 33
-29.472460 24.505033 -3.623170 12
-29.432312 24.471653 -4.212288 19
-23.929602 21.371490 -0.128793 1
-23.934254 21.375645 -0.621762 1
-23.965334 21.403404 -1.610852 2
-24.009422 21.442780 -3.605083 1
-29.697157 24.023405 -4.129336 31
-29.592833 24.118977 -3.534826 43
-29.531847 24.069273 -4.118588 47
-29.504217 24.227299 -3.534826 57
-29.477221 24.205130 -4.123317 39
-39.997105 25.330107 -1.099170 5
-29.420181 24.348019 -3.535932 47
-29.475979 24.394196 -4.136214 6
-26.264225 25.070606 -4.066292 2
-23.749092 21.588821 -2.041750 2
-29.638533 24.051380 -4.052194 24
-29.564028 24.171185 -3.461886 22
-29.500900 24.119574 -4.045438 27
-29.451788 24.251453 -3.458636 17
-29.471792 24.267925 -4.053039 24
-23.915310 21.316000 -0.497671 1
-24.002302 21.393538 -3.475865 2
-21.342043 23.697771 -2.151777 255
-26.589342 24.408245 -3.901911 2
-21.348812 23.705290 -3.634729 11
-29.616631 24.084249 -3.978492 26
-29.810312 24.241751 -4.819876 47
-29.641678 24.294281 -3.400231 8
-29.459328 24.144827 -3.969784 31
-29.494055 24.354565 -3.393514 22
-29.404371 24.280510 -3.974345 28
-29.385769 24.265150 -4.780544 27
-29.403883 24.461903 -3.986370 24
-23.960884 21.415243 -2.913314 5
-23.969183 21.422661 -3.412863 4
-26.251312 25.008417 -3.919537 3
-26.188337 25.132153 -3.360758 2
-23.780165 21.569340 -0.437091 2
-23.793247 21.581205 -1.919692 1
-23.792240 21.580294 -2.415215 3
-23.787943 21.576395 -3.409485 4
-23.735088 21.687561 -4.318456 15
-29.618650 23.986422 -3.898278 27
-29.730909 24.258320 -3.330103 25
-29.505867 24.074701 -3.895022 36
-29.731184 24.258543 -4.609565 33
-29.641790 24.367132 -3.330103 20
-29.478901 24.233227 -3.903162 39
-29.478779 24.414701 -3.914965 26
-29.408815 24.356756 -4.587142 40
-26.251402 25.076757 -3.854145 5
-21.371233 23.703552 -3.512209 4
-29.570663 24.019445 -3.822703 46
-29.772089 24.183058 -4.471887 12
-29.516315 24.155390 -3.827096 29
-29.686335 24.294529 -4.472351 1
-29.442940 24.276060 -3.829093 24
-29.480608 24.307117 -4.454748 13
-29.414991 24.434687 -3.837080 20
-24.023067 21.427851 -2.793704 2
-29.416807 24.618956 -3.849061 3
-20.847122 24.170391 -1.047702 14
-20.970577 24.313526 -2.538219 5
-20.955648 24.296217 -3.032923 4
-23.886438 21.463711 -3.857684 4
-15.166125 21.791975 -0.565415 2
-15.184492 21.818365 -0.974723 2
-15.163225 21.787807 -2.201046 1
-14.671899 21.755247 -1.770483 7
-14.508718 21.857244 -0.961971 2
-20.883530 24.158840 -2.401119 21
-21.020529 24.317327 -4.317391 13
-20.673521 27.456646 -1.128143 2
-21.337498 23.679401 -2.827929 4
-21.351183 23.694588 -3.324187 9
-15.017289 21.824203 -0.106345 2
-21.298275 23.810822 -2.340390 144
-14.982807 21.945871 -2.563336 1
-21.102289 24.120218 -0.867201 200
-20.918287 24.266598 -2.347112 21
-20.987453 24.346836 -4.032246 9
-20.868080 24.388523 -2.847724 3
-15.177074 21.773645 -2.098160 2
-15.213786 21.826313 -2.514951 1
-15.216348 21.829988 -4.330833 6
-14.873316 21.682951 -0.863068 12
-14.721586 22.328156 -2.114237 0
-15.034580 21.802835 -0.004622 3
-15.093055 21.887634 -3.903271 6
-15.022899 21.957655 -2.051814 4
-14.978593 21.892897 -2.456123 1
-20.963539 24.291643 -3.740932 3
-14.768585 22.354420 -2.014529 12
-15.170873 21.785816 -1.535376 2
-15.202798 21.831661 -3.337220 3
-14.844143 22.189013 -1.955781 5
-14.503766 21.853096 -1.516900 10
-15.022532 21.818750 -1.073221 21
-15.075730 21.896017 -2.307105 2
-15.170388 21.767315 -1.841351 1
-15.204522 21.816292 -3.100305 1
-14.875073 22.033300 -2.255725 13
-14.763536 22.395182 -2.276017 1
-9.216844 25.832521 -2.698959 5
-9.035354 25.754801 -1.368313 7
-9.037902 25.762064 -1.789430 21
-9.381183 25.734076 -1.267757 8
-7.876269 26.775101 -3.125623 3
-7.609109 26.585175 -1.812452 2
-7.625785 26.643438 -2.244362 2
-7.624165 26.637777 -2.672798 5
-9.112272 25.877148 -2.540207 4
-8.970130 25.774666 -2.104717 23
-9.162820 25.830597 -2.484642 9
-9.166268 25.840321 -2.910773 8
-6.191716 28.990377 -3.377532 6
-8.198806 27.038012 -1.307703 2
-8.078579 26.997538 -2.173305 2
-8.068059 26.962378 -2.605851 2
-6.253451 28.967434 -3.318831 3
-6.206412 28.979940 -3.261493 3
-4.278505 31.955191 -1.678360 11
-4.278287 31.953562 -2.175204 2
-9.845605 29.739100 -0.306190 2
-6.278179 28.966763 -3.204158 6
-3.575585 32.099766 -1.184325 9
-3.573695 32.082794 -2.676689 3
-3.574451 32.089584 -3.177251 3
-4.735772 31.695272 -0.559385 2
-4.295579 31.947069 -1.553977 9
-4.293488 31.931517 -2.049623 2
-4.303373 32.005032 -3.553777 2
-1.906265 32.124191 -0.685328 1
-4.693944 31.714651 -0.498044 7
-6.192082 28.977304 -3.088255 8
-3.585125 32.022587 -1.057675 13
-6.252826 28.974337 -3.031768 6
-1.419675 36.262356 -2.378581 8
-1.419169 36.249447 -4.062730 2
-1.921717 32.081600 -0.560990 2
-4.717042 31.668434 -0.374424 2
-0.622027 36.288773 -1.261076 4
-0.623446 36.371563 -2.945988 2
-0.623757 36.389713 -3.510857 2
-4.382430 31.860235 -0.870230 9
-4.272368 31.926414 -1.366937 19
-4.274813 31.944675 -3.359017 4
0.791680 19.591667 -0.116356 40
-0.617234 32.205185 -0.562247 4
-3.569355 32.064030 -1.865870 4
-3.570618 32.075382 -2.364355 5
-3.446480 32.027306 -0.871637 5
1.544749 40.430908 -0.783944 7
1.548978 40.541595 -3.285661 3
1.549301 40.550045 -3.914522 2
-4.297504 31.936163 -1.243554 7
2.299721 40.649708 -3.297285 3
-4.302845 31.975851 -2.737646 2
-1.404882 36.224110 -3.286372 8
2.298389 40.626152 -3.925277 3
-4.304692 31.989578 -3.238834 2
-1.405689 36.244923 -3.850767 5
-1.405002 36.227200 -4.869578 3
2.444696 40.574791 -0.787586 8
1.897617 19.065460 -0.113697 101
-1.905185 32.049229 -0.375453 3
-3.591864 32.052410 -1.741117 4
-3.596906 32.097404 -2.241525 5
-3.591316 32.047520 -2.736293 6
-3.595901 32.088436 -3.764557 2
