ply
format ascii 1.0
element vertex 1359
property float x
property float y
property float z
property uchar intensity
end_header
2.268159 19.238365 -0.412542 1
-3.357220 32.027847 -0.747666 3
2.456611 19.034492 -1.294944 0
4.517982 44.805355 -3.646967 5
5.363284 44.924496 -0.876619 1
1.821065 19.221888 -0.040439 200
3.386303 21.298471 -1.788206 7
3.377841 21.245249 -2.116861 24
3.433204 21.593454 -4.544675 1
1.556901 40.545731 -2.424850 4
1.556819 40.543591 -3.050735 7
-0.116493 5.434493 -0.053130 0
3.598864 48.646839 -2.257735 5
3.588518 48.506989 -3.000485 3
2.681122 18.866875 -0.369229 2
3.791460 48.707588 -3.767760 4
3.776321 48.513111 -4.505474 4
5.264864 44.871719 -2.178032 3
5.262206 44.849060 -2.872672 6
7.518859 49.032932 -1.723614 9
2.312837 40.617622 -2.431292 3
2.314749 40.651215 -3.061532 3
2.434506 18.972761 -3.113188 0
2.247664 18.959232 -0.003332 2
7.397434 49.017406 -0.865290 23
7.395175 49.002434 -1.626668 11
7.401732 49.045883 -3.921125 8
3.312348 21.948517 -2.098239 32
0.993569 11.497517 -1.550065 0
3.365353 21.243202 -2.033116 48
2.391447 18.980871 -2.808635 1
3.416145 21.563816 -3.553339 4
4.371160 44.830284 -4.781893 3
1.523174 40.534580 -1.019679 4
8.152260 49.073696 -2.398185 5
4.537299 44.754330 -2.688285 8
1.523964 40.555599 -4.875299 9
2.662698 18.871983 -0.588961 4
5.220108 44.848671 -2.698307 4
5.221618 44.861649 -3.395937 5
2.278830 40.607262 -1.022393 4
2.276786 40.570831 -1.646264 6
3.372619 21.583921 -3.207213 0
3.635520 48.668964 -4.235515 4
2.987306 12.368821 -1.425027 0
4.061604 14.552916 -3.140490 1
5.288492 44.897060 -1.223278 4
7.364019 49.045414 -1.437297 12
7.367588 49.069180 -2.201129 9
3.297639 21.962742 -2.013354 10
4.214295 14.483051 -0.089510 3
9.688283 33.295223 -0.738471 3
4.215549 14.487358 -1.251083 2
2.445216 18.935787 -0.516642 2
6.957613 26.638250 -3.083330 1
4.508603 44.759293 -1.130854 6
4.509534 44.768539 -1.822921 16
2.106614 18.834303 -2.276635 0
8.496408 26.283422 -2.718153 1
8.187714 49.149147 -3.650284 6
2.627843 18.552385 -1.626144 2
11.752640 37.553246 -3.795842 6
4.045037 14.524880 -2.453925 1
5.248946 44.844254 -1.742395 7
6.549067 26.382580 -2.096412 4
2.277849 18.861765 -4.584013 2
12.361007 37.556446 -1.982172 2
4.270919 14.509466 -2.461635 5
12.491558 37.489834 -1.373029 7
12.635410 37.463150 -0.766044 16
7.395783 49.041256 -2.677330 15
4.222826 14.477511 -0.466029 2
4.222384 14.475997 -1.162930 1
6.954643 26.587021 -2.917529 2
8.139388 49.027969 -1.917930 5
14.677262 41.790058 -2.135273 2
11.598859 37.495342 -0.534343 1
11.754598 37.511265 -2.349207 8
11.751966 37.502865 -2.955062 10
4.214365 14.498381 -0.408553 2
12.372596 37.545311 -1.145643 2
12.384391 37.581104 -1.755302 2
6.924944 26.581465 -2.809544 5
4.774902 14.304687 -2.025574 10
12.656879 37.459869 -0.538318 6
9.260983 37.545517 -0.303726 3
2.107989 6.928643 -0.740746 1
8.056882 26.121153 -3.283754 1
11.712468 37.484547 -1.591049 18
14.685476 41.752831 -1.878266 7
14.683489 41.747181 -3.926225 4
15.410963 41.822689 -1.206074 4
15.399978 41.792877 -1.890138 5
12.509515 37.578709 -2.214328 3
12.513680 37.591221 -2.826049 6
14.680999 41.791363 -1.709386 3
15.382182 41.794033 -1.718641 6
15.371553 41.765152 -3.776226 3
3.257713 4.582015 -0.618695 0
7.773355 12.411990 -1.837139 0
5.998271 8.721342 -1.421736 0
8.230487 13.424622 -1.891630 0
9.716052 13.396585 -1.988000 0
11.184360 11.025043 -1.454128 2
11.116382 10.877987 -2.283396 1
16.587326 10.618647 -4.093708 39
16.579849 10.528386 -4.082312 33
17.130079 10.698243 -4.197902 43
8.541509 6.926903 -1.477114 0
17.155859 10.627137 -4.194646 28
17.224724 10.582637 -4.201972 17
16.608728 10.766060 -3.613393 3
16.674551 10.722141 -3.619139 75
16.677244 10.637678 -3.611238 59
16.707989 10.567252 -3.609082 39
16.779942 10.526854 -3.616266 38
16.868528 10.496466 -3.627042 28
16.953766 10.463504 -3.637099 24
16.791752 11.025085 -3.269329 3
17.008783 10.411565 -3.640691 3
17.771385 10.789035 -2.328301 0
16.841972 10.969930 -3.271257 71
16.795847 10.852419 -3.254550 36
16.654560 10.670705 -3.219210 33
16.663572 10.590531 -3.213427 41
16.718973 10.539911 -3.216640 33
16.794313 10.501591 -3.223708 39
16.869598 10.462855 -3.230776 35
16.860754 10.371996 -3.221780 45
16.944275 10.333900 -3.230134 25
16.800079 10.905514 -2.940526 26
13.176175 10.382785 -2.015194 0
16.723478 10.768871 -2.920191 38
16.749495 10.698984 -2.917867 19
16.763704 10.617651 -2.913219 34
16.815914 10.564557 -2.915543 41
16.861240 10.507040 -2.916705 18
16.725477 10.733856 -2.669349 10
16.761362 10.670354 -2.668816 46
16.807064 10.613082 -2.669882 38
16.889526 10.578768 -2.676804 9
18.013754 9.968342 -1.906261 0
17.327326 9.505702 -1.829922 0
15.486554 7.234005 -1.881025 0
13.172818 7.773016 -1.534752 0
12.687169 6.326140 -1.778391 0
13.089673 6.407465 -1.828177 0
27.155502 8.083023 -1.038922 6
27.316950 8.131079 -1.483719 1
26.368965 8.441787 -0.962023 2
26.728443 8.121738 -0.970635 2
12.017714 6.281105 -1.580956 0
27.337870 7.979651 -0.551790 1
12.939102 5.586383 -1.767935 0
27.474737 8.419796 -0.060184 1
27.030203 8.247972 -0.439019 5
25.985018 8.413472 -1.211623 4
26.912100 8.496198 -0.384218 3
11.319405 3.033236 -1.574027 0
10.487178 2.769068 -1.456880 0
26.618868 8.432753 -0.272920 4
38.662460 2.958623 -2.018566 7
38.665874 2.958884 -3.215465 2
38.574352 2.660849 -1.417818 3
38.669624 3.037932 -2.542351 3
38.650974 2.979457 -2.466099 3
38.616604 2.976808 -3.061813 2
38.529678 2.686150 -1.267767 7
52.872490 -0.834283 -0.313794 7
13.540079 1.543173 -0.578319 0
52.598244 -1.292829 -1.019429 11
38.735195 3.124721 -1.649143 2
38.572971 2.678342 -1.046267 17
16.251032 1.985012 -0.631803 0
11.446188 0.261949 -1.537818 0
90.518379 -8.904126 -0.365120 22
75.885948 -10.171185 -2.807494 2
75.424446 -10.390881 -2.791811 76
75.417511 -10.671736 -2.792983 8
14.404802 -2.038310 -0.757352 0
75.199883 -10.922238 -2.786387 10
38.656105 3.004282 -3.289910 2
53.139240 -1.121463 -0.723621 4
84.913643 -7.208019 -1.487504 10
75.246330 -11.210740 -2.789612 9
15.313858 -1.299939 -0.977704 0
54.319576 -8.092921 -3.705494 1
75.125702 -11.474386 -2.786681 57
15.264424 -1.352111 -1.211423 0
55.555733 -8.693835 -2.927305 23
75.481613 -10.511536 -2.647995 23
75.280327 -10.764927 -2.642300 40
15.659436 -1.853971 -1.735321 0
52.546444 -1.374148 -0.614701 6
75.076370 -11.592928 -2.639522 32
86.160362 -10.841811 -0.181877 14
75.238701 -11.900488 -2.646745 13
8.340667 -1.319241 -0.683867 0
32.798653 -6.253119 -2.768579 1
8.301781 -1.313091 -0.810789 0
31.102852 -5.929812 -3.115751 52
32.752037 -6.368725 -2.766596 1
78.823776 -15.627539 -2.946594 7
32.736294 -6.490272 -2.767257 67
79.412537 -16.047003 -1.725371 2
75.545082 -10.351082 -2.502858 14
78.754211 -15.913974 -2.946154 7
79.231758 -16.312956 -1.722731 13
75.348289 -10.605612 -2.497610 28
78.628792 -16.188812 -2.943662 11
14.582452 -0.648925 -1.069367 0
79.194923 -16.608173 -1.723242 3
75.257462 -10.874274 -2.495904 37
78.572853 -16.477716 -2.943809 8
52.838329 -0.868799 -2.954521 11
79.481598 -16.972645 -1.730821 2
75.165703 -11.142406 -2.494198 34
78.652657 -16.795631 -2.949086 9
19.241451 -4.108854 -1.327526 3
75.171783 -11.425045 -2.495772 42
57.008194 -10.522635 -2.906264 7
55.603977 -8.659640 -3.579920 3
86.472366 -11.002213 -1.354150 10
19.085339 -4.298968 -1.319986 1
32.723038 -6.294358 -2.698659 1
32.754520 -6.425000 -2.703180 1
32.711201 -6.541096 -2.701565 6
52.898689 -0.568753 -1.228223 7
75.939316 -10.511792 -2.369065 7
32.694820 -6.662537 -2.702211 1
75.781532 -10.773173 -2.365358 9
32.681892 -6.784757 -2.703180 1
75.622856 -11.033531 -2.361652 10
78.531540 -16.603596 -2.788979 17
32.656811 -6.904493 -2.703180 1
75.542366 -11.304712 -2.360416 10
78.520958 -16.902254 -2.790785 101
54.784668 -8.198379 -3.417199 1
32.134926 -7.984740 -3.258337 1
75.504379 -11.582110 -2.360540 10
78.517059 -17.202761 -2.792868 101
55.523769 -8.517155 -3.465225 26
19.263523 -4.220558 -1.902338 1
32.035965 -8.084929 -3.251286 0
75.583855 -11.878013 -2.364370 7
31.099154 -5.905482 -2.992268 1
19.486866 -5.070140 -0.119489 8
19.222849 -5.001447 -1.340182 17
32.532635 -7.378101 -2.701565 1
78.912407 -15.585013 -2.640251 16
19.963030 -5.350571 -0.122646 1
76.726227 -10.426979 -2.244009 27
78.737167 -15.850458 -2.636315 46
36.324627 -9.735871 -1.378976 16
19.067038 -4.471431 -3.575319 6
78.643311 -16.131710 -2.635134 101
17.669441 -4.805317 -0.953240 11
78.552345 -16.413296 -2.634084 101
31.258743 -7.572679 -3.601967 1
78.495575 -16.701927 -2.634215 41
18.872303 -4.645261 -0.974362 11
31.833664 -7.835593 -3.162498 1
30.959841 -6.587493 -3.483331 31
17.596920 -4.994027 -0.389548 6
78.597923 -17.025074 -2.639727 11
8.241348 -1.512720 -0.387817 4
17.723135 -5.029847 -0.959063 6
54.702320 -8.252445 -3.306071 1
8.230592 -1.510745 -0.516213 3
30.939371 -6.701768 -3.483768 35
19.059694 -4.201708 -0.940899 7
18.368696 -5.285881 -0.995038 1
55.413551 -8.567584 -3.350931 11
31.118162 -5.829792 -3.422555 50
30.899073 -6.811698 -3.482018 33
31.088776 -5.942318 -3.421695 30
8.246141 -1.305915 -3.893160 3
35.522987 -9.298083 -0.147403 12
86.962013 -11.275885 -1.025468 10
31.070688 -6.056982 -3.422125 37
78.914085 -15.684114 -2.486313 16
31.040476 -6.169271 -3.421265 37
17.314745 -5.258644 -0.107383 4
78.726761 -15.947051 -2.482236 26
31.017658 -6.282999 -3.421265 39
78.659958 -16.233868 -2.481989 64
30.998318 -6.397443 -3.421695 37
77.647697 -11.227945 -2.122938 1
78.592102 -16.520418 -2.481742 56
18.760866 -4.570632 -0.633818 3
30.974663 -6.511015 -3.421695 36
17.541952 -5.539035 -0.109163 13
85.012169 -7.162576 -0.670063 19
78.369392 -11.625698 -2.143820 1
78.546661 -16.811699 -2.482236 30
87.292374 -7.677009 -0.688253 5
78.601715 -17.125011 -2.485943 26
19.020952 -4.144109 -0.901023 2
18.889570 -4.748938 -0.938973 2
55.464413 -8.435738 -3.244660 12
18.280346 -4.595776 -1.490084 4
19.481005 -4.319191 -1.230930 2
31.133255 -5.870872 -3.363456 23
19.007917 -4.930650 -0.342765 23
16.992540 -2.165341 -0.693999 0
17.721203 -5.201521 -0.925895 4
33.600456 -11.023879 -2.932194 86
31.118298 -5.991877 -3.364301 21
90.646408 -8.993394 -2.114875 11
78.946716 -15.501610 -2.331610 15
18.981266 -4.358101 -0.901393 4
33.441353 -11.107606 -3.467516 8
17.352329 -5.231711 -0.072754 13
78.775658 -15.768111 -2.328249 14
31.054035 -6.215924 -3.362189 21
19.534483 -5.297153 -0.042391 4
78.693832 -16.051929 -2.327554 22
75.317444 -10.440446 -3.080572 8
31.011559 -6.325722 -3.360078 19
78.626640 -16.338625 -2.327322 17
75.310333 -10.720937 -3.081867 11
30.988163 -6.439343 -3.360078 18
34.925560 -9.746134 -0.075943 6
78.597519 -16.633310 -2.328249 15
75.179565 -10.983592 -3.078143 12
18.705778 -4.584541 -1.188077 3
19.620832 -4.152286 -1.507972 2
30.952681 -6.550404 -3.358811 23
75.055801 -11.246629 -3.074743 3
18.960257 -4.720645 -0.904352 6
31.990370 -7.964828 -3.052452 1
32.508385 -8.093801 -3.621606 2
19.033176 -4.887241 -0.607247 3
17.974546 -5.301108 -0.039249 4
17.269388 -5.693923 -0.072995 7
19.145533 -4.345894 -1.476181 2
32.459709 -8.461778 -3.105926 2
31.086098 -6.024511 -3.300137 50
19.599047 -5.185979 -0.314943 6
79.014603 -15.613791 -2.179417 18
18.814724 -4.343377 -1.153963 4
18.394449 -4.867238 -1.467427 16
32.720276 -6.465735 -2.959074 1
31.056000 -6.136864 -3.299308 50
31.725084 -6.269080 -4.056642 2
78.835335 -15.878806 -2.176063 10
75.666733 -10.319310 -2.947079 8
19.174959 -5.149035 -1.224773 4
36.558933 -9.817139 -3.504954 3
31.235001 -6.291272 -3.996898 1
8.252388 -1.391639 -2.406386 32
78.698257 -16.151577 -2.173899 46
75.323608 -10.553878 -2.935202 43
77.081551 -11.088407 -1.808028 14
78.646362 -16.441551 -2.174115 101
19.518051 -4.732375 -0.582033 4
75.118263 -10.805982 -2.928723 101
31.230778 -6.529004 -4.002374 0
17.064615 -5.377833 -0.037473 2
76.931595 -11.368502 -1.805521 15
78.629585 -16.753401 -2.175413 16
18.011703 -5.053026 -0.578089 19
75.052490 -11.090817 -2.927798 200
31.248178 -6.657968 -4.007851 1
76.849876 -11.644404 -1.804593 18
78.708328 -17.071991 -2.179308 10
55.587650 -8.422721 -3.035041 15
19.255453 -4.176546 -1.443455 32
31.413620 -6.813676 -4.032246 0
17.253103 -5.576594 -0.037976 2
32.027908 -7.069932 -4.114395 4
8.065145 -1.252300 -1.969268 0
32.013397 -7.189878 -4.115889 1
18.543346 -4.860952 -1.441391 2
31.087297 -6.072046 -3.239747 29
30.822718 -7.041232 -3.295162 32
32.724087 -6.516355 -2.895727 1
31.057026 -6.184392 -3.238933 29
32.703892 -6.637039 -2.896073 2
31.026354 -6.296594 -3.238119 29
16.523832 -5.677359 -0.036593 1
17.974031 -4.923547 -0.540087 7
32.691055 -6.759286 -2.897110 1
17.051111 -5.327487 -0.003118 5
78.645676 -16.561789 -2.020360 3
78.705658 -16.875910 -2.023476 6
19.712328 -4.884882 -0.549534 2
18.315882 -4.538830 -1.674134 6
18.132336 -5.181902 -0.256744 8
31.173286 -5.781006 -3.181326 19
30.903496 -6.744834 -3.235270 17
32.801849 -6.207464 -2.832677 2
31.136244 -5.892263 -3.179728 24
18.997139 -4.292340 -0.789047 4
30.853222 -6.971182 -3.235270 27
18.851547 -4.966012 -0.227975 3
32.743736 -6.445433 -2.831662 54
31.076595 -6.117265 -3.178131 23
30.893396 -7.099370 -3.242189 6
30.898695 -7.100588 -3.808544 3
36.891972 -10.008120 -0.447017 3
17.409006 -5.322135 -0.527573 12
18.540585 -5.029722 -0.815244 10
17.674351 -5.403254 -0.819862 1
17.648767 -5.395433 -1.102898 2
31.042616 -6.347295 -3.179329 4
19.632627 -5.403305 -0.238125 3
17.957489 -4.942271 -0.503983 7
32.651371 -6.801010 -2.829971 1
29.971498 -10.338159 -2.935547 6
30.968491 -6.450480 -3.174137 2
18.197969 -5.083702 -0.220959 1
30.930880 -6.685235 -3.175335 28
19.443254 -4.277013 -1.381637 10
17.644058 -5.752996 -0.252660 5
32.504234 -8.358974 -2.912673 3
30.869392 -6.909178 -3.174137 35
32.499474 -8.357749 -3.432259 6
19.675901 -5.214030 -0.198953 100
19.008177 -5.186502 -0.192581 3
18.827251 -4.577756 -1.045964 3
17.689297 -5.176736 -1.030465 1
17.876225 -5.302647 -0.468727 12
18.172428 -5.058795 -0.148156 3
17.314440 -5.553060 -0.177725 2
18.423014 -5.347500 -0.150669 4
17.172321 -5.258629 -0.141056 3
17.505562 -5.360677 -1.270585 2
6.206337 -4.462663 -0.856085 1
6.122342 -4.436398 -0.846736 1
5.993969 -4.392065 -0.702425 0
5.888249 -4.381297 -1.194513 0
5.763423 -4.355997 -0.795027 2
6.192461 -4.446620 -0.824148 1
5.565697 -4.303522 -1.145036 0
5.518460 -4.246873 -0.752782 1
5.958990 -4.391583 -0.785862 1
6.232597 -4.466711 -0.961884 1
5.526403 -4.264979 -0.741101 1
6.326696 -4.419476 -0.535595 8
5.846197 -4.364289 -0.876399 1
6.371423 -4.485559 -0.661161 1
5.785728 -4.352265 -0.869720 1
6.306180 -4.474286 -0.656088 1
5.756102 -4.344782 -0.723646 1
5.522693 -4.263192 -0.813407 1
2.659059 -3.420390 -0.790924 0
2.887658 -3.480426 -1.608747 1
2.651070 -3.402018 -0.518111 6
-14.887718 2.046782 -0.984971 2
-24.469437 4.597906 -1.583880 4
-15.745071 1.991579 -0.216068 3
-15.895310 2.010582 -1.700942 2
-14.919251 1.942701 -0.667412 5
-18.405914 5.258347 -1.587239 3
-18.708883 5.419153 -1.916692 2
-18.705584 5.492593 -4.052193 2
-14.103213 3.828590 -0.732624 0
-14.180477 3.905422 -0.964042 0
-33.953991 10.513116 -3.497679 1
-33.936634 10.507742 -4.047694 6
-26.320814 7.248973 -4.984039 3
-13.840061 3.866302 -0.720407 0
-18.625542 5.576596 -2.177385 1
-14.684916 2.966065 -2.012262 4
-33.991798 10.449456 -3.982598 2
-15.760267 1.942381 -0.124720 2
-15.888523 2.017330 -0.618075 1
-15.749832 1.999721 -1.593059 3
-15.884027 2.016759 -1.866760 3
-19.322784 6.490824 -0.081826 1
-14.083778 5.230437 -0.782098 1
-21.734276 5.881053 -1.042131 0
-54.489548 16.838161 -0.119447 5
-26.214176 7.299894 -2.519554 12
-19.616163 6.911023 -2.329192 14
-18.357319 5.257297 -1.472656 2
-19.592508 6.983523 -1.684483 25
-23.711220 9.303794 -2.902078 0
-33.960232 10.545581 -3.292532 2
-54.790562 17.305901 -0.782266 3
-78.819267 36.409611 -4.519782 4
-78.342690 36.538448 -1.840940 9
-34.267628 15.982168 -4.308062 1
-78.268379 36.853638 -4.503562 4
-54.595829 19.624481 -4.474253 1
-33.816902 15.923108 -4.258706 0
-13.838614 5.031653 -0.455033 0
-12.186565 5.792870 -0.910419 0
-54.516022 19.821764 -4.473638 1
-33.058365 15.714256 -4.170407 0
-17.466867 6.986964 -3.061784 0
-54.484417 20.047485 -4.477329 1
-32.463940 15.584806 -4.102938 0
-16.634708 6.728302 -2.920421 0
-32.299316 15.651671 -4.089353 0
-12.081515 5.444359 -0.868554 0
-54.418121 20.477209 -4.484095 1
-33.109268 16.194284 -4.199387 0
-26.213243 7.206563 -2.359327 0
-33.805187 16.688503 -4.295383 0
-33.811386 16.845961 -4.303987 1
-26.315508 7.338519 -3.281846 2
-54.710789 17.363699 -0.671250 9
-33.745869 16.967979 -4.303534 0
-44.193771 14.212886 -1.256170 3
-32.989426 16.746622 -4.215235 0
-44.041225 14.333666 -1.253248 2
-33.050579 15.628587 -4.094338 0
-32.722050 16.754814 -4.188519 1
-18.508476 6.098890 -1.127051 4
-32.429852 15.480767 -4.024445 0
-32.095482 16.582756 -4.116069 0
-18.458544 6.157512 -0.825759 3
-16.086115 7.132409 -1.119407 0
-55.370331 20.448034 -4.438141 5
-33.257431 16.025726 -4.134405 0
-15.429677 5.762482 -0.984305 0
-54.685921 20.423412 -4.389255 2
-16.650047 7.455608 -1.442170 0
-33.123390 16.111027 -4.125056 0
-12.627424 6.641927 -1.625598 0
-44.594696 13.678242 -1.172570 5
-54.674145 20.647650 -4.394353 1
-44.879433 13.765577 -4.801419 3
-33.920521 16.652750 -4.231900 0
-31.872595 16.914156 -4.111088 0
-44.155144 13.720673 -0.451935 6
-78.935295 36.042786 -1.514659 0
-45.577274 14.162582 -4.881598 4
-33.855694 16.775188 -4.231454 0
-19.319691 5.418156 -0.774329 0
-11.922585 5.496894 -1.444788 0
-33.818871 16.911619 -4.234571 0
-12.080339 5.623410 -0.847682 0
-32.897835 16.602057 -4.126837 0
-12.613173 4.072002 -1.150267 0
-34.005032 15.981271 -4.134842 1
-32.780090 16.693651 -4.119714 0
-15.765048 6.286108 -1.276138 0
-14.934607 5.954980 -1.457560 0
-33.245758 15.773448 -4.049520 0
-32.746655 15.683937 -3.995701 0
-32.431213 15.679259 -3.964198 0
-15.765426 8.248274 -1.992635 0
-13.023130 5.850373 -0.880714 0
-33.156063 16.179903 -4.060021 0
-75.616806 31.443729 -4.894082 39
-12.663473 5.744674 -0.857809 0
-33.888374 16.691319 -4.157157 0
-11.252113 5.992432 -1.427699 0
-74.644928 28.605711 -4.623219 9
-75.438461 31.694397 -4.890025 101
-33.851891 16.827812 -4.160220 0
-75.314445 31.967545 -4.889548 101
-33.928589 17.021296 -4.177284 0
-78.349953 36.586792 -4.002264 12
-75.248161 32.265385 -4.892889 16
-45.420204 14.736895 -1.108641 4
-75.261284 32.598114 -4.901479 18
-12.291656 6.336598 -1.093212 0
-32.939236 15.676661 -3.943612 0
-33.626289 17.335035 -4.163282 0
-18.515221 6.161361 -0.753043 1
-12.568822 6.540695 -1.339350 0
-32.609974 15.673822 -3.911369 1
-32.730629 17.032705 -4.060459 0
-32.069546 16.838316 -3.986075 0
-75.826218 31.327671 -4.744931 34
-32.526352 15.928169 -3.915238 0
-19.291368 6.656121 -0.160282 3
-14.537383 5.534439 -0.630202 0
-75.493454 31.514633 -4.731305 50
-32.474880 16.050808 -3.916098 0
-29.397173 18.187283 -3.938566 2
-75.370094 31.788002 -4.730844 85
-32.269932 16.096941 -3.898472 0
-29.353924 18.309628 -3.941736 0
-75.343178 32.086868 -4.736156 16
-12.313025 5.712644 -1.020611 0
-39.980972 25.337488 -3.924798 4
-39.982502 25.338459 -4.657957 2
-32.348942 16.426477 -3.922117 0
-28.463482 18.038410 -3.839401 0
-32.359306 16.581196 -3.930715 0
-27.841228 17.787416 -3.764234 1
-23.707823 15.269290 -0.167341 1
-19.047258 9.092838 -1.261342 0
-53.348618 19.497505 -4.819541 8
-32.945328 15.727541 -3.875681 1
-32.266518 16.683256 -3.926846 0
-27.428352 17.665541 -3.717141 3
-32.697536 15.756676 -3.853300 1
-13.824021 6.128283 -1.896883 0
-31.245804 15.057096 -4.658714 2
-53.249062 19.904795 -4.823600 59
-32.610958 15.862485 -3.849922 1
-26.819267 17.552725 -3.651936 0
-30.890947 15.025845 -4.613985 2
-53.369621 20.173094 -4.841186 101
-32.495476 15.953850 -3.843166 1
-29.517748 18.165127 -3.881542 1
-26.618740 17.561163 -3.633371 2
-30.785851 15.114499 -4.606530 4
-32.440353 16.074602 -3.843588 1
-29.667150 18.407314 -3.910033 0
-26.577368 17.674009 -3.636540 0
-30.744465 15.234268 -4.608661 5
-78.673737 36.265774 -3.676314 13
-32.374100 16.189846 -3.842743 1
-28.703039 17.955166 -3.791615 0
-26.512405 17.771307 -3.636540 0
-30.688416 15.346859 -4.608661 8
-14.473466 6.186007 -1.122736 0
-32.346497 16.324530 -3.846544 1
-28.485727 17.964832 -3.771581 0
-26.437212 17.861696 -3.635182 0
-33.543056 15.611478 -4.641141 1
-30.578867 15.432449 -4.600673 23
-23.057053 15.701335 -0.165537 1
-13.610503 5.876254 -0.828838 0
-13.364326 6.806228 -1.127680 0
-32.318359 16.459202 -3.850344 1
-27.893038 17.734245 -3.701688 2
-12.805861 6.017243 -1.774905 0
-30.511511 15.539003 -4.599076 14
-32.317955 16.608459 -3.857523 1
-27.493179 17.621861 -3.657170 3
-32.083015 15.219042 -4.454440 2
-30.500187 15.674294 -4.605998 12
-32.327484 16.763430 -3.865969 1
-31.543758 15.105125 -4.387228 2
-30.439009 15.784161 -4.605465 9
-26.873629 17.503998 -3.591728 0
-31.359552 15.158450 -4.369304 1
-30.402037 15.906640 -4.608661 13
-12.185903 5.474521 -0.746892 0
-17.084063 8.335414 -1.392602 1
-26.706274 17.534750 -3.577928 2
-31.232437 15.238488 -4.359347 1
-30.413641 16.054983 -4.619310 7
-11.986733 5.437936 -0.938886 0
-16.810030 8.278132 -1.372729 1
-26.611988 17.612778 -3.573921 0
-31.080236 15.305523 -4.345904 1
-30.396578 16.188719 -4.625700 3
-11.962941 5.482624 -0.735727 0
-26.547474 17.717028 -3.574366 0
-26.219355 18.718674 -3.670501 0
-16.156307 7.404447 -2.134941 0
-31.017689 15.422975 -4.345407 1
-30.341179 16.309057 -4.626765 3
-26.505451 17.829737 -3.577482 0
-26.208647 18.856421 -3.678652 0
-34.229656 15.839530 -4.530847 1
-30.918390 15.515191 -4.339432 1
-30.354389 16.459833 -4.637947 3
-78.340446 36.600674 -2.173653 8
-78.337173 36.599144 -3.503027 4
-33.408573 15.608491 -4.429705 1
-30.857777 15.626606 -4.338934 1
-32.733322 15.439439 -4.347647 1
-30.793224 15.735997 -4.337938 1
-27.603586 17.749790 -3.611533 0
-32.271324 15.366382 -4.293736 2
-30.731813 15.846945 -4.337441 1
-33.386208 16.047613 -3.788794 0
-27.388212 17.753515 -3.591843 0
-32.053715 15.407128 -4.272268 1
-30.715773 15.981449 -4.343415 1
-33.126682 16.072592 -3.766002 0
-31.850534 15.453423 -4.252708 1
-30.695650 16.114208 -4.348892 1
-33.024666 16.172907 -3.761118 7
-26.706148 17.590748 -3.519210 1
-31.725910 15.536878 -4.243643 2
-30.681974 16.250763 -4.355364 1
-32.990135 16.306192 -3.763967 8
-29.295612 18.136471 -3.724786 0
-26.631554 17.681923 -3.517897 0
-26.301792 18.690350 -3.613542 0
-31.675871 15.656585 -4.244597 3
-30.706217 16.408010 -4.367312 1
-9.505691 5.474633 -1.473387 0
-32.933712 16.428764 -3.764374 6
-26.596310 17.799309 -3.521835 0
-26.333305 18.858366 -3.627343 0
-31.561413 15.744204 -4.236964 1
-30.789112 16.597652 -4.387725 1
-28.227980 17.618950 -4.885190 0
-32.905266 16.565458 -3.768037 7
-28.478615 17.920755 -3.637513 2
-26.524305 17.892218 -3.520960 0
-33.755703 15.680334 -4.339407 0
-31.436100 15.825838 -4.227900 1
-27.985695 17.610575 -4.854396 0
-23.101980 15.707172 -0.058509 1
-39.959507 25.350285 -0.735137 4
-39.952011 25.345530 -1.462087 3
-32.879803 16.703985 -3.772107 6
-26.392786 17.944611 -3.512209 0
-33.262749 15.599829 -4.283359 0
-31.430994 15.967942 -4.235056 1
-27.563379 17.486189 -4.792227 3
-39.863968 25.495054 -3.649344 8
-39.862381 25.494040 -4.381192 14
-27.636230 17.674789 -3.546371 0
-31.280376 16.035923 -4.222651 1
-27.135696 17.354671 -4.728896 8
-31.274296 16.177841 -4.229808 1
-26.912245 17.351082 -4.701007 1
-26.975744 17.532316 -3.478014 0
-33.164360 16.000872 -4.293086 0
-31.246481 16.308889 -4.234101 1
-30.251478 18.320229 -4.750302 7
-26.692513 17.348236 -4.673700 1
-26.778240 17.543901 -3.460818 1
-33.087627 16.113630 -4.290770 0
-31.225145 16.443668 -4.239349 1
-29.649532 18.104559 -4.666169 3
-26.542677 17.389570 -4.658593 1
-26.710447 17.639734 -3.460388 4
-26.303009 18.597397 -3.545025 0
-31.227800 16.591539 -4.247937 1
-26.455650 17.471464 -4.654526 1
-26.648928 17.739714 -3.460818 3
-26.276768 18.723663 -3.550714 0
-15.625394 8.375452 -2.129694 0
-26.388144 17.566114 -4.653945 0
-26.603540 17.850567 -3.463397 2
-26.288700 18.877831 -3.561652 0
-16.925581 9.152393 -2.311462 0
-26.126398 17.530413 -4.619084 0
-28.473492 17.971704 -3.574596 1
-26.557856 17.968195 -3.466407 2
-27.946186 17.638884 -4.438798 2
-26.006445 17.595129 -4.609788 1
-8.890456 6.436095 -1.786308 0
-18.740538 10.316337 -2.188050 0
-26.465538 18.047482 -3.462967 2
-27.707428 17.630518 -4.411108 2
-26.209900 17.873156 -4.657432 1
-26.481050 18.193796 -3.473285 0
-27.135124 17.399712 -4.329638 2
-26.166927 17.977978 -4.660917 2
-26.453497 18.324774 -3.478874 0
-30.388838 18.308567 -4.450457 1
-26.901669 17.396133 -4.303014 2
-26.133492 18.103102 -4.667308 1
-23.341297 17.424713 -0.061006 4
-26.422012 18.446671 -3.483603 0
-29.812708 18.110754 -4.375776 1
-26.684946 17.395052 -4.278520 101
-26.138344 18.248625 -4.680091 1
-13.141546 11.170113 -3.584945 39
-26.789757 17.603615 -3.403150 1
-26.435541 18.600594 -3.494351 0
-31.762463 16.793243 -4.188862 0
-29.370457 17.989790 -4.320513 0
-26.534872 17.436129 -4.264675 101
-26.106890 18.369349 -4.686482 1
-13.064823 11.187634 -3.575177 68
-26.718430 17.697289 -3.402306 1
-26.435312 18.745661 -3.503379 0
-31.788343 16.956287 -4.200443 0
-28.929495 17.865826 -4.265249 0
-26.023251 18.453461 -4.683577 1
-12.985182 11.202184 -3.564595 58
-26.663305 17.801729 -3.403573 1
-28.627974 17.824903 -4.230399 1
-26.399750 17.625767 -4.263610 19
-26.190487 18.716698 -4.725991 20
-12.917433 11.226584 -3.557269 81
-29.018724 18.216118 -3.570899 1
-26.597881 17.899328 -3.403573 1
-28.165798 17.680706 -4.171650 0
-26.357996 17.737896 -4.267337 14
-25.768456 18.558147 -4.662079 1
-12.873254 11.271271 -3.556455 71
-28.682816 18.152161 -3.537727 1
-26.574888 18.025728 -3.409062 1
-27.802319 17.594931 -4.127339 1
-26.319052 17.852194 -4.271597 14
-25.649014 18.615284 -4.652783 1
-12.808356 11.297655 -3.549942 77
-26.564466 18.161165 -3.416241 12
-27.466629 17.523798 -4.087012 1
-26.256720 17.950771 -4.272130 9
-12.752229 11.331517 -3.545872 82
-26.523924 18.276470 -3.419619 14
-27.098448 17.428982 -4.041706 0
-26.180954 18.040144 -4.270533 8
-12.681430 11.352061 -3.537732 81
-26.492701 18.398514 -3.424264 4
-26.807938 17.381357 -4.007851 1
-26.196062 18.192507 -4.283844 3
-13.150746 11.128203 -3.145017 3
-12.622288 11.382725 -3.532848 73
-23.810295 21.630779 -3.165499 2
-26.418577 18.490925 -3.423420 1
-29.889862 18.210491 -4.204523 1
-26.694223 17.446920 -4.000383 75
-26.210413 18.345224 -4.297157 3
-13.118856 11.183984 -3.147171 68
-12.548600 11.399942 -3.523894 89
-26.418877 18.635782 -3.432288 1
-29.386377 18.051769 -4.142979 1
-26.553862 17.494427 -3.988932 30
-26.133272 18.434319 -4.295559 5
-13.021058 11.183283 -3.133523 61
-12.495173 11.435286 -3.520638 54
-26.457375 18.808550 -3.446223 1
-28.995882 17.958614 -4.097179 1
-26.473030 17.580666 -3.986442 79
-26.107531 18.559847 -4.302481 4
-12.959147 11.212914 -3.128494 35
-12.433019 11.462428 -3.514940 57
-29.054144 18.142361 -3.503485 0
-28.576166 17.843897 -4.047086 1
-26.408417 17.677567 -3.986442 26
-26.071564 18.678493 -4.307806 3
-12.906101 11.249991 -3.125621 45
-12.359360 11.478601 -3.505985 56
-23.123074 15.601407 -0.326200 2
-28.590092 17.998566 -3.455459 0
-28.218178 17.764431 -4.005579 1
-26.376354 17.796432 -3.991421 15
-26.141140 18.873705 -4.330703 5
-12.847043 11.281636 -3.121310 53
-12.294330 11.502415 -3.499473 84
-17.700611 10.379072 -4.950847 2
-27.894953 17.710859 -3.969321 1
-26.307833 17.897573 -3.991421 14
-26.110155 19.004265 -4.337626 12
-12.794793 11.323055 -3.119155 50
-12.235830 11.536101 -3.495403 59
-17.473215 10.336094 -4.898307 2
-39.850082 25.506784 -2.645270 6
-28.068777 17.965942 -3.408653 0
-27.492002 17.596766 -3.921136 1
-26.291143 18.027565 -3.998889 3
-12.717953 11.338462 -3.110535 49
-12.165060 11.553911 -3.487263 81
-17.335024 10.340321 -4.870162 2
-27.755316 17.909039 -3.378535 0
-26.497507 18.312197 -3.356943 1
-26.221630 18.121540 -3.998391 6
-12.652890 11.363962 -3.104788 46
-12.094335 11.571342 -3.479123 59
-17.303673 10.407792 -4.872038 2
-27.342585 17.784990 -3.336207 0
-26.537951 18.484226 -3.370627 1
-29.487211 17.883421 -4.020715 1
-26.786339 17.423180 -3.838601 1
-26.187609 18.240206 -4.003370 3
-12.590731 11.391776 -3.099759 51
-12.043387 11.607437 -3.476681 84
-17.218868 10.442909 -4.858903 1
-29.502817 18.041115 -4.031832 1
-26.616020 17.451550 -3.823334 5
-26.159565 18.363422 -4.009345 3
-12.531447 11.421940 -3.095449 34
-11.981096 11.632401 -3.470983 51
-17.044466 10.422774 -4.820437 2
-29.422958 18.140810 -4.029979 0
-26.538616 17.540247 -3.821426 1
-26.160109 18.507336 -4.019800 4
-12.469202 11.449174 -3.090420 36
-11.924374 11.662555 -3.466912 74
-16.956495 10.454576 -4.806365 2
-29.413643 18.284166 -4.037854 0
-26.490686 17.648390 -3.823811 1
-26.176138 18.662981 -4.032744 3
-12.406941 11.476086 -3.085392 44
-11.875976 11.700674 -3.465284 55
-16.888350 10.498169 -4.797921 1
-28.514881 17.870718 -3.923440 0
-26.409336 17.734301 -3.821426 1
-26.146231 18.786594 -4.038719 2
-12.344642 11.502708 -3.080363 36
-11.816332 11.727575 -3.460400 47
-16.853050 10.562067 -4.798859 1
-26.377047 17.853245 -3.826196 1
-26.282930 19.031277 -4.070582 24
-13.379793 11.784268 -2.901787 9
-12.270839 11.518256 -3.072462 39
-11.726184 11.723736 -3.446562 61
-23.980431 21.277359 -0.559594 1
-27.682756 17.633150 -3.826627 0
-26.403296 18.012461 -3.839555 0
-13.298122 11.799159 -2.893434 8
-12.208527 11.544225 -3.067433 47
-11.674859 11.758295 -3.444120 85
-23.931799 21.391502 -1.053607 1
-23.953463 21.410868 -2.539795 2
-23.974998 21.430117 -3.039699 2
-26.287584 25.040348 -4.065847 2
-27.494240 17.655067 -3.809488 0
-26.324007 18.100121 -3.837646 1
-13.251842 11.845194 -2.892791 8
-12.157583 11.580756 -3.065278 50
-11.617936 11.787065 -3.440050 48
-26.264029 18.200987 -3.838601 1
-13.240617 11.922734 -2.899859 7
-12.103706 11.614330 -3.062404 42
-11.550014 11.804364 -3.432723 82
-16.432001 10.636842 -4.722866 1
-23.798948 21.588673 -0.067297 1
-23.777315 21.569048 -1.547620 1
-23.780558 21.571991 -2.042512 2
-23.781870 21.573179 -3.035182 1
-27.126091 18.945974 -3.384233 0
-26.725233 17.439264 -3.720551 0
-26.262245 18.342627 -3.848142 1
-12.556425 11.390275 -2.759139 6
-12.041244 11.639481 -3.057375 39
-11.498477 11.838201 -3.430281 64
-26.637903 17.521809 -3.717309 0
-26.162373 18.415895 -3.843372 1
-12.604945 11.518779 -2.779058 7
-11.973132 11.658827 -3.050910 45
-11.441421 11.866165 -3.426211 80
-26.573509 17.619318 -3.717309 0
-26.185400 18.575996 -3.856730 1
-13.036103 12.000755 -2.883795 10
-11.907850 11.680586 -3.045163 48
-11.378899 11.888214 -3.420513 83
-26.465813 17.687889 -3.711287 0
-26.084835 18.648743 -3.851959 0
-12.960190 12.018921 -2.876727 12
-11.836969 11.696492 -3.037980 44
-11.324463 11.918482 -3.417257 91
-26.170959 18.855677 -3.874859 1
-12.918926 12.069046 -2.877370 9
-11.782856 11.728703 -3.035106 51
-11.261884 11.939972 -3.411559 100
-12.863868 12.110440 -2.875442 9
-11.721069 11.757135 -3.030796 50
-11.199901 11.965970 -3.406675 91
-24.137056 21.475880 -2.491642 14
-12.810803 12.149355 -2.873514 9
-11.658525 11.780436 -3.025768 47
-11.145308 11.995460 -3.403419 99
-12.766186 12.196229 -2.873514 10
-11.604237 11.811862 -3.022894 52
-11.077369 12.010323 -3.396093 85
-12.718551 12.240203 -2.872872 10
-11.547125 11.840230 -3.019302 50
-11.020047 12.036403 -3.392022 94
-12.659431 12.272992 -2.869659 12
-11.484495 11.862682 -3.014273 53
-10.978494 12.079607 -3.392836 100
-21.389458 23.708765 -2.154470 101
-23.712843 21.729582 -4.721924 1
-12.617190 12.322065 -2.870301 17
-11.416403 11.879159 -3.007808 50
-10.910540 12.093594 -3.385510 85
-12.557876 12.354381 -2.867089 28
-11.364639 11.912376 -3.005653 56
-10.863529 12.130580 -3.384696 100
-13.823973 12.855475 -2.771451 1
-12.520919 12.408666 -2.869016 14
-11.299253 11.931097 -2.999906 55
-10.800778 12.149828 -3.378998 100
-13.753652 12.884416 -2.766802 9
-11.241967 11.958097 -2.996314 47
-10.743217 12.174657 -3.374928 100
-11.906276 11.973789 -2.748216 4
-11.187334 11.987709 -2.993441 32
-10.680468 12.193321 -3.369230 100
-24.004107 21.408703 -2.915843 2
-12.314382 12.475346 -2.852952 19
-11.124593 12.008433 -2.988412 29
-10.625418 12.220572 -3.365974 100
-12.246473 12.497835 -2.847812 21
-11.067191 12.034640 -2.984820 37
-10.565206 12.241641 -3.361090 100
-20.894569 24.398811 -2.167395 101
-13.250598 12.787477 -2.703472 2
-12.212154 12.558922 -2.851025 16
-11.015592 12.071238 -2.983384 39
-10.500289 12.261299 -3.355392 101
-13.266070 12.896642 -2.716254 3
-12.166043 12.603595 -2.851025 10
-10.960711 12.099863 -2.980510 36
-10.437526 12.278812 -3.349693 101
-21.353241 23.746830 -2.586296 9
-21.342796 23.735216 -3.079153 7
-13.357265 13.080856 -2.744724 4
-12.108845 12.636695 -2.848454 9
-10.895242 12.116543 -2.974763 43
-10.387403 12.310998 -3.348065 101
-24.483410 21.259121 -2.375461 4
-12.076050 12.695298 -2.851667 8
-10.832415 12.135849 -2.969735 39
-10.337178 12.342983 -3.346437 101
-13.751971 12.823474 -2.525578 3
-12.024017 12.733730 -2.850382 10
-10.772207 12.157797 -2.965425 53
-10.311900 12.404879 -3.352949 14
-13.733772 12.900939 -2.530903 22
-11.988062 12.789238 -2.852952 18
-10.714576 12.182425 -2.961833 47
-13.661105 12.931772 -2.526643 10
-11.930803 12.826500 -2.851025 23
-10.659961 12.214580 -2.959678 56
-26.247362 25.029135 -3.850344 5
-13.587790 12.957135 -2.521850 9
-11.862283 12.846941 -2.845885 30
-10.604812 12.241674 -2.956804 48
-10.841983 13.342968 -3.573549 1
-13.511618 12.979391 -2.516526 11
-11.823116 12.899066 -2.847812 16
-10.554740 12.274496 -2.955367 51
-10.817586 13.413103 -3.581689 2
-23.773741 21.585455 -1.362697 3
-13.461115 13.026060 -2.515993 11
-11.305482 12.425431 -2.734079 4
-10.504579 12.307105 -2.953930 47
-10.736547 13.412908 -3.571107 1
-13.382051 13.044874 -2.510136 11
-11.535073 12.771499 -2.800905 6
-10.446679 12.330516 -2.950339 48
-10.650768 13.406177 -3.558897 1
-13.297372 13.057726 -2.503214 11
-11.648948 12.993008 -2.840101 15
-10.393814 12.359689 -2.948184 51
-10.567609 13.402071 -3.547500 1
-13.252248 13.109162 -2.503746 38
-10.338362 12.385617 -2.945310 52
-10.513593 13.434545 -3.545872 1
-13.165310 13.123568 -2.496824 10
-10.265624 12.394917 -2.938126 49
-10.466729 13.481003 -3.547500 1
-13.094746 13.149259 -2.492564 9
-10.217629 12.429418 -2.937408 45
-10.496136 13.621645 -3.574363 1
-13.040892 13.191523 -2.491499 9
-11.498981 13.215015 -2.851025 26
-10.162057 12.454586 -2.934535 44
-10.517510 13.753346 -3.598783 1
-21.005793 24.320004 -2.540425 6
-12.978567 13.225087 -2.488837 10
-11.445305 13.251101 -2.849740 35
-10.103955 12.476461 -2.930943 43
-10.580672 13.941548 -3.637857 1
-13.212766 11.124611 -4.167455 9
-21.465172 23.483480 -1.962642 230
-12.913412 13.255525 -2.485641 9
-11.381245 13.274974 -2.845885 28
-10.043370 12.495007 -2.926633 32
-9.556429 12.688257 -3.301666 51
-13.121496 11.130199 -4.151505 14
-20.849781 24.500154 -2.046575 200
-21.429129 23.617302 -3.447490 5
-12.839935 13.277122 -2.480849 9
-11.337626 13.322615 -2.847170 12
-10.007318 12.544038 -2.929506 22
-9.493443 12.701242 -3.295968 78
-13.045137 11.147908 -4.140247 74
-12.783373 13.320603 -2.479784 8
-11.286391 13.366048 -2.847170 8
-9.959082 12.582369 -2.929506 17
-9.449271 12.743891 -3.297596 68
-12.955097 11.157313 -4.125237 63
-12.704390 13.335791 -2.473927 9
-11.247474 13.419426 -2.849740 7
-9.905610 12.609504 -2.927351 14
-12.881813 11.176687 -4.114916 53
-9.315564 8.675363 -0.515723 0
-12.639078 13.364986 -2.470732 8
-11.188111 13.448422 -2.847170 7
-9.910132 12.710895 -2.942437 27
-12.840758 11.223828 -4.114916 50
-12.330412 11.483018 -4.844827 1
-12.587291 13.408333 -2.470200 9
-11.128685 13.477162 -2.844599 8
-9.865883 12.750246 -2.943155 40
-12.770350 11.245125 -4.105535 51
-12.265808 11.507093 -4.835984 2
-12.516442 13.431172 -2.465940 10
-11.106746 13.551448 -2.851667 18
-9.862226 12.842495 -2.956086 19
-9.672944 13.453400 -3.444120 0
-12.714506 11.278950 -4.100843 47
-12.206791 11.536128 -4.829352 1
-23.929983 21.385370 -1.732492 3
-23.960604 21.412733 -3.746491 1
-12.424055 13.430397 -2.457420 24
-11.066965 13.604320 -2.854238 29
-9.831784 12.900465 -2.961114 18
-9.671332 13.555716 -3.461214 0
-12.644085 11.299566 -4.091461 50
-12.144933 11.562240 -4.821614 2
-12.390830 13.493367 -2.460615 9
-11.009584 13.635577 -2.852310 26
-9.846148 13.018016 -2.979792 12
-9.433764 13.325773 -3.393650 0
-12.565014 11.312016 -4.079265 52
-12.091373 11.596035 -4.817193 2
-23.792454 21.578217 -1.239544 2
-12.298571 13.491805 -2.452095 9
-10.954605 13.669668 -2.851025 11
-9.132745 13.001330 -3.302480 0
-12.517717 11.352760 -4.077388 61
-12.007328 11.600202 -4.800613 1
-7.365924 7.168555 -1.051290 1
-12.217115 13.501519 -2.445705 8
-10.926544 13.737537 -2.856808 18
-9.443322 13.548781 -3.432723 1
-12.447314 11.372339 -4.068007 68
-11.953707 11.633409 -4.796191 1
-12.159596 13.537363 -2.444108 9
-10.876118 13.777497 -2.856808 30
-9.427011 13.631623 -3.444934 0
-12.382657 11.396820 -4.060501 65
-11.894514 11.661000 -4.789559 1
-12.080879 13.549286 -2.438250 8
-10.835289 13.829696 -2.859378 29
-9.521010 13.875979 -3.497845 0
-12.329399 11.431552 -4.056748 59
-11.889991 11.742332 -4.805034 0
-12.026134 13.592607 -2.437718 9
-10.794219 13.886786 -2.862591 33
-9.500707 13.961003 -3.510055 0
-12.274046 11.468192 -4.052995 51
-14.855933 22.003292 -2.201377 28
-11.963158 13.621698 -2.435055 9
-10.731194 13.910624 -2.859378 32
-10.273919 14.228390 -3.203923 0
-9.510838 14.086610 -3.532848 0
-12.217775 11.499773 -4.048304 45
-11.887103 13.635568 -2.429731 9
-10.696939 13.971803 -2.863876 32
-10.226289 14.272346 -3.205360 0
-9.363247 13.978206 -3.497031 11
-12.141686 11.512368 -4.037046 46
-11.834241 13.670987 -2.428666 9
-10.657658 14.021635 -2.866446 52
-9.294879 13.981456 -3.489705 8
-12.078925 11.533202 -4.029541 38
-11.776312 13.705241 -2.427068 8
-10.603827 14.057442 -2.865803 40
-9.250051 14.025230 -3.492147 8
-12.014162 11.555822 -4.022035 50
-10.561686 14.108863 -2.868374 20
-9.220016 14.091817 -3.500287 6
-11.957756 11.586260 -4.017344 50
-21.352814 23.654858 -2.827222 1
-9.181101 14.145225 -3.505171 7
-11.917994 11.632723 -4.018282 40
-15.020456 21.788025 -0.106233 8
-9.141919 14.198535 -3.510055 6
-11.844783 11.646337 -4.007962 44
-15.022842 21.971561 -2.567561 9
-9.106297 14.263243 -3.517381 5
-11.786162 11.678049 -4.003271 41
-9.079103 14.336224 -3.527150 5
-11.715761 11.693695 -3.993889 58
-9.078568 14.452317 -3.547500 15
-11.659106 11.722782 -3.989198 35
-9.029688 14.492136 -3.549128 23
-11.580555 11.729458 -3.977002 54
-21.017414 24.347200 -4.034736 9
-8.976507 14.525135 -3.549128 17
-11.526595 11.760716 -3.973249 41
-20.866941 24.352779 -2.845250 5
-20.882643 24.371105 -3.344919 4
-8.964139 14.624722 -3.565409 2
-11.467141 11.786165 -3.967620 40
-8.928789 14.687596 -3.572735 1
-11.413064 11.816928 -3.963867 45
-20.783422 24.618277 -1.863330 101
-21.361683 23.734568 -2.771224 2
-11.364289 11.853067 -3.961990 46
-11.296652 11.869283 -3.953547 53
-11.234377 11.890824 -3.946980 55
-11.193377 11.934762 -3.947918 55
-10.828551 12.300753 -4.712183 7
-11.117765 11.941552 -3.936659 53
-10.745455 12.296936 -4.695602 8
-11.058090 11.965084 -3.931030 61
-10.670088 12.301387 -4.682338 13
-11.019411 12.011274 -3.932907 59
-10.619903 12.334594 -4.680128 32
-10.954375 12.028573 -3.925401 63
-10.534671 12.326670 -4.662442 32
-15.163612 21.785927 -1.228550 2
-15.208065 21.849794 -1.642226 1
-10.889856 12.050353 -3.918833 55
-10.467369 12.343574 -4.653598 47
-10.845618 12.090183 -3.918833 53
-10.402255 12.358326 -4.644755 34
-10.780542 12.106625 -3.911328 55
-10.339634 12.375721 -4.637018 28
-10.725793 12.134404 -3.907575 61
-10.281932 12.398740 -4.631491 40
-10.660733 12.150250 -3.900070 57
-10.229094 12.427437 -4.628175 46
-10.613578 12.186309 -3.899132 57
-10.176182 12.455912 -4.624859 46
-14.495249 21.834473 -1.213015 3
-14.553895 21.922813 -1.623262 3
-21.004301 24.295984 -2.725133 3
-14.768386 22.245905 -2.472350 8
-10.538321 12.189832 -3.887873 61
-10.106245 12.463270 -4.613805 39
-10.491435 12.230207 -3.887873 57
-10.055902 12.498990 -4.612700 30
-10.431417 12.250813 -3.882244 53
-9.988439 12.508724 -4.602751 31
-10.381428 12.283023 -3.880368 51
-9.923425 12.521144 -4.593909 36
-20.726706 24.706369 -1.740901 101
-15.062715 21.874638 -2.407719 6
-10.323845 12.306091 -3.875677 53
-9.875092 12.554408 -4.592803 31
-10.273693 12.337874 -3.873801 60
-9.821912 12.581430 -4.589488 39
-10.218495 12.363455 -3.870048 51
-9.761608 12.599110 -4.582855 47
-10.163246 12.388803 -3.866295 51
-9.708332 12.625662 -4.579539 48
-10.100581 12.404867 -3.859728 53
-9.664319 12.664219 -4.580644 56
-10.055051 12.441801 -3.859728 53
-9.599274 12.675036 -4.571801 50
-10.002079 12.469473 -3.856913 51
-9.548129 12.703992 -4.569591 54
-9.941780 12.487795 -3.851284 45
-9.490014 12.723492 -4.564064 58
-9.883887 12.508897 -3.846593 51
-9.438740 12.752011 -4.561853 55
-9.823585 12.526675 -3.840964 56
-9.382843 12.774121 -4.557432 56
-9.770432 12.553396 -3.838149 52
-9.324630 12.792899 -4.551905 50
-9.717223 12.579894 -3.835335 56
-9.264157 12.808302 -4.545272 53
-14.867369 22.173456 -1.955781 5
-9.666485 12.614024 -3.834396 58
-9.199224 12.821913 -4.537535 54
-9.615482 12.643176 -3.832520 58
-9.552683 12.656606 -3.825953 53
-9.508558 12.694648 -3.826890 55
-15.156409 21.800724 -0.667455 3
-15.128236 21.760201 -1.073707 6
-9.448152 12.715457 -3.822200 60
-8.920232 12.830712 -4.493320 1
-15.050633 21.818804 -1.073869 19
-15.072192 21.850058 -2.303647 11
-9.406090 12.756267 -3.824076 53
-8.892782 12.891808 -4.503269 2
-14.994462 21.908709 -1.893709 7
-14.988059 21.899353 -3.187861 4
-9.340912 12.765546 -3.816571 57
-8.836795 12.911617 -4.498847 2
-9.289495 12.793400 -3.814694 44
-8.832606 13.007523 -4.520955 21
-9.226627 12.805281 -3.808127 60
-8.774130 13.023870 -4.515428 19
-9.166058 12.820036 -3.802497 60
-8.734878 13.068729 -4.519849 12
-9.103262 12.831344 -3.795930 56
-8.682673 13.094245 -4.517639 76
-9.044984 12.848724 -3.791240 59
-8.624062 13.109922 -4.512112 31
-8.993366 12.875419 -3.789363 60
-8.609558 13.192958 -4.529797 25
-8.939474 12.898705 -3.786548 46
-8.565327 13.230878 -4.532008 14
-8.881130 12.915358 -3.781857 55
-8.512630 13.255707 -4.529797 14
-8.835928 12.951031 -3.782795 52
-8.505300 13.351662 -4.551905 1
-12.479951 29.129202 -0.614013 7
-12.503102 29.183239 -1.103146 5
-8.777488 12.967241 -3.778105 55
-8.431648 13.343758 -4.538640 1
-8.729910 12.999319 -3.778105 59
-8.679929 13.032744 -3.778105 58
-8.250111 13.276050 -4.494425 0
-8.627819 13.057980 -3.776228 57
-8.193333 13.293108 -4.490004 0
-8.582028 13.092770 -3.777166 60
-8.158587 13.346010 -4.497742 0
-8.529741 13.117619 -3.775290 55
-8.103634 13.365963 -4.494425 0
-8.473177 13.135721 -3.771537 57
-8.066480 13.415340 -4.501058 0
-8.433369 13.179784 -3.775290 57
-7.993640 13.405190 -4.487793 0
-13.019754 27.745016 -0.005349 8
-12.541280 29.095358 -0.553032 5
-8.380834 13.204042 -3.773414 53
-8.010979 13.546906 -4.525376 0
-8.327999 13.232837 -3.772476 57
-8.283557 13.269870 -3.774352 46
-8.245102 13.316669 -3.779043 46
-8.198282 13.350108 -3.779981 36
-8.159401 13.396678 -3.784672 41
-8.122303 13.446464 -3.790301 45
-9.384522 25.752975 -1.374121 2
-8.108943 13.536180 -3.807189 42
-9.205907 25.850321 -2.647065 3
-9.074256 25.779245 -1.370116 58
-9.071500 25.771414 -1.790738 39
-8.167528 13.980414 -3.906637 1
-8.147423 14.064089 -3.921648 0
-8.264318 14.387199 -4.003271 2
-8.461703 14.856640 -4.125237 1
-12.594962 29.145704 -0.920153 7
-12.587872 29.129295 -1.407680 6
-12.624642 29.214384 -2.885145 8
-9.161264 25.769066 -1.213218 6
-9.178192 25.816681 -2.483919 8
-9.178988 25.818920 -2.909084 7
-12.578603 29.173538 -1.715027 6
-7.873904 26.734306 -3.743372 8
-9.243368 25.621078 -1.522811 2
-7.641337 26.664398 -2.085608 4
-9.207638 25.818182 -3.292819 4
-8.980227 25.790625 -1.526830 43
-6.298385 28.962378 -3.204158 3
-6.187615 28.963751 -2.742302 6
-3.544886 32.098942 -3.115256 2
-8.332967 31.610546 -0.319521 8
-7.855763 26.753620 -3.250850 1
-7.613458 26.667206 -2.782761 2
-4.715509 31.707407 -0.497982 4
-6.208219 28.953825 -3.714606 4
-0.588227 5.589119 -0.011770 1
-4.394107 31.957537 -4.735868 5
-4.271426 31.932199 -0.995563 13
-4.275618 31.963541 -2.487029 6
-4.275858 31.965338 -2.986070 4
-6.275579 28.957205 -3.030547 6
-3.561553 32.060246 -1.493012 4
-3.564332 32.085262 -1.991457 5
-1.444671 36.253380 -2.378058 3
-4.734214 31.669918 -0.374471 2
-6.227205 28.988140 -2.515793 3
-6.220052 28.954844 -3.452812 2
-1.519210 36.126564 -0.631149 4
-4.410709 31.900740 -0.871421 6
-4.297319 31.943230 -1.367785 8
-3.592197 32.065498 -1.866101 11
-0.588741 36.345753 -2.312460 2
-3.591692 32.060989 -2.363479 8
-3.593638 32.078358 -4.049174 5
-2.576617 33.786755 -0.461322 2
-3.467115 32.008991 -0.871204 11
-0.552981 5.688796 -0.066840 0
-0.596677 5.575898 -0.054811 1
-1.431601 36.258942 -3.289622 5
2.414469 40.544552 -0.786966 22
1.886667 19.090662 -0.113839 101
-0.628696 36.345711 -2.172390 3
-0.628873 36.355923 -2.734025 4
