ply
format ascii 1.0
element vertex 863
property float x
property float y
property float z
property uchar intensity
end_header
0.410667 24.482088 -3.594751 1
1.202815 24.752722 -4.033329 2
2.107790 26.208815 -4.800137 15
5.199884 44.845303 -0.961435 7
5.201253 44.857113 -1.655856 4
0.500396 24.480419 -3.594751 1
1.299919 24.870367 -4.053248 5
2.214061 26.322468 -4.822407 3
2.269378 40.565392 -1.958650 3
2.268322 40.546509 -2.583424 6
2.269262 40.563313 -4.470880 4
0.590594 24.498203 -3.597656 1
1.398342 24.995520 -4.074453 3
2.321881 26.443533 -4.846113 2
0.681480 24.535431 -3.603467 3
1.500049 25.159691 -4.102083 3
2.864549 23.215975 -4.862143 1
0.774511 24.631660 -3.617992 2
1.602480 25.315573 -4.128428 3
0.869091 24.751266 -3.636003 2
1.705282 25.459221 -4.152845 3
0.966091 24.910055 -3.659825 1
1.809715 25.610327 -4.178547 3
1.065777 25.001059 -3.673770 1
1.920361 25.768549 -4.205534 3
-0.629125 36.333252 -0.983296 5
-0.629412 36.349827 -1.542807 5
2.685597 18.884163 -0.992959 8
-0.629271 36.341682 -3.788171 10
2.026185 25.906973 -4.229310 3
2.136271 26.084311 -4.259510 3
-1.333822 32.118786 -0.314205 2
1.368367 25.422298 -3.737681 0
2.248894 26.221462 -4.283284 3
1.467216 25.515888 -3.752207 2
2.360816 26.389996 -4.312199 3
2.480698 26.680357 -4.361033 2
2.094955 18.789434 -2.080547 1
7.410719 49.012669 -2.485075 21
3.321797 21.969549 -1.799429 3
3.319655 21.955378 -2.142003 0
3.316128 21.932053 -2.484115 2
8.176256 49.133274 -4.033782 3
2.675365 18.911657 -0.040003 3
3.746265 48.587273 -0.663450 19
2.671708 18.885805 -0.919519 1
2.616223 18.493591 -1.476530 49
0.872194 10.795563 -1.454750 0
2.281397 40.577042 -1.099717 4
2.280180 40.555393 -1.723765 6
3.344285 21.901018 -1.751409 13
1.183246 11.471576 -1.549000 0
2.179415 10.656938 -1.049301 0
3.810845 48.551384 -4.320722 3
2.205994 10.589038 -1.211340 0
2.446921 18.920393 -1.140123 1
8.131665 49.114090 -2.304155 6
8.134708 49.132469 -3.072154 5
1.544422 19.313423 -0.189375 27
5.198265 44.872421 -2.612541 6
5.198544 44.874828 -3.309513 8
1.085343 19.437122 -0.152900 6
2.273765 19.017546 -0.518265 1
5.369561 44.910484 -4.012831 5
6.745113 26.446703 -2.632854 0
20.464939 68.938217 -1.531448 5
3.605314 48.561230 -3.379457 3
11.599829 37.556507 -0.837093 4
11.730985 37.493229 -1.440537 32
3.816864 15.115157 -0.272118 1
3.879380 15.128917 -1.476371 3
6.790602 26.482185 -3.008590 0
2.436540 18.988611 -0.775608 2
20.453558 68.531456 -1.385714 6
12.503567 37.534607 -2.059531 9
4.489229 44.849541 -4.522786 1
20.728916 68.536415 -1.387341 8
7.086826 26.426254 -4.452919 2
3.314060 21.959864 -1.927372 101
7.575538 48.980228 -2.770980 21
2.268382 18.511883 -1.871415 3
2.309346 18.846184 -4.581198 15
4.235046 14.499637 -0.960943 1
3.418367 21.577843 -2.624427 16
2.306524 10.285900 -1.415879 0
8.157840 49.107288 -1.251378 6
8.153073 49.078594 -2.015609 9
19.865366 53.605282 -4.740232 19
19.911821 53.160389 -2.955170 4
19.862755 53.029396 -3.820744 3
20.021601 53.453480 -4.732961 15
2.671551 18.898966 -0.443141 2
2.671961 18.901871 -0.736693 2
20.078991 52.986427 -2.949763 3
20.226030 53.374451 -3.851172 4
2.676470 18.933769 -1.327080 2
11.716228 37.519585 -1.894896 0
4.557083 15.522642 -1.748895 1
19.619736 53.301918 -3.722747 11
9.015137 27.113140 -2.700909 0
20.737579 68.768593 -1.115815 9
19.874384 53.389271 -2.855993 3
19.824711 53.255833 -3.724578 6
19.951244 53.595741 -4.631439 6
5.286932 14.044811 -0.521432 0
17.978090 58.836735 -2.847505 0
20.115246 53.436436 -4.624012 6
4.064396 14.567828 -2.031432 3
4.160451 14.500622 -0.437191 4
4.217477 14.489277 -0.205450 3
19.793510 53.531784 -4.511864 5
20.758682 68.501060 -0.974484 8
20.326742 54.360561 -2.797851 3
19.824142 53.016441 -3.600744 3
19.977011 53.425266 -4.509027 4
20.774544 54.943428 -2.831750 1
19.709877 53.108879 -3.494533 4
19.933857 53.114780 -3.499704 4
20.103197 53.565994 -4.412431 7
11.722907 37.504162 -1.063254 7
11.729766 37.526104 -1.668477 4
6.541533 26.342396 -2.303072 2
3.879129 15.145516 -1.085037 1
19.546017 53.041656 -4.250395 5
5.132357 13.927580 -1.345607 0
3.940045 14.927241 -1.549129 1
19.788647 53.099411 -3.386485 4
19.931120 53.481716 -4.291483 4
5.123550 13.748162 -1.330078 0
18.722065 54.225204 -4.202649 2
19.695745 53.221668 -3.282074 6
19.886478 53.137909 -3.281382 4
19.982525 53.394550 -4.176638 4
18.818218 54.276356 -4.097629 3
19.017023 54.207020 -4.097629 3
19.955299 53.084587 -3.170662 3
20.128149 53.544395 -4.080269 7
18.712118 54.325459 -3.987610 1
7.653846 11.989181 -2.956522 1
15.226246 41.706882 -2.396811 6
19.666481 53.262508 -3.065012 7
19.639563 53.189606 -3.934992 3
19.678438 53.294891 -4.820556 5
19.816851 53.070335 -3.058112 9
19.874859 53.225681 -3.943023 2
20.369991 54.551666 -4.940952 10
7.701593 12.020448 -2.606240 1
7.499588 11.152993 -1.505160 0
7.553437 11.559587 -1.519609 0
6.544914 9.550736 -1.274144 0
6.101039 10.158253 -1.591599 0
8.153353 12.079652 -1.828177 0
7.678339 11.895293 -1.700797 0
9.372025 13.841381 -2.008038 0
9.562301 13.370280 -1.974642 0
11.177234 11.192068 -1.495193 4
7.412049 6.442287 -1.118901 0
6.831800 5.892059 -1.027885 0
11.072879 10.684739 -1.454538 4
11.072890 10.529105 -1.681502 1
11.162749 10.984550 -1.450071 2
11.234218 9.169590 -1.624024 0
11.065805 10.626937 -2.060718 0
11.040462 10.496067 -1.587665 3
11.019694 10.476324 -1.907339 1
8.284264 7.280721 -1.481374 0
7.875031 6.420658 -1.364760 0
11.141438 10.919647 -3.764032 2
11.059113 10.525563 -1.531956 3
7.650653 5.782156 -1.288082 0
12.065656 9.559005 -1.849169 0
9.632181 4.480511 -1.210369 0
9.692065 5.713849 -1.511193 0
11.082507 5.840917 -1.682654 0
11.687145 6.104956 -1.771046 0
9.671676 4.962247 -1.460075 0
5.036235 2.332510 -0.745479 0
26.593655 8.321714 -1.021773 4
26.938740 7.992915 -0.166748 2
9.417034 4.151639 -1.382332 0
26.204952 8.364072 -0.955773 2
27.093678 8.429403 -0.549776 2
27.388496 8.482348 -0.060050 2
27.224054 8.322191 -0.496905 2
27.380552 8.036726 -0.498092 2
26.169506 8.275825 -0.848168 5
26.748526 8.136514 -0.863983 6
27.425325 8.416701 -1.272603 3
27.036406 8.189038 -0.384599 5
11.398122 3.268571 -1.592664 0
26.857828 8.417760 -0.329147 2
26.999491 8.462159 -1.200734 5
26.146883 8.263145 -1.110949 2
26.957462 8.410768 -0.709875 3
10.016747 2.362505 -1.382332 0
38.661037 2.924583 -2.018358 7
38.669342 2.925211 -2.616546 2
38.676472 3.004510 -3.141655 2
38.669476 2.946942 -2.467115 2
52.925701 -0.493290 -1.127167 3
52.891735 -0.880753 -0.313913 5
38.663311 3.035400 -2.392409 3
52.794201 -0.753785 -0.211952 4
38.670876 2.996607 -2.317948 2
38.658657 2.995660 -2.915473 3
52.549351 -1.328334 -1.018499 12
38.554893 2.650038 -1.045726 6
52.703205 -0.506847 -0.818765 5
96.064178 -10.442692 -2.057858 12
85.702095 -11.228135 -0.512919 15
38.823490 3.276473 -0.904571 6
38.662682 2.970854 -3.290247 2
38.655361 2.970291 -3.890195 3
38.600544 2.681610 -0.898351 12
38.590199 2.680892 -1.492821 4
8.371868 -1.317588 -0.702722 0
85.632187 -11.027473 -0.346590 19
52.837204 -0.828184 -3.056202 4
53.154430 -1.028038 -0.621717 7
8.256346 -1.515919 -0.307807 1
69.622131 -13.059612 -2.597453 11
69.491348 -13.298933 -2.594374 36
90.470001 -8.872255 -0.015866 16
89.921730 -8.818487 -1.403607 17
69.473526 -13.559662 -2.595547 24
69.482170 -13.825907 -2.597746 29
53.341621 -0.914322 -0.521446 9
52.813755 -0.905274 -2.953181 12
69.581818 -13.170261 -2.460618 34
69.489899 -13.416877 -2.459091 49
31.706573 -7.165162 -2.193245 1
69.438728 -13.658590 -2.458952 36
69.431313 -13.921642 -2.460480 16
52.846397 -0.595863 -1.227015 7
18.880760 -4.628476 -1.311639 1
19.856894 -4.944990 -0.435793 1
31.398003 -7.819089 -2.682970 1
32.445747 -8.206418 -3.813138 9
8.297475 -1.308402 -0.001466 2
19.363052 -4.973029 -0.425743 8
70.376663 -13.402158 -2.351556 5
8.273937 -1.304691 -0.775560 0
70.476540 -13.957292 -2.358248 1
36.273201 -9.742448 -1.377217 3
68.653976 -13.858031 -3.376451 3
31.625608 -7.679095 -3.644705 1
18.882172 -4.658179 -0.675750 89
30.990715 -7.645323 -3.079153 1
8.354516 -1.538014 -0.393180 4
86.611969 -10.631559 -1.020463 7
18.319866 -5.282219 -0.992543 1
70.522835 -13.786192 -2.220558 2
70.739868 -13.828618 -3.336114 0
17.787159 -4.665712 -0.921889 13
93.025208 -9.485266 -0.913957 53
70.438011 -14.050629 -2.219570 2
70.392357 -14.041522 -3.322244 2
71.227005 -14.466702 -2.246009 2
70.127541 -14.243394 -3.312072 0
94.929512 -10.366295 -2.400528 13
41.112793 -12.674657 -2.902785 3
18.879675 -5.249284 -0.078663 13
40.947964 -12.788377 -2.894438 5
31.427711 -7.674037 -2.557447 2
40.908314 -12.775994 -3.553604 49
31.603621 -6.660505 -2.990496 2
17.546677 -5.550632 -0.109211 11
19.707735 -4.888853 -0.666493 1
40.866573 -12.927537 -2.892014 9
41.036049 -12.981147 -3.568809 20
17.929226 -5.126904 -0.074858 7
18.402803 -5.262325 -0.370856 6
19.065536 -4.803793 -0.645366 2
19.038300 -4.158332 -0.901947 3
40.917732 -13.108896 -2.899015 4
18.301138 -4.611194 -1.491976 8
32.459431 -8.178548 -3.683728 2
19.492985 -4.987546 -0.351212 40
70.606331 -13.352697 -2.082481 1
69.518204 -13.146916 -3.138519 2
18.925415 -4.206410 -0.897324 7
19.021677 -4.941307 -0.343044 11
70.619728 -13.623505 -2.084335 1
69.446014 -13.397079 -3.137456 2
86.899567 -11.428202 -0.856683 5
69.431732 -13.658463 -3.139051 4
18.964169 -4.361144 -0.900653 23
19.158558 -4.405847 -1.212705 2
18.403557 -4.852809 -1.504585 12
32.568672 -10.830368 -3.377420 55
34.903690 -9.340665 -0.075675 6
17.132233 -5.171874 -0.071839 8
19.649456 -5.258441 -0.355052 2
69.251907 -13.886927 -3.133201 2
19.741083 -5.360577 -0.042843 11
18.260668 -5.585638 -0.076656 14
41.130550 -12.581159 -2.819137 4
40.962158 -12.694012 -2.810765 4
40.980839 -12.699800 -3.474548 44
18.715807 -4.593928 -1.188816 4
40.919167 -12.845258 -2.811027 4
41.055737 -12.888129 -3.484880 44
17.994438 -5.102768 -0.039174 2
40.987457 -13.039788 -2.819137 4
40.998352 -13.043255 -3.484234 12
19.216188 -4.150825 -1.782225 5
31.147608 -7.772321 -2.972425 1
69.549950 -12.988287 -3.002513 18
19.514332 -4.290149 -1.194051 6
31.199989 -7.906983 -2.980170 0
32.807266 -6.126679 -4.186586 3
19.080950 -4.910161 -0.608853 20
69.446915 -13.232634 -3.000138 52
8.358957 -1.319742 -0.603630 0
18.850218 -5.570093 -0.041167 3
69.382263 -13.484033 -2.999460 93
31.975487 -8.353429 -1.529630 1
86.259697 -11.488062 -0.683478 3
18.838608 -4.995321 -0.302765 6
69.395096 -13.750679 -3.002174 15
18.380329 -4.873803 -1.466504 13
69.391235 -14.014426 -3.004209 101
41.079002 -12.631275 -2.734016 4
19.515570 -4.742593 -0.582033 4
40.921898 -12.747323 -2.726651 4
40.911354 -12.744039 -3.387444 51
31.477804 -7.649606 -3.439044 4
40.878708 -12.898427 -2.726905 3
40.929020 -12.914300 -3.392803 27
40.937634 -13.082188 -2.734016 4
69.495445 -13.071014 -2.864892 34
69.415672 -13.319625 -2.863596 53
32.014347 -8.278883 -1.466888 1
69.382072 -13.577018 -2.864244 36
69.367119 -13.838261 -2.865701 25
34.080170 -6.798759 -2.478841 6
17.972311 -4.929819 -0.540087 11
41.030556 -12.670479 -2.649037 6
33.986443 -7.039490 -2.475710 5
40.957169 -12.812437 -2.647313 11
33.991642 -7.170599 -2.477987 6
40.905918 -12.796405 -3.305479 45
40.955605 -12.976933 -2.650269 5
40.930977 -12.969130 -3.311322 81
18.294962 -4.540423 -1.672366 2
18.138214 -5.190431 -0.256853 14
69.655052 -12.942502 -2.734061 11
43.606815 -13.993064 -2.825131 5
19.231756 -4.204455 -1.404202 5
31.317492 -7.894309 -2.865399 3
18.627907 -6.052934 -0.605270 2
69.591438 -13.194734 -2.733444 101
19.453793 -4.327767 -1.421563 6
69.511223 -13.443640 -2.732210 101
19.022926 -4.305148 -0.790181 6
19.118700 -4.326823 -1.398226 5
16.792171 -5.005649 -0.238557 2
69.488930 -13.703747 -2.733290 61
18.788908 -4.324642 -0.781113 3
19.137707 -4.404925 -1.400787 3
45.343903 -12.326464 -2.717625 5
17.638308 -5.402335 -1.102421 9
45.406071 -12.343365 -3.447166 9
41.082905 -12.583046 -3.230684 7
17.978025 -4.958050 -0.504632 11
41.025677 -12.730176 -2.567066 4
40.952705 -12.707534 -3.224086 62
40.946236 -12.705525 -3.886586 10
19.183825 -4.716263 -0.193089 2
18.188486 -5.087903 -0.220866 1
40.982548 -12.881661 -2.567305 8
40.928680 -12.864730 -3.225885 46
31.734547 -6.748865 -3.782622 101
40.961693 -13.040257 -2.568975 4
40.942070 -13.034009 -3.230684 6
19.496323 -4.944917 -0.505618 13
19.422277 -4.279506 -1.380252 18
17.664862 -5.766604 -0.252987 4
32.509033 -8.372311 -2.913365 2
32.515820 -8.374059 -3.434294 6
19.829636 -5.258474 -0.200517 93
41.115795 -12.482534 -3.147895 12
19.014084 -5.195245 -0.192659 2
41.001133 -12.612029 -3.142635 35
40.962246 -12.764595 -3.143219 77
40.918941 -12.751100 -3.802504 28
41.013519 -12.945683 -2.487365 5
40.964645 -12.930256 -3.147018 45
41.008709 -12.944164 -3.815229 101
42.552521 -13.767057 -3.276488 10
18.976954 -4.913431 -0.455117 2
17.925131 -5.320560 -0.470033 25
33.083134 -10.971961 -3.092340 101
41.187675 -12.554619 -3.071372 5
41.007690 -12.664208 -3.724708 64
40.894581 -12.793639 -2.395636 19
40.953648 -12.812118 -3.060842 10
41.390770 -12.948869 -3.763788 22
17.417387 -6.136366 -0.215954 1
40.856575 -12.954196 -2.396306 4
40.907955 -12.970487 -3.061126 6
18.327444 -6.532601 -0.526488 3
18.051777 -5.318406 -0.436920 10
17.670238 -5.205997 -0.994431 1
17.178131 -5.266968 -0.141119 4
41.065762 -12.591127 -2.980945 3
40.890385 -12.701502 -2.311426 7
40.908821 -12.707229 -2.972914 7
40.928905 -12.713468 -3.636554 55
40.861050 -12.848944 -2.312289 2
40.894676 -12.859519 -2.975130 5
41.253090 -12.972223 -3.669358 37
40.890614 -13.030991 -2.978453 1
6.199883 -4.458022 -0.855195 0
5.830556 -4.356738 -0.815128 1
6.087315 -4.423017 -0.594836 5
5.994735 -4.391020 -0.702425 0
5.898516 -4.387340 -1.196441 0
5.777635 -4.363570 -0.796777 2
5.566448 -4.302551 -1.145036 0
5.589206 -4.265703 -0.760090 2
5.519943 -4.244946 -0.752782 1
5.590861 -4.279021 -0.747435 1
5.549941 -4.280052 -0.744056 1
6.327466 -4.418373 -0.535595 7
5.859689 -4.372771 -0.878308 1
6.385244 -4.493621 -0.662514 1
5.776965 -4.344095 -0.868289 1
6.313465 -4.477796 -0.656764 1
6.099443 -4.393556 -0.876405 0
2.936121 -3.492196 -0.519829 1
2.591829 -3.372130 -0.884026 1
2.667501 -3.428779 -0.793079 0
2.869766 -3.491474 -0.542919 1
2.666910 -3.419884 -0.520973 6
-14.768763 2.751634 -3.122582 1
-40.199734 8.716485 -4.686614 14
-15.748531 1.992575 -0.246599 2
-15.695202 1.985827 -1.464823 2
-14.871413 2.103550 -0.926523 12
-40.229038 8.622897 -4.607633 8
-15.854069 2.022235 -0.217593 3
-18.656555 5.651936 -2.221047 3
-44.839054 13.754908 -0.998823 6
-33.946537 10.556289 -4.050412 2
-15.627395 1.919353 -1.366418 2
-15.809167 2.000527 -0.155754 2
-15.880229 2.009519 -0.648499 3
-22.173693 3.523077 -1.644820 1
-18.451704 6.110899 -1.611699 1
-15.911327 2.132071 -4.616016 8
-45.560562 14.241138 -4.604711 3
-26.320135 7.319998 -3.006402 0
-18.353405 5.249591 -1.214384 4
-18.720657 5.428937 -0.040824 1
-18.471037 6.150937 -1.576639 1
-44.379688 13.586880 -0.810141 3
-12.099129 4.609081 -0.474756 0
-44.790176 14.072470 -0.819495 3
-14.780622 2.876280 -4.329726 1
-44.198677 13.945128 -0.719977 3
-11.163071 4.318221 -1.340443 0
-14.654675 3.792140 -1.898875 0
-19.392721 6.436447 -2.208905 0
-19.326391 6.493162 -0.003558 2
-18.236132 4.861804 -0.510691 0
-19.381599 6.511710 -0.631833 0
-62.800953 27.979177 -4.638802 1
-19.368670 6.507366 -1.891878 1
-62.763489 28.238661 -4.643648 2
-13.324162 3.709651 -0.374254 0
-26.112371 7.270084 -2.404800 1
-26.296005 7.321210 -2.844860 1
-44.093197 13.977874 -0.629744 2
-18.556646 6.111532 -1.167564 7
-18.806906 5.613019 -0.229519 1
-63.634872 32.080189 -1.517652 4
-26.292097 7.465693 -3.283278 3
-18.536203 6.129551 -1.129130 2
-14.748622 6.493242 -1.773388 0
-58.257374 30.448456 -4.435229 5
-15.742440 5.898080 -1.524010 0
-12.755671 5.302108 -0.852145 0
-33.950130 10.452229 -3.633319 5
-45.354301 14.145392 -1.194283 4
-12.051495 5.061278 -0.806336 0
-11.615051 5.421623 -0.815430 0
-10.735672 5.059151 -0.754991 0
-11.856547 5.587360 -1.036156 0
-8.440243 4.309431 -1.061314 0
-12.599358 5.039128 -1.020311 0
-9.301499 4.792229 -1.009357 0
-13.921507 6.149127 -0.938837 0
-13.412863 5.421610 -1.087791 0
-17.472399 5.802825 -1.597785 0
-48.022217 27.151964 -4.574303 4
-9.600155 5.080449 -1.047765 0
-33.973759 10.520534 -3.568708 2
-19.284445 6.723853 -0.199618 4
-44.438370 14.289840 -1.083758 4
-13.713637 6.960934 -1.692441 0
-44.298241 14.424154 -1.081623 1
-12.874990 6.594706 -2.354328 0
-47.700947 27.062674 -2.749444 6
-47.972496 27.449663 -1.920435 6
-47.952080 27.437981 -4.474195 4
-59.976177 27.369381 -4.956994 2
-59.871826 27.587368 -4.956694 2
-15.895632 7.946414 -1.370542 1
-10.506080 4.054382 -1.151819 0
-59.701603 27.774645 -4.950996 2
-47.520275 27.888897 -4.462248 4
-10.955606 4.274056 -1.020577 0
-59.765472 28.071293 -4.964792 2
-59.600918 28.261091 -4.959693 2
-59.644463 28.549948 -4.971990 2
-51.673611 29.154654 -4.690283 1
-12.831494 4.865518 -0.952385 0
-59.973480 27.455462 -4.832170 20
-59.883312 27.680128 -4.833046 7
-59.856094 27.947001 -4.839476 101
-11.082083 5.660987 -1.671471 0
-16.639662 7.277308 -2.181695 0
-47.972412 27.375202 -1.706839 4
-60.163010 27.369724 -4.714635 17
-7.370048 3.638988 -0.856651 0
-60.040546 27.580042 -4.712928 101
-7.662893 3.818576 -0.892310 0
-59.906487 27.784796 -4.710367 12
-35.749477 24.093361 -4.827998 4
-39.976009 25.342196 -0.099132 3
-39.987091 25.349220 -2.282427 3
-59.822300 28.012684 -4.711790 101
-59.730061 28.236828 -4.712643 101
-59.741390 28.510565 -4.721751 58
-59.744343 28.781242 -4.730289 15
-10.845851 5.276289 -0.674324 0
-16.796453 8.171138 -1.910474 0
-13.511888 7.669269 -1.649424 0
-60.244617 27.259779 -4.589116 68
-13.142883 7.523660 -2.034094 0
-11.659764 6.191264 -4.696201 0
-60.080147 27.438366 -4.583854 7
-11.415490 6.112724 -4.606379 0
-59.957432 27.648378 -4.582193 101
-11.243798 6.073923 -4.546052 0
-59.819508 27.851122 -4.579423 10
-47.530827 27.896233 -4.143925 4
-11.003051 5.996076 -4.457570 1
-13.660436 6.957942 -1.330450 0
-12.728388 6.999808 -1.822203 0
-10.831348 5.956557 -4.397242 1
-59.720570 28.352299 -4.588008 2
-39.833893 25.534630 -3.649036 2
-39.875904 25.561562 -4.385618 3
-10.674327 5.921260 -4.342277 1
-10.504557 5.877533 -4.281949 1
-10.377913 5.856732 -4.239049 1
-10.254846 5.836935 -4.197489 1
-57.787819 30.780685 -2.652611 4
-15.133212 7.458278 -1.692900 0
-10.148405 5.825697 -4.162633 1
-8.928236 5.509671 -4.892229 1
-8.458921 5.262960 -1.338136 0
-10.065017 5.826976 -4.137161 1
-8.874124 5.521290 -4.873634 2
-8.852653 5.553044 -1.403631 0
-9.981755 5.827727 -4.111690 0
-8.746340 5.486357 -4.814467 2
-63.580017 32.208584 -1.654744 5
-63.230328 32.031437 -3.826360 6
-9.927851 5.845156 -4.098283 0
-8.621997 5.452500 -4.756991 1
-9.653686 4.934940 -0.752437 0
-10.897970 6.470229 -4.508514 0
-8.439942 5.380773 -4.667397 1
-9.479491 4.889802 -0.740251 0
-9.764030 5.432808 -1.142865 0
-10.120781 6.059086 -4.196149 0
-8.359169 5.372472 -4.633587 2
-10.163031 6.135096 -4.222961 0
-8.269444 5.357738 -4.594706 2
-10.204864 6.211486 -4.249774 0
-8.228509 5.374129 -4.582873 2
-9.362970 5.746182 -3.907915 1
-8.157280 5.370367 -4.554135 2
-9.332231 5.774515 -3.903893 2
-8.143581 5.404239 -4.557516 22
-9.320597 5.814662 -3.907915 0
-8.108655 5.423971 -4.549063 32
-10.147798 6.382497 -4.264521 1
-8.073690 5.443518 -4.540611 40
-39.955471 25.334986 -1.280190 5
-39.967903 25.342871 -2.008346 6
-9.274542 5.880807 -3.906574 1
-8.029700 5.456771 -4.527087 47
-10.113440 6.464831 -4.269883 1
-7.997680 5.477973 -4.520325 53
-10.080172 6.495733 -4.265861 1
-7.971581 5.503131 -4.516944 79
-10.056297 6.532633 -4.265861 0
-7.942431 5.526098 -4.511873 100
-47.681644 27.082561 -2.960222 101
-48.125725 27.334793 -3.841110 2
-10.939460 6.678003 -3.685296 0
-9.209397 6.030599 -3.915959 0
-7.916186 5.551011 -4.508492 101
-10.016418 6.614155 -4.269883 0
-7.894812 5.581367 -4.508492 101
-9.957603 6.627851 -4.255136 1
-7.865446 5.603954 -4.503420 101
-10.769686 6.740631 -3.653241 0
-9.923856 6.658001 -4.251114 1
-7.847800 5.634857 -4.505111 101
-10.728655 6.769799 -3.647714 0
-9.896265 6.692215 -4.249774 1
-7.827096 5.663581 -4.505111 101
-10.674576 6.790509 -3.637765 1
-9.874784 6.730568 -4.251114 1
-7.815071 5.698641 -4.510182 101
-23.953470 21.392807 -0.128922 1
-23.922323 21.364990 -0.621452 1
-23.971292 21.408724 -1.611253 2
-24.009422 21.442780 -3.605083 1
-10.665797 6.839961 -3.643292 1
-9.865582 6.777383 -4.257817 0
-7.802897 5.733684 -4.515254 101
-10.611599 6.860226 -3.633344 1
-9.062962 6.275027 -3.921321 0
-7.793482 5.770876 -4.522016 101
-10.567058 6.886483 -3.626712 1
-9.104802 6.353495 -3.949474 0
-7.766465 5.795068 -4.518635 93
-10.544961 6.927276 -3.627817 1
-9.713397 6.831253 -4.224302 0
-7.748072 5.825671 -4.520325 79
-10.519502 6.965876 -3.627817 1
-9.691371 6.868986 -4.225643 0
-7.741117 5.864975 -4.528778 53
-10.487508 7.000115 -3.625607 1
-8.976130 6.411595 -3.924002 0
-7.725334 5.897707 -4.532159 58
-10.474533 7.047096 -3.630028 1
-9.631578 6.933241 -4.221621 1
-7.706535 5.928197 -4.533849 22
-39.994770 25.318848 -1.098985 5
-10.435908 7.076808 -3.625607 1
-8.941090 6.486077 -3.929365 0
-10.403555 7.110670 -3.623396 1
-9.753917 7.130426 -4.298036 0
-7.634303 5.962213 -4.516944 2
-26.261349 25.067862 -4.065847 2
-10.395165 7.163654 -3.630028 1
-9.714329 7.158885 -4.292674 1
-7.645534 6.018392 -4.537230 100
-10.370094 7.199900 -3.630028 1
-9.659019 7.170291 -4.279267 1
-7.638683 6.056307 -4.545682 75
-23.737278 21.578083 -2.040735 2
-10.383316 7.268321 -3.644398 1
-8.877076 6.642840 -3.944112 0
-7.649358 6.112749 -4.565968 101
-10.344042 7.297462 -3.639976 1
-8.834617 6.661716 -3.936068 0
-7.615608 6.131648 -4.559206 101
-8.834149 6.712290 -3.946793 0
-7.624054 6.184639 -4.577801 200
-8.815470 6.749207 -3.949474 0
-7.581684 6.196485 -4.565968 200
-8.805593 6.792984 -3.956177 0
-8.768738 6.815955 -3.950815 0
-23.933226 21.331968 -0.498044 1
-23.990427 21.382954 -3.474145 2
-8.960286 7.017683 -4.048680 0
-8.975921 7.083164 -4.067449 0
-7.648091 6.440066 -4.662325 1
-8.823056 7.015159 -4.009802 0
-7.610615 6.456326 -4.653872 3
-8.735518 6.997972 -3.981649 0
-7.589654 6.486535 -4.655563 2
-21.339373 23.694807 -2.151508 255
-26.606922 24.424383 -3.904490 2
-21.346153 23.702335 -3.634276 10
-8.765527 7.074917 -4.007121 3
-7.620772 6.561619 -4.689373 2
-8.912049 7.247280 -4.086218 1
-7.645966 6.632262 -4.719801 2
-7.635256 6.672167 -4.728253 4
-7.624358 6.712083 -4.736706 3
-7.645812 6.780878 -4.765444 1
-23.967590 21.413713 -2.913676 5
-23.984787 21.429077 -3.414552 4
-26.275835 25.023035 -3.922547 3
-26.178350 25.113792 -3.358914 2
-23.724239 21.670050 -4.315794 17
-21.316748 23.747917 -3.078385 2
-26.252901 25.069429 -3.853723 5
-21.370054 23.693911 -3.511334 5
-24.029015 21.433155 -2.794395 2
-24.006033 21.412655 -3.290215 5
-20.834068 24.155256 -1.047046 14
-20.983601 24.328625 -2.539795 5
-20.958250 24.299232 -3.033300 5
-23.892345 21.469019 -3.858638 4
-15.159271 21.782127 -0.565159 2
-15.170794 21.798681 -0.973843 2
-15.174611 21.804169 -2.202699 1
-14.667437 21.748632 -1.769945 7
-14.517562 21.870567 -0.962557 2
-14.741813 22.386028 -2.222532 0
-21.336283 23.669769 -2.827222 4
-21.347315 23.682009 -3.322942 9
-15.021106 21.821575 -0.106345 3
-21.310421 23.816013 -2.341267 142
-15.015828 21.985998 -2.568329 1
-21.104921 24.123228 -0.867309 200
-20.949543 24.302856 -2.350619 21
-20.969315 24.325792 -4.028761 8
-20.855127 24.373384 -2.845957 3
-15.195316 21.799816 -2.100682 2
-15.163690 21.754442 -2.506669 1
-14.888413 21.696838 -0.863724 7
-15.133958 21.767618 -1.227070 3
-15.162440 21.808584 -1.638532 3
-15.194094 21.854113 -2.052737 2
-15.176579 21.828920 -2.461655 3
-15.029309 21.787033 -0.004620 5
-15.078908 21.858932 -3.898623 7
-15.031232 21.961613 -2.052429 3
-15.004909 21.923151 -2.459811 1
-21.029009 24.358912 -2.730544 13
-20.996523 24.321281 -3.224057 4
-20.900677 24.390429 -2.725471 1
-15.055752 21.889101 -2.408441 5
-14.781273 22.365158 -2.015728 18
-15.195209 21.812666 -1.537455 2
-15.199790 21.819244 -3.335727 3
-14.846876 22.167978 -1.954612 6
-14.498127 21.828081 -1.515514 9
-15.043742 21.833261 -1.074193 40
-15.072056 21.874353 -2.305376 3
-12.589376 29.145350 -1.591625 4
-12.614602 29.203749 -2.085052 4
-12.498473 29.228704 -1.104535 3
-9.227688 25.820194 -2.698176 2
-9.048837 25.750067 -1.368313 27
-9.060652 25.783688 -1.791261 43
-12.576105 29.130024 -1.407503 5
-12.609694 29.207825 -2.884062 8
-12.658525 29.254965 -2.766382 8
-12.489142 29.156195 -0.310021 9
-9.157618 25.787325 -1.213927 5
-12.504860 29.192886 -1.775571 6
-12.536636 29.267069 -2.271085 5
-9.170512 25.823635 -2.484280 14
-9.172637 25.829617 -2.909928 10
-8.158671 27.004107 -1.685845 1
-8.150216 26.976122 -2.554703 5
-7.872895 26.765350 -2.961869 5
-9.227245 25.618399 -1.522364 2
-7.624085 26.656891 -2.084709 2
-9.100748 25.860264 -3.293296 4
-8.958116 25.756033 -1.524597 20
-6.288289 28.964569 -3.204158 6
-6.178349 28.969801 -2.742671 4
-3.589723 32.074055 -1.183445 10
-3.592265 32.096767 -2.678011 7
-3.590809 32.083755 -3.176859 8
-0.496043 5.529698 -0.032946 3
-1.920933 32.087261 -0.684561 1
-7.604437 26.653225 -2.781164 2
-4.715509 31.707407 -0.497982 5
-4.391500 31.979813 -3.489622 2
-4.389084 31.962223 -4.736450 5
-3.960824 16.784235 -4.958680 0
-4.265868 31.932945 -0.995563 13
-4.267415 31.944523 -2.485491 6
-4.269768 31.962139 -2.985702 5
-3.899276 16.798641 -4.958680 0
-3.833406 16.794081 -4.953154 0
-3.712680 16.832989 -4.956470 0
-6.276422 28.961094 -3.030954 7
-3.650955 16.846487 -4.956470 0
-3.589437 16.875422 -4.960891 0
-3.566977 32.109070 -1.992935 2
-3.525199 16.877176 -4.957575 0
-1.438344 36.253632 -2.378058 4
-3.398447 16.903154 -4.957575 0
-0.874976 24.302338 -4.439516 4
-3.333492 16.900414 -4.953154 0
-0.786948 24.206921 -4.421557 4
-3.275212 16.915718 -4.954259 0
-0.696411 24.146709 -4.410063 4
-0.606016 24.074360 -4.396414 8
-4.734805 31.673872 -0.374518 2
-6.222182 28.964762 -2.513764 2
-6.221721 28.962614 -3.453738 2
-0.513903 24.092243 -4.399288 101
-0.428614 24.027008 -4.387075 101
-0.335412 23.961588 -4.374863 101
-1.518874 36.118576 -0.631009 4
-4.410709 31.900740 -0.871421 8
-4.296254 31.935308 -1.367446 9
-0.158980 23.845358 -4.353312 10
-0.071362 23.771017 -4.339663 12
-0.764617 24.631884 -4.010840 1
0.015733 23.716030 -4.329606 9
-0.667627 24.389832 -3.971001 5
0.102611 23.704006 -4.327451 9
-0.572666 24.336958 -3.962006 5
0.193440 23.679829 -4.323141 10
0.070054 5.919538 -0.023764 1
-0.481430 24.236265 -3.945299 5
0.280131 23.671091 -4.321704 20
-3.592197 32.065498 -1.866101 11
-0.588741 36.345753 -2.312460 2
-3.591692 32.060989 -2.363479 8
-3.592754 32.070469 -4.048178 5
-0.391974 24.198389 -3.938874 5
0.367237 23.693512 -4.326014 12
-2.578441 33.810684 -0.461649 1
-3.467115 32.008991 -0.871204 11
-0.302630 24.148344 -3.930520 5
0.455590 23.770693 -4.340382 4
-0.213624 24.094019 -3.921525 4
0.544424 23.843609 -4.354031 4
-0.125175 24.067005 -3.917027 4
0.634621 23.947659 -4.373426 4
-0.549111 5.648986 -0.066372 0
-0.036994 24.083096 -3.919597 2
0.725587 24.051367 -4.392822 4
0.051268 24.071224 -3.917669 1
0.817080 24.146864 -4.410781 3
0.139396 24.055086 -3.915099 1
0.912651 24.332451 -4.445263 2
0.227706 24.070202 -3.917669 1
1.008784 24.498007 -4.476153 3
0.315673 24.049467 -3.914457 1
1.105096 24.639589 -4.502733 1
0.404684 24.099466 -3.922810 1
1.200744 24.745424 -4.522847 4
-0.286078 25.255642 -3.708050 1
0.493248 24.109663 -3.924737 1
1.299222 24.890182 -4.550145 2
-1.431758 36.262924 -3.289983 5
-0.193254 25.220901 -3.702820 0
0.582165 24.131374 -3.928593 2
1.399423 25.046337 -4.579598 3
2.414707 40.548546 -0.787043 24
0.671271 24.152758 -3.932448 2
1.501979 25.221727 -4.612643 3
0.761671 24.209328 -3.942086 5
1.605107 25.384916 -4.643533 3
0.858935 24.328537 -3.962006 4
1.713886 25.547392 -4.674423 2
0.951475 24.412016 -3.976142 4
1.821672 25.741119 -4.711059 2
1.046994 24.550367 -3.999274 3
1.931484 25.942249 -4.749133 2
-0.628973 36.361679 -2.173345 2
-0.629011 36.363895 -2.734624 4
1.143003 24.676512 -4.020478 3
2.038823 26.091917 -4.777868 3
