ply
format ascii 1.0
element vertex 340
property float x
property float y
property float z
property uchar intensity
end_header
0.863607 47.074688 -4.359434 9
-3.849078 39.440208 -4.620117 3
-3.699377 39.399525 -2.746380 11
-3.545266 39.305511 -2.738903 5
0.754391 47.029064 -4.263977 12
6.840704 55.648830 -3.674871 6
5.357047 33.731609 -2.304456 1
5.403628 33.238026 -1.753014 3
4.314178 33.090710 -2.702534 3
3.469182 49.599178 -3.834503 4
5.613112 32.962746 -2.772545 2
0.818658 46.994911 -3.443367 11
0.819514 47.044056 -4.174376 22
0.818647 46.994289 -4.898583 22
6.347836 33.518009 -1.775888 3
0.715996 47.041714 -4.082999 6
0.715805 47.029167 -4.810780 5
6.583266 55.613422 -6.054067 9
4.060075 33.253769 -3.101870 1
5.346414 33.786457 -2.176090 3
15.800852 69.357178 -4.799559 8
3.256269 49.707649 -5.191735 12
3.623852 52.375195 -0.613952 5
5.907822 33.328011 -2.153234 4
0.793183 47.041054 -4.720870 10
6.507407 56.078983 -3.373838 9
1.538952 48.538525 -1.127488 5
1.541895 48.631344 -1.877671 2
15.651853 69.351151 -4.659842 7
3.144670 49.678692 -5.979744 10
15.525638 69.560349 -4.534006 10
3.220838 49.725571 -5.000025 5
5.532744 33.569656 -1.509255 3
5.755497 55.392200 -1.399948 6
6.043816 33.559872 -2.563973 18
6.168840 33.548698 -2.038525 4
3.952468 33.235188 -3.423305 3
5.836621 33.587685 -1.971647 6
18.945345 54.544575 -5.681916 8
6.209211 33.541107 -1.972802 7
20.873255 58.028534 -3.210324 10
20.955416 58.256943 -4.177264 2
28.559145 85.861961 -1.753238 9
21.336048 57.977184 -2.265314 8
21.358595 58.038452 -5.127953 5
29.112722 86.416885 -3.168454 5
30.523079 89.517540 -1.832509 5
21.961657 57.680992 -3.213027 9
19.052704 54.564686 -2.897451 8
19.258465 54.511177 -2.008776 7
5.098603 33.064739 -2.321836 4
34.979614 88.919228 -7.922974 5
5.311111 33.624184 -3.415752 2
5.559011 33.593815 -1.314046 2
5.926087 33.485462 -2.885435 7
35.529465 83.040512 -7.489309 10
18.406771 72.275864 -0.872190 10
6.318436 33.548481 -1.842888 2
50.029125 114.599350 -8.436926 10
50.503563 114.539375 -8.446081 55
29.891186 89.020256 -1.458779 7
30.468372 73.892525 -4.007003 5
21.949274 57.745434 -2.978134 5
18.767599 54.532883 -6.234631 14
27.402891 86.442436 -2.628015 7
19.224131 54.556446 -1.787516 13
31.133680 73.175850 -6.440231 3
28.049524 87.369278 -2.659301 8
29.936432 89.788132 -1.288566 14
28.950333 86.830528 -2.652580 13
40.339199 85.076759 -7.625213 16
18.659363 71.246834 -0.578455 3
29.593040 89.491562 -1.102271 28
40.859032 85.363480 -7.664282 18
40.939156 91.170341 -7.900568 5
11.863985 26.163721 -0.060168 0
30.623465 73.673233 -4.921752 3
27.533678 87.102982 -2.296389 11
40.299397 87.127998 -4.627837 24
27.988071 87.424202 -2.307546 13
27.956867 86.236938 -2.278898 9
21.350218 58.034443 -5.486182 26
26.794426 84.333923 -2.054434 15
19.232595 54.516701 -3.232065 22
27.055578 84.086700 -2.050813 13
28.046633 87.166832 -3.533687 5
27.528725 84.493813 -0.697960 11
14.855196 24.352007 -1.484967 0
31.128557 73.591278 -3.390886 26
15.359767 24.162083 -1.931779 2
22.499868 62.715496 -6.685736 5
21.060102 58.032272 -4.284486 17
21.310654 58.058201 -5.247690 12
30.451391 73.946541 -4.471079 4
23.082567 61.488365 -6.590288 14
15.134151 24.435541 -1.385635 0
15.473333 23.299824 -5.106162 1
15.351452 24.178825 -0.940098 1
15.341903 24.163784 -1.379857 2
49.441299 114.658157 -8.665623 101
15.314434 24.120520 -3.144230 6
15.443940 23.934935 -2.692627 200
34.632145 77.946121 -7.237260 23
12.667819 25.764835 -0.280622 0
39.968594 87.315079 -5.183892 2
39.978909 87.337616 -6.666140 11
40.275074 87.139282 -3.704595 22
40.282001 87.154282 -6.663371 11
15.490543 23.367310 -4.115923 2
13.347916 25.374517 -0.225187 0
14.968198 24.341879 -2.535238 101
15.334893 24.137844 -2.980448 9
15.376805 24.203815 -3.597108 2
14.790920 24.575399 -2.045969 0
14.958150 23.960367 -2.834279 3
-32.170166 -23.558800 -2.075752 4
-32.150127 -23.835035 -2.006405 2
-29.158131 -20.743055 -2.276399 10
-31.183887 -22.989893 -2.389946 3
-31.449961 -22.884966 -2.249483 5
-29.101149 -20.851271 -2.070495 5
-29.159473 -20.731750 -3.728877 18
-30.608118 -24.081020 -0.904200 4
-31.328671 -22.910658 -1.572428 4
-31.121334 -23.395439 -2.702070 5
-29.141947 -20.920572 -2.489660 2
-29.940275 -18.845642 -4.249845 4
-4.855903 -0.497695 -0.470880 1
-5.304217 -0.465178 -0.348991 3
-4.799460 -0.420911 -0.539560 1
-4.982013 -0.242443 -0.490827 2
-5.035047 -0.416432 -0.399394 1
-5.011135 -0.236494 -0.483938 1
-5.005872 -0.376216 -0.010514 3
-5.438541 -0.462325 -0.252627 1
-5.026488 -0.266768 -0.475812 1
-5.121118 -0.416443 -0.475736 1
-5.067739 -0.374732 -0.157032 0
-4.894103 -0.205810 -0.539061 4
-5.496476 -0.325491 -0.254846 3
-5.552017 -0.465336 -0.075852 5
-5.513953 -0.285981 -0.170622 4
-4.779018 -0.365291 -0.643775 2
-4.939786 -0.183638 -0.534385 2
-27.371824 2.088854 -2.701309 35
-27.525408 2.202070 -3.146144 4
-5.032087 -0.285918 -0.447166 1
-4.898518 -0.260320 -0.511254 2
-4.987306 -0.405476 -0.048908 38
-4.922967 -0.152303 -0.513327 5
-4.813837 -0.454533 -0.563734 7
-5.019668 -0.436869 -0.116982 1
-5.708639 -0.496831 -0.397681 4
-27.557453 2.285981 -1.759105 1
-4.879821 -0.262915 -0.569756 4
-27.498362 2.111556 -2.981462 6
-4.884770 -0.173481 -0.038390 1
-4.816260 -0.153377 -0.111876 3
-4.769679 -0.099409 -0.110762 1
-27.526524 2.119034 -2.823789 9
-27.560436 2.157426 -3.223057 2
-23.137186 8.869485 -2.054619 3
-22.922857 8.787324 -2.415745 4
-23.263653 10.320696 -0.541994 4
-23.187529 10.286924 -0.930164 2
-23.143423 8.852439 -1.958829 2
-23.149864 10.103344 -4.611206 4
-22.672859 10.864966 -2.084697 1
-23.186966 10.322548 -2.055475 2
-23.184490 10.321445 -2.448113 2
-23.334600 10.702136 -1.286999 14
-23.342909 10.705946 -1.683215 25
-23.377897 9.072856 -2.321885 1
-23.434164 9.027934 -2.276625 7
-23.233679 10.315648 -1.176582 2
-23.221722 10.310338 -1.567355 1
-27.407448 10.366271 -3.675772 2
-23.146749 8.851845 -1.815498 5
-23.129519 10.515862 -3.412699 3
-23.326128 10.708611 -1.138589 43
-23.367714 8.980329 -2.172573 19
-23.280867 10.244791 -2.601565 1
-23.236454 10.327090 -0.639209 2
-23.199175 10.310522 -1.028530 3
-23.240398 10.328843 -1.421886 3
-23.210409 10.315515 -1.811745 2
-23.371002 10.804862 -1.439525 8
-29.496893 16.121668 -3.568684 15
-30.435213 22.912943 -3.748772 2
-23.121458 10.525360 -2.549134 1
-28.824982 16.587822 -3.530679 3
-28.300186 20.559790 -1.753652 15
-28.439749 20.661180 -2.304022 14
-28.250433 20.682253 -1.755254 5
-28.364103 20.765472 -2.846863 3
-30.409388 22.963448 -4.267514 5
-54.415394 44.181202 -2.570190 3
-54.293308 44.413261 -2.572095 5
-31.050989 23.807331 -4.381926 4
-53.985168 44.492481 -2.565206 3
-53.870949 44.730900 -2.567551 2
-53.630005 44.863911 -2.563887 1
-29.300905 16.249779 -3.426968 8
-55.164757 46.492523 -1.536388 2
-53.523293 45.109104 -2.566672 1
-54.451328 46.233711 -1.521229 3
-53.522106 45.444725 -2.574587 2
-54.397003 46.531750 -1.524465 2
-53.294445 45.588612 -2.571655 4
-54.391495 44.294254 -2.437283 1
-54.228779 44.493328 -2.437283 3
-53.771008 44.464310 -2.424366 3
-53.623051 44.673882 -2.425060 17
-53.437511 44.852142 -2.424088 101
-53.291058 45.063194 -2.424921 101
-30.419680 22.923714 -4.117728 10
-54.610306 44.273075 -2.307595 3
-25.055529 17.798796 -2.786193 8
-30.385426 23.072985 -3.532613 9
-55.819172 45.593204 -1.258039 2
-54.416695 44.447659 -2.306283 4
-25.001432 17.898615 -4.129956 21
-53.930798 44.397118 -2.292898 4
-53.733868 44.566395 -2.291455 101
-53.542561 44.739956 -2.290274 101
-28.263035 20.714972 -1.554458 6
-55.173409 46.447140 -1.258877 3
-53.381294 44.938465 -2.290405 22
-54.557449 46.271404 -1.248685 2
-53.460743 45.679188 -2.308120 6
-54.129814 44.337891 -2.162243 2
-53.994682 44.558903 -2.163354 15
-53.829346 44.771000 -2.163602 16
-54.904140 46.006386 -1.112770 1
-53.664906 44.967983 -2.163602 13
-54.680099 46.160908 -1.111652 1
-53.514969 45.177303 -2.164219 10
-54.538006 46.384296 -1.112211 1
-53.339924 45.365334 -2.163849 17
-25.103943 17.802240 -3.147764 4
-54.259716 44.235825 -2.028832 1
-54.155941 44.482609 -2.031034 101
-56.356213 46.653427 -0.996047 1
-56.396271 43.742306 -3.028800 16
-56.209423 46.880150 -0.996482 2
-53.765305 44.841690 -2.028948 8
-55.979023 47.036980 -0.995448 2
-53.637318 45.069332 -2.030338 10
-55.839840 47.270252 -0.996047 1
-53.514503 45.301777 -2.031960 101
-55.632744 47.446030 -0.995448 1
-30.419010 22.949024 -3.306932 6
-30.419352 22.949282 -3.897464 5
-55.195293 45.125381 -1.929156 5
-54.342846 44.428459 -2.978770 12
-54.075859 44.541832 -1.895723 10
-25.703966 18.576500 -2.690975 3
-53.878365 44.711678 -1.894533 30
-53.735626 44.926765 -1.895291 24
-53.579773 45.131157 -1.895615 24
-53.426193 45.337574 -1.896048 49
-53.294205 45.901829 -2.984875 12
-56.102200 45.645058 -1.818113 2
-54.381195 44.244839 -2.840279 6
-54.682049 44.823723 -1.777402 1
-53.900898 45.183346 -1.768053 1
-53.631023 45.292915 -1.764636 1
-53.496315 45.532188 -1.765942 1
-53.256695 45.665874 -2.842222 7
-55.230614 45.086712 -1.655301 3
-54.238350 44.276691 -2.701977 5
-55.000103 45.235535 -1.653351 10
-54.304115 44.663113 -2.713392 4
-54.812393 45.418945 -1.652701 101
-9.052951 11.000875 -1.595532 6
-54.645565 45.619526 -1.652701 11
-54.490219 45.829811 -1.653073 9
-53.867874 45.306377 -2.716323 5
-54.312710 46.021473 -1.652794 9
-54.207577 46.274727 -1.654744 5
-53.589054 45.746723 -2.719099 4
-53.136143 45.697849 -2.704600 4
-8.557086 11.130885 -2.563138 1
-8.516047 12.242954 -2.722616 1
-8.119977 11.951781 -2.637848 1
-9.066633 11.021816 -1.515139 4
-8.587824 11.405122 -1.543396 11
-8.581959 11.397333 -2.094566 10
-8.542455 11.431828 -1.321365 2
-8.775588 11.060942 -0.138004 0
-10.422389 39.264061 -3.997515 2
-10.448232 39.361420 -4.639974 2
-6.783004 37.600548 -3.759740 2
-11.946318 35.761917 -4.729762 16
-6.021279 38.163326 -3.203566 10
-6.020966 38.161343 -3.801655 4
-6.022925 38.173759 -4.403153 6
-12.951333 36.255375 -4.624831 24
-5.722462 38.080887 -2.598235 2
-12.709885 36.853630 -4.683036 14
-11.927851 35.860619 -4.539911 29
-10.797369 37.774345 -4.094592 9
-12.890170 36.251881 -4.485784 9
-6.798519 37.491558 -2.423944 9
-11.423858 38.034233 -4.061893 7
-3.888452 39.615120 -2.685750 1
-3.879680 39.525757 -3.293141 2
-6.048617 38.155018 -3.053932 5
-11.042096 37.790424 -4.026891 3
-6.054111 38.189674 -4.255168 2
-5.749456 38.070473 -2.449339 3
-6.627249 37.627384 -2.946542 4
-6.628290 37.633297 -3.538145 8
-10.540688 39.261585 -4.157947 18
-11.183685 37.989147 -3.973662 2
-9.986753 38.929768 -4.110734 4
-6.713624 37.572384 -3.460080 20
-6.092067 38.157749 -5.190135 5
-6.811790 37.624683 -4.796476 5
-6.209691 38.331387 -2.245788 6
-6.209184 38.328262 -2.844533 6
-3.836576 39.418983 -4.281526 6
-6.049194 38.227669 -2.238398 7
-8.925510 39.884674 -4.765103 16
-7.504289 40.106632 -4.901539 7
-6.748147 37.587509 -3.314194 7
-8.447639 39.797737 -4.743332 6
0.766544 47.018627 -4.627403 10
0.767174 47.057262 -5.362211 2
-6.487739 37.724949 -2.730425 2
0.679268 47.001236 -5.264277 7
1.592391 48.564579 -1.688333 0
3.199804 49.696568 -4.900432 3
-6.063413 38.179398 -3.879013 2
3.200974 49.714752 -5.676010 6
-3.415976 39.266068 -2.887495 7
2.930643 49.946747 -3.279313 3
3.097755 49.680340 -5.574568 7
2.059579 28.059515 -5.136333 8
2.235000 28.993372 -5.308742 1
