ply
format ascii 1.0
element vertex 470
property float x
property float y
property float z
property uchar intensity
end_header
0.813759 47.043709 -4.356484 4
4.883531 53.065765 -1.032525 4
1.561838 48.590954 -4.501417 3
3.183928 49.748001 -4.712192 5
3.180708 49.697685 -5.480306 3
3.358345 49.619320 -3.931528 5
0.705202 47.033817 -4.264338 11
4.308449 52.270622 -0.109847 5
0.876098 46.951271 -3.530899 7
5.326073 33.764797 -2.306341 1
5.553680 33.605293 -1.248964 2
5.554457 33.609997 -1.773393 8
5.731132 33.165909 -3.312003 2
6.009150 34.030956 -2.331653 1
0.761954 47.039753 -3.446581 40
5.916954 33.508831 -2.821465 4
6.188416 33.572800 -2.303379 1
5.253463 33.748272 -2.238619 2
5.157408 33.131214 -2.715449 2
4.099080 33.230877 -3.165051 1
5.303910 33.269566 -1.688962 1
6.425953 33.482784 -1.774849 2
3.126587 49.709518 -4.515330 10
0.666847 47.050404 -4.083691 10
6.736825 55.661976 -5.191418 4
5.355091 33.276726 -1.624857 1
5.351128 33.252102 -2.142568 2
3.195792 49.715553 -5.192150 19
5.537613 33.588242 -1.117383 2
17.564320 72.580032 -1.590298 6
0.735796 47.047531 -5.485867 5
6.627496 55.920174 -3.365248 9
18.473330 72.824142 -0.445840 3
3.097038 49.892963 -3.565717 7
3.086613 49.725029 -4.323704 11
3.084601 49.692608 -5.092426 10
5.412042 33.337528 -4.958398 15
17.655653 72.437386 -1.444605 4
17.978687 71.481102 -0.295882 6
5.082189 33.371948 -2.538180 4
18.259056 71.487160 -1.429572 4
3.160335 49.733444 -5.000424 4
8.412438 27.909103 -0.620772 1
5.878696 33.583038 -0.988055 1
5.992278 33.508331 -2.559474 3
6.256651 33.564934 -2.040434 6
29.093544 89.307297 -2.000285 13
15.762949 69.319275 -5.482474 9
30.031063 89.941147 -0.562694 13
5.689017 33.678383 -0.924221 4
32.600025 95.303711 -2.145067 7
29.234938 89.243927 -1.819568 14
5.313542 33.389950 -2.411676 5
4.324746 33.090672 -2.831662 4
18.978640 54.535999 -5.570282 6
17.362104 54.792007 -6.325214 2
19.775969 54.251518 -0.231799 6
28.328758 86.101616 -1.582165 12
15.685968 69.333244 -5.207719 20
15.672624 69.274261 -6.301332 22
29.275414 87.892456 -0.194025 10
5.519938 33.575954 -1.313121 1
18.335983 72.314476 -0.872424 12
15.529827 69.351341 -6.167729 9
15.788905 69.315903 -5.070951 14
16.280476 69.129883 -3.970696 17
18.955225 54.643784 -2.676992 1
18.949984 54.628674 -3.566940 2
31.030247 73.180794 -6.437325 12
21.409967 46.369419 -5.819098 1
21.515965 46.153759 -5.801892 2
11.493553 26.562578 -0.560779 21
22.476423 47.756176 -5.193831 1
21.661289 46.024242 -5.795552 3
22.600054 47.565605 -5.182080 1
21.805952 45.894283 -5.789213 101
21.360163 58.083370 -1.912425 2
21.341499 58.032623 -4.768600 9
22.773920 47.460533 -5.180121 1
21.982016 45.810215 -5.789213 200
10.754366 26.323872 -0.059556 1
11.773731 26.397102 -0.116028 1
8.329861 27.663097 -0.337847 5
22.952921 47.387489 -5.181296 1
23.161421 47.374577 -5.189131 2
22.294533 45.601437 -5.783326 12
23.373653 47.367901 -5.197749 1
18.779072 54.541481 -6.123898 15
22.459763 45.515854 -5.782874 48
11.984344 26.094213 -0.997721 0
21.270895 46.314362 -5.707678 101
22.695534 45.571968 -5.800533 3
21.415419 46.181999 -5.701000 200
26.863552 52.964695 -6.766383 2
28.143621 86.524658 -2.462028 34
21.028919 58.285557 -2.748708 10
21.702414 45.915962 -5.687645 101
28.795753 87.438759 -2.491025 21
21.867134 45.828930 -5.686754 101
28.975664 86.911568 -2.479015 17
11.680534 26.356138 -0.946265 0
22.028057 45.734150 -5.684974 28
11.780321 26.320446 -0.946527 0
22.188581 45.638802 -5.683193 14
30.675659 74.017387 -3.708396 4
22.354898 45.535427 -5.680967 165
21.361635 46.332714 -5.614634 5
27.678417 86.822083 -2.290759 11
21.501106 46.189224 -5.606758 101
28.137730 87.157677 -2.302319 8
21.109661 58.257603 -2.629573 2
22.127481 45.768814 -5.594507 2
22.284624 45.665974 -5.591881 1
18.729715 54.574444 -5.901549 4
22.462389 45.605381 -5.594507 90
18.996485 54.667187 -1.454832 5
18.988222 54.643406 -2.343664 2
21.332994 46.550217 -5.535589 0
22.646185 45.536606 -5.596694 89
26.977654 85.219749 -2.075324 15
31.111256 73.261520 -3.530812 10
21.418295 46.287647 -5.513663 0
10.400270 26.541088 -0.333357 35
21.555822 46.140373 -5.505495 1
27.434053 84.503571 -0.697803 11
20.855394 57.953468 -3.443517 13
21.694256 45.996323 -5.497756 2
15.853147 31.017132 -5.669279 2
21.869532 45.930862 -5.499476 11
15.809280 30.653543 -5.613377 2
21.331018 57.938557 -1.552035 7
21.360310 58.018124 -2.504776 19
22.011885 45.796627 -5.493027 4
22.177858 45.712070 -5.492597 4
22.464186 45.873341 -5.521832 1
22.094345 58.035580 -3.471875 12
22.623356 45.772869 -5.519682 0
23.083870 46.276825 -5.590618 0
14.839100 23.790001 -3.194595 3
21.670216 46.686623 -5.464297 2
21.822624 46.567265 -5.459652 1
15.678602 30.862814 -5.082155 7
21.988050 46.476181 -5.458385 1
15.764534 30.752316 -5.073439 9
16.410620 27.553120 -5.854702 1
22.142336 46.341164 -5.452473 1
15.853396 30.635321 -5.064143 14
22.299940 46.234615 -5.449517 1
15.947256 30.541927 -5.058333 11
16.841915 29.899342 -5.585104 7
22.465765 46.145420 -5.448672 1
22.675091 46.144878 -5.458385 0
31.451632 75.032997 -7.060690 29
22.884720 46.143421 -5.468097 1
23.440020 46.831097 -5.559732 1
24.223049 47.955566 -5.703729 4
24.376289 47.801960 -5.696550 3
22.228544 46.796341 -5.399471 1
15.926070 30.950237 -4.675221 3
22.303583 46.513664 -5.376251 1
16.013826 30.842402 -4.667767 1
22.461781 46.406536 -5.373348 0
16.119402 30.769449 -4.665636 1
22.649183 46.359646 -5.377495 0
17.095360 32.343460 -4.913775 1
22.827747 46.294167 -5.379568 0
23.048674 46.313473 -5.391593 0
22.924347 46.063652 -6.454382 5
31.108730 73.124298 -6.742826 19
23.552174 46.893513 -5.469131 0
21.379541 46.159500 -6.110942 7
21.951582 46.942631 -5.300405 1
21.509892 45.998089 -6.099968 6
22.157467 46.933830 -5.308545 1
21.668165 45.897392 -6.097106 7
22.327625 46.848705 -5.308138 1
21.815737 45.774643 -6.091381 7
34.475563 77.849884 -7.224409 23
22.488831 46.745045 -5.305696 1
21.976475 45.680065 -6.089473 8
16.230471 31.167824 -4.408138 2
22.670443 46.683781 -5.308138 1
22.129877 45.570629 -6.085656 8
16.326141 31.072990 -4.403160 2
23.317766 47.572262 -5.418843 1
22.310736 45.517742 -6.089473 8
16.419472 30.974369 -4.397683 2
19.397182 29.426308 -5.736105 27
23.078403 46.630016 -5.321569 1
14.764046 23.820324 -3.029613 4
22.502960 45.467331 -6.094244 5
16.530794 30.897099 -4.395691 2
23.611897 47.271324 -5.404597 1
21.294842 46.221786 -5.933334 2
22.848698 45.743389 -6.142429 3
16.660892 30.867733 -4.400172 2
21.442327 46.096588 -5.927312 3
23.754509 47.123985 -6.339464 3
16.779612 30.816919 -4.401666 2
14.572395 24.641562 -0.829655 0
15.355657 24.177055 -1.325643 1
22.244328 47.365993 -5.250825 0
21.589174 45.970940 -5.921290 4
16.915375 30.796959 -4.407640 2
15.342739 24.156717 -4.201333 2
22.359814 47.161869 -5.237246 0
21.742203 45.859192 -5.917121 4
17.068529 30.807659 -4.418096 2
22.522215 47.058060 -5.234850 0
21.904999 45.768444 -5.915731 4
17.227800 30.828041 -4.430045 2
20.872108 32.336330 -5.650389 3
12.461814 25.794582 -0.224999 0
22.694538 46.975197 -5.234850 0
22.084696 45.712891 -5.918974 5
17.568684 31.169216 -4.488295 2
19.181742 29.479811 -5.163496 11
22.852602 46.863083 -5.231655 0
22.267767 45.663784 -5.923143 9
19.239740 29.333199 -5.150134 24
23.068150 46.868282 -5.241640 0
22.413931 45.539085 -5.917584 3
19.399508 29.341713 -5.164078 27
23.268108 46.840450 -5.248029 0
22.676140 45.648773 -5.942598 1
23.737505 47.349026 -5.314723 0
23.308029 46.492355 -6.063497 5
24.283607 47.998409 -6.271482 2
19.127159 29.308561 -4.700780 9
19.238810 29.244888 -4.701846 12
19.363398 29.200609 -4.706105 10
15.142207 24.300493 -1.655934 4
14.888707 24.408854 -2.039423 0
14.874790 24.386038 -2.478988 1
23.052731 37.793121 -4.527913 59
19.325424 29.534590 -4.427555 2
21.029505 32.829872 -4.683513 10
21.173166 32.776379 -3.991075 61
23.058872 35.423561 -4.323190 14
15.134892 24.528450 -1.555901 0
20.975929 32.892662 -4.548318 10
-27.487848 -25.836287 -4.298100 1
-27.105803 -25.290712 -4.223839 0
-27.765230 -26.405375 -4.291109 3
-27.871395 -24.698442 -3.664552 1
-27.373323 -25.842255 -4.215873 2
-27.943796 -24.580343 -3.662201 1
-26.951569 -25.257906 -4.136631 0
-28.063681 -24.503950 -3.666119 1
-28.180382 -24.424393 -3.669644 1
-26.524458 -22.819452 -3.986565 1
-26.665329 -22.771124 -3.995168 1
-26.790127 -22.716455 -4.001960 0
-26.915770 -22.653948 -4.008300 1
-27.151123 -22.682543 -4.030941 6
-27.359512 -22.686890 -4.049506 3
-27.929873 -24.504189 -3.584216 0
-27.545101 -23.988512 -3.523531 0
-26.403879 -22.994644 -3.921163 1
-26.512033 -22.918516 -3.924724 0
-26.641117 -22.860008 -3.931402 0
-26.758007 -22.790564 -3.936299 0
-26.920290 -22.759068 -3.947873 0
-27.100967 -22.742018 -3.962120 0
-27.312426 -22.749384 -3.980817 4
-27.960630 -24.467342 -3.512123 1
-28.313400 -24.602057 -3.545625 0
-26.582239 -23.097818 -3.875375 0
-26.657694 -22.992434 -3.874062 0
-26.781042 -22.928204 -3.879751 0
-26.883083 -22.845325 -3.882376 0
-27.042614 -22.810738 -3.893315 0
-26.461422 -23.625187 -3.834844 2
-27.177860 -22.754858 -3.900753 0
-26.497240 -23.483204 -3.827536 0
-26.621950 -23.420073 -3.833124 0
-26.665680 -23.285715 -3.827106 0
-26.795914 -23.226908 -3.833554 0
-26.886904 -23.133715 -3.834414 0
-27.013838 -23.071184 -3.840433 0
-27.125523 -22.995157 -3.844302 0
-26.538486 -23.812458 -3.785314 1
-27.316122 -22.985205 -3.859349 0
-31.116217 -22.800323 -1.933904 2
-26.631523 -23.720318 -3.786158 0
-26.700399 -23.606747 -3.783624 0
-26.780769 -23.503473 -3.782780 0
-31.294010 -23.941643 -0.687764 1
-29.101011 -20.835802 -1.794309 2
-29.088156 -20.826597 -2.344833 2
-26.872736 -23.410372 -3.783624 0
-26.966322 -23.326849 -3.785314 0
-27.087847 -23.258955 -3.790381 0
-31.308290 -23.419886 -1.884880 2
-27.236492 -23.213696 -3.799249 0
-27.333530 -23.123989 -3.800938 0
-26.881367 -23.893255 -3.748365 0
-27.610155 -26.153479 -4.568536 3
-26.953848 -23.781404 -3.746293 1
-26.124247 -23.049446 -4.370300 22
-27.049801 -23.690321 -3.747536 2
-26.921455 -25.129272 -4.423980 2
-26.223473 -22.966619 -4.372789 16
-27.142462 -23.596231 -3.748365 1
-26.316465 -22.878153 -4.374283 106
-26.433191 -22.810076 -4.379760 200
-27.364096 -24.985109 -3.790015 3
-26.534697 -22.728537 -4.382747 200
-28.147030 -25.324123 -3.872637 3
-27.708399 -24.746330 -3.799783 2
-27.681978 -26.337244 -4.454748 3
-26.004250 -23.224358 -4.188302 6
-27.769138 -24.618202 -3.795713 3
-27.316175 -25.799114 -4.380634 1
-27.877106 -24.532040 -3.798156 1
-26.149944 -23.012125 -4.184485 18
-26.255054 -22.934406 -4.187825 13
-26.359936 -22.856241 -4.191164 5
-26.527805 -22.832020 -4.204523 4
-26.608299 -22.732052 -4.204045 3
-30.742535 -22.882244 -2.290268 4
-26.697489 -22.639517 -4.204999 3
-26.105801 -23.418451 -4.088808 13
-26.828909 -22.582426 -4.212633 2
-28.635807 -25.499231 -3.847463 1
-26.043091 -23.190504 -4.065647 2
-26.984638 -22.545057 -4.224082 1
-27.843414 -24.611246 -3.728853 1
-26.169598 -23.131731 -4.072132 3
-27.161861 -22.524586 -4.238872 0
-27.951374 -24.524780 -3.731249 1
-26.272118 -23.051386 -4.074912 11
-29.099161 -20.841391 -1.587784 3
-29.115694 -20.853231 -3.246647 2
-28.014071 -24.398636 -3.727654 0
-29.162266 -20.886589 -3.808117 9
-26.299509 -22.905354 -4.066110 11
-26.410332 -22.832197 -4.070279 2
-26.623495 -22.846497 -4.090198 2
-26.749380 -22.784851 -4.096683 2
-26.814520 -22.671244 -4.093903 1
-27.022209 -22.677536 -4.112895 1
-27.160997 -22.616825 -4.120770 0
-30.713676 -23.733084 -0.304857 2
-29.101192 -20.894394 -3.109111 3
-29.196785 -20.801266 -2.557105 6
-30.477179 -22.844666 -2.056134 2
-31.299360 -23.104574 -2.100121 2
-33.306255 -24.015928 -4.120228 2
-29.309235 -20.647808 -3.597462 1
-28.995867 -17.513504 -4.249318 3
-24.719194 -10.999493 -4.403442 3
-21.874723 -9.444283 -2.113877 6
-21.337574 -8.141200 -1.937827 1
-4.882614 -0.411378 -0.029077 3
-5.769819 -0.443556 -0.390449 1
-5.033392 -0.368392 -0.107479 2
-5.489862 -0.401801 -0.286554 1
-4.822812 -0.470501 -0.542677 1
-4.982022 -0.412397 -0.096860 1
-4.881512 -0.278217 -0.547574 1
-4.841129 -0.240330 -0.093915 4
-5.525865 -0.409478 -0.181878 0
-4.912114 -0.485012 -0.000861 0
-5.550709 -0.018987 -0.118210 2
-5.495926 -0.326327 -0.265416 1
-5.141403 -0.412674 -0.477580 1
-5.077135 -0.388793 -0.000889 61
-5.456573 -0.490924 -0.243034 2
-5.500859 -0.319009 -0.255031 1
-27.546463 2.237639 -3.148861 3
-5.557870 -0.411265 -0.408282 0
-5.458703 -0.302513 -0.232006 8
-4.925721 -0.272976 -0.514156 1
-4.787253 -0.417820 -0.577269 9
-5.458121 -0.489428 -0.295828 1
-27.270241 1.989214 -2.161521 57
-4.880093 -0.257805 -0.569756 5
-27.535358 2.103266 -3.464177 11
-27.528631 2.143349 -2.824196 3
-27.514486 2.081387 -3.217035 2
-23.017046 8.841878 -2.426321 3
-23.124233 8.883054 -2.822383 1
-23.258245 10.332875 -0.541994 4
-23.233280 10.321784 -0.932216 2
-22.989840 8.807492 -1.946220 17
-20.395266 8.918114 -0.089357 17
-23.225674 10.298013 -0.833936 1
-29.465288 16.194670 -3.830797 11
-23.189962 10.315624 -1.174732 2
-23.210869 10.324924 -1.567109 2
-23.251730 10.343101 -1.962618 1
-23.243284 10.339343 -2.355444 1
-22.976654 8.805201 -1.802638 37
-23.171320 8.879802 -2.201542 4
-23.085007 8.846724 -2.576587 8
-23.175077 10.615770 -3.742330 8
-23.111406 10.517389 -3.410568 2
-23.401770 9.002792 -2.176032 5
-23.130297 8.844628 -2.484837 1
-23.261911 10.250990 -2.206120 3
-23.264578 10.252165 -2.600344 2
-23.108023 10.492965 -0.248056 3
-23.099659 10.489168 -3.047599 2
-29.477980 16.131380 -3.567417 11
-30.186981 23.275679 -1.397738 2
-29.458174 16.173359 -3.502483 29
-29.254761 16.250921 -3.422899 13
-25.248554 17.910753 -4.544714 3
-25.017033 17.884684 -2.847406 2
-30.413197 22.952129 -4.119018 7
-30.353458 23.082138 -3.530769 2
-25.100845 17.806610 -3.147764 16
-25.223515 18.320587 -2.705514 4
-30.405460 22.947128 -3.305894 5
-30.431227 22.966574 -3.899499 4
-9.051025 11.002460 -1.595532 15
-8.545094 11.115287 -2.559546 1
-8.529529 12.262337 -2.726926 1
-8.119977 11.951781 -2.637848 1
-9.069757 11.029548 -1.515983 5
-8.585432 11.401946 -1.542966 12
-8.586720 11.403656 -2.095728 11
-8.587754 11.492450 -1.328372 3
-8.782497 11.065672 -0.138083 0
-8.591064 12.360465 -2.021847 1
-8.600476 11.168767 -0.571100 1
-9.044082 11.008893 -1.661093 90
-8.289979 11.999983 -4.193766 6
-12.322960 37.039864 -4.371687 3
-11.602463 37.155251 -4.359222 3
-9.285906 40.202572 -4.701104 9
-6.037072 38.176971 -3.204888 9
-6.033024 38.151375 -3.800871 6
-6.037473 38.179508 -4.404058 4
-12.974687 36.280769 -4.628648 11
-5.732801 38.059151 -2.596889 2
-12.730506 36.871723 -4.685898 6
-11.942859 35.863995 -4.540865 28
-5.980207 38.179974 -3.129709 3
-10.797417 37.749508 -4.092104 9
-12.887192 36.223423 -4.482541 14
-6.807182 37.502159 -2.424706 6
-10.020823 36.031384 -4.691426 12
-3.889328 39.552849 -3.295455 2
-6.060075 38.141087 -3.052987 4
-6.066211 38.179707 -4.254293 2
-3.576561 39.330189 -3.274631 2
-6.637644 37.609348 -2.945311 7
-10.558877 39.302025 -4.162423 7
-10.003312 38.937843 -4.111955 4
-6.717393 37.555519 -3.458636 37
-6.099995 38.164513 -5.191200 5
-6.821186 37.639114 -4.798468 4
-6.223709 38.333153 -2.246019 6
-6.225119 38.341839 -2.845702 5
-3.851495 39.429516 -4.282816 6
-8.935956 39.866047 -4.763250 12
-6.756839 37.598095 -3.315232 7
-8.452952 39.788486 -4.742405 4
-6.492310 37.712017 -2.729571 2
1.567867 48.593376 -1.689305 1
3.174037 49.702209 -4.900824 5
-3.748843 39.423660 -4.127348 15
3.175198 49.720387 -5.676462 4
3.072234 49.689884 -5.575459 6
-3.839948 39.460567 -4.762708 7
-3.543447 39.408489 -2.822350 4
5.802032 55.444611 -1.187209 4
2.044030 28.048815 -5.134179 5
