ply
format ascii 1.0
element vertex 730
property float x
property float y
property float z
property uchar intensity
end_header
0.871454 47.054630 -4.357590 8
3.006727 36.587170 -4.111256 0
4.207362 36.904633 -4.231989 0
-0.492836 37.103504 -4.984063 4
0.697938 37.685505 -5.533605 4
3.140805 36.575901 -4.111256 0
4.368616 37.110001 -4.257347 0
-0.356346 37.053528 -4.977140 4
0.841500 37.928005 -5.569628 7
3.267040 36.477039 -4.101461 0
-0.220252 37.007011 -4.970750 4
0.986951 38.173908 -5.606232 10
3.394069 36.393578 -4.093448 0
-3.850235 39.452072 -4.621506 3
-0.084559 36.983784 -4.967556 5
1.133516 38.395515 -5.639349 8
-3.698631 39.391579 -2.745826 10
3.530888 36.416504 -4.097455 0
0.051016 36.999702 -4.969686 6
1.282112 38.628433 -5.674211 4
-3.545625 39.309486 -2.739180 5
3.666329 36.423096 -4.099681 0
0.186806 37.034943 -4.974478 5
3.810941 36.516159 -4.111701 0
0.323304 37.121227 -4.986193 7
1.433651 35.371490 -5.197196 2
3.966110 36.699554 -4.133960 0
0.459996 37.171329 -4.993115 6
1.550527 35.077377 -5.154782 1
0.754327 47.025085 -4.263616 11
4.124881 36.902054 -4.158445 0
0.599157 37.351727 -5.017609 7
1.670375 34.889618 -5.128055 1
4.294767 37.186802 -4.192279 0
0.741366 37.618809 -5.053818 6
1.790499 34.733070 -5.105976 101
3.224977 36.995514 -4.086711 0
3.959088 33.211765 -3.745761 1
0.885077 37.865528 -5.087365 9
1.916917 34.710472 -5.103652 101
6.839730 55.640907 -3.674348 6
3.356593 36.939888 -4.081898 0
4.080303 33.193085 -3.745316 1
1.030178 38.095844 -5.118782 8
2.039936 34.632099 -5.093194 101
5.358299 33.739491 -2.304994 1
3.485598 36.860046 -4.074460 0
1.176735 38.317673 -5.149133 9
5.410713 33.244965 -1.753430 3
4.318920 33.082043 -2.701888 2
3.303617 49.725220 -4.614266 4
3.629442 36.870129 -4.077085 0
1.332344 38.558517 -5.182147 11
2.293753 34.524990 -5.079830 12
3.479792 49.626423 -3.836656 4
3.764957 36.860535 -4.077523 0
1.483653 38.814838 -5.217291 8
2.419724 34.508453 -5.078668 19
5.611104 32.950958 -2.771554 1
3.907566 36.917664 -4.085399 0
1.636361 39.058678 -5.250838 9
2.546479 34.503304 -5.079249 15
4.045014 36.922848 -4.087586 0
0.526565 38.284309 -4.802948 2
1.785643 39.187065 -5.268942 3
2.673228 34.497681 -5.079830 7
0.827515 47.031960 -4.173316 20
4.212303 37.132236 -4.112527 1
0.667068 37.912956 -4.756647 15
1.741998 35.252033 -4.740717 2
2.808237 34.518719 -5.084478 3
4.375205 37.345589 -4.137905 1
0.806612 37.938030 -4.760132 14
1.862154 35.075180 -4.717820 1
2.941107 34.583115 -5.095518 2
0.944964 37.907047 -4.756647 18
1.983957 34.949379 -4.701846 1
3.085681 34.773151 -5.125150 2
6.346349 33.510159 -1.775473 3
2.109887 34.906254 -4.697053 1
3.238609 35.037464 -5.165821 5
1.249431 38.724197 -4.860203 5
2.233499 34.831036 -4.688001 1
3.387455 35.238087 -5.197196 3
1.400334 38.969242 -4.891570 12
2.357391 34.767239 -4.680546 1
3.543713 35.497158 -5.237286 2
1.550536 39.150238 -4.914969 12
2.482259 34.722775 -4.675754 1
3.703137 35.767361 -5.279119 2
5.822819 33.858482 -2.782286 1
0.463351 40.100998 -4.817573 0
1.706716 39.437717 -4.951811 12
2.612183 34.749023 -4.680546 1
3.862058 36.013260 -5.317466 1
0.715875 47.033745 -4.082307 6
0.613650 40.317436 -4.843812 1
1.863909 39.700783 -4.985667 13
2.736098 34.695740 -4.674689 1
4.025012 36.278137 -5.358718 1
0.733893 38.857655 -4.668723 2
2.023051 39.963226 -5.019522 11
2.864877 34.705238 -4.677351 1
4.193116 36.569820 -5.404038 1
0.862339 38.235313 -4.594298 4
2.996146 34.741901 -4.683741 1
4.359689 36.829315 -5.444709 1
4.060558 33.257721 -3.102238 1
-0.206903 38.995316 -4.546465 2
1.019650 38.886963 -4.673017 1
2.098634 36.199039 -4.548537 2
3.132694 34.833347 -4.697586 1
5.349534 33.806171 -2.177359 2
-0.063762 38.864700 -4.531179 1
1.157069 38.712269 -4.652503 1
2.230808 36.183186 -4.547542 2
3.276235 34.991360 -4.720483 1
4.687344 37.255787 -5.512688 5
0.085171 38.729568 -4.515429 0
3.434420 35.223152 -4.753496 1
4.855307 37.429825 -5.541158 3
0.226912 38.693245 -4.511261 0
1.468792 39.270016 -4.720725 0
3.588246 35.454872 -4.786510 1
5.674015 33.433220 -3.731859 2
0.366343 38.441856 -4.482078 0
1.621841 39.486576 -4.747441 3
2.712715 37.224773 -4.681966 1
3.744230 35.689873 -4.820057 1
0.508442 38.531631 -4.492732 1
1.776498 39.702549 -4.774158 8
2.844285 37.151268 -4.674000 1
3.901556 35.920265 -4.853071 1
5.903641 33.304424 -2.151711 5
0.649063 38.493752 -4.488563 3
1.950621 40.286823 -4.845243 11
2.978845 37.120808 -4.671511 1
4.061949 36.161800 -4.887683 1
6.506947 56.075016 -3.373600 9
0.788840 38.427563 -4.481152 3
3.108904 37.038452 -4.662549 1
4.226905 36.426266 -4.925489 1
0.938998 38.531490 -4.493658 2
3.242766 36.931355 -4.650600 1
1.087009 38.770054 -4.521914 2
3.254423 35.567505 -4.480329 1
1.540220 48.578487 -1.128416 5
1.543669 48.687275 -1.879831 2
1.237285 39.023930 -4.552024 1
3.145673 49.694550 -5.981653 8
3.384386 35.551388 -4.479831 2
4.798320 37.670612 -5.100677 4
1.392246 39.356632 -4.591397 0
3.520916 35.601940 -4.487797 2
4.915229 37.491611 -5.078845 3
1.544701 39.561680 -4.615947 3
3.647329 35.549316 -4.482819 54
5.098167 37.811226 -5.124639 2
2.764650 37.185291 -4.479322 0
3.784312 35.598850 -4.490784 2
2.904630 37.222416 -4.485046 0
4.000263 36.361923 -4.588864 1
3.032950 37.112568 -4.473119 1
4.157727 36.559971 -4.615750 1
3.159153 36.986446 -4.459284 1
4.317621 36.765224 -4.643631 1
3.381758 37.951698 -4.577124 2
3.385785 36.483810 -4.401557 1
4.650447 37.240627 -4.707856 2
3.220066 49.713654 -4.998827 5
3.494687 36.214195 -4.370547 0
4.826902 37.534317 -4.747188 1
5.533394 33.573601 -1.509432 3
2.497936 36.490856 -4.264367 1
3.591759 35.845497 -4.327610 1
2.627090 36.418049 -4.256955 0
3.794121 36.515476 -4.410145 0
2.757847 36.372520 -4.252786 0
3.921557 36.442097 -4.402988 0
4.067400 36.537994 -4.416347 0
6.037959 33.560925 -2.563973 16
4.241684 36.873989 -4.458807 0
6.170284 33.556557 -2.039002 4
3.953878 33.247040 -3.424526 3
16.559952 51.939255 -6.211235 5
4.409503 37.078270 -4.485524 0
3.287425 36.220772 -4.240279 0
3.411192 36.113548 -4.229162 0
4.735949 37.478363 -4.538002 3
3.535381 36.017765 -4.219434 0
4.910681 37.748249 -4.572829 0
3.678643 36.115242 -4.232404 0
28.485537 83.992729 -7.354120 10
5.834570 33.575878 -1.970954 6
28.685781 83.574821 -7.326685 101
18.947956 54.552094 -5.682700 8
6.208484 33.537182 -1.972571 7
29.592300 83.224312 -7.324041 15
20.882719 58.054848 -3.211780 9
20.951366 58.245686 -4.176456 1
29.982136 83.351608 -7.344865 13
5.314453 33.208931 -1.880292 6
28.560408 85.865761 -1.753316 8
21.338808 57.984684 -2.265607 8
21.359970 58.042191 -5.128283 9
28.353556 84.211990 -7.196101 6
30.498421 89.496353 -1.831966 5
28.562992 83.816917 -7.171239 12
21.998472 57.808029 -3.219890 7
19.039232 54.556698 -2.896850 8
19.243624 54.499458 -2.008220 8
29.404541 83.275978 -7.152189 86
5.092223 33.061680 -2.321559 4
29.722977 83.205193 -7.155418 15
30.264568 83.705360 -7.208371 13
5.309870 33.616325 -3.414953 2
5.559664 33.597759 -1.314200 2
28.454523 84.103935 -7.018875 34
28.700584 83.817993 -7.003744 7
5.916078 33.462944 -2.883405 6
29.555128 83.313210 -6.988297 13
6.314795 33.561359 -1.843535 2
29.931679 83.403244 -7.005004 7
29.875647 89.025467 -1.458779 7
46.527805 104.532616 -7.720116 3
30.452431 73.890450 -4.006602 4
46.876263 104.284935 -7.714461 4
18.749851 54.543186 -6.235061 12
18.996338 54.608349 -2.676067 8
19.002895 54.627197 -3.567925 9
31.101898 73.172035 -6.438940 4
28.021475 87.386696 -2.659532 8
54.301197 116.216194 -8.655039 12
29.687986 83.368942 -6.825027 21
28.140297 86.663536 -2.640645 13
54.610996 115.770927 -8.636728 11
30.036598 83.379623 -6.834869 17
29.756987 90.458488 -1.296462 17
55.049984 115.549591 -8.635921 12
28.923811 86.852013 -2.652927 15
55.431602 115.260719 -8.629457 9
28.739241 84.232971 -6.692002 6
28.976171 83.919693 -6.675507 5
54.049149 116.290085 -8.405088 29
29.891577 83.534470 -6.671008 6
28.450109 87.156532 -2.480854 16
30.522018 84.320740 -6.742688 10
40.286785 85.004532 -7.618110 17
29.641426 89.690399 -1.104656 27
55.251701 115.484665 -8.390961 31
30.618261 73.697006 -4.922983 2
27.512457 87.088715 -2.295886 14
31.051601 73.184944 -6.131144 1
27.987440 87.474785 -2.308753 11
27.954136 86.279861 -2.279903 9
10.624128 26.563562 -0.389499 0
21.346962 58.056873 -5.487949 22
29.437017 85.433182 -6.445555 4
26.801693 84.356796 -2.054991 15
19.228609 54.505405 -3.231396 22
27.062927 84.109543 -2.051370 13
28.052755 87.185860 -3.534459 5
55.438759 116.120224 -7.937754 6
14.865598 24.369059 -1.486007 0
28.527382 84.396904 -7.559216 20
28.713959 83.933525 -7.527089 5
29.032112 83.811356 -7.526074 5
31.172558 73.659447 -3.394278 27
29.541790 83.303284 -7.499695 21
15.284830 24.044201 -1.922355 2
20.898468 58.251797 -4.295009 10
29.922283 83.404526 -7.518633 8
21.070993 58.062283 -4.286701 22
30.411327 83.800087 -7.564289 9
21.239662 57.864788 -4.277839 20
45.971550 104.339935 -8.352984 26
21.320269 58.084393 -5.250057 14
46.295280 104.039528 -8.342463 50
11.810286 26.269262 -0.336818 0
30.471909 73.959694 -4.472196 6
46.668251 103.802788 -8.337787 88
23.086308 61.465717 -6.588292 16
47.076424 103.692795 -8.342755 49
47.793640 104.255714 -8.402083 16
46.894413 99.394417 -8.051375 1
46.105042 104.228508 -8.129517 14
46.393993 103.851196 -8.113295 101
46.766117 103.662277 -8.111872 101
15.132102 24.422712 -1.385058 0
15.496996 23.326620 -5.112627 1
15.174609 24.291998 -1.822084 0
15.329053 24.143545 -1.378701 2
15.308042 24.110453 -3.142917 5
45.969227 104.492805 -7.922602 71
15.474168 23.981779 -2.697897 200
46.261509 104.071220 -7.904047 25
46.616489 103.842712 -7.899616 34
12.661722 25.741089 -0.280388 1
47.072571 103.838348 -7.912355 38
39.978569 87.336868 -5.185185 2
39.970604 87.319473 -6.664756 14
40.271721 87.132034 -3.704287 22
40.302094 87.197746 -6.666694 10
13.350485 25.368647 -0.225156 0
14.970285 24.345272 -2.535592 101
15.336973 24.131809 -2.980033 8
15.361872 24.170986 -3.592628 2
14.956043 23.956993 -2.833880 2
-37.474636 -28.647375 -3.911245 3
-36.909756 -27.789274 -3.830925 2
-35.636116 -25.830362 -3.649460 2
-35.849583 -25.785217 -2.979528 0
-35.368092 -25.438898 -3.612440 2
-35.364449 -24.657749 -3.574759 10
-35.474266 -24.541555 -3.576742 4
-35.632992 -24.458765 -3.583683 3
-35.775120 -24.363882 -3.588972 3
-35.547062 -25.686419 -4.230618 2
-29.099436 -20.865435 -1.795110 1
-29.115768 -20.877146 -2.348234 0
-35.563305 -25.500282 -4.221401 1
-35.399593 -24.605194 -3.491338 6
-35.527927 -24.510895 -3.495535 3
-30.491451 -23.847399 -1.196208 2
-35.626537 -25.882278 -4.162600 3
-35.459499 -25.562908 -4.132108 3
-31.289412 -20.916386 -4.214983 2
-31.024637 -20.575274 -4.169129 1
-35.335670 -24.694536 -3.407934 6
-35.495766 -24.604115 -3.414238 3
-31.195080 -22.947765 -2.388961 1
-36.183510 -24.496227 -2.779726 3
-36.341690 -24.418766 -2.785313 3
-35.519264 -25.541050 -4.050759 2
-36.467487 -24.309746 -2.788107 1
-35.392174 -25.253370 -4.025681 2
-35.384800 -24.656328 -3.326086 31
-36.383770 -26.913742 -3.402835 1
-35.510006 -24.559893 -3.329777 3
-36.070614 -26.478060 -3.364446 1
-35.885128 -24.625347 -4.029738 2
-36.366272 -26.490570 -2.688762 5
-35.864338 -26.124943 -3.336254 1
-36.034393 -24.534037 -4.036376 2
-29.660400 -16.309996 -3.856607 1
-36.184834 -26.155928 -2.668241 4
-36.282551 -24.508835 -2.701004 3
-36.203293 -24.455296 -4.045228 1
-29.046515 -15.834040 -3.769215 10
-35.251522 -25.285109 -3.932812 4
-29.192921 -20.939413 -3.814029 5
-28.905052 -15.619782 -3.743404 8
-37.339062 -28.405621 -4.162357 8
-28.758919 -15.404884 -3.717141 5
-36.654392 -27.462908 -3.355397 3
-36.399441 -27.064171 -3.322957 1
-35.421471 -24.628653 -3.243880 6
-36.533245 -27.163656 -4.038989 1
-35.363304 -24.588207 -3.904643 9
-29.433807 -16.552628 -3.781821 6
-36.187023 -26.700817 -3.294608 0
-35.534489 -24.514507 -3.245980 5
-36.308754 -26.790636 -4.003287 1
-35.515491 -24.501402 -3.911505 7
-29.313742 -16.343969 -3.758672 2
-35.898392 -26.285200 -3.259537 0
-35.628063 -24.386826 -3.914033 6
-29.077724 -16.072962 -3.720831 1
-36.578125 -26.567747 -2.614620 9
-35.789257 -25.994770 -3.240541 1
-28.982344 -15.875252 -3.700798 30
-35.500290 -25.586664 -3.882393 7
-28.862169 -15.672183 -3.678093 8
-28.723402 -15.460777 -3.653163 5
-36.374210 -24.113010 -3.281369 4
-36.771084 -27.676796 -3.994118 6
-36.418907 -27.203207 -3.945008 1
-36.508251 -27.062029 -3.241561 1
-36.150215 -26.796633 -3.905237 1
-35.413105 -24.550451 -3.823006 13
-36.356499 -26.743639 -3.219362 1
-35.872601 -26.387688 -3.864773 1
-35.545513 -24.449848 -3.827601 10
-29.343924 -16.304449 -3.694230 11
-31.429367 -22.942205 -1.576476 4
-36.106239 -26.356140 -3.188626 1
-35.661228 -24.337366 -3.830429 8
-29.180601 -16.074007 -3.666227 11
-35.979637 -26.062136 -3.168989 1
-35.448654 -25.677515 -3.798717 5
-35.845860 -24.271288 -3.840681 7
-29.078791 -15.879294 -3.646099 11
-28.962725 -15.684923 -3.624659 8
-28.813339 -15.467705 -3.598844 6
-31.137657 -23.373709 -2.702070 3
-36.774609 -27.605127 -3.901695 4
-36.519249 -27.204720 -3.160400 2
-36.463230 -27.162991 -3.858068 4
-35.418503 -24.688051 -3.746841 6
-36.421234 -26.914913 -3.142953 2
-36.253105 -26.790668 -3.824926 1
-35.572018 -24.592690 -3.753067 7
-35.968605 -26.377106 -3.784681 1
-35.707939 -24.493679 -3.757908 4
-29.188803 -16.172276 -3.607419 13
-35.898041 -26.123610 -3.081196 2
-35.803982 -26.055161 -3.757288 4
-29.080561 -15.973306 -3.586783 15
-35.534115 -25.660076 -3.719072 3
-28.967777 -15.773416 -3.565717 6
-35.307190 -25.299826 -3.685591 1
-35.325287 -24.729513 -3.658874 10
-35.464798 -24.633976 -3.663947 6
-28.952730 -17.508146 -4.244339 4
-35.586655 -24.534918 -3.667667 6
-29.467934 -16.429266 -3.581775 101
-35.728970 -24.440332 -3.673078 5
-29.235527 -16.159523 -3.546303 11
-29.130615 -15.962419 -3.526456 11
-29.028135 -15.768209 -3.507031 7
-29.923164 -18.805717 -4.245551 3
-28.534029 -14.962280 -3.420464 2
-28.409023 -14.764239 -4.300352 2
-28.240915 -14.545649 -4.266805 1
-29.382828 -16.194780 -3.496678 17
-29.236004 -15.974420 -3.472214 24
-29.059967 -15.740210 -3.444433 8
-29.517176 -16.360292 -3.451795 2
-29.280518 -16.089106 -3.417200 2
-27.412844 -12.870872 -4.067656 5
-27.481400 -12.780351 -4.070850 3
-27.571264 -12.699450 -4.077240 3
-27.642876 -12.609819 -4.080967 2
-27.735880 -12.529630 -4.087890 1
-27.879320 -12.471603 -4.102267 1
-27.975592 -12.391809 -4.109722 1
-28.097063 -12.322632 -4.120904 1
-29.168547 -16.111208 -3.884992 1
-28.945133 -15.849618 -3.847472 12
-28.790030 -15.627810 -3.819216 6
-28.002073 -12.486070 -3.846043 24
-28.120268 -12.415406 -3.856001 20
-28.258656 -12.347060 -3.868447 19
-4.878268 -0.415297 -0.029053 0
-4.832311 -0.493575 -0.468575 1
-4.971615 -0.489397 -0.404573 0
-5.415715 -0.473052 -0.356316 27
-4.811487 -0.420273 -0.540896 1
-5.001588 -0.418411 -0.097247 2
-4.990051 -0.241086 -0.491610 3
-5.410752 -0.459014 -0.251332 1
-5.014604 -0.265262 -0.474682 1
-5.156920 -0.418446 -0.479055 1
-5.095781 -0.375015 -0.157896 0
-5.101109 -0.356615 -0.158020 0
-5.043250 -0.495472 -0.068991 1
-5.484000 -0.498216 -0.244274 9
-5.484623 -0.322870 -0.254291 4
-5.580080 -0.465727 -0.076234 3
-5.530025 -0.284879 -0.171116 5
-4.759444 -0.361288 -0.641112 1
-27.421156 2.102245 -2.280375 30
-27.390940 2.099929 -2.703268 101
-27.520676 2.211359 -3.145691 5
-5.541595 -0.414923 -0.407113 0
-27.663208 2.324895 -2.301860 13
-5.028208 -0.283937 -0.446813 1
-4.894636 -0.258400 -0.510839 2
-4.947649 -0.399642 -0.048517 9
-4.919044 -0.150460 -0.512912 4
-4.817952 -0.453223 -0.564197 6
-5.433910 -0.491081 -0.294534 1
-5.019744 -0.435990 -0.116982 1
-5.732577 -0.497904 -0.399343 2
-5.180987 -0.411756 -0.440999 1
-27.576942 2.292444 -1.760375 2
-4.883835 -0.262275 -0.570219 4
-4.864843 -0.171073 -0.038233 2
-4.788335 -0.150814 -0.111226 4
-4.785706 -0.098072 -0.111133 1
-27.522190 2.123506 -2.823382 10
-23.137186 8.869485 -2.054619 2
-22.907990 8.781625 -2.414178 4
-23.250830 10.310151 -0.541653 4
-23.133801 8.844117 -1.957883 2
-23.142653 10.100196 -4.609769 3
-23.190607 10.324169 -2.055798 2
-23.191767 10.324685 -2.448881 2
-23.325575 10.693069 -1.286399 22
-23.344776 10.701872 -1.683215 36
-23.398046 9.075977 -2.323728 1
-14.977713 7.791593 -3.509241 14
-14.907444 7.824591 -3.499473 29
-14.902889 7.892011 -3.505171 30
-14.922222 7.972419 -3.516567 9
-23.424585 9.019549 -2.275542 9
-23.206259 10.298626 -1.175102 1
-23.249063 10.317622 -1.569079 1
-23.159473 8.852077 -1.816374 4
-23.199387 10.328547 -1.517619 5
-23.175356 10.317849 -1.907459 5
-23.207771 10.332280 -3.412166 2
-23.181438 8.797459 -2.536038 2
-23.102533 10.489000 -3.407906 3
-23.342627 10.701392 -1.139120 100
-23.151230 8.883224 -1.768771 2
-23.128984 8.816377 -2.885836 2
-23.212620 10.301946 -0.638405 1
-23.219185 10.304860 -1.029178 3
-23.119724 10.509948 -2.548335 2
-28.844019 16.578661 -3.531946 3
-23.384651 10.733995 -1.389012 4
-28.320301 20.559286 -1.754453 12
-28.440506 20.646551 -2.303499 4
-15.071364 7.779584 -4.876883 33
-15.015476 7.820561 -4.868040 39
-14.694057 7.721749 -4.772978 2
-30.424593 22.949903 -4.267960 7
-14.699618 7.793565 -4.784032 17
-15.199653 7.596828 -4.099905 49
-15.171704 7.652491 -4.099905 32
-14.900985 7.584566 -4.034232 2
-29.303097 16.237623 -3.426561 7
-14.817744 7.610710 -4.019220 11
-14.755224 7.647078 -4.009839 14
-14.747772 7.711917 -4.015468 20
-14.540572 7.671569 -3.966681 1
-14.807545 7.881942 -4.047366 55
-14.843651 7.971104 -4.065192 39
-14.845104 8.042129 -4.073636 10
-14.747283 8.059195 -4.054872 32
-14.761916 8.137591 -4.067068 4
-25.061596 17.783371 -2.785832 3
-25.026924 17.897053 -4.132618 8
-28.343458 20.584408 -1.553926 66
-24.779198 19.675711 -4.645230 2
-24.592379 18.423584 -4.127294 12
-28.270607 20.750135 -1.488198 24
-42.487225 46.666656 -3.285394 4
-41.811363 46.263828 -2.286567 42
-41.598820 46.369148 -2.284222 4
-25.077530 17.819036 -3.586682 7
-41.473770 46.572060 -2.286714 1
-41.326611 46.750725 -2.288033 1
-41.186626 46.937920 -2.289792 43
-43.029625 46.709190 -3.183852 6
-41.631393 48.152203 -3.313675 5
-40.928352 47.691303 -2.304450 25
-42.558849 46.539379 -3.161621 3
-41.749035 46.331219 -2.166983 2
-41.573582 46.478001 -2.166706 1
-41.402981 46.630035 -2.166706 0
-41.266407 46.804249 -2.168095 0
-45.419125 48.336014 -3.197517 4
-42.072376 48.089333 -3.203279 7
-41.065994 47.287708 -2.176151 0
-41.683624 47.998913 -3.187056 4
-43.083900 46.889530 -2.090155 1
-43.054398 46.857422 -3.067698 3
-42.469929 46.562698 -2.068634 2
-42.483894 46.578011 -3.039191 4
-42.251205 46.665306 -3.034761 4
-41.782711 46.489220 -2.051706 1
-42.435081 47.215073 -3.060378 5
-41.790985 46.842567 -3.026286 5
-45.648846 48.358456 -3.077940 12
-41.542191 46.908691 -3.020700 3
-45.301888 48.344685 -3.066473 4
-41.396347 47.090656 -3.022627 2
-44.769932 48.129314 -2.031280 0
-44.112030 47.422047 -2.997676 1
-41.806652 47.910362 -3.065386 3
-44.037189 47.690933 -2.005952 0
-43.737312 47.366177 -2.983990 2
-41.356094 47.746181 -3.045162 4
-43.273201 47.209480 -1.979019 0
-42.907364 46.810368 -2.939050 9
-41.040199 47.733818 -3.034761 3
-41.756893 46.231125 -2.883384 1
-41.713257 46.524471 -1.930958 0
-41.544498 46.336250 -2.880424 1
-45.934803 48.420429 -2.960720 13
-41.462040 46.586712 -2.886528 1
-45.357029 48.163738 -2.934839 8
-41.251316 46.693455 -2.883753 1
-44.916218 48.047268 -1.906122 1
-44.888203 48.017300 -2.915871 4
-41.111523 46.880379 -2.885973 1
-9.031004 10.983582 -1.124104 1
-44.089806 47.511097 -1.878428 0
-40.981407 47.078960 -2.888932 1
-43.509022 47.231277 -1.861047 0
-43.091942 46.778515 -2.821388 7
-42.585823 46.570457 -2.799407 3
-8.601190 11.421630 -0.716802 7
-8.595954 11.414677 -0.936573 3
-41.857521 46.469543 -1.812496 0
-41.644066 46.232567 -2.760231 15
-41.522373 46.422337 -2.762890 9
-45.885777 48.485550 -2.832917 28
-41.386452 46.613052 -2.765194 9
-45.308262 48.228134 -2.808157 10
-41.284031 46.842361 -2.769803 8
-41.151505 47.038506 -2.772462 7
-41.049183 47.286690 -2.777780 4
-43.176987 47.000713 -2.708435 20
-40.956470 47.530663 -2.783275 3
-42.581665 46.695023 -2.681808 5
-41.857204 46.581917 -1.694585 1
-41.578445 46.271694 -2.639918 22
-41.582397 46.618641 -1.690365 27
-41.504345 46.531136 -2.646024 5
-45.629028 48.356052 -2.693578 15
-41.365322 46.718838 -2.648059 0
-41.374168 47.075371 -1.695883 100
-41.203995 47.229702 -1.695992 47
-44.217369 47.553593 -2.630752 0
-41.113701 47.126205 -2.653995 0
-43.964626 47.630692 -1.629436 1
-40.985161 47.327942 -2.656878 0
-43.419693 47.387566 -1.615664 1
-42.210052 46.407795 -2.541533 1
-19.568823 26.130619 -3.529174 4
-42.240429 46.784515 -1.584503 1
-41.755779 46.247730 -2.524369 15
-19.499016 26.237270 -3.533903 3
-41.967266 46.825855 -1.580683 1
-41.636684 46.457005 -2.527446 1
-41.816605 47.003269 -1.581487 1
-46.087914 48.627701 -2.585520 7
-41.495338 46.642159 -2.529227 0
-41.670513 47.186203 -1.582493 1
-45.328728 48.179150 -2.552819 3
-41.406113 46.886806 -2.534246 0
-41.605366 47.461895 -1.586614 1
-41.268242 47.077316 -2.536351 3
-9.023684 10.977019 -1.041018 2
-9.058158 11.018956 -1.789344 1
-41.132160 47.270458 -2.538618 6
-43.172211 46.909992 -2.460269 2
-42.962257 47.026588 -2.458110 2
-40.951035 47.764893 -2.548981 42
-43.411354 47.886150 -1.500624 2
-41.927666 46.249523 -2.409059 3
-43.273010 48.086548 -1.501924 2
-41.707077 46.346428 -2.406128 101
-41.314079 46.921005 -2.412606 101
-41.202290 47.141361 -2.416154 101
-40.849758 47.805256 -2.426643 139
-19.652269 26.382843 -3.428676 32
-19.541138 26.425688 -3.425359 9
-9.042978 10.984079 -1.658776 1
-8.779202 11.071040 -0.545270 2
-8.590498 11.165469 -3.399075 3
-8.592276 11.429715 -1.667114 7
-8.442280 12.131473 -3.566073 1
-8.083340 11.896963 -3.470377 2
-12.953498 36.301430 -4.241604 2
-12.914298 36.243523 -4.010005 33
-12.858077 36.233776 -4.618629 31
-6.015836 38.146122 -3.127448 3
-6.020048 38.172832 -3.727861 3
-12.939454 36.230103 -4.485321 15
-9.669643 38.780037 -4.243064 3
-6.731364 37.607128 -3.020203 5
-12.786085 36.646587 -3.894588 2
-10.063784 36.015289 -4.690928 17
-6.679812 37.618088 -2.946542 18
-6.238506 38.394531 -2.399551 2
-3.859215 39.415939 -4.435348 5
-3.558293 39.312061 -3.807749 2
-5.755069 38.058163 -2.374430 2
-5.760863 38.096478 -2.971455 3
-6.766075 37.562977 -3.460080 36
-6.769197 37.580307 -5.128899 7
-10.023549 39.084534 -4.048742 2
-6.598895 37.724567 -2.805663 5
-3.900855 39.436649 -4.284105 6
0.146048 39.102745 -4.455226 1
0.294936 38.934982 -4.436208 1
-3.294119 39.237041 -3.036660 2
0.436352 38.818390 -4.423077 1
0.577414 38.737053 -4.414020 0
0.719694 38.750576 -4.415832 0
0.860950 38.711914 -4.411756 0
1.004553 38.776035 -4.419454 1
-3.846800 39.438164 -4.206748 7
1.149244 38.859493 -4.429416 2
1.305888 39.077225 -4.454773 3
1.458983 39.338276 -4.485112 3
0.649387 39.245255 -4.395727 2
0.792190 39.190945 -4.389939 2
1.519485 48.675156 -0.943569 2
3.123092 49.723045 -4.131052 4
-3.790504 39.423679 -4.127763 12
-1.201842 37.229328 -5.468531 4
-1.064014 37.186008 -5.461559 7
3.485100 49.664677 -3.359206 3
-0.922885 36.995800 -5.433089 101
-0.785270 36.903969 -5.419145 101
2.841107 36.556541 -4.177652 0
-0.642192 36.827576 -5.407524 101
2.963253 36.479061 -4.169954 0
-0.515485 36.964138 -5.427279 7
3.090201 36.388752 -4.160898 0
-0.377487 36.720425 -5.391255 6
3.223566 36.305367 -4.152747 0
-0.236140 36.666199 -5.383121 7
-3.879922 39.442856 -4.053753 8
3.352941 36.253727 -4.148219 0
-3.879322 39.436760 -4.760323 5
-0.102198 36.825115 -5.406362 3
3.489229 36.276802 -4.152294 0
0.032674 36.702560 -5.388350 7
3.379283 49.594345 -3.258123 4
-3.587242 39.432568 -2.824342 5
3.613091 36.172813 -4.141880 0
-1.022051 37.505154 -5.039441 3
0.167692 36.809044 -5.404038 13
3.750143 36.202808 -4.146860 0
-0.880570 37.338223 -5.016544 4
0.303896 36.966480 -5.427279 4
2.774763 36.749008 -4.127282 2
3.910342 36.445683 -4.176293 0
-0.741686 37.238148 -5.002700 4
0.442602 37.238174 -5.467369 4
2.902576 36.651405 -4.117488 0
4.073755 36.699699 -4.207085 0
-0.603219 37.121700 -4.986725 4
0.582268 37.438114 -5.497001 3
