ply
format ascii 1.0
element vertex 1125
property float x
property float y
property float z
property uchar intensity
end_header
0.838817 47.067173 -4.358696 9
5.427558 47.904655 -4.744136 2
5.197242 45.871841 -5.259874 3
5.580894 47.694660 -4.725333 0
5.356099 45.773540 -5.250818 3
-4.034168 39.619354 -2.763827 4
-3.722256 39.421413 -2.748042 19
3.206985 49.699978 -5.480744 4
5.885263 45.852764 -5.267120 55
4.627489 46.214550 -5.201506 0
6.055884 45.850582 -5.269383 3
4.780831 46.043076 -5.184144 0
6.586557 47.200474 -4.689686 0
4.931278 45.855289 -5.165001 0
6.470916 46.371769 -5.334589 1
6.829523 47.664642 -4.738260 0
5.100632 45.848763 -5.166337 0
6.693256 46.713615 -5.376700 1
5.519907 48.015404 -4.662323 1
7.023285 47.769260 -4.751186 0
5.267280 45.817909 -5.165001 0
6.925704 47.105556 -5.424698 1
5.678493 47.848557 -4.648111 0
7.264791 48.184059 -4.795059 0
5.435176 45.798298 -5.165001 0
7.152820 47.441410 -5.466357 1
7.497272 48.519043 -4.831098 0
7.381882 47.772293 -5.507563 1
5.338137 33.726524 -2.303917 2
5.778207 45.816387 -5.171679 1
7.612844 48.098202 -5.548316 0
5.386225 33.240849 -1.753014 3
6.157609 47.423927 -4.613160 0
5.961961 45.917107 -5.185480 2
6.334908 47.364418 -4.609704 1
5.597853 32.977474 -2.773537 2
6.506295 47.325100 -4.608167 0
4.881428 46.350296 -5.128954 0
6.387064 46.457848 -5.251812 0
9.763847 57.519730 -6.647293 4
6.687501 47.356136 -4.613544 1
5.030162 46.138416 -5.107514 0
6.603433 46.760818 -5.288762 0
5.947658 33.545933 -1.249257 1
0.794591 47.027248 -3.445705 25
5.941738 33.512543 -2.822126 2
0.794815 47.040493 -4.174023 16
6.910718 47.674110 -4.646959 0
0.794108 46.998695 -4.898998 20
5.189435 46.032753 -5.097888 0
6.842067 47.200516 -5.341293 0
5.353980 45.977875 -5.093950 0
7.065303 47.513271 -5.379579 0
7.382450 48.368732 -4.719934 0
7.295070 47.796230 -5.414748 0
6.329544 33.517403 -1.775681 3
4.126201 33.259628 -3.168063 1
7.528550 48.142277 -5.457040 0
1.542973 48.611744 -2.063973 7
5.320819 33.226406 -1.686959 1
6.449327 33.478291 -1.774849 2
3.161796 49.715279 -4.516053 9
6.103581 47.764954 -4.551832 0
1.543236 48.620029 -5.069830 5
1.716620 48.478302 -0.567272 6
6.277049 47.730415 -4.550702 0
6.055680 46.047134 -5.111015 0
6.440740 47.624218 -4.542797 0
4.825338 46.845760 -5.091056 0
6.237731 46.123131 -5.121953 0
5.640038 32.898773 -2.703180 1
6.617439 47.616062 -4.544303 0
4.969997 46.574677 -5.063542 0
6.459280 46.478024 -5.163958 0
0.691306 47.038097 -4.082653 14
6.809359 47.713703 -4.555972 1
5.123210 46.398029 -5.046345 0
6.676212 46.780731 -5.200274 0
7.031512 48.011524 -4.586840 0
5.293233 46.378944 -5.046345 0
6.895449 47.082474 -5.236591 0
7.270726 48.406807 -4.627118 0
5.449687 46.244698 -5.033877 0
7.123481 47.426479 -5.277721 0
7.504448 48.745865 -4.662126 1
7.345658 47.714432 -5.312725 0
5.804349 46.329777 -5.047635 2
7.586764 48.107422 -5.359543 0
5.371239 33.266026 -1.624472 1
5.374900 33.288704 -2.145108 5
6.306425 48.884060 -4.563742 2
3.220279 49.690056 -5.189662 19
5.972591 46.296360 -5.046345 0
5.407317 33.489471 -3.733171 2
5.555851 33.589283 -1.117514 2
6.416412 48.275146 -4.509161 1
13.427580 58.096462 -5.867592 10
6.169175 46.415005 -5.061822 0
6.580365 48.156597 -4.500311 1
13.544806 57.639957 -5.826461 5
4.934711 47.276039 -5.046240 3
6.382864 46.711239 -5.096645 0
5.808053 33.583107 -1.118695 2
6.771220 48.234707 -4.509900 1
13.714358 57.415695 -5.808834 6
5.087436 47.067814 -5.025970 1
6.586091 46.915943 -5.121580 0
17.620647 72.591064 -1.590809 5
5.934582 33.581276 -1.119351 1
5.891065 33.335033 -2.153488 4
0.768864 47.060589 -3.993682 14
6.947395 48.205620 -4.509531 1
13.908742 57.299278 -5.802175 3
0.768876 47.061359 -4.722867 5
5.235166 46.827488 -5.002323 0
6.800549 47.186707 -5.153824 0
7.108883 48.077393 -4.499942 1
14.107224 57.201542 -5.797474 4
5.405849 46.800079 -5.001479 1
7.021732 47.487991 -5.189507 0
6.668897 55.935352 -3.366441 8
15.007070 59.904926 -5.120681 3
7.347140 48.460564 -4.538296 2
14.368052 57.354107 -5.818235 39
3.958859 33.204922 -3.550104 0
7.263099 47.906239 -5.238088 0
15.185833 59.645981 -5.103493 3
14.588170 57.298519 -5.818235 101
4.087300 33.197369 -3.550948 1
7.495277 48.188435 -5.272050 0
15.613788 69.351562 -4.659319 7
3.129869 49.858932 -3.563441 7
15.379402 59.493431 -5.095230 3
3.121827 49.730816 -4.324396 9
3.121536 49.726181 -5.096089 6
5.910745 46.598663 -4.986699 0
3.119155 49.688259 -5.980698 8
15.615565 59.506069 -5.101179 4
15.133086 57.667488 -5.866808 2
6.080982 46.572742 -4.986276 0
4.540833 46.161674 -5.818603 2
5.441046 33.368893 -4.963627 4
15.879729 59.621777 -5.116053 4
15.482657 58.130939 -5.919691 0
6.252169 46.554089 -4.986699 0
4.690650 45.955204 -5.794705 2
16.188633 59.897972 -5.144810 1
15.825441 58.554161 -5.968656 0
5.064092 47.876156 -5.017585 4
6.459740 46.798801 -5.015414 0
4.854043 45.890339 -5.788731 3
16.518747 60.241898 -5.179516 1
5.208358 47.572525 -4.987731 1
6.632897 46.786621 -5.016680 101
5.012703 45.785442 -5.777777 3
16.636135 59.809570 -6.108892 2
5.174679 45.715492 -5.771306 4
5.659034 48.406364 -5.079367 0
5.337591 45.656799 -5.766326 3
7.337637 47.957275 -5.150543 2
14.675890 57.291634 -5.705094 2
7.583584 48.378036 -5.198683 0
5.668698 45.588875 -5.762842 3
14.926864 57.395451 -5.720841 1
4.465210 46.526192 -5.614777 6
5.853902 45.709515 -5.780765 1
5.513224 33.560726 -1.508723 2
21.835379 73.273346 -6.339701 5
4.594350 46.094563 -5.564683 4
6.051994 45.919914 -5.810139 7
22.032341 72.956223 -6.319208 3
6.476737 47.789902 -5.026293 0
13.644114 58.254292 -6.584243 4
4.742028 45.871994 -5.539875 1
6.275691 46.306442 -5.861917 5
22.271599 72.783508 -6.311275 3
13.771411 57.842152 -5.620526 0
6.520154 46.820141 -4.926779 0
13.957913 58.625492 -6.631936 3
4.902515 45.783230 -5.531287 2
22.511065 72.613808 -6.303673 3
13.961781 57.702263 -5.611868 0
6.687210 46.764423 -4.923461 17
5.065475 45.721531 -5.526039 3
6.011935 33.516968 -2.560374 5
22.778248 72.534607 -6.304003 4
14.161766 57.604298 -5.607350 0
5.547934 48.452976 -4.988233 1
6.859718 46.747463 -4.924291 4
5.224434 45.627686 -5.516974 7
23.073519 72.499802 -6.308631 4
14.376087 57.522457 -5.604715 0
3.939276 33.272820 -3.426968 0
7.189126 47.716103 -5.029195 0
5.398193 45.595463 -5.515543 8
23.454035 72.771385 -6.339701 3
5.211487 33.749866 -3.029772 5
14.593680 57.496395 -5.607350 0
7.476498 48.418194 -6.145703 3
29.152710 89.330070 -2.001137 12
5.255464 33.226730 -1.945549 6
23.982788 73.488335 -6.409775 2
14.822206 57.511936 -5.614126 0
7.640640 48.306576 -5.097197 0
14.755278 57.252247 -6.506360 2
7.651429 48.374786 -6.143712 5
5.402408 33.362854 -2.475997 12
15.123614 57.803951 -5.648005 0
13.205385 57.931805 -6.423364 7
14.996216 57.317024 -6.519924 2
4.505194 46.146549 -5.405731 2
7.882604 48.679440 -6.186030 3
30.069275 89.898865 -0.562528 13
6.359221 47.710949 -4.923113 1
13.357459 57.623447 -6.394559 0
4.686316 46.248310 -5.419627 4
6.123247 45.940517 -5.567545 4
22.309624 73.438828 -6.215827 3
15.810121 58.668182 -5.743619 0
6.428172 46.914612 -4.843340 1
13.542114 57.461849 -6.382092 0
4.817611 45.867298 -5.377011 2
6.339028 46.264011 -5.609529 4
22.538761 73.226997 -6.204849 0
14.029000 58.565563 -5.576063 2
13.731323 57.322880 -6.372204 0
4.989985 45.888832 -5.381644 4
6.565567 46.645538 -5.658668 4
22.777332 73.048752 -6.196777 0
14.165373 58.192543 -5.545454 1
16.564379 59.721119 -5.858431 0
18.923302 54.573288 -5.683875 3
6.877745 47.598766 -4.919043 1
13.926283 57.210342 -6.365325 0
5.162138 45.905766 -5.385813 4
6.788171 46.978848 -5.702082 2
23.049717 72.979980 -6.198069 0
14.402468 58.236893 -5.554673 1
7.102337 47.911751 -4.954045 0
14.129191 57.131893 -6.362316 1
5.304225 45.661587 -5.359409 3
7.005152 47.256149 -5.738818 2
23.325550 72.921600 -6.200329 0
14.593501 58.094875 -5.546191 1
7.331110 48.235527 -4.990268 0
14.336557 57.072014 -6.361456 0
7.245740 47.673832 -5.792728 2
20.848946 58.024536 -3.209700 9
23.725842 73.203171 -6.231971 1
14.794787 57.953510 -5.538078 1
14.576249 57.097462 -6.370484 0
5.650175 45.648094 -5.362652 2
7.492369 48.053757 -5.842344 1
5.298322 33.219593 -1.880738 7
24.206116 73.805611 -6.290413 1
14.973024 57.808975 -5.529227 1
14.894127 57.504360 -6.421644 8
5.809984 45.632038 -5.363115 1
7.726367 48.443031 -5.892915 5
15.220251 57.888527 -5.542135 1
21.843363 73.496956 -7.247847 7
13.267975 57.889233 -6.305055 6
15.206923 57.837841 -6.465065 3
6.012299 45.878315 -5.394614 1
8.325421 27.641369 -0.060461 2
15.514474 58.140221 -5.571638 2
13.453879 57.727875 -6.292809 6
6.252055 46.387527 -5.457148 2
22.908407 75.061203 -6.204010 2
6.517321 47.052246 -4.766397 0
13.601181 57.407242 -6.263249 101
6.441656 46.505981 -5.473824 1
21.935570 57.733650 -3.215107 8
13.792874 57.279659 -6.254804 101
16.392914 59.672718 -6.689911 0
6.663544 46.843941 -5.516439 1
19.017237 54.585522 -2.897852 12
35.755360 93.077911 -6.727568 3
14.599551 59.667953 -5.568775 1
16.627514 59.669647 -5.735379 1
6.960945 47.680588 -4.835088 0
14.036754 57.367817 -6.270006 9
19.241884 54.555183 -2.010026 13
36.118275 92.954819 -6.728645 2
14.783356 59.429756 -5.551802 3
14.222362 57.174534 -6.254804 6
7.133310 47.582378 -5.609546 1
27.977049 87.023491 -1.595569 13
34.778713 97.465378 -2.005074 10
36.582752 93.137566 -6.751534 5
23.912003 74.379036 -6.176269 2
15.016690 59.436970 -5.557580 1
7.425580 48.323292 -4.905775 0
14.428899 57.110455 -6.253537 6
7.366797 47.940758 -5.654941 1
36.957733 93.088165 -6.757727 3
15.397778 60.018219 -5.617168 1
5.293504 33.626961 -3.415752 2
14.644051 57.080303 -6.256071 2
15.710656 69.273811 -6.302039 13
15.368638 59.005325 -5.527605 1
15.009564 57.626724 -6.321946 11
5.546632 33.591812 -1.313892 2
15.370931 58.098625 -5.448154 9
21.907837 73.296761 -7.083297 3
15.333475 57.957047 -6.364596 3
15.604431 58.118851 -5.455377 3
22.093204 72.941513 -7.056744 3
16.162882 59.329647 -5.574553 1
22.335861 72.780090 -7.048999 3
13.686640 57.370548 -6.147071 101
16.252432 59.658367 -6.564335 3
5.920513 33.556347 -1.314972 1
46.474148 111.023819 -8.120797 15
5.897473 33.425762 -2.880024 6
14.335186 59.128109 -5.397809 5
22.582363 72.633080 -7.042730 3
13.879013 57.246540 -6.139193 101
16.488995 59.663570 -6.571513 6
36.399094 94.242287 -6.621675 0
14.733821 59.814087 -5.465325 2
16.948956 60.463882 -5.692646 9
22.831671 72.496635 -7.037567 3
14.877515 59.458202 -5.437753 3
23.079079 72.355553 -7.032035 3
18.372860 72.300995 -0.872377 10
23.985033 74.254669 -6.017957 3
23.384520 72.395554 -7.044206 4
48.071270 110.272018 -8.116488 30
24.321501 74.363365 -6.033951 1
24.850889 75.049866 -6.097004 2
15.431440 58.913303 -5.403111 4
21.650740 73.096352 -6.911132 17
15.065845 57.517551 -6.196828 15
34.344604 92.587196 -7.806630 6
21.824587 72.703651 -6.881518 28
25.148767 75.026810 -7.326696 3
13.388486 57.661221 -6.054582 3
15.376731 57.838749 -6.237463 7
46.754837 104.111977 -7.700459 10
34.640305 92.344963 -7.796858 101
15.894012 58.914001 -5.413716 1
22.058453 72.516457 -6.871406 20
13.603392 57.627258 -6.056210 7
15.761673 58.423466 -6.306708 0
47.183914 104.045311 -7.708268 14
22.984573 74.578186 -5.867836 5
14.218573 59.261059 -5.288947 2
22.306494 72.378014 -6.865989 21
13.797806 57.507362 -6.048884 7
16.161612 59.044502 -6.380100 0
18.730812 54.549728 -6.235061 12
18.973341 54.603657 -2.675512 5
18.977274 54.614971 -3.566694 7
23.199514 74.306870 -5.853140 4
14.427182 59.173698 -5.285834 2
22.553814 72.238731 -6.860572 76
13.987751 57.371353 -6.039930 8
16.539700 59.567547 -6.443125 6
42.540787 109.665337 -5.670627 7
36.369949 93.757614 -6.397485 1
23.467812 74.164009 -5.848941 4
31.079771 73.155449 -6.437003 7
22.847847 72.204773 -6.865628 17
14.160067 57.124104 -6.019580 4
16.917217 60.032051 -6.500346 10
31.368334 73.089142 -3.987375 4
36.703136 93.597664 -6.395707 1
47.546734 110.785286 -7.901746 11
23.749216 74.107880 -5.851340 5
36.486805 93.045990 -7.900884 7
23.174339 72.314018 -6.884046 9
14.381001 57.118130 -6.024464 1
28.128874 86.679855 -2.640993 13
48.190601 111.159592 -7.940988 6
23.971430 73.868584 -5.839344 6
23.735571 73.141785 -6.971081 28
15.203296 58.567451 -5.251250 1
24.313122 73.996658 -7.061004 6
14.930285 57.515732 -6.077781 6
46.542149 105.236526 -7.542028 0
61.325108 127.629318 -9.553880 6
21.738203 73.021744 -6.759457 18
15.275843 57.972397 -6.131913 3
8.365138 27.727659 -0.338689 38
46.811977 104.806480 -7.523454 0
61.564327 126.933289 -9.518604 6
34.480186 92.561104 -7.617641 12
21.925137 72.674561 -6.734712 22
13.487503 57.658142 -5.941722 1
15.651674 58.527233 -6.196626 1
47.240330 104.684174 -7.527639 0
34.772045 92.260086 -7.603800 101
16.212641 59.705376 -5.369182 1
22.160904 72.448868 -6.721633 101
13.725381 57.675621 -5.948911 4
23.108404 74.568253 -5.719168 0
35.097179 92.098473 -7.601032 101
16.625050 60.348625 -5.432471 1
22.401525 72.287231 -6.714210 101
13.891771 57.439243 -5.929742 3
16.461426 59.754673 -6.339485 10
36.435425 94.567101 -6.251688 3
23.350492 74.384102 -5.711570 0
41.146965 82.477562 -7.642679 7
14.567400 59.281017 -5.179714 3
22.653196 72.162834 -6.710321 101
14.102204 57.387939 -5.929742 4
16.805622 60.142338 -6.387104 5
36.857136 94.626373 -6.264495 3
41.477139 82.382111 -6.223216 5
23.601212 74.229591 -5.706309 1
41.450775 82.329750 -7.643009 5
14.763340 59.142155 -5.172273 1
14.245934 57.069424 -5.902185 8
18.479626 72.891670 -0.590613 8
58.332134 114.810013 -2.742504 101
41.724567 82.122803 -6.215137 4
23.880451 74.165375 -5.708062 1
41.714329 82.102646 -7.636068 7
14.955520 58.991066 -5.163819 1
14.484350 57.132568 -5.914167 2
28.411011 87.139854 -2.480097 15
42.125423 82.164642 -6.229948 3
24.304224 74.543869 -5.744010 0
40.248581 85.000572 -7.616495 17
41.953136 81.828598 -7.624830 23
15.159710 58.889538 -5.159760 1
23.826918 73.079918 -6.819551 26
14.735328 57.240982 -5.930940 0
18.616999 71.237244 -0.578298 5
59.125793 123.693016 -8.985868 8
42.341934 81.846634 -6.217561 2
42.210644 81.592850 -7.617228 10
15.374438 58.829712 -5.159422 1
21.560886 73.012886 -6.606946 12
24.395603 73.903915 -6.904741 18
15.016476 57.459980 -5.959295 1
46.997009 105.845238 -7.367316 3
59.544064 123.403580 -8.980636 14
15.567478 58.688221 -5.151982 1
21.782642 72.780663 -6.593113 10
25.051464 74.966591 -7.012556 8
15.340246 57.831573 -6.003624 1
47.729271 106.440834 -7.420899 9
60.037895 123.270622 -8.986914 1
34.577682 92.437950 -7.420795 14
15.951345 59.258102 -5.207107 1
22.030746 72.639320 -6.587579 11
15.708322 58.355286 -6.063928 0
34.894245 92.203766 -7.412698 13
16.329020 59.746204 -5.255468 1
22.283730 72.470398 -6.579971 14
16.097008 58.897293 -6.126628 0
35.211994 92.023094 -7.408499 24
39.902561 87.227142 -7.582818 18
40.738178 82.073715 -7.420505 5
22.520754 72.296921 -6.571671 77
16.512680 59.558941 -6.201708 0
40.257122 87.156349 -4.628222 26
57.626511 115.037361 -8.433081 0
35.540405 91.871101 -7.406699 14
40.960148 81.767014 -7.406299 20
22.796375 72.248093 -6.574784 29
16.888161 60.057411 -6.260015 4
27.717113 86.734184 -2.288950 10
58.083126 114.895325 -6.454225 8
58.056767 114.843185 -8.434388 2
36.058487 92.204567 -7.444189 9
41.216396 81.530937 -7.398549 19
23.133810 72.391815 -6.595534 21
27.914164 86.259171 -2.279099 8
41.491390 81.333153 -7.394351 17
23.676268 73.163406 -6.673694 7
28.185308 86.019493 -2.275480 6
41.809284 81.219528 -7.397903 101
12.403444 25.850922 -0.941147 0
42.134254 81.118820 -7.402747 101
21.792046 73.352402 -6.492904 21
21.317081 58.038136 -5.485475 6
21.988359 73.031601 -6.471599 99
34.744419 92.445831 -7.235103 26
22.163883 72.603554 -6.441161 13
35.031494 92.230759 -7.227797 3
22.384226 72.419121 -6.431692 7
18.766518 54.557594 -5.901142 13
19.017220 54.634575 -1.454229 10
19.005005 54.599483 -2.342206 15
35.353569 92.060776 -7.224582 12
40.793537 81.919411 -7.234491 101
22.636402 72.294746 -6.427971 8
26.756313 84.367020 -2.054898 14
42.573849 109.659721 -4.992033 2
19.205378 54.530537 -3.232289 45
35.783161 92.168579 -7.243286 65
41.066658 81.715897 -7.229763 101
22.975931 72.446854 -6.448939 101
27.037237 84.130409 -2.051649 9
27.470755 84.415932 -0.697238 12
41.633331 81.316666 -7.221882 34
59.172791 124.052757 -8.478595 52
41.947563 81.195404 -7.224719 27
21.370081 57.919907 -1.551934 4
47.713810 106.670547 -6.983433 2
48.022266 106.313004 -6.971502 2
34.847500 92.357719 -7.041217 23
48.302235 105.896523 -6.955753 2
35.172974 92.195808 -7.038656 8
35.496300 92.029060 -7.035810 11
40.912586 81.875351 -7.058782 23
15.135152 24.226950 -2.810991 2
14.845176 23.762783 -3.192331 4
35.918884 92.117661 -7.052601 36
41.199829 81.699921 -7.056629 101
15.369945 24.206083 -0.610638 1
15.338554 24.156649 -1.930702 1
36.604473 92.868835 -7.120335 14
41.401321 81.356445 -7.040020 25
15.293131 24.085112 -2.807466 5
22.488495 62.787224 -6.692125 4
21.047386 58.092068 -4.288086 14
41.681011 81.168671 -7.036944 29
59.321724 123.986092 -8.213992 4
42.080982 81.213654 -7.054169 30
21.285736 58.084320 -5.249043 2
59.708767 123.574051 -8.201823 6
21.431431 57.794037 -4.277839 32
60.222549 123.479988 -8.210175 5
31.835691 77.384811 -7.261970 35
23.059706 61.492699 -6.589889 10
47.260983 104.244263 -8.385133 1
39.974693 87.320358 -5.554192 8
46.519299 110.762436 -8.569219 76
47.768932 104.346016 -8.407344 33
31.477770 74.948555 -7.054811 50
40.274368 87.129761 -5.551420 10
46.794044 110.282669 -8.545313 31
40.284061 87.150734 -7.033739 20
41.026436 81.824417 -6.882448 32
47.174698 110.003174 -8.537628 35
46.194633 98.938446 -7.999354 1
41.235825 81.459877 -6.865053 41
47.648926 109.994278 -8.550435 66
46.834198 99.356636 -8.046991 1
41.508709 81.258461 -6.860854 65
41.868397 81.226326 -6.871051 32
46.254131 104.664291 -8.162246 24
42.237606 81.210342 -6.882748 26
46.508968 104.206223 -8.139762 101
46.846325 103.936844 -8.132078 101
46.192039 110.609924 -8.318898 82
47.283157 103.887909 -8.141754 59
40.898460 82.036789 -6.715471 101
41.127151 81.743790 -6.703781 53
47.356518 109.981728 -8.310312 81
41.305473 81.354172 -6.684199 101
41.607014 81.209343 -6.684784 101
45.977711 104.611130 -7.930356 32
42.057808 81.318283 -6.706995 101
15.431269 23.933630 -2.691875 201
15.540513 24.103065 -4.667533 9
60.408104 125.283669 -7.776159 7
46.334911 104.383560 -7.925925 36
14.968104 24.511105 -0.005013 1
60.817947 124.960861 -7.769907 13
46.643734 104.049171 -7.913463 87
61.312527 124.812401 -7.774596 8
47.052746 103.939308 -7.918170 59
41.085083 82.109436 -6.549149 20
41.378567 81.944061 -6.548010 3
41.482983 81.407913 -6.517274 5
42.300819 82.230804 -6.596107 4
42.243988 81.420387 -6.542888 15
52.342163 107.099007 -8.272926 25
41.787506 81.674004 -6.367049 9
42.114029 81.573486 -6.371202 10
42.531929 81.647392 -7.811506 6
14.961706 24.359896 -2.536299 8
15.166250 24.282387 -0.774692 4
15.157067 24.267685 -1.654779 5
15.163151 24.277424 -3.590636 3
15.320072 24.133120 -2.979204 12
15.357720 24.192427 -3.594619 3
-26.723391 -29.077755 -3.274631 0
-26.813541 -28.962055 -3.272648 0
-26.575356 -29.259226 -3.201066 2
-26.650116 -29.126333 -3.197191 2
-26.756689 -29.028458 -3.197191 1
-26.865238 -28.922585 -3.196868 1
-27.563848 -31.164022 -4.578517 1
-27.376347 -30.724373 -4.528636 1
-26.827925 -29.668154 -3.162055 3
-26.863998 -29.490019 -3.153545 2
-26.934145 -29.350243 -3.149131 1
-27.028009 -29.236679 -3.147555 1
-27.372498 -28.963810 -3.150392 2
-27.472961 -28.857519 -3.149762 1
-27.036411 -29.826418 -3.104634 2
-26.989574 -29.556305 -3.086795 1
-27.127419 -29.489477 -3.090178 1
-27.173267 -29.333168 -3.083719 1
-27.507450 -29.036503 -3.084641 2
-27.605436 -28.926826 -3.083719 1
-27.359066 -30.333101 -3.071429 5
-27.761026 -28.877203 -3.089255 4
-27.408365 -30.164722 -3.064531 4
-42.697514 -36.166592 -2.912956 0
-27.160540 -29.672749 -3.024642 3
-27.377275 -29.690298 -3.036639 2
-27.628569 -29.319733 -3.029141 4
-27.760550 -29.244314 -3.031840 3
-41.443378 -38.159889 -0.117990 4
-27.848255 -29.122190 -3.029741 4
-42.609650 -36.266209 -2.805122 4
-27.926764 -30.671745 -3.038884 5
-27.923038 -30.442764 -3.026317 4
-44.588638 -39.570957 -3.792475 5
-28.407431 -30.073633 -3.030700 6
-26.600143 -29.790380 -3.466018 4
-32.086620 -23.557894 -2.072217 0
-47.106861 -34.320675 -3.932493 15
-46.941250 -33.937359 -3.908258 3
-46.900826 -33.647049 -3.004870 14
-47.256653 -33.902321 -3.924145 5
-42.909458 -37.154926 -3.501428 2
-26.671642 -29.563679 -3.378515 0
-31.272245 -23.421885 -1.958739 2
-26.455444 -29.108841 -3.337594 0
-26.860716 -29.337976 -3.375133 0
-31.124924 -22.781673 -1.933704 2
-46.743317 -33.951019 -3.786580 5
-30.448627 -23.446907 -0.670801 3
-31.378588 -22.615969 -1.939111 1
-46.724953 -33.676792 -3.775069 5
-31.205566 -23.428942 -2.407186 1
-31.379997 -23.202192 -1.806299 2
-47.220921 -34.647858 -3.612995 5
-47.011906 -34.230179 -3.587382 6
-30.933411 -23.883053 -0.532056 4
-31.094461 -23.645628 -3.541337 5
-29.199373 -20.773159 -3.317979 2
-30.758499 -22.860779 -2.290268 6
-31.130466 -22.960575 -1.715948 4
-31.897675 -21.995684 -4.188664 4
-46.922306 -34.079777 -3.465707 8
-42.752342 -36.635437 -3.039353 0
-31.214602 -23.497992 -3.466334 6
-31.222422 -23.503878 -4.073030 17
-47.291885 -34.526321 -3.386466 11
-46.729305 -33.853718 -3.337272 8
-30.772381 -23.735590 -0.305234 4
-31.083614 -23.794443 -0.908842 3
-46.790668 -33.533405 -3.218445 10
-31.109274 -23.814085 -2.718963 5
-29.122461 -20.871155 -3.664658 6
-31.211096 -23.531191 -3.922144 8
-30.481110 -22.806097 -2.055057 2
-46.861504 -34.264797 -4.028873 7
-24.766787 -10.989615 -4.409868 1
-21.406809 -9.099431 -2.153718 2
-26.494267 -12.147362 -3.914832 5
-24.759678 -9.498396 -4.316055 1
-26.278717 -11.932156 -3.876493 16
-26.181259 -11.772359 -3.855726 21
-26.077335 -11.616377 -3.834427 20
-25.956512 -11.448720 -3.810465 10
-25.847679 -11.282366 -3.788101 15
-24.283791 -8.808829 -4.204249 1
-24.271318 -8.703768 -4.196539 1
-26.243229 -11.762254 -3.607563 6
-24.713137 -9.516677 -3.557002 14
-24.978758 -9.900876 -3.370578 21
-24.377195 -8.813838 -3.113913 16
-21.484795 -8.180194 -1.950678 1
-24.691851 -9.401259 -3.080386 13
-21.548584 -7.755423 -1.943238 3
-5.281470 -0.442199 -0.357597 42
-5.833720 -0.445396 -0.394757 0
-5.029596 -0.365469 -0.107394 2
-4.807231 -0.466440 -0.540896 2
-5.484241 -0.297589 -0.201394 3
-5.539650 -0.476082 -0.364426 59
-4.948448 -0.352276 -0.478561 0
-4.897532 -0.276558 -0.549355 4
-4.833265 -0.237398 -0.093760 4
-4.778667 -0.048875 -0.101773 1
-5.500875 -0.363245 -0.350704 1
-5.492108 -0.323215 -0.265224 1
-5.526482 -0.480492 -0.086176 3
-5.013590 -0.380404 -0.000878 8
-5.456914 -0.487112 -0.243034 2
-5.489113 -0.314481 -0.254476 1
-4.795256 -0.410340 -0.646437 1
-4.916285 -0.173312 -0.531805 4
-5.033799 -0.406071 -0.136653 0
-5.516225 -0.404309 -0.234720 1
-4.987944 -0.488017 -0.048986 5
-4.913946 -0.269743 -0.512912 2
-4.787471 -0.415314 -0.577269 9
-4.826099 -0.123172 -0.056456 3
-5.002887 -0.445087 -0.116611 1
-5.470397 -0.486680 -0.296475 7
-5.044329 -0.430144 -0.117539 1
-27.527073 2.230248 -3.039218 5
-5.525947 -0.018517 -0.149529 12
-4.895504 -0.326359 -0.416312 1
-4.948114 -0.329867 -0.497606 2
-4.906055 -0.290959 -0.114104 4
-4.846744 -0.099662 -0.047383 1
-4.932500 -0.257119 -0.495609 3
-27.554714 2.062668 -4.056660 2
-4.774074 -0.063161 -0.120021 1
-4.769845 -0.091085 -0.110762 1
-12.874667 1.807586 -2.115940 0
-5.358381 -0.043392 -0.124410 100
-27.548971 2.133324 -3.466169 14
-27.512110 2.231934 -2.876788 9
-27.417028 2.098091 -2.333171 101
-27.492851 2.103893 -3.214719 6
-23.306503 8.976418 -2.457659 1
-23.116472 8.903229 -2.822383 1
-21.263109 9.097570 -0.137244 5
-23.132643 10.505134 -0.541057 1
-23.051556 10.570374 -0.150488 9
-23.174583 8.901456 -2.346685 58
-23.194750 10.308557 -0.833149 2
-23.212517 10.316452 -4.134211 1
-23.336796 10.784106 -1.635432 11
-18.048573 10.026747 -4.291515 2
-17.895544 10.027737 -4.263838 1
-17.766617 10.041229 -4.241860 1
-17.675255 10.075253 -4.228835 1
-17.577091 10.104838 -4.214183 1
-17.441687 10.112226 -4.190576 1
-17.360558 10.150384 -4.179994 2
-17.309742 10.205994 -4.176738 2
-17.258757 10.261358 -4.173482 2
-17.184080 10.302399 -4.164527 2
-17.124289 10.356141 -4.159644 3
-17.086218 10.418831 -4.159644 3
-17.037909 10.475237 -4.157202 3
-23.133980 8.830306 -2.974605 2
-16.986088 10.529357 -4.153945 3
-16.937416 10.585320 -4.151504 3
-16.898506 10.647325 -4.151504 3
-29.461763 16.198090 -3.699918 6
-16.846144 10.700794 -4.148247 3
-16.810110 10.764575 -4.149061 2
-16.763966 10.821863 -4.147433 2
-23.188946 10.308884 -1.076929 3
-23.224590 10.324730 -2.254920 5
-23.215652 10.320757 -2.647905 7
-16.717615 10.878973 -4.145805 2
-16.684181 10.944466 -4.147433 3
-16.617825 10.988259 -4.140921 3
-22.933043 8.792146 -2.464469 5
-16.564405 11.040399 -4.137665 3
-16.523827 11.101042 -4.137665 3
-16.490807 11.171001 -4.140107 3
-16.430346 11.218114 -4.135223 4
-16.405254 11.289356 -4.139293 5
-22.647812 10.879235 -2.229115 4
-16.354103 11.342724 -4.136851 7
-16.312428 11.402576 -4.136851 14
-16.286531 11.473570 -4.140921 11
-23.127979 10.526381 -0.248369 2
-17.344492 11.509695 -3.800169 0
-16.247564 11.535450 -4.141735 4
-24.984457 17.876572 -3.500244 7
-17.053610 11.406922 -3.745572 0
-16.205173 11.594927 -4.141735 4
-27.671103 17.406565 -3.597531 1
-16.988846 11.453958 -3.740544 0
-16.162565 11.654248 -4.141735 4
-16.845865 11.447574 -3.718274 0
-16.119749 11.713398 -4.141735 4
-28.374138 20.777378 -2.372852 14
-16.742107 11.466995 -3.704625 1
-16.076706 11.772405 -4.141735 4
-16.648151 11.492518 -3.693132 1
-16.039749 11.835903 -4.143363 4
-23.203812 10.295116 -0.589369 2
-16.560698 11.521993 -3.683074 2
-15.999405 11.896945 -4.144177 4
-28.789125 21.571512 -2.427245 30
-24.613949 18.443079 -3.504319 2
-16.515137 11.580352 -3.682356 3
-15.955694 11.955503 -4.144177 4
-27.937481 17.194670 -3.546371 4
-16.450079 11.624921 -3.677328 3
-15.911760 12.013915 -4.144177 5
-16.404163 11.682840 -3.676609 2
-15.867628 12.072144 -4.144177 5
-16.358034 11.740595 -3.675891 7
-15.829490 12.134991 -4.145805 5
-16.316017 11.805630 -3.676609 6
-15.785874 12.198080 -4.146619 5
-29.426632 16.189457 -3.500410 11
-16.272646 11.865341 -3.676609 6
-15.753428 12.265469 -4.149875 7
-16.238552 11.931906 -3.678764 7
-15.711440 12.325555 -4.150690 4
-22.630993 10.850733 -2.129581 1
-16.185226 11.984313 -3.676609 5
-15.653873 12.373340 -4.147433 4
-16.166426 12.062376 -3.682356 5
-15.617607 12.437945 -4.149875 3
-30.470135 22.909254 -4.269295 4
-16.118961 12.119191 -3.681638 2
-15.584131 12.504910 -4.153131 4
-16.074430 12.178191 -3.681638 2
-15.553418 12.574263 -4.157202 12
-25.017900 17.866179 -3.383132 2
-16.028702 12.231829 -3.680919 3
-15.512476 12.630939 -4.158016 9
-16.005594 12.307288 -3.685948 2
-15.487270 12.705101 -4.163713 7
-15.966598 12.370694 -3.687385 2
-15.449651 12.769267 -4.166155 6
-15.939762 12.443656 -3.691695 2
-15.408769 12.830817 -4.167784 6
-15.918785 12.521460 -3.697442 2
-15.379636 12.902312 -4.172668 6
-15.894369 12.596834 -3.702470 2
-15.341214 12.966184 -4.175110 6
-15.881927 12.682004 -3.710372 1
-15.296578 13.024853 -4.175924 5
-15.908914 12.799331 -3.727613 0
-15.266567 13.096132 -4.180808 5
-25.083241 17.819818 -3.326254 6
-30.347694 23.045197 -4.193473 2
-25.213461 17.912331 -4.540647 6
-15.877176 12.869949 -3.731205 0
-15.233277 13.164808 -4.184878 4
-15.893905 12.980320 -3.746291 0
-15.190834 13.225691 -4.186506 5
-30.179171 23.267954 -1.250839 2
-15.949537 13.123490 -3.770715 0
-15.183479 13.317430 -4.197902 127
-16.032307 13.295153 -3.802324 0
-15.146908 13.388597 -4.201972 248
-16.134453 13.479976 -3.838242 1
-15.074331 13.423191 -4.195460 13
-16.455221 13.850702 -3.926601 17
-15.036691 13.488817 -4.198717 3
-17.516905 9.784258 -4.841078 2
-17.430109 9.819762 -4.827005 6
-17.366959 9.868206 -4.819499 8
-30.400328 22.975771 -4.119448 5
-13.147034 12.057185 -3.707862 8
-17.317169 9.924073 -4.815747 12
-12.961804 11.975065 -3.667975 1
-17.260483 9.975800 -4.810117 10
-12.900626 12.006480 -3.663091 0
-17.217089 10.035075 -4.808241 2
-12.759398 11.962607 -3.635414 0
-17.156729 10.084314 -4.801673 5
-17.122995 10.149117 -4.802612 3
-17.089024 10.213799 -4.803550 6
-12.236913 11.728223 -3.523080 0
-17.058130 10.280382 -4.805427 50
-12.205111 11.783880 -3.526336 11
-17.063532 10.369090 -4.817623 2
-30.476162 22.914618 -4.047971 3
-12.083233 11.752078 -3.503543 8
-12.003715 11.760653 -3.492961 8
-16.940754 10.465275 -4.804488 2
-11.943809 11.788063 -3.488077 11
-16.889086 10.519068 -4.800735 2
-11.853300 11.784826 -3.474238 16
-11.818332 11.836505 -3.476681 24
-16.814802 10.644677 -4.801673 9
-28.403961 20.764208 -1.493116 35
-11.783141 11.888082 -3.479123 30
-16.785511 10.712505 -4.804488 8
-11.736747 11.928396 -3.478309 30
-16.752676 10.778160 -4.806365 10
-11.696334 11.978975 -3.479937 33
-16.701385 10.836054 -4.803550 5
-11.668076 12.033792 -3.484007 33
-16.699255 10.917697 -4.813870 4
-11.637467 12.090589 -3.488077 24
-16.649385 10.972415 -4.811056 6
-11.609305 12.150151 -3.492961 12
-16.612293 11.035520 -4.811994 7
-11.573348 12.206003 -3.496217 10
-16.563339 11.094893 -4.810117 8
-11.546776 12.263438 -3.501101 4
-16.518061 11.148296 -4.808241 9
-11.515652 12.324845 -3.505985 1
-16.481569 11.216002 -4.810117 9
-11.486379 12.384201 -3.510869 1
-16.449968 11.282937 -4.812932 10
-11.430296 12.414695 -3.507613 0
-16.398905 11.336524 -4.810117 8
-25.215267 18.775721 -2.728340 4
-11.390005 12.462287 -3.509241 0
-16.376390 11.409886 -4.815747 6
-11.365301 12.527156 -3.515754 0
-16.315365 11.456429 -4.810117 4
-11.335032 12.586190 -3.520638 0
-16.270088 11.513909 -4.809179 3
-11.301479 12.637349 -3.523894 0
-16.242470 11.579650 -4.812932 3
-11.273665 12.704089 -3.530406 0
-16.178938 11.628319 -4.807302 3
-11.237015 12.752180 -3.532848 0
-16.150846 11.693850 -4.811056 3
-12.909717 9.982090 -4.692286 0
-11.185391 12.792283 -3.532034 0
-16.118391 11.764945 -4.814808 3
-12.910712 10.062304 -4.706656 8
-11.158964 12.856856 -3.538546 0
-16.072025 11.821641 -4.813870 3
-12.801180 10.052578 -4.680128 11
-11.134776 12.924372 -3.545872 0
-16.034842 11.885097 -4.815747 3
-12.697930 10.046949 -4.655809 19
-11.107696 12.988905 -3.552384 0
-15.991176 11.943784 -4.815747 3
-12.630962 10.069455 -4.644755 33
-11.049872 13.017588 -3.549128 0
-15.956609 12.009333 -4.818561 3
-12.563998 10.091613 -4.633702 30
-10.997043 13.052009 -3.547500 1
-15.906291 12.063034 -4.816685 4
-12.547846 10.154520 -4.641440 30
-10.974257 13.122266 -3.555640 18
-15.883601 12.137775 -4.823252 8
-12.516504 10.205297 -4.643650 19
-10.948592 13.189529 -3.562967 32
-13.515985 10.407218 -4.115854 4
-12.479008 10.251112 -4.643650 2
-10.890218 13.217477 -3.559711 26
-13.336432 10.347039 -4.072697 9
-12.473932 10.323741 -4.655809 2
-10.846662 13.263364 -3.561338 28
-13.252470 10.359926 -4.058625 10
-12.412391 10.349693 -4.646966 1
-10.837470 13.351679 -3.574363 9
-13.147210 10.355494 -4.037984 10
-12.598081 10.583035 -4.730974 1
-13.078700 10.379448 -4.028602 9
-12.362596 10.462759 -4.656915 2
-13.011424 10.407726 -4.020159 7
-12.339883 10.525115 -4.663547 1
-8.750612 11.030242 -0.083552 0
-12.942916 10.430944 -4.010777 9
-12.307056 10.575282 -4.665758 3
-12.870193 10.446656 -3.999518 11
-12.275877 10.623209 -4.667968 3
-12.819782 10.483910 -3.995766 12
-12.233964 10.665604 -4.666863 0
-12.767427 10.523167 -3.992013 13
-12.192918 10.712503 -4.666863 0
-8.587225 11.156381 -0.516237 1
-12.713818 10.557467 -3.987322 9
-12.150697 10.754570 -4.665758 1
-12.672056 10.601498 -3.986383 6
-12.122677 10.809263 -4.670179 1
-12.594461 10.615296 -3.974187 5
-12.094414 10.863900 -4.674601 1
-12.502121 10.616080 -3.957300 5
-12.159986 11.003591 -4.715499 1
-12.430621 10.634030 -3.946980 7
-12.042865 10.978165 -4.685654 1
-12.370947 10.661747 -3.940412 9
-11.999717 11.019627 -4.684549 1
-12.322974 10.699372 -3.937598 12
-11.976174 11.079200 -4.691181 1
-12.271973 10.734224 -3.933845 14
-11.935491 11.123017 -4.691181 1
-12.250053 10.794552 -3.939474 20
-11.922672 11.192999 -4.702235 1
-12.219124 10.847132 -3.942288 26
-11.889938 11.244554 -4.705551 1
-12.185083 10.897025 -3.944165 40
-11.856998 11.296010 -4.708867 0
-12.136396 10.933802 -3.941350 52
-11.829386 11.352697 -4.714394 0
-12.122158 11.001729 -3.949794 53
-11.798754 11.406664 -4.718815 0
-8.835419 11.116405 -0.029740 1
-12.262547 11.211384 -4.008900 5
-11.754108 11.447152 -4.717710 0
-12.009720 11.061320 -3.939474 3
-11.734025 11.511697 -4.726552 0
-12.217090 11.335354 -4.021097 1
-11.699960 11.562732 -4.729869 0
-11.871499 11.095955 -3.920710 34
-11.665672 11.613675 -4.733185 0
-9.075811 11.025912 -1.543826 9
-11.779794 11.091409 -3.903823 43
-11.639317 11.672685 -4.739817 0
-11.741886 11.137184 -3.904761 18
-11.612684 11.731657 -4.746449 0
-11.886538 11.357440 -3.966681 8
-11.569606 11.774144 -4.746449 1
-11.836423 11.392843 -3.963867 24
-11.539791 11.830232 -4.751976 1
-8.560311 11.443643 -0.909138 2
-11.816922 11.457801 -3.971373 31
-11.515077 11.891777 -4.759714 1
-8.780578 11.074760 -0.436748 1
-11.788759 11.514618 -3.976064 50
-11.463423 11.925584 -4.756398 1
-11.727071 11.538661 -3.969496 52
-11.427595 11.975867 -4.759714 1
-11.684704 11.581562 -3.969496 56
-11.407420 12.042787 -4.769662 1
-8.087460 11.926296 -2.630665 1
-11.666939 11.649042 -3.977940 49
-11.373737 12.095721 -4.774084 1
-8.593386 11.175276 -0.435636 3
-8.634572 11.228835 -0.655609 1
-11.605680 11.677203 -3.972311 50
-11.573729 11.730733 -3.976064 56
-11.538815 11.781408 -3.978878 54
-8.589816 11.428507 -1.545545 7
-8.581521 11.417472 -2.096890 2
-11.509112 11.837559 -3.983569 59
-11.465645 11.879665 -3.983569 56
-11.440860 11.941261 -3.990136 68
-11.397013 11.983116 -3.990136 65
-11.369035 12.041770 -3.995766 73
-11.319507 12.077681 -3.993889 76
-11.055323 12.567185 -4.812771 1
-11.298994 12.144717 -4.002333 76
-10.988951 12.584465 -4.803928 1
-11.264960 12.197473 -4.006085 69
-10.960381 12.644987 -4.811666 1
-11.225439 12.244410 -4.007962 73
-11.196190 12.302724 -4.013591 67
-10.899854 12.762988 -4.826036 1
-11.151020 12.343679 -4.013591 69
-10.935030 12.899625 -4.862513 1
-11.116083 12.396050 -4.017344 67
-11.083505 12.451227 -4.022035 63
-10.795820 12.926326 -4.842616 5
-8.143639 11.983461 -2.127103 1
-11.050665 12.506340 -4.026726 69
-10.765542 12.986528 -4.850354 7
-11.027830 12.573065 -4.035170 48
-10.715431 13.022927 -4.849248 2
-10.981676 12.613399 -4.035170 70
-10.674926 13.071044 -4.852565 1
-10.950624 12.671217 -4.040799 68
-10.906955 12.719072 -4.042675 66
-8.583809 11.481737 -1.271861 3
-8.547277 11.432873 -1.487736 4
-10.872865 12.773771 -4.047366 66
-10.833504 12.822445 -4.050181 64
-10.808918 12.888883 -4.058625 70
-10.771561 12.940366 -4.062377 60
-10.736438 12.994747 -4.067068 62
-10.710933 13.061069 -4.075512 57
-10.694896 13.139447 -4.087708 53
-10.673541 13.211831 -4.098029 50
-10.644510 13.275131 -4.105535 47
-10.617582 13.341429 -4.113978 48
-10.406368 39.231239 -3.993989 2
-10.432212 39.328667 -4.635899 8
-6.775315 37.595268 -3.167537 4
-6.772948 37.582134 -3.757782 3
-6.515169 37.734615 -2.583694 1
-11.942610 35.771526 -4.730758 24
-6.017082 38.180126 -3.204888 8
-6.014907 38.166325 -3.802046 3
-6.016244 38.174812 -4.403153 6
-12.953018 36.280075 -4.627694 28
-5.715243 38.077934 -2.597966 2
-12.691811 36.843052 -4.681127 25
-12.067814 35.883606 -3.872230 3
-11.920341 35.879852 -4.541819 6
-13.039883 36.291195 -4.495975 5
-10.757945 37.711128 -4.087128 8
-6.780309 37.502975 -2.424452 9
-6.790620 37.560005 -3.017366 3
-6.799286 37.607941 -3.612630 3
-12.826321 36.556610 -3.887399 2
-11.392252 37.977245 -4.055382 18
-10.446681 39.311298 -4.239302 15
-6.035298 38.157127 -3.053932 5
-6.038457 38.177097 -3.653661 6
-11.021103 37.767532 -4.024042 3
-6.039538 38.183933 -4.254293 3
-5.731409 38.040897 -2.447307 3
-6.619998 37.663063 -3.540726 3
-10.527994 39.269112 -4.158353 27
-11.173704 37.979637 -3.972464 2
-9.971066 38.896820 -4.107071 4
-6.709618 37.625706 -3.464775 7
-6.086030 38.162720 -5.190667 6
-3.585140 39.409267 -2.517397 3
-3.576444 39.313679 -3.731583 3
-3.423375 39.224056 -3.112565 2
-6.799362 37.630962 -4.796974 13
-6.035208 38.225834 -2.238167 6
-6.023894 38.154171 -4.025761 14
-8.564496 39.699593 -4.734994 10
-8.436218 39.812344 -4.744721 7
0.782889 47.014374 -4.627011 6
0.783731 47.064938 -5.363116 5
-6.479312 37.754734 -2.732417 2
1.530936 48.606049 -2.531577 5
1.532170 48.645222 -3.283809 2
0.687900 47.028942 -5.267393 8
-6.056003 38.175743 -3.279764 4
-6.057373 38.184383 -3.879412 3
3.209907 49.718159 -5.676462 6
-3.405692 39.226917 -2.884572 6
0.757105 47.044167 -4.447559 10
4.608236 53.056175 -1.134151 3
2.937742 49.918343 -3.277482 3
4.082241 45.082687 -5.157539 0
4.232896 44.913113 -5.139879 0
4.386992 44.790504 -5.127653 0
4.764720 46.874893 -4.636412 1
4.549976 44.762257 -5.126295 0
4.921052 46.710644 -4.621919 0
4.712748 44.733425 -5.124937 0
5.090849 46.604340 -4.613301 0
0.649653 47.053337 -5.087187 5
4.881446 44.687347 -5.121767 0
2.242082 28.953358 -5.301558 1
